<svg xmlns="http://www.w3.org/2000/svg" width="46" height="30" viewBox="0 0 46 30">
  <g id="pagamento_amex" transform="translate(-470 -3978)">
    <g id="Retângulo_222" data-name="Retângulo 222" transform="translate(470 3978)" fill="#fff" stroke="#e9e9e9" stroke-width="1">
      <rect width="46" height="30" stroke="none"/>
      <rect x="0.5" y="0.5" width="45" height="29" fill="none"/>
    </g>
    <g id="AMEX" transform="translate(472.839 3986.47)">
      <g id="Camada_1" data-name="Camada 1" transform="translate(0 0)">
        <g id="Camada_2" data-name="Camada 2">
          <g id="Camada_1-2" data-name="Camada 1-2">
            <path id="Caminho_31" data-name="Caminho 31" d="M18.89,22.764V16.989a.245.245,0,0,1,.24-.255h6.016a.236.236,0,0,1,.2.1l.42.537a.255.255,0,0,0,.354.042.179.179,0,0,0,.042-.042l.424-.547a.255.255,0,0,1,.193-.094h23.28a.25.25,0,0,1,.25.25v4.714a.943.943,0,0,1-.679.9,4.512,4.512,0,0,1-1.094.193H35.81a.255.255,0,0,1-.193-.094l-.255-.321a.245.245,0,0,0-.349-.033.24.24,0,0,0-.094.189h0a.245.245,0,0,1-.245.25H32.637a.25.25,0,0,1-.25-.25V21.51a.245.245,0,0,0-.245-.245.184.184,0,0,0-.071,0,3.05,3.05,0,0,1-.773.1h-.613a.245.245,0,0,0-.25.245v.905a.245.245,0,0,1-.245.25H26.73a.231.231,0,0,1-.2-.1l-.41-.547a.255.255,0,0,0-.354-.047.222.222,0,0,0-.047.047l-.424.552a.255.255,0,0,1-.2.1Z" transform="translate(-9.984 -8.843)" fill="#016fd0" fill-rule="evenodd"/>
            <path id="Caminho_32" data-name="Caminho 32" d="M0,6.025,2.89,0H5.379l.816,1.886V0H9.287l.471,1.358L10.23,0h13.9V.684A2.979,2.979,0,0,1,26.052,0h4.507l.806,1.886V0h2.579l.717,1.065V0h2.612V6.025h-2.6l-.684-1.065V6.025H30.172l-.382-.943h-1l-.377.943H25.826a2.532,2.532,0,0,1-1.692-.669v.669H20.244l-.773-.943v.943H5.011L4.63,5.082H3.607l-.377.943Z" transform="translate(0 0)" fill="#016fd0" fill-rule="evenodd"/>
            <path id="Caminho_33" data-name="Caminho 33" d="M5.032,1.57,3.09,6.086H4.358l.358-.905h2.1l.358.905H8.469L6.5,1.57Zm.717,1.051L6.39,4.2H5.112Z" transform="translate(-1.633 -0.83)" fill="#fff" fill-rule="evenodd"/>
            <path id="Caminho_34" data-name="Caminho 34" d="M14.73,6.086V1.57l1.8.009,1.042,2.909L18.591,1.57h1.777V6.086H19.242V2.758L18.049,6.086h-.99l-1.2-3.328V6.086Z" transform="translate(-7.786 -0.83)" fill="#fff" fill-rule="evenodd"/>
            <path id="Caminho_35" data-name="Caminho 35" d="M28.33,6.086V1.57h3.682V2.579H29.471v.773h2.484V4.3H29.471v.8h2.541v.981Z" transform="translate(-14.974 -0.83)" fill="#fff" fill-rule="evenodd"/>
            <path id="Caminho_36" data-name="Caminho 36" d="M37.54,1.565V6.081h1.131v-1.6h.471l1.353,1.6h1.381L40.383,4.417a1.367,1.367,0,0,0,1.235-1.386,1.457,1.457,0,0,0-1.575-1.466Zm1.131,1.014h1.278a.519.519,0,0,1,.537.471.514.514,0,0,1-.519.471H38.662V2.578Z" transform="translate(-19.842 -0.824)" fill="#fff" fill-rule="evenodd"/>
            <path id="Caminho_37" data-name="Caminho 37" d="M48.325,6.086H47.17V1.57h1.155V6.086Z" transform="translate(-24.932 -0.83)" fill="#fff" fill-rule="evenodd"/>
            <path id="Caminho_38" data-name="Caminho 38" d="M52.963,6.086h-.25A1.987,1.987,0,0,1,50.78,3.847,2.079,2.079,0,0,1,53.019,1.57h1.249V2.64H52.977a1.084,1.084,0,0,0-1.051,1.216A1.1,1.1,0,0,0,53.142,5.1h.3l-.471.985Z" transform="translate(-26.84 -0.83)" fill="#fff" fill-rule="evenodd"/>
            <path id="Caminho_39" data-name="Caminho 39" d="M58.438,1.57,56.5,6.086h1.263l.358-.905h2.084l.354.905h1.292L59.913,1.57Zm.721,1.051L59.8,4.2H58.518Z" transform="translate(-29.864 -0.83)" fill="#fff" fill-rule="evenodd"/>
            <path id="Caminho_40" data-name="Caminho 40" d="M68.13,6.086V1.57h1.433L71.4,4.408V1.57h1.127V6.086H71.138L69.257,3.178V6.086Z" transform="translate(-36.011 -0.83)" fill="#fff" fill-rule="evenodd"/>
            <path id="Caminho_41" data-name="Caminho 41" d="M20.52,22.836V18.32H24.2v1.009H21.661V20.1h2.48v.952h-2.48v.8H24.2v.981Z" transform="translate(-10.846 -9.683)" fill="#fff" fill-rule="evenodd"/>
            <path id="Caminho_42" data-name="Caminho 42" d="M58.79,22.836V18.32h3.677v1.009H59.926V20.1H62.4v.952h-2.47v.8h2.541v.981Z" transform="translate(-31.074 -9.683)" fill="#fff" fill-rule="evenodd"/>
            <path id="Caminho_43" data-name="Caminho 43" d="M28.582,22.836l1.8-2.23L28.54,18.32h1.424l1.094,1.414,1.094-1.414h1.367l-1.81,2.258,1.8,2.258H32.081L31.02,21.446l-1.032,1.391Z" transform="translate(-15.085 -9.683)" fill="#fff" fill-rule="evenodd"/>
            <path id="Caminho_44" data-name="Caminho 44" d="M39.35,18.32v4.516h1.16V21.422H41.7a1.562,1.562,0,0,0,1.768-1.57,1.49,1.49,0,0,0-1.622-1.518Zm1.16,1.023h1.254a.509.509,0,0,1,.552.471.25.25,0,0,1,0,.061.523.523,0,0,1-.523.519H40.51V19.357Z" transform="translate(-20.799 -9.683)" fill="#fff" fill-rule="evenodd"/>
            <path id="Caminho_45" data-name="Caminho 45" d="M49.11,18.315v4.516h1.127V21.223h.471l1.353,1.608h1.381l-1.494-1.664a1.377,1.377,0,0,0,1.235-1.386,1.457,1.457,0,0,0-1.575-1.466Zm1.127,1.009h1.282a.523.523,0,0,1,.533.471.5.5,0,0,1-.5.471H50.241v-.943Z" transform="translate(-25.958 -9.678)" fill="#fff" fill-rule="evenodd"/>
            <path id="Caminho_46" data-name="Caminho 46" d="M67.537,22.847v-.981H69.8c.335,0,.471-.179.471-.382s-.146-.377-.471-.377H68.777A1.263,1.263,0,0,1,67.4,19.754c0-.726.471-1.414,1.768-1.414h2.2l-.471,1.018H69c-.358,0-.471.193-.471.372a.387.387,0,0,0,.387.391h1.1a1.235,1.235,0,0,1,1.414,1.3,1.353,1.353,0,0,1-1.471,1.414Z" transform="translate(-35.621 -9.694)" fill="#fff" fill-rule="evenodd"/>
            <path id="Caminho_47" data-name="Caminho 47" d="M76.3,22.847v-.981H78.46c.335,0,.471-.179.471-.382s-.146-.377-.471-.377h-.943a1.263,1.263,0,0,1-1.381-1.353c0-.726.471-1.414,1.768-1.414h2.173l-.471,1.018H77.748c-.363,0-.471.193-.471.372a.391.391,0,0,0,.391.391h.995a1.235,1.235,0,0,1,1.414,1.3,1.353,1.353,0,0,1-1.471,1.414Z" transform="translate(-40.24 -9.694)" fill="#fff" fill-rule="evenodd"/>
          </g>
        </g>
      </g>
    </g>
  </g>
</svg>
