<svg xmlns="http://www.w3.org/2000/svg" width="46" height="30" viewBox="0 0 46 30">
  <g id="pagamento_dinner" transform="translate(-573 -3978)">
    <g id="Retângulo_222" data-name="Retângulo 222" transform="translate(573 3978)" fill="#fff" stroke="#e9e9e9" stroke-width="1">
      <rect width="46" height="30" stroke="none"/>
      <rect x="0.5" y="0.5" width="45" height="29" fill="none"/>
    </g>
    <g id="DINNERS" transform="translate(580 3982.003)">
      <g id="Camada_1" data-name="Camada 1" transform="translate(0 0)">
        <g id="Camada_2" data-name="Camada 2">
          <g id="_Camada_" data-name=" Camada ">
            <path id="Caminho_70" data-name="Caminho 70" d="M19.634,12.517a6.517,6.517,0,0,0,6.543-6.2A6.388,6.388,0,0,0,19.634,0H16.676a6.174,6.174,0,0,0-6.307,6.314,6.27,6.27,0,0,0,6.307,6.2Z" transform="translate(-2.673 0.003)" fill="#0064a7"/>
            <path id="Caminho_71" data-name="Caminho 71" d="M18.221,9.794V3.036a3.63,3.63,0,0,1,0,6.78M13.268,6.43A3.638,3.638,0,0,1,15.6,3.044v6.75A3.638,3.638,0,0,1,13.268,6.43M16.92.7a5.73,5.73,0,1,0,5.73,5.73h0A5.73,5.73,0,0,0,16.92.7" transform="translate(-2.887 -0.181)" fill="#fff"/>
            <path id="Caminho_72" data-name="Caminho 72" d="M1.282,21.343c0,.51.37.569.7.569A1.841,1.841,0,0,0,3.87,19.85,1.989,1.989,0,0,0,1.8,17.72H1.282Zm-.636-3.1c0-.6-.311-.562-.606-.562v-.177H1.97A2.41,2.41,0,0,1,4.617,19.82c0,.658-.384,2.307-2.728,2.307H.04v-.17c.392-.044.584-.059.606-.5Z" transform="translate(0.019 -4.558)"/>
            <path id="Caminho_73" data-name="Caminho 73" d="M7.224,18.061a.327.327,0,1,1-.059-.651h.044a.318.318,0,0,1,.318.318.325.325,0,0,1-.318.333M6.47,21.935h.17c.185,0,.318,0,.318-.222V19.924c0-.3-.1-.333-.348-.466v-.133a7.193,7.193,0,0,0,.739-.244.237.237,0,0,1,.118,0s.044,0,.044.089v2.543c0,.222.148.222.333.222h.118v.17H6.529Z" transform="translate(-1.657 -4.536)"/>
            <path id="Caminho_74" data-name="Caminho 74" d="M9.128,20.55c0-.244-.074-.311-.377-.436v-.126c.3-.089.584-.2.872-.318v.5a1.952,1.952,0,0,1,1.146-.5c.562,0,.739.414.739.932v1.7c0,.222.14.222.325.222h.126v.17H10.607v-.17h.118c.185,0,.318,0,.318-.222V20.587c0-.377-.229-.562-.606-.562a1.708,1.708,0,0,0-.739.318V22.3c0,.222.148.222.333.222h.118v.17H8.67v-.17h.118c.185,0,.318,0,.318-.222Z" transform="translate(-2.23 -5.125)"/>
            <path id="Caminho_75" data-name="Caminho 75" d="M14.859,20.65c.163,0,.185-.089.185-.163a.562.562,0,0,0-.577-.606.755.755,0,0,0-.739.739Zm-1.176.214a3.334,3.334,0,0,0,0,.384,1.109,1.109,0,0,0,.976,1.146,1.279,1.279,0,0,0,.895-.444l.089.089a1.538,1.538,0,0,1-1.22.739,1.323,1.323,0,0,1-1.264-1.442c0-1.294.872-1.678,1.331-1.678a1.057,1.057,0,0,1,1.124,1.035v.126l-.059.037Z" transform="translate(-3.398 -5.121)"/>
            <path id="Caminho_76" data-name="Caminho 76" d="M16.68,22.521h.185c.185,0,.318,0,.318-.222V20.443c0-.207-.251-.251-.348-.3v-.1c.481-.2.739-.377.806-.377s.059,0,.059.081v.6h0c.163-.259.444-.68.85-.68a.355.355,0,0,1,.377.34h0a.318.318,0,0,1-.3.34h0c-.2,0-.2-.163-.436-.163a.562.562,0,0,0-.481.555v1.553c0,.214.126.214.318.214h.37v.177H16.68Z" transform="translate(-4.318 -5.122)"/>
            <path id="Caminho_77" data-name="Caminho 77" d="M20.08,21.775a.88.88,0,0,0,.835.813.473.473,0,0,0,.547-.451c0-.784-1.442-.532-1.442-1.6a.9.9,0,0,1,1.02-.843,1.782,1.782,0,0,1,.739.192l.044.673h-.148a.68.68,0,0,0-.739-.651.458.458,0,0,0-.51.436c0,.739,1.53.532,1.53,1.567,0,.444-.348.9-1.139.9a1.715,1.715,0,0,1-.806-.222l-.074-.739Z" transform="translate(-5.167 -5.13)"/>
            <path id="Caminho_78" data-name="Caminho 78" d="M29.316,18.681h-.163a1.264,1.264,0,0,0-1.42-1.087,1.885,1.885,0,0,0-1.863,2.1,2.152,2.152,0,0,0,1.967,2.292,1.346,1.346,0,0,0,1.331-1.146l.155.037-.155.969a3.7,3.7,0,0,1-1.479.348,2.351,2.351,0,0,1-2.521-2.484,2.433,2.433,0,0,1,2.506-2.329,4.813,4.813,0,0,1,1.56.348Z" transform="translate(-6.529 -4.527)"/>
            <path id="Caminho_79" data-name="Caminho 79" d="M31.09,21.8h.126c.185,0,.318,0,.318-.222v-3.7c0-.436-.1-.444-.348-.51v-.111a4.54,4.54,0,0,0,.68-.281.555.555,0,0,1,.148-.074.13.13,0,0,1,.052.1v4.569c0,.214.14.214.333.214h.1v.177H31.06Z" transform="translate(-8.066 -4.405)"/>
            <path id="Caminho_80" data-name="Caminho 80" d="M35.849,22.363c0,.118.067.126.185.126h.259v.133a6.011,6.011,0,0,0-.946.207h-.037V22.3a1.8,1.8,0,0,1-1.168.555.739.739,0,0,1-.739-.791V20.345c0-.177,0-.34-.392-.37v-.133c.237,0,.739-.044.85-.044s.074.044.074.192V21.7c0,.2,0,.739.577.739a1.479,1.479,0,0,0,.8-.4v-1.76c0-.133-.318-.207-.555-.274v-.118c.591-.044.969-.1,1.028-.1s.059.052.059.118Z" transform="translate(-8.574 -5.156)"/>
            <path id="Caminho_81" data-name="Caminho 81" d="M38.323,21.233a.739.739,0,0,0,.68.673c.739,0,1.006-.7,1.006-1.287a1.264,1.264,0,0,0-1.057-1.309,1.043,1.043,0,0,0-.628.311Zm0-1.8a1.686,1.686,0,0,1,1.02-.473,1.287,1.287,0,0,1,1.227,1.39,1.671,1.671,0,0,1-1.582,1.73,1.981,1.981,0,0,1-.917-.229l-.2.155-.133-.067a7.889,7.889,0,0,0,.089-1.183V17.906c0-.436-.1-.444-.348-.51v-.111A4.54,4.54,0,0,0,38.16,17a.555.555,0,0,1,.148-.074.13.13,0,0,1,.052.1Z" transform="translate(-9.739 -4.411)"/>
            <path id="Caminho_82" data-name="Caminho 82" d="M0,28.143H.067c.126,0,.266,0,.266-.207V26.021c0-.185-.133-.2-.266-.2H0V25.71H1.1v.111H1.065c-.126,0-.266,0-.266.207v1.885c0,.185.133.207.266.207h.052v.1H0Z" transform="translate(0.03 -6.699)"/>
            <path id="Caminho_83" data-name="Caminho 83" d="M1.091,28.2v-.067H1.054c-.126,0-.281,0-.281-.222v-1.9c0-.2.148-.222.281-.222h.037V25.72H.019v.074h0c.126,0,.281,0,.281.222V27.9c0,.2-.155.222-.281.222H-.01V28.2H1.054m0,0H-.01v-.14H.056c.126,0,.251,0,.251-.192V26.015c0-.17-.118-.185-.251-.185H-.01v-.14h1.1v.14H1.054c-.126,0-.259,0-.259.192v1.885c0,.17.133.185.259.185h.067v.14Z" transform="translate(0.04 -6.694)"/>
            <path id="Caminho_84" data-name="Caminho 84" d="M4.026,27.517h0v-1.36a.3.3,0,0,0-.259-.333H3.642v-.1h.946v.1H4.537c-.155,0-.325,0-.325.458v1.634a2.958,2.958,0,0,0,0,.362H4.137l-1.856-2.07v1.479c0,.311.059.421.34.421h.037v.1H1.7v-.067h.052c.251,0,.325-.17.325-.458V26.149a.325.325,0,0,0-.325-.325H1.69v-.1h.739Z" transform="translate(-0.411 -6.701)"/>
            <path id="Caminho_85" data-name="Caminho 85" d="M4.032,27.506Zm.074.739h.118a2.743,2.743,0,0,1,0-.348V26.264c0-.429.185-.473.34-.473h0v-.074H3.647v.074h.067a.325.325,0,0,1,.333.3.126.126,0,0,1,0,.052v1.36h0L2.435,25.717H1.717v.074h0a.34.34,0,0,1,.34.34h0v1.516c0,.288-.074.473-.333.473H1.71V28.2h.924v-.067H2.59c-.281,0-.355-.133-.355-.444V26.153Zm.133,0H4.091L2.265,26.235v1.479c0,.311.052.4.325.407h.074v.133H1.71V28.12h.067c.237,0,.3-.155.311-.444V26.131a.311.311,0,0,0-.3-.3H1.71v-.14h.747l1.582,1.782V26.138a.274.274,0,0,0-.3-.318H3.632v-.14h.946v.14H4.542c-.148,0-.3,0-.3.436V27.9a1.989,1.989,0,0,0,0,.362h0Z" transform="translate(-0.416 -6.691)"/>
            <path id="Caminho_86" data-name="Caminho 86" d="M6.184,25.891c-.251,0-.251,0-.333.3H5.74l.044-.3a2.092,2.092,0,0,0,0-.3h.148c0,.1.118.1.214.1H7.966c.1,0,.185,0,.192-.111h.089a.775.775,0,0,1-.037.288,1.952,1.952,0,0,0,0,.3L8.1,26.2c0-.126,0-.348-.266-.348H7.241v1.915c0,.274.126.311.3.311h.074v.1H6.405v-.074h.067c.2,0,.3,0,.3-.3V25.891Z" transform="translate(-1.466 -6.665)"/>
            <path id="Caminho_87" data-name="Caminho 87" d="M7.6,28.207H6.4v-.14h.081c.2,0,.281,0,.288-.288V25.893h.015v1.945c0,.288-.118.318-.318.318H6.415v.081H7.583v-.126H7.531c-.177,0-.318-.044-.318-.325V25.841H7.82c.244,0,.274.207.281.34h.081V25.9a1.627,1.627,0,0,1,0-.274H8.123c0,.1-.118.111-.207.111H6.082c-.089,0-.177,0-.214-.1H5.809a1.893,1.893,0,0,1,0,.288q0,.155,0,.288h.074c.052-.251.081-.325.348-.325h0c-.3.007-.3.007-.377.3H5.72l.044-.3a2.092,2.092,0,0,0,0-.3h.163c0,.089.089.089.185.1H7.96c.1,0,.17,0,.177-.1h.1a.775.775,0,0,1-.037.288,1.878,1.878,0,0,0,0,.288h0l-.126.044h0c0-.133,0-.325-.251-.325H7.243v1.9c0,.266.111.288.281.288h.089v.14Z" transform="translate(-1.461 -6.668)"/>
            <path id="Caminho_88" data-name="Caminho 88" d="M9.287,28.143h.044c.133,0,.266,0,.266-.207V26.021c0-.185-.133-.2-.266-.2H9.287V25.71H11.1v.547h-.111c0-.229-.059-.421-.436-.421h-.488v.976h.421c.222,0,.266-.126.288-.318h.1v.835h-.1c0-.214-.037-.355-.281-.355h-.429v.843c0,.229.207.229.436.229.429,0,.621,0,.739-.436h.1c-.044.192-.089.384-.126.577H9.28Z" transform="translate(-2.389 -6.699)"/>
            <path id="Caminho_89" data-name="Caminho 89" d="M11.192,28.2c.037-.185.074-.37.118-.547h-.074c-.1.407-.311.444-.739.436-.229,0-.451,0-.451-.251v-.88h.444c.259,0,.281.155.3.355h.081v-.4a3.808,3.808,0,0,1,0-.407h-.081c0,.192-.081.325-.3.318h-.444v-.983h.5c.377,0,.444.185.458.414h.074v-.525H9.292v.081h0c.126,0,.281,0,.281.222v1.885c0,.2-.155.214-.281.222h0v.074h1.9m0,0H9.27v-.14h.067c.126,0,.251,0,.251-.185V26.015c0-.17-.118-.185-.251-.185H9.27v-.14h1.811v.229a2.736,2.736,0,0,0,0,.362h0l-.126.037h0c0-.237-.052-.4-.421-.407h-.488v.909h.414c.207,0,.244-.1.266-.3h.14v.421a3.741,3.741,0,0,0,0,.407h-.126c0-.222,0-.34-.266-.34h-.414v.821c0,.222.185.222.421.222.436,0,.606,0,.739-.429h.118c-.052.192-.089.384-.133.569h0Z" transform="translate(-2.386 -6.694)"/>
            <path id="Caminho_90" data-name="Caminho 90" d="M13.064,26.923h.17c.362,0,.555-.133.555-.555a.481.481,0,0,0-.451-.525h-.274Zm-.466-.835c0-.259-.14-.266-.251-.266H12.28V25.71h1.139c.451,0,.858.126.858.636a.68.68,0,0,1-.5.636l.614.924a.436.436,0,0,0,.355.214v.1h-.7a10.1,10.1,0,0,1-.739-1.168h-.237V27.8c0,.281.126.288.288.288h.067v.111H12.287v-.052h.067c.126,0,.251-.059.251-.2Z" transform="translate(-3.171 -6.699)"/>
            <path id="Caminho_91" data-name="Caminho 91" d="M13.236,26.9c.362,0,.54-.126.54-.54a.466.466,0,0,0-.436-.51.126.126,0,0,0-.074,0h-.185V26.9Zm-.17,0h0V25.83h.214a.51.51,0,0,1,.54.481v.059c0,.429-.207.577-.569.577Zm0,.1h.244a11.786,11.786,0,0,0,.739,1.161h.68v-.03a.407.407,0,0,1-.348-.222l-.621-.939h0a.665.665,0,0,0,.5-.621c0-.5-.384-.621-.843-.621H12.29v.074h.052c.111,0,.266,0,.266.3v1.811c0,.148-.133.214-.266.214H12.3V28.2h1.116v-.067h-.052c-.163,0-.311,0-.311-.311v-.791Zm1.678,1.2h-.71a9.952,9.952,0,0,1-.739-1.161h-.214v.739c0,.274.111.274.274.274h.081v.14H12.3v-.14h.081c.126,0,.237-.059.237-.177v-1.8c0-.251-.126-.251-.237-.251H12.3v-.14h1.139c.451,0,.872.126.872.651a.68.68,0,0,1-.5.636l.606.909a.392.392,0,0,0,.34.207h0v.133Z" transform="translate(-3.174 -6.694)"/>
            <path id="Caminho_92" data-name="Caminho 92" d="M18.076,27.514h0v-1.36a.288.288,0,0,0-.311-.333h-.081V25.71h.954v.111h-.052c-.155,0-.325,0-.325.458v1.634a2.957,2.957,0,0,0,0,.362h-.118l-1.856-2.07v1.479c0,.311.059.421.34.421h.037v.1H15.71v-.067h.052c.251,0,.325-.17.325-.458V26.146a.325.325,0,0,0-.325-.325H15.71v-.1h.739Z" transform="translate(-4.065 -6.699)"/>
            <path id="Caminho_93" data-name="Caminho 93" d="M18.094,27.506Zm.074.739h.118a2.743,2.743,0,0,1,0-.348V26.264c0-.429.185-.473.34-.473h.044v-.074h-.917v.074h.059a.318.318,0,0,1,.333.3v1.412h0l-1.619-1.811H15.81v.074h0a.348.348,0,0,1,.348.34h0v1.516c0,.288-.081.473-.34.473H15.78v.081H16.7v-.044h-.022c-.288,0-.355-.126-.355-.436V26.161Zm.133,0h-.14L16.335,26.2v1.479c0,.311.052.4.325.4h.081v.14h-.954v-.14h.067c.237,0,.3-.148.3-.436V26.131a.3.3,0,0,0-.3-.3h-.067v-.14h.747l1.582,1.782V26.138a.281.281,0,0,0-.3-.318h-.1v-.14h.954v.14H18.6c-.148,0-.3,0-.3.444V27.9a2.89,2.89,0,0,0,0,.362h0Z" transform="translate(-4.083 -6.691)"/>
            <path id="Caminho_94" data-name="Caminho 94" d="M20.769,26.088h0l-.333,1.02h.673Zm-.525,1.6a1.744,1.744,0,0,0-.074.281c0,.111.148.133.266.133h.044v.1h-.436a3.157,3.157,0,0,0-.384,0v-.081h0a.325.325,0,0,0,.311-.237l.577-1.656a3.135,3.135,0,0,0,.126-.451,1.9,1.9,0,0,0,.333-.148h0v.089l.665,1.893c.044.126.081.251.133.362a.237.237,0,0,0,.325.148h0v.1H21.094v-.1h.037c.081,0,.222,0,.222-.111a1.079,1.079,0,0,0-.074-.251l-.14-.414h-.813Z" transform="translate(-5.094 -6.678)"/>
            <path id="Caminho_95" data-name="Caminho 95" d="M20.762,26.094Zm-.3,1h.628l-.311-.961Zm-.044,0,.348-1.05h0l.34,1.05Zm.739,1.065h1.006V28.12h0a.251.251,0,0,1-.259-.155,3.438,3.438,0,0,1-.126-.362l-.658-1.885-.037-.089h0a1.25,1.25,0,0,1-.318.148,3.424,3.424,0,0,1-.126.451l-.577,1.656a.348.348,0,0,1-.325.244h0V28.2h.791V28.12h0c-.111,0-.274,0-.281-.14a1.287,1.287,0,0,1,.081-.288h0l.118-.384h.813l.148.429a1.19,1.19,0,0,1,.074.266c0,.111-.155.118-.237.118h0Zm1.02,0H21.139v-.14H21.2c.081,0,.207,0,.207-.089a1.035,1.035,0,0,0-.074-.259l-.133-.4h-.821l-.111.362a1.745,1.745,0,0,0-.074.281c0,.089.133.1.251.1H20.5v.148H19.69V28.12h.037a.311.311,0,0,0,.3-.222l.577-1.656a3.615,3.615,0,0,0,.14-.458,2.218,2.218,0,0,0,.325-.155H21.1a.067.067,0,0,1,.044,0v.089l.665,1.885c.037.126.081.251.126.362a.207.207,0,0,0,.222.133H22.2v.148Z" transform="translate(-5.102 -6.677)"/>
            <path id="Caminho_96" data-name="Caminho 96" d="M23.1,25.9c-.266,0-.281.067-.333.333H22.66c0-.1.037-.207.044-.311a2.093,2.093,0,0,0,0-.3h.089c0,.1.118.1.214.1h1.856c.1,0,.192,0,.2-.111h.081a.775.775,0,0,1-.037.288.8.8,0,0,0,0,.3L25,26.231c0-.126,0-.348-.266-.348h-.591V27.8c0,.274.133.311.3.311h.067v.1H23.325v-.1H23.4c.2,0,.3,0,.3-.3V25.9Z" transform="translate(-5.876 -6.673)"/>
            <path id="Caminho_97" data-name="Caminho 97" d="M24.541,28.2h-1.2v-.14h.089c.2,0,.274,0,.281-.288V25.883h.03v1.945c0,.288-.118.318-.311.318h-.059v.081h1.168V28.1H24.49c-.177,0-.318-.037-.318-.325V25.831h.606c.244,0,.274.207.281.34h.081v-.288a1.627,1.627,0,0,1,.007-.3H25.1c0,.1-.118.111-.214.111H23.033c-.089,0-.177,0-.214-.1H22.76a1.893,1.893,0,0,1,0,.288q0,.155,0,.288h.074c.052-.251.081-.333.348-.325h0c-.266,0-.251.052-.318.318H22.73a.874.874,0,0,1,.037-.3,2.093,2.093,0,0,0,0-.3h.118c0,.089.089.089.185.1h1.871c.1,0,.177,0,.177-.1h.1a.834.834,0,0,1-.037.3.756.756,0,0,0,0,.288h0l-.126.044h0c0-.133,0-.325-.259-.325h-.606v1.9c0,.266.118.288.288.288h.081v.14Z" transform="translate(-5.895 -6.657)"/>
            <path id="Caminho_98" data-name="Caminho 98" d="M26.23,28.143h.052c.126,0,.266,0,.266-.207V26.021c0-.185-.133-.2-.266-.2H26.23V25.71h1.1v.111H27.28c-.126,0-.266,0-.266.207v1.885c0,.185.133.207.266.207h.052v.1h-1.1Z" transform="translate(-6.807 -6.699)"/>
            <path id="Caminho_99" data-name="Caminho 99" d="M27.312,28.2v-.067h-.037c-.126,0-.281,0-.281-.222v-1.9c0-.2.148-.222.281-.222h.037V25.72H26.247v.074h0c.126,0,.281,0,.281.222V27.9c0,.2-.155.222-.281.222h0V28.2h1.065m0,0h-1.1v-.14h.067c.126,0,.251,0,.251-.192V26.015c0-.17-.118-.185-.251-.185H26.21v-.14H27.3v.14h-.059c-.133,0-.259,0-.259.185v1.893c0,.17.118.185.259.185H27.3v.14Z" transform="translate(-6.802 -6.694)"/>
            <path id="Caminho_100" data-name="Caminho 100" d="M29.243,28.13c.7,0,.821-.621.821-1.146s-.281-1.161-.88-1.161-.813.562-.813,1.043c0,.636.288,1.264.872,1.264m-.052-2.462a1.264,1.264,0,0,1,1.375,1.242,1.323,1.323,0,0,1-1.257,1.375h-.1a1.272,1.272,0,0,1-1.346-1.294,1.3,1.3,0,0,1,1.287-1.323h.044" transform="translate(-7.231 -6.687)"/>
            <path id="Caminho_101" data-name="Caminho 101" d="M28.34,26.831c0-.481.192-1.057.835-1.057s.895.651.895,1.176-.126,1.168-.835,1.168h0c.68,0,.8-.606.8-1.131s-.274-1.146-.865-1.146-.8.547-.8,1.028c0,.636.3,1.242.865,1.25h0c-.6,0-.895-.628-.895-1.279m-.51.126a1.331,1.331,0,0,1,1.309-1.346h.044v.037a1.287,1.287,0,0,0-1.316,1.272v.037A1.257,1.257,0,0,0,29.2,28.243a1.309,1.309,0,0,0,1.346-1.368,1.242,1.242,0,0,0-1.36-1.22v-.037a1.279,1.279,0,0,1,1.39,1.257,1.338,1.338,0,0,1-1.279,1.4h-.1a1.294,1.294,0,0,1-1.36-1.309" transform="translate(-7.224 -6.674)"/>
            <path id="Caminho_102" data-name="Caminho 102" d="M33.976,27.514h0v-1.36a.3.3,0,0,0-.251-.333h-.14V25.71h.946v.111h-.044c-.148,0-.318,0-.318.458v1.634a1.99,1.99,0,0,0,0,.362h-.14l-1.856-2.07v1.479c0,.311.059.421.333.421h.059v.1H31.61v-.067h.052c.251,0,.325-.17.325-.458V26.146a.325.325,0,0,0-.325-.325H31.61V25.71h.732Z" transform="translate(-8.209 -6.699)"/>
            <path id="Caminho_103" data-name="Caminho 103" d="M34,27.506Zm.067.739h.118a2.734,2.734,0,0,1,0-.348V26.264c0-.429.177-.473.333-.473h.044v-.074h-.917v.074h.059a.318.318,0,0,1,.333.3v1.412h0l-1.6-1.811h-.717v.074h0a.34.34,0,0,1,.34.34h0v1.516c0,.288-.081.473-.34.473h0v.081h.924v-.044H32.59c-.281,0-.355-.126-.355-.436V26.153Zm.14,0h-.148L32.235,26.2v1.479c0,.311.052.4.318.4h.111v.14H31.71v-.14h.067c.237,0,.3-.148.311-.436V26.131a.311.311,0,0,0-.311-.311H31.71v-.133h.747l1.582,1.782V26.138a.274.274,0,0,0-.3-.318h-.1v-.14H34.6v.14h-.089c-.148,0-.3,0-.311.436V27.9a2.959,2.959,0,0,0,0,.362h0Z" transform="translate(-8.235 -6.691)"/>
            <path id="Caminho_104" data-name="Caminho 104" d="M36.653,26.081h0l-.333,1.02h.673Zm-.525,1.6a1.76,1.76,0,0,0-.081.281c0,.111.155.126.274.126h0V28.2h-.436a3.276,3.276,0,0,0-.384,0v-.081h0a.333.333,0,0,0,.318-.237l.577-1.656a3.135,3.135,0,0,0,.214-.473,1.834,1.834,0,0,0,.325-.148h0v.089l.665,1.893c.044.126.089.251.133.362a.244.244,0,0,0,.237.148h0v.1H36.934v-.081h.044c.081,0,.222,0,.222-.111a1.08,1.08,0,0,0-.074-.251l-.14-.414h-.747Z" transform="translate(-9.223 -6.67)"/>
            <path id="Caminho_105" data-name="Caminho 105" d="M36.349,27.092h.628l-.318-.961Zm-.044,0,.318-1.02h0l.34,1.05Zm.739,1.065h1.006V28.12h0a.244.244,0,0,1-.251-.155,3.438,3.438,0,0,1-.126-.362l-.665-1.885v-.089h0a1.25,1.25,0,0,1-.318.148,4.534,4.534,0,0,1-.133.451l-.673,1.641a.34.34,0,0,1-.333.244h0v.074h.377a3.94,3.94,0,0,1,.414,0V28.12h0c-.118,0-.281,0-.281-.14a2.062,2.062,0,0,1,.074-.288h0l.118-.377H37.1l.148.421A1.168,1.168,0,0,1,37.31,28c0,.111-.155.118-.237.118h0Zm1.02,0H37.029v-.14h.059c.081,0,.207,0,.207-.089a1.478,1.478,0,0,0-.074-.259l-.14-.4H36.26l-.111.362a1.212,1.212,0,0,0-.074.281c0,.089.133.111.251.111h.052v.14h-.821V28.12h0a.311.311,0,0,0,.3-.222l.577-1.656a3.617,3.617,0,0,0,.14-.458,2.292,2.292,0,0,0,.333-.155h0a.044.044,0,0,1,.044,0,.414.414,0,0,0,0,.089l.665,1.885c.044.126.081.251.126.362a.222.222,0,0,0,.222.133h.14v.148Z" transform="translate(-9.236 -6.676)"/>
            <path id="Caminho_106" data-name="Caminho 106" d="M39.9,27.869c0,.148.1.185.214.2a2.092,2.092,0,0,0,.481,0,.488.488,0,0,0,.34-.192.865.865,0,0,0,.118-.251h.1l-.133.606h-1.9v-.089h.052c.126,0,.274,0,.274-.244V26.021c0-.185-.14-.2-.274-.2H39.12V25.71h1.116v.111h-.089c-.14,0-.244,0-.244.192Z" transform="translate(-10.166 -6.699)"/>
            <path id="Caminho_107" data-name="Caminho 107" d="M41,28.193a3.3,3.3,0,0,1,.126-.584h-.074a.88.88,0,0,1-.111.259.555.555,0,0,1-.355.2h-.481a.211.211,0,0,1-.229-.222V26c0-.2.126-.214.251-.214h.081v-.074H39.122v.074h0c.133,0,.288,0,.288.222v1.856c0,.229-.155.251-.288.251h0v.074h1.871m0,0H39.1v-.133h.067c.126,0,.251,0,.251-.229V25.975c0-.17-.126-.185-.251-.185H39.1v-.14h1.116v.14h-.081c-.133,0-.222,0-.222.177v1.856c0,.133.081.17.2.185h.2a1.745,1.745,0,0,0,.274,0,.488.488,0,0,0,.325-.185.739.739,0,0,0,.111-.251h.148l-.133.606h0Z" transform="translate(-10.161 -6.683)"/>
            <path id="Caminho_108" data-name="Caminho 108" d="M41.611,25.95h.052c.044,0,.067,0,.067-.1a.074.074,0,0,0-.059-.081h-.059Zm-.126.207h.059v-.34a.053.053,0,0,0-.059-.052h.2c.067,0,.126,0,.126.1a.118.118,0,0,1-.089.111l.059.089.081.089h-.044s-.067-.081-.133-.177H41.64V26.1H41.7Zm.192.1a.307.307,0,1,0-.3-.3h0a.3.3,0,0,0,.3.311m0-.688a.377.377,0,0,1,.377.384.384.384,0,1,1-.739,0,.37.37,0,0,1,.362-.384h0" transform="translate(-10.734 -6.665)"/>
          </g>
        </g>
      </g>
    </g>
  </g>
</svg>
