<svg xmlns="http://www.w3.org/2000/svg" width="46" height="30" viewBox="0 0 46 30">
  <g id="pagamento_master" transform="translate(-372 -3978)">
    <g id="Retângulo_222" data-name="Retângulo 222" transform="translate(372 3978)" fill="#fff" stroke="#e9e9e9" stroke-width="1">
      <rect width="46" height="30" stroke="none"/>
      <rect x="0.5" y="0.5" width="45" height="29" fill="none"/>
    </g>
    <g id="MASTER" transform="translate(381 3982)">
      <g id="Layer_1" data-name="Layer 1" transform="translate(0 0)">
        <path id="Caminho_13" data-name="Caminho 13" d="M5.415,26.956a1.009,1.009,0,0,0-.292-.19,1.053,1.053,0,0,0-.373-.066H4.53a1.024,1.024,0,0,0-.227.066,1.462,1.462,0,0,0-.212.124.731.731,0,0,0-.168.2.972.972,0,0,0-.314-.307,1.016,1.016,0,0,0-.461-.11.731.731,0,0,0-.175,0,.665.665,0,0,0-.183.051.731.731,0,0,0-.175.1A.461.461,0,0,0,2.468,27v-.278H2v2.384h.49V27.8a.731.731,0,0,1,.044-.256.665.665,0,0,1,.124-.2.673.673,0,0,1,.183-.11.731.731,0,0,1,.219-.044.475.475,0,0,1,.395.154.629.629,0,0,1,.132.453v1.316h.5V27.8a.607.607,0,0,1,.044-.256.548.548,0,0,1,.124-.2.636.636,0,0,1,.175-.11.782.782,0,0,1,.227-.044.431.431,0,0,1,.38.154.673.673,0,0,1,.139.453v1.316h.483V27.643a1.053,1.053,0,0,0-.066-.373.6.6,0,0,0-.175-.314Z" transform="translate(-0.471 -7.144)" fill="#161616"/>
        <path id="Caminho_14" data-name="Caminho 14" d="M9.534,27.066A.877.877,0,0,0,8.8,26.73a1.1,1.1,0,0,0-.819.344,1.265,1.265,0,0,0-.249.38,1.331,1.331,0,0,0,0,.98,1.038,1.038,0,0,0,.249.38,1.155,1.155,0,0,0,.819.344.943.943,0,0,0,.424-.088.921.921,0,0,0,.307-.249v.3h.5v-2.34h-.5Zm0,1.163a.711.711,0,0,1-.958.395.68.68,0,0,1-.219-.161.585.585,0,0,1-.139-.234.848.848,0,0,1,0-.57.826.826,0,0,1,.139-.234.592.592,0,0,1,.219-.161.731.731,0,0,1,.585,0,.68.68,0,0,1,.227.161.848.848,0,0,1,.146.8Z" transform="translate(-1.988 -7.159)" fill="#161616"/>
        <path id="Caminho_15" data-name="Caminho 15" d="M13.426,27.915a1.338,1.338,0,0,0-.592-.227l-.2-.051-.146-.037a.424.424,0,0,1-.124-.044.117.117,0,0,1-.08-.066.2.2,0,0,1-.037-.1.249.249,0,0,1,.117-.2.636.636,0,0,1,.322-.08,1.046,1.046,0,0,1,.212,0,1.682,1.682,0,0,1,.2.044l.168.066.132.066.219-.388a1.506,1.506,0,0,0-.431-.183,2,2,0,0,0-.512-.066,1.243,1.243,0,0,0-.4.058.731.731,0,0,0-.307.146.6.6,0,0,0-.19.234.731.731,0,0,0-.066.314.629.629,0,0,0,.2.461,1.126,1.126,0,0,0,.585.219h.249a.8.8,0,0,1,.3.088.212.212,0,0,1,.1.168.241.241,0,0,1-.132.2.826.826,0,0,1-.395.073,1.009,1.009,0,0,1-.256,0,1.046,1.046,0,0,1-.2-.051,1.155,1.155,0,0,1-.168-.08,1.375,1.375,0,0,1-.132-.088l-.234.38a1.463,1.463,0,0,0,.256.154,1.7,1.7,0,0,0,.271.1,2.318,2.318,0,0,0,.256.044h.2a1.579,1.579,0,0,0,.446-.051,1.3,1.3,0,0,0,.336-.161.665.665,0,0,0,.2-.234.556.556,0,0,0,.073-.3A.5.5,0,0,0,13.426,27.915Z" transform="translate(-3.057 -7.138)" fill="#161616"/>
        <path id="Caminho_16" data-name="Caminho 16" d="M19.857,27.046a.994.994,0,0,0-.351-.249,1.345,1.345,0,0,0-.446-.088,1.214,1.214,0,0,0-.475.088,1.353,1.353,0,0,0-.366.249,1.1,1.1,0,0,0-.234.38,1.462,1.462,0,0,0-.1.5,1.236,1.236,0,0,0,.1.5,1.053,1.053,0,0,0,.241.38,1.119,1.119,0,0,0,.38.241,1.382,1.382,0,0,0,.483.1,1.989,1.989,0,0,0,.5-.066,1.294,1.294,0,0,0,.453-.263l-.249-.358a1.177,1.177,0,0,1-.322.183,1.024,1.024,0,0,1-.351.066.87.87,0,0,1-.234-.037.585.585,0,0,1-.2-.1.885.885,0,0,1-.154-.183.921.921,0,0,1-.1-.271h1.726a.2.2,0,0,1,0-.088.483.483,0,0,0,0-.1,1.382,1.382,0,0,0-.08-.49,1.938,1.938,0,0,0-.227-.395Zm-1.419.687a1.017,1.017,0,0,1,.073-.241.431.431,0,0,1,.124-.175.561.561,0,0,1,.409-.161.556.556,0,0,1,.395.146.731.731,0,0,1,.19.431Z" transform="translate(-4.743 -7.154)" fill="#161616"/>
        <path id="Caminho_17" data-name="Caminho 17" d="M29.082,27.066a.885.885,0,0,0-.731-.336,1.133,1.133,0,0,0-.826.344,1.038,1.038,0,0,0-.249.38,1.331,1.331,0,0,0,0,.98.885.885,0,0,0,.249.38,1.148,1.148,0,0,0,.826.344.943.943,0,0,0,.424-.088.921.921,0,0,0,.307-.249v.3h.5v-2.34h-.5Zm0,1.163a.731.731,0,0,1-.146.234.8.8,0,0,1-.227.161.929.929,0,0,1-.278.051.943.943,0,0,1-.292-.051.731.731,0,0,1-.351-.395.848.848,0,0,1-.007-.57.826.826,0,0,1,.139-.234.512.512,0,0,1,.212-.161.658.658,0,0,1,.292-.058.9.9,0,0,1,.278.058.68.68,0,0,1,.227.161.731.731,0,0,1,.146.234.943.943,0,0,1,.051.292.929.929,0,0,1-.066.278Z" transform="translate(-7.24 -7.159)" fill="#161616"/>
        <path id="Caminho_18" data-name="Caminho 18" d="M16.487,28.378a.563.563,0,0,1-.241.044H16.1c-.044,0-.073-.044-.11-.073a.292.292,0,0,1-.08-.139.614.614,0,0,1,0-.2V26.982h.819v-.461H15.88V25.79h-.5v.731H14.9v.461h.461V28a.936.936,0,0,0,.227.687.841.841,0,0,0,.614.219,1.177,1.177,0,0,0,.395-.066l.212-.1-.168-.424a.314.314,0,0,1-.154.066Z" transform="translate(-3.939 -6.907)" fill="#161616"/>
        <path id="Caminho_19" data-name="Caminho 19" d="M22.893,26.691a.856.856,0,0,0-.388.08.782.782,0,0,0-.285.292v-.307H21.76V29.1h.461V27.8a.731.731,0,0,1,.044-.271,1.134,1.134,0,0,1,.11-.2.461.461,0,0,1,.183-.117.57.57,0,0,1,.219-.051h.307l.146-.483-.124-.037A1.031,1.031,0,0,1,22.893,26.691Z" transform="translate(-5.783 -7.135)" fill="#161616"/>
        <path id="Caminho_20" data-name="Caminho 20" d="M32.516,26.691a.87.87,0,0,0-.38.08.8.8,0,0,0-.292.292v-.307H31.39V29.1h.446V27.8a.731.731,0,0,1,.051-.271,1.134,1.134,0,0,1,.11-.2.49.49,0,0,1,.175-.117.6.6,0,0,1,.227-.051h.307l.139-.483-.117-.037a1.1,1.1,0,0,1-.212.051Z" transform="translate(-8.372 -7.135)" fill="#161616"/>
        <path id="Caminho_21" data-name="Caminho 21" d="M35.446,25.51v1.228a.863.863,0,0,0-.731-.336,1.1,1.1,0,0,0-.841.344,1.265,1.265,0,0,0-.249.38,1.331,1.331,0,0,0,0,.98,1.316,1.316,0,0,0,.249.38,1.148,1.148,0,0,0,.819.344.943.943,0,0,0,.424-.088.9.9,0,0,0,.3-.249v.3h.5V25.51Zm0,2.391a.731.731,0,0,1-.146.234.636.636,0,0,1-.227.161.841.841,0,0,1-.578,0,.68.68,0,0,1-.219-.161.673.673,0,0,1-.132-.234.848.848,0,0,1,0-.57,1.024,1.024,0,0,1,.132-.234.592.592,0,0,1,.219-.161.643.643,0,0,1,.285-.058.987.987,0,0,1,.292.058.563.563,0,0,1,.227.161.731.731,0,0,1,.146.234.775.775,0,0,1,.058.292,1.258,1.258,0,0,1-.058.278Z" transform="translate(-8.947 -6.832)" fill="#161616"/>
        <path id="Caminho_22" data-name="Caminho 22" d="M24.732,27.4a.614.614,0,0,1,.227-.161.775.775,0,0,1,.292-.058h0a.921.921,0,0,1,.314.058.819.819,0,0,1,.241.146l.249-.4a.958.958,0,0,0-.314-.183,1.375,1.375,0,0,0-.994,0,1.192,1.192,0,0,0-.651.643,1.294,1.294,0,0,0,0,.965,1.185,1.185,0,0,0,.651.636,1.375,1.375,0,0,0,.994,0,1.141,1.141,0,0,0,.314-.183l-.249-.4a.629.629,0,0,1-.241.146.958.958,0,0,1-.314.058h0a.775.775,0,0,1-.292-.058.592.592,0,0,1-.227-.154.651.651,0,0,1-.154-.241.775.775,0,0,1,0-.6,2.237,2.237,0,0,1,.154-.212Z" transform="translate(-6.386 -7.152)" fill="#161616"/>
        <path id="Caminho_23" data-name="Caminho 23" d="M38.231,29.5h.1l.08.044a.38.38,0,0,1,.058.08.263.263,0,0,1,0,.183.285.285,0,0,1-.058.073.241.241,0,0,1-.168.066h-.1a.168.168,0,0,1-.073-.051.227.227,0,0,1-.059-.08.263.263,0,0,1,0-.183.212.212,0,0,1,.132-.117Zm0,.417a.11.11,0,0,0,.066,0h.058a.431.431,0,0,0,0-.058.154.154,0,0,0,0-.132v-.058l-.058-.037a.154.154,0,0,0-.139,0l-.051.037a.08.08,0,0,0,0,.058.3.3,0,0,0,0,.132v.058a.088.088,0,0,0,.051,0Zm0-.285a.066.066,0,0,1,.066,0,.059.059,0,0,1,0,.051v.044a.08.08,0,0,1-.044,0l.066.08h-.08l-.051-.08h0v.139h-.058v-.219h.1Zm-.044.051v.044h.029Z" transform="translate(-10.145 -7.904)" fill="#fff"/>
        <path id="Caminho_24" data-name="Caminho 24" d="M10.841,8.765a8.774,8.774,0,0,1,3.32-6.881,8.774,8.774,0,1,0,0,13.71,8.73,8.73,0,0,1-3.32-6.829Z" transform="translate(0.091 0.035)" fill="#ed2026"/>
        <ellipse id="Elipse_1" data-name="Elipse 1" cx="3.32" cy="6.851" rx="3.32" ry="6.851" transform="translate(10.932 1.927)" fill="#f26a21"/>
        <path id="Caminho_25" data-name="Caminho 25" d="M37.965,18.314v-.256h-.1V18h.278v.066h-.11v.256Zm.556,0v-.227l-.08.19h-.11l-.08-.19v.227h-.073V18h.11l.08.212L38.44,18h.117v.322Z" transform="translate(-10.113 -4.813)" fill="#f99f1d"/>
        <path id="Caminho_26" data-name="Caminho 26" d="M24.825,0A8.774,8.774,0,0,0,19.4,1.894a8.73,8.73,0,0,1,1.462,12.269A8.855,8.855,0,0,1,19.4,15.626,8.774,8.774,0,1,0,24.825,0Z" transform="translate(-5.149 0.026)" fill="#f99f1d"/>
      </g>
    </g>
  </g>
</svg>
