<svg xmlns="http://www.w3.org/2000/svg" width="47" height="31" viewBox="0 0 47 31">
  <g id="pagamento_pix" transform="translate(-731.5 -3977.5)">
    <path id="Retângulo_221" data-name="Retângulo 221" d="M0,0H46V30H0Z" transform="translate(732 3978)" fill="#fff" stroke="#e9e9e9" stroke-width="1"/>
    <g id="pagamento-pix" transform="translate(737.434 3988.111)">
      <g id="svg2" transform="translate(0.002 0.003)">
        <g id="g966">
          <g id="g972" transform="translate(14.169 1.881)">
            <g id="path974" transform="translate(0 0)">
              <path id="Caminho_1066" data-name="Caminho 1066" d="M203,36.807a.221.221,0,0,1-.221-.221V29.478a2.59,2.59,0,0,1,2.583-2.583h2.1a2.583,2.583,0,0,1,2.583,2.583v1.513a2.591,2.591,0,0,1-2.583,2.583h-2.965a.221.221,0,0,1,0-.438h2.967a2.153,2.153,0,0,0,2.15-2.147V29.478a2.15,2.15,0,0,0-2.14-2.147h-2.1a2.152,2.152,0,0,0-2.154,2.147v7.109a.221.221,0,0,1-.216.221Z" transform="translate(-202.776 -26.895)" fill="#939598"/>
            </g>
          </g>
          <g id="g976" transform="translate(21.614 1.872)">
            <g id="path978" transform="translate(0 0)">
              <path id="Caminho_1067" data-name="Caminho 1067" d="M311.131,33.579a.221.221,0,0,1-.221-.221V28.044a.754.754,0,0,0-.754-.751h-.909a.221.221,0,0,1,0-.438h.908a1.193,1.193,0,0,1,1.188,1.188v5.314a.221.221,0,0,1-.215.221Z" transform="translate(-309.056 -26.855)" fill="#939598"/>
            </g>
          </g>
          <g id="g980" transform="translate(23.004)">
            <g id="path982" transform="translate(0)">
              <path id="Caminho_1068" data-name="Caminho 1068" d="M329.612,1.273,329.2.859a.262.262,0,0,1,0-.369l.413-.413a.262.262,0,0,1,.369,0l.413.413a.262.262,0,0,1,0,.369l-.413.413a.262.262,0,0,1-.369,0" transform="translate(-329.123 -0.001)" fill="#32bcad"/>
            </g>
          </g>
          <g id="g984" transform="translate(25.182 1.868)">
            <g id="path986" transform="translate(0 0)">
              <path id="Caminho_1069" data-name="Caminho 1069" d="M365.576,30.053a.914.914,0,0,1-.649-.269l-2.112-2.112a1.523,1.523,0,0,0-1.083-.449h-.9a.221.221,0,1,1,0-.438h.9a1.957,1.957,0,0,1,1.393.58l2.113,2.112a.481.481,0,0,0,.68,0l2.1-2.1a1.957,1.957,0,0,1,1.393-.58h.734a.221.221,0,0,1,0,.438h-.734a1.523,1.523,0,0,0-1.084.449l-2.106,2.1A.913.913,0,0,1,365.576,30.053Z" transform="translate(-360.574 -26.782)" fill="#939598"/>
            </g>
          </g>
          <g id="g988" transform="translate(25.182 5.282)">
            <g id="path990" transform="translate(0 0)">
              <path id="Caminho_1070" data-name="Caminho 1070" d="M361.73,78.863h-.9a.221.221,0,1,1,0-.438h.9a1.523,1.523,0,0,0,1.083-.449l2.112-2.112a.921.921,0,0,1,1.3,0l2.1,2.1a1.523,1.523,0,0,0,1.084.451h.734a.221.221,0,0,1,0,.438h-.738a1.957,1.957,0,0,1-1.393-.58l-2.1-2.106a.482.482,0,0,0-.68,0l-2.112,2.112a1.957,1.957,0,0,1-1.393.58Z" transform="translate(-360.573 -75.595)" fill="#939598"/>
            </g>
          </g>
          <g id="g992" transform="translate(2.337 7.36)">
            <g id="path994" transform="translate(0 0)">
              <path id="Caminho_1071" data-name="Caminho 1071" d="M40.159,107.641a1.683,1.683,0,0,1-1.2-.5l-1.733-1.732a.328.328,0,0,0-.455,0l-1.741,1.739a1.686,1.686,0,0,1-1.2.5h-.34l2.194,2.194a1.756,1.756,0,0,0,2.482,0l2.2-2.2Z" transform="translate(-33.489 -105.32)" fill="#32bcad"/>
            </g>
          </g>
          <g id="g996" transform="translate(2.338 0.842)">
            <g id="path998" transform="translate(0 0)">
              <path id="Caminho_1072" data-name="Caminho 1072" d="M33.831,14.8a1.689,1.689,0,0,1,1.2.5l1.74,1.735a.322.322,0,0,0,.455,0L38.959,15.3a1.686,1.686,0,0,1,1.2-.5h.21l-2.2-2.2a1.754,1.754,0,0,0-2.482,0L33.49,14.8Z" transform="translate(-33.49 -12.091)" fill="#32bcad"/>
            </g>
          </g>
          <g id="g1000" transform="translate(0 4.041)">
            <g id="path1002" transform="translate(0 0)">
              <path id="Caminho_1073" data-name="Caminho 1073" d="M11.04,59.188,9.712,57.859a.264.264,0,0,1-.094.019h-.6a1.192,1.192,0,0,0-.839.348L6.439,59.953a.832.832,0,0,1-1.176,0L3.522,58.215a1.193,1.193,0,0,0-.839-.348H1.94a.252.252,0,0,1-.089-.018L.518,59.188a1.756,1.756,0,0,0,0,2.482L1.852,63a.258.258,0,0,1,.089-.018h.742a1.2,1.2,0,0,0,.839-.348L5.263,60.9a.852.852,0,0,1,1.176,0L8.173,62.63a1.2,1.2,0,0,0,.839.348h.6a.25.25,0,0,1,.094.02l1.328-1.328a1.754,1.754,0,0,0,0-2.482" transform="translate(-0.004 -57.849)" fill="#32bcad"/>
            </g>
          </g>
          <g id="g1004" transform="translate(15.795 10.899)">
            <g id="path1006" transform="translate(0 0)">
              <path id="Caminho_1074" data-name="Caminho 1074" d="M226.4,156.03a1.551,1.551,0,0,0-.325.05v.433a.754.754,0,0,0,.254.042c.216,0,.32-.069.32-.265,0-.18-.085-.261-.248-.261m-.4.8v-.856h.058l.006.037a1.692,1.692,0,0,1,.339-.055.334.334,0,0,1,.221.064.326.326,0,0,1,.1.266.3.3,0,0,1-.139.276.545.545,0,0,1-.252.058.909.909,0,0,1-.261-.04v.252Z" transform="translate(-226 -155.958)" fill="#939598"/>
            </g>
          </g>
          <g id="g1008" transform="translate(16.674 10.9)">
            <g id="path1010" transform="translate(0 0)">
              <path id="Caminho_1075" data-name="Caminho 1075" d="M238.982,156.039c-.218,0-.314.069-.314.259s.1.269.314.269.314-.069.314-.259-.1-.269-.314-.269m.28.528a.474.474,0,0,1-.28.069.48.48,0,0,1-.28-.069.3.3,0,0,1-.112-.263.3.3,0,0,1,.112-.264.618.618,0,0,1,.559,0,.369.369,0,0,1,0,.528" transform="translate(-238.589 -155.971)" fill="#939598"/>
            </g>
          </g>
          <g id="g1012" transform="translate(17.563 10.916)">
            <g id="path1014" transform="translate(0)">
              <path id="Caminho_1076" data-name="Caminho 1076" d="M252.112,156.819l-.242-.523h0l-.237.523h-.069l-.259-.629h.08l.216.526h0l.232-.526h.069l.24.526h0l.21-.526h.078l-.259.629Z" transform="translate(-251.3 -156.19)" fill="#939598"/>
            </g>
          </g>
          <g id="g1016" transform="translate(18.789 10.899)">
            <g id="path1018" transform="translate(0 0)">
              <path id="Caminho_1077" data-name="Caminho 1077" d="M269.525,156.024c-.2,0-.27.089-.28.221h.563c-.007-.139-.079-.221-.28-.221m0,.6a.331.331,0,0,1-.242-.6.419.419,0,0,1,.245-.063.438.438,0,0,1,.251.058.319.319,0,0,1,.108.29h-.644c0,.129.045.243.29.243a1.864,1.864,0,0,0,.324-.037v.066a1.9,1.9,0,0,1-.331.039" transform="translate(-269.144 -155.958)" fill="#939598"/>
            </g>
          </g>
          <g id="g1020" transform="translate(19.738 10.899)">
            <g id="path1022" transform="translate(0 0)">
              <path id="Caminho_1078" data-name="Caminho 1078" d="M282.4,156.587v-.629h.058l.007.037a1.1,1.1,0,0,1,.311-.055h.01v.069h-.017a1.036,1.036,0,0,0-.3.05v.525Z" transform="translate(-282.4 -155.94)" fill="#939598"/>
            </g>
          </g>
          <g id="g1024" transform="translate(20.168 10.904)">
            <g id="path1026" transform="translate(0 0)">
              <path id="Caminho_1079" data-name="Caminho 1079" d="M289.265,156.055c-.2,0-.269.089-.28.221h.564c-.007-.139-.08-.221-.28-.221m0,.6a.331.331,0,0,1-.242-.6.419.419,0,0,1,.237-.058.437.437,0,0,1,.251.058.318.318,0,0,1,.108.29h-.638c0,.129.045.243.29.243a1.863,1.863,0,0,0,.324-.037v.066a1.892,1.892,0,0,1-.33.039" transform="translate(-288.885 -155.993)" fill="#939598"/>
            </g>
          </g>
          <g id="g1028" transform="translate(21.055 10.652)">
            <g id="path1030" transform="translate(0 0)">
              <path id="Caminho_1080" data-name="Caminho 1080" d="M301.9,152.785a.751.751,0,0,0-.253-.042c-.218,0-.321.069-.321.264s.085.261.248.261a1.637,1.637,0,0,0,.325-.048Zm.014.536-.007-.038a1.7,1.7,0,0,1-.339.058.29.29,0,0,1-.321-.331.3.3,0,0,1,.139-.275.531.531,0,0,1,.254-.058.935.935,0,0,1,.259.04v-.29h.074v.892Z" transform="translate(-301.248 -152.428)" fill="#939598"/>
            </g>
          </g>
          <g id="g1032" transform="translate(22.461 10.653)">
            <g id="path1034" transform="translate(0)">
              <path id="Caminho_1081" data-name="Caminho 1081" d="M321.749,152.75a1.551,1.551,0,0,0-.325.05v.432a.727.727,0,0,0,.254.044c.217,0,.32-.069.32-.265,0-.18-.085-.261-.248-.261m.187.537a.545.545,0,0,1-.252.058.9.9,0,0,1-.28-.047l0,.03h-.05v-.9h.074v.3a1.765,1.765,0,0,1,.331-.052.335.335,0,0,1,.221.064.325.325,0,0,1,.1.266.3.3,0,0,1-.139.276" transform="translate(-321.351 -152.43)" fill="#939598"/>
            </g>
          </g>
          <g id="g1036" transform="translate(23.269 10.914)">
            <g id="path1038" transform="translate(0 0)">
              <path id="Caminho_1082" data-name="Caminho 1082" d="M332.915,157.032v-.069c.035,0,.074.007.093.007a.191.191,0,0,0,.2-.129l.023-.05-.327-.629h.084l.28.541h0l.267-.541h.083l-.353.7a.255.255,0,0,1-.262.17.685.685,0,0,1-.09-.007" transform="translate(-332.901 -156.161)" fill="#939598"/>
            </g>
          </g>
          <g id="g1040" transform="translate(24.568 10.688)">
            <g id="path1042" transform="translate(0 0)">
              <path id="Caminho_1083" data-name="Caminho 1083" d="M351.876,153.491h-.242v.221h.245c.168,0,.232-.019.232-.111s-.086-.109-.232-.109m-.045-.354h-.2v.221h.2c.166,0,.232-.02.232-.116s-.082-.11-.232-.11m.379.655a.729.729,0,0,1-.4.058h-.369V153h.362a.664.664,0,0,1,.362.055.18.18,0,0,1,.086.17.186.186,0,0,1-.134.188v.007a.194.194,0,0,1,.18.2.184.184,0,0,1-.09.174" transform="translate(-351.446 -152.993)" fill="#939598"/>
            </g>
          </g>
          <g id="g1044" transform="translate(25.595 10.904)">
            <g id="path1046" transform="translate(0 0)">
              <path id="Caminho_1084" data-name="Caminho 1084" d="M366.764,156.326c-.074-.007-.148-.01-.226-.01-.128,0-.174.026-.174.085s.037.085.135.085a1.279,1.279,0,0,0,.263-.038Zm.037.263,0-.038a1.491,1.491,0,0,1-.34.058.328.328,0,0,1-.19-.047.178.178,0,0,1-.069-.151.174.174,0,0,1,.106-.17.568.568,0,0,1,.232-.034,2.213,2.213,0,0,1,.227.008v-.009c0-.1-.065-.13-.241-.13a1.661,1.661,0,0,0-.232.011v-.127c.089-.007.187-.012.269-.012a.532.532,0,0,1,.29.058.236.236,0,0,1,.086.216v.369Z" transform="translate(-366.197 -155.949)" fill="#939598"/>
            </g>
          </g>
          <g id="g1048" transform="translate(26.565 10.907)">
            <g id="path1050" transform="translate(0 0)">
              <path id="Caminho_1085" data-name="Caminho 1085" d="M380.645,156.637v-.348c0-.116-.058-.155-.162-.155a1.16,1.16,0,0,0-.256.04v.464h-.174v-.629h.143l.006.039a1.49,1.49,0,0,1,.337-.05.313.313,0,0,1,.216.064.246.246,0,0,1,.069.2v.384Z" transform="translate(-380.052 -155.997)" fill="#939598"/>
            </g>
          </g>
          <g id="g1052" transform="translate(27.491 10.902)">
            <g id="path1054" transform="translate(0 0)">
              <path id="Caminho_1086" data-name="Caminho 1086" d="M393.659,156.621a.348.348,0,0,1-.232-.066.322.322,0,0,1-.1-.266.3.3,0,0,1,.128-.267.5.5,0,0,1,.275-.062c.069,0,.139,0,.221.012v.134c-.063-.006-.14-.011-.2-.011-.167,0-.245.052-.245.2s.058.194.195.194a1.465,1.465,0,0,0,.263-.032v.129a1.611,1.611,0,0,1-.306.04" transform="translate(-393.327 -155.958)" fill="#939598"/>
            </g>
          </g>
          <g id="g1056" transform="translate(28.228 10.902)">
            <g id="path1058" transform="translate(0 0)">
              <path id="Caminho_1087" data-name="Caminho 1087" d="M404.272,156.105c-.167,0-.24.052-.24.195s.069.2.24.2.238-.051.238-.194-.074-.2-.238-.2m.3.464a.526.526,0,0,1-.3.066.532.532,0,0,1-.3-.066.356.356,0,0,1,0-.53.723.723,0,0,1,.6,0,.29.29,0,0,1,.116.264.3.3,0,0,1-.116.266" transform="translate(-403.852 -155.974)" fill="#939598"/>
            </g>
          </g>
          <g id="g1060" transform="translate(29.637 10.675)">
            <g id="path1062" transform="translate(0 0)">
              <path id="Caminho_1088" data-name="Caminho 1088" d="M424.47,153.637a.469.469,0,0,1-.306-.089.436.436,0,0,1-.133-.355.419.419,0,0,1,.174-.362.659.659,0,0,1,.361-.08c.094,0,.191.007.3.015v.154c-.09-.007-.2-.014-.29-.014-.242,0-.348.092-.348.29s.1.29.275.29a1.893,1.893,0,0,0,.379-.051v.151a2.082,2.082,0,0,1-.41.054" transform="translate(-424.03 -152.75)" fill="#939598"/>
            </g>
          </g>
          <g id="g1064" transform="translate(30.607 10.899)">
            <g id="path1066" transform="translate(0 0)">
              <path id="Caminho_1089" data-name="Caminho 1089" d="M438.288,156.065c-.148,0-.2.052-.21.148h.419c0-.1-.064-.148-.21-.148m-.026.55a.406.406,0,0,1-.266-.069.324.324,0,0,1-.1-.262.318.318,0,0,1,.116-.264.467.467,0,0,1,.275-.066.49.49,0,0,1,.272.063c.1.069.109.181.11.31h-.6c0,.1.058.157.232.157a2.27,2.27,0,0,0,.334-.032v.123a2.414,2.414,0,0,1-.378.041" transform="translate(-437.895 -155.952)" fill="#939598"/>
            </g>
          </g>
          <g id="g1068" transform="translate(31.57 10.9)">
            <g id="path1070" transform="translate(0 0)">
              <path id="Caminho_1090" data-name="Caminho 1090" d="M452.245,156.539v-.345c0-.116-.058-.155-.162-.155a1.163,1.163,0,0,0-.256.04v.464h-.174v-.629h.143l.006.039a1.476,1.476,0,0,1,.335-.058.31.31,0,0,1,.215.064.244.244,0,0,1,.069.2v.382Z" transform="translate(-451.652 -155.894)" fill="#939598"/>
            </g>
          </g>
          <g id="g1072" transform="translate(32.458 10.731)">
            <g id="path1074" transform="translate(0 0)">
              <path id="Caminho_1091" data-name="Caminho 1091" d="M464.755,154.337a.227.227,0,0,1-.2-.089.323.323,0,0,1-.046-.19v-.232h-.126v-.13h.126l.018-.19h.155v.19h.247v.13h-.244v.2a.309.309,0,0,0,.017.12.112.112,0,0,0,.116.058.764.764,0,0,0,.126-.013v.126a.986.986,0,0,1-.181.023" transform="translate(-464.379 -153.505)" fill="#939598"/>
            </g>
          </g>
          <g id="g1076" transform="translate(33.176 10.897)">
            <g id="path1078">
              <path id="Caminho_1092" data-name="Caminho 1092" d="M474.65,156.585v-.629h.143l.007.039a1.088,1.088,0,0,1,.311-.058h.023v.148h-.058a.986.986,0,0,0-.246.032v.464Z" transform="translate(-474.65 -155.937)" fill="#939598"/>
            </g>
          </g>
          <g id="g1080" transform="translate(33.726 10.903)">
            <g id="path1082" transform="translate(0 0)">
              <path id="Caminho_1093" data-name="Caminho 1093" d="M483.09,156.326c-.069-.007-.148-.01-.226-.01-.128,0-.174.026-.174.085s.037.085.136.085a1.276,1.276,0,0,0,.263-.038Zm.038.263,0-.038a1.5,1.5,0,0,1-.34.058.327.327,0,0,1-.19-.046.178.178,0,0,1-.069-.151.174.174,0,0,1,.1-.17.572.572,0,0,1,.232-.034,2.21,2.21,0,0,1,.227.008v-.009c0-.1-.064-.13-.241-.13a1.673,1.673,0,0,0-.232.011v-.127c.089-.007.187-.012.27-.012a.529.529,0,0,1,.29.058.237.237,0,0,1,.086.216v.369Z" transform="translate(-482.523 -155.948)" fill="#939598"/>
            </g>
          </g>
          <g id="path1084" transform="translate(34.695 10.653)">
            <path id="Caminho_1094" data-name="Caminho 1094" d="M496.38,152.43h.174v.892h-.174Z" transform="translate(-496.38 -152.43)" fill="#939598"/>
          </g>
        </g>
      </g>
    </g>
  </g>
</svg>
