<svg xmlns="http://www.w3.org/2000/svg" xmlns:xlink="http://www.w3.org/1999/xlink" width="46" height="30" viewBox="0 0 46 30">
  <defs>
    <linearGradient id="linear-gradient" x1="-2.265" y1="-44.975" x2="0.982" y2="-44.956" gradientUnits="objectBoundingBox">
      <stop offset="0" stop-color="#262860"/>
      <stop offset="1" stop-color="#3d429b"/>
    </linearGradient>
    <linearGradient id="linear-gradient-2" x1="-1.728" y1="-42.997" x2="2.076" y2="-42.978" xlink:href="#linear-gradient"/>
    <linearGradient id="linear-gradient-3" x1="0.147" y1="-44.69" x2="2.622" y2="-44.671" xlink:href="#linear-gradient"/>
    <linearGradient id="linear-gradient-4" x1="-1.971" y1="-44.716" x2="4.403" y2="-44.696" xlink:href="#linear-gradient"/>
  </defs>
  <g id="pagamento_visa" transform="translate(-421 -3978)">
    <g id="Retângulo_222" data-name="Retângulo 222" transform="translate(421 3978)" fill="#fff" stroke="#e9e9e9" stroke-width="1">
      <rect width="46" height="30" stroke="none"/>
      <rect x="0.5" y="0.5" width="45" height="29" fill="none"/>
    </g>
    <g id="VISA" transform="translate(423.925 3986.47)">
      <path id="Caminho_27" data-name="Caminho 27" d="M50.209,12.894H47.177c-.074-.518-.222-1.035-.3-1.553-.074-.222-.074-.3-.37-.3H42.889c-.148,0-.222.074-.3.222-.148.518-.37.961-.518,1.479a.163.163,0,0,1-.148.148H38.6c.222-.518.37-.961.592-1.4C40.6,8.162,42,4.76,43.406,1.433A1.479,1.479,0,0,1,44.959.4h2.662c.074.37.148.739.222,1.183.665,3.327,1.4,6.655,2.07,9.982.074.444.222.813.3,1.257ZM46.29,8.383,45.329,3.8h-.074l-1.7,4.584Z" transform="translate(-10.059 -0.102)" fill="url(#linear-gradient)"/>
      <path id="Caminho_28" data-name="Caminho 28" d="M33.816,0,35,.222c.37.074.739.222,1.109.3-.222.887-.37,1.775-.592,2.662-.518-.148-.961-.3-1.479-.444a3.934,3.934,0,0,0-2.07,0,1.56,1.56,0,0,0-.739.444.7.7,0,0,0-.133.976.569.569,0,0,0,.133.133,3.231,3.231,0,0,0,.813.592c.665.37,1.331.739,2,1.183a2.9,2.9,0,0,1,1.4,2.144,3.7,3.7,0,0,1-1.775,3.845,6.655,6.655,0,0,1-2.884.961,10.182,10.182,0,0,1-4.215-.444c-.074,0-.148-.074-.3-.074a.067.067,0,0,1-.074-.074h0c.222-.887.37-1.775.592-2.736.222.074.444.222.665.3a6.329,6.329,0,0,0,3.327.444,2.292,2.292,0,0,0,.887-.37.9.9,0,0,0,.3-1.242,1.087,1.087,0,0,0-.214-.237,5.575,5.575,0,0,0-1.109-.739c-.592-.37-1.183-.665-1.775-1.035a3.032,3.032,0,0,1-1.338-2.07,3.7,3.7,0,0,1,1.4-3.327A5.915,5.915,0,0,1,32.041.222a.274.274,0,0,0,.222-.074Z" transform="translate(-6.827)" fill="url(#linear-gradient-2)"/>
      <path id="Caminho_29" data-name="Caminho 29" d="M15.232.3a5.8,5.8,0,0,1-.518,1.183c-1.553,3.7-3.106,7.394-4.658,11.165a.333.333,0,0,1-.37.222H6.729c-.222,0-.3-.074-.3-.222l-2.44-9.76A1.8,1.8,0,0,0,2.958,1.63,20.992,20.992,0,0,0,.148.743H0c0-.37,0-.37.37-.37H5.546A1.479,1.479,0,0,1,7.1,1.63L8.429,8.507a2.958,2.958,0,0,1,.074.37.259.259,0,0,1,.074-.148C9.612,5.993,10.722,3.331,11.757.6c.074-.148.148-.222.3-.222H15.01A.274.274,0,0,1,15.232.3Z" transform="translate(0 -0.077)" fill="url(#linear-gradient-3)"/>
      <path id="Caminho_30" data-name="Caminho 30" d="M18.8,12.87C19.687,8.655,20.575,4.515,21.462.3h3.253c-.148.665-.3,1.257-.37,1.849-.739,3.475-1.479,6.877-2.218,10.352-.074.222-.148.3-.37.3H18.8Z" transform="translate(-4.899 -0.078)" fill="url(#linear-gradient-4)"/>
    </g>
  </g>
</svg>
