<svg xmlns="http://www.w3.org/2000/svg" width="46" height="30" viewBox="0 0 46 30">
  <g id="pagamento-hiper" transform="translate(-1133 -3571)">
    <g id="Retângulo_222" data-name="Retângulo 222" transform="translate(1133 3571)" fill="#fff" stroke="#e9e9e9" stroke-width="1">
      <rect width="46" height="30" stroke="none"/>
      <rect x="0.5" y="0.5" width="45" height="29" fill="none"/>
    </g>
    <g id="Camada_2" data-name="Camada 2" transform="translate(1142.002 3574.997)">
      <g id="Camada_1" data-name="Camada 1" transform="translate(-0.002 0.003)">
        <g id="Camada_2-2" data-name="Camada 2">
          <g id="Camada_3" data-name="Camada 3">
            <path id="Caminho_564" data-name="Caminho 564" d="M3.495,22.647H27.6a4.069,4.069,0,0,0,.649-3.337L24.193,3.066a4.054,4.054,0,0,0-4.9-2.944L3.064,4.16A4.069,4.069,0,0,0,.112,9.06Z" transform="translate(0.002 -0.003)" fill="#eb5d15"/>
          </g>
          <g id="Camada_2-2-2" data-name="Camada 2-2" transform="translate(3.059 9.969)">
            <path id="Caminho_565" data-name="Caminho 565" d="M8.187,13.66v2.521H5.756V13.66H4.05v6.877H5.756V17.661H8.187v2.876H9.893V13.66Z" transform="translate(-4.05 -13.32)" fill="#fffbff"/>
            <path id="Caminho_566" data-name="Caminho 566" d="M18.05,15.93c-1.51,0-1.57.808-1.57.808V16.1H15.128v3.827c-.83,0-.808-.928-.808-.928V16.1H12.66v2.853c0,2.136,2.4,2.265,2.4,2.265v1.751h1.631v-1.7c3.148,0,3.51-1.321,3.51-2.627S19.575,15.93,18.05,15.93Zm-.755,4h-.6V17.885a.755.755,0,0,1,.853-.657c.793,0,.974.989.974,1.51s-.151,1.193-1.23,1.193Z" transform="translate(-6.161 -13.877)" fill="#fff"/>
            <path id="Caminho_567" data-name="Caminho 567" d="M14.281,14.1a.891.891,0,1,1-.891-.891A.891.891,0,0,1,14.281,14.1Z" transform="translate(-6.121 -13.21)" fill="#fccf11"/>
            <path id="Caminho_568" data-name="Caminho 568" d="M25.411,15.93c-2.582,0-2.423,2.921-2.423,2.876a2.317,2.317,0,0,0,2.536,2.461,5.994,5.994,0,0,0,1.955-.377l-.159-1.132s-2.65.755-2.876-.679H27.66S28,15.93,25.411,15.93Zm.9,2.046H24.423s-.068-1.057.944-1.057.944,1.057.944,1.057Z" transform="translate(-8.691 -13.877)" fill="#fffbff"/>
            <path id="Caminho_569" data-name="Caminho 569" d="M31.2,16.094H29.69v4.99h1.744V18.238s-.091-1.034,1.344-.755V15.92a1.419,1.419,0,0,0-1.585.808Z" transform="translate(-10.335 -13.867)" fill="#fffbff"/>
          </g>
        </g>
      </g>
    </g>
  </g>
</svg>
