<svg xmlns="http://www.w3.org/2000/svg" width="46" height="30" viewBox="0 0 46 30">
  <g id="pagamento-hipercard" transform="translate(-1073 -3571)">
    <g id="Retângulo_221" data-name="Retângulo 221" transform="translate(1073 3571)" fill="#fff" stroke="#e9e9e9" stroke-width="1">
      <rect width="46" height="30" stroke="none"/>
      <rect x="0.5" y="0.5" width="45" height="29" fill="none"/>
    </g>
    <g id="HIPER" transform="translate(1078.228 3578)">
      <g id="Layer_1" data-name="Layer 1">
        <path id="fundo" d="M9.649,0H6.006C4.4.077,3.07.726,2.7,2.046c-.2.7-.3,1.463-.46,2.185C1.453,7.925.757,11.7,0,15.3H28.348c2.19,0,3.694-.46,4.093-2.2.184-.808.368-1.724.547-2.614.721-3.464,1.427-6.9,2.149-10.483Z" fill="#961b1e" fill-rule="evenodd"/>
        <path id="hipercard" d="M12.262,9.04c.153-.1.353-.578.123-.778a.44.44,0,0,0-.358-.056.45.45,0,0,0-.3.159c-.1.133-.189.512-.036.675S12.165,9.1,12.262,9.04Zm-2.169-.778c-.107.711-.235,1.4-.358,2.1-.793,0-1.6.041-2.364,0,.143-.675.246-1.4.394-2.077H6.911C6.609,10,6.322,11.752,6,13.45h.87c.138-.87.261-1.755.44-2.558a21.072,21.072,0,0,1,2.348,0c-.148.865-.327,1.688-.466,2.558h.87c.281-1.76.573-3.494.926-5.188ZM22.407,9.751a1.172,1.172,0,0,0-1.458.624c.056-.194.077-.425.123-.624h-.68c-.164,1.284-.4,2.486-.639,3.7h.767a14.325,14.325,0,0,1,.389-2.379,1.069,1.069,0,0,1,1.4-.767c.015-.184.061-.358.092-.553Zm.425,2.829a1.872,1.872,0,0,1-.067-.711,2.491,2.491,0,0,1,.512-1.422,1.874,1.874,0,0,1,1.811-.1,3.9,3.9,0,0,1,.092-.6,2.889,2.889,0,0,0-2.527.481,3.07,3.07,0,0,0-.6,2.522c.276.9,1.5.952,2.5.609.041-.179.072-.379.1-.568-.542.271-1.586.4-1.826-.2Zm8.579-2.809a1.164,1.164,0,0,0-1.453.568c.061-.174.067-.409.123-.588H29.4c-.179,1.269-.4,2.5-.655,3.7h.788a8.236,8.236,0,0,1,.179-1.33c.169-1.023.4-2.154,1.6-1.816a3.964,3.964,0,0,1,.092-.532Zm-19.952,0v.056c-.164,1.253-.394,2.456-.639,3.643h.757c.189-1.269.394-2.512.66-3.7ZM18.176,9.7a1.975,1.975,0,0,0-1.351.553,3.07,3.07,0,0,0-.639,2.241c.138,1.228,1.668,1.187,2.9.89a4.877,4.877,0,0,1,.1-.609c-.512.184-1.381.455-1.9.123-.394-.246-.394-.875-.271-1.417.824-.031,1.683,0,2.507,0a2.558,2.558,0,0,0,.067-1.2c-.143-.522-.762-.655-1.392-.6ZM18.9,11.05h-1.78a1.059,1.059,0,0,1,1.023-.89c.542-.041.936.184.773.87ZM15.28,9.772a2,2,0,0,0-1.77.327h0c0-.118.046-.2.051-.317h-.645c-.276,1.821-.6,3.581-.936,5.341h.762c.113-.68.189-1.4.338-2.046.174.68,1.31.547,1.8.286.987-.553,1.75-3.116.42-3.612Zm-.58,2.982c-.4.435-1.412.425-1.489-.307a3.489,3.489,0,0,1,.148-.977c.061-.333.1-.65.159-.946.4-.486,1.586-.553,1.7.271A2.681,2.681,0,0,1,14.7,12.754Zm19.563-4.6A16.616,16.616,0,0,1,33.989,9.8c-1.878-.593-3.018.788-3,2.491a1.361,1.361,0,0,0,.256.9,1.729,1.729,0,0,0,1.883.159,1.535,1.535,0,0,0,.271-.271c.046-.061.128-.225.143-.179a3.551,3.551,0,0,0-.067.553h.686a46.618,46.618,0,0,1,.859-5.29h-.77ZM32.549,13.04c-.512,0-.773-.312-.783-.834,0-.926.389-1.954,1.207-2.046a2.046,2.046,0,0,1,.946.143c-.262,1.034-.175,2.712-1.372,2.733Zm-6.6-3.289c-.036.215-.1.4-.143.609.445-.113,1.852-.46,1.985.143a1.023,1.023,0,0,1-.092.568c-1.269-.118-2.3.087-2.558.992a1.12,1.12,0,0,0,.409,1.366,1.7,1.7,0,0,0,1.934-.553,2.44,2.44,0,0,0-.051.568h.655a9.91,9.91,0,0,1,.194-1.7,7.132,7.132,0,0,0,.225-1.386C28.474,9.383,26.853,9.726,25.952,9.751ZM27.2,12.739c-.394.389-1.5.512-1.386-.43.1-.762.926-.921,1.826-.813a2.307,2.307,0,0,1-.44,1.243Z" transform="translate(-2.93 -3.98)" fill="#fff" fill-rule="evenodd"/>
      </g>
    </g>
  </g>
</svg>
