<svg id="pagamento-visa" xmlns="http://www.w3.org/2000/svg" xmlns:xlink="http://www.w3.org/1999/xlink" width="50.599" height="16.474" viewBox="0 0 50.599 16.474">
  <defs>
    <linearGradient id="linear-gradient" x1="-2.265" y1="-44.975" x2="0.982" y2="-44.956" gradientUnits="objectBoundingBox">
      <stop offset="0" stop-color="#262860"/>
      <stop offset="1" stop-color="#3d429b"/>
    </linearGradient>
    <linearGradient id="linear-gradient-2" x1="-1.728" y1="-42.997" x2="2.076" y2="-42.978" xlink:href="#linear-gradient"/>
    <linearGradient id="linear-gradient-3" x1="0.147" y1="-44.69" x2="2.622" y2="-44.671" xlink:href="#linear-gradient"/>
    <linearGradient id="linear-gradient-4" x1="-1.971" y1="-44.716" x2="4.403" y2="-44.696" xlink:href="#linear-gradient"/>
  </defs>
  <g id="VISA" transform="translate(0)">
    <path id="Caminho_27" data-name="Caminho 27" d="M53.23,16.145H49.407c-.093-.653-.283-1.3-.372-1.956-.093-.283-.093-.372-.466-.372H44c-.187,0-.283.093-.372.283-.187.653-.466,1.212-.653,1.863a.205.205,0,0,1-.187.187H38.6c.283-.653.466-1.212.746-1.771,1.771-4.193,3.539-8.48,5.312-12.672A1.863,1.863,0,0,1,46.613.4h3.355c.093.466.187.932.283,1.491.838,4.193,1.771,8.387,2.609,12.58.093.559.283,1.025.372,1.584ZM48.29,10.461,47.08,4.685h-.093l-2.143,5.776Z" transform="translate(-2.633 -0.026)" fill="url(#linear-gradient)"/>
    <path id="Caminho_28" data-name="Caminho 28" d="M35.8,0l1.491.283c.466.093.932.283,1.4.372-.283,1.118-.466,2.237-.746,3.354-.653-.187-1.212-.372-1.863-.559a4.955,4.955,0,0,0-2.609,0,1.966,1.966,0,0,0-.932.559.876.876,0,0,0-.167,1.23.718.718,0,0,0,.167.167,4.071,4.071,0,0,0,1.025.746c.838.466,1.678.932,2.516,1.491a3.652,3.652,0,0,1,1.771,2.7,4.659,4.659,0,0,1-2.237,4.846A8.387,8.387,0,0,1,31.977,16.4a12.83,12.83,0,0,1-5.312-.559c-.093,0-.187-.093-.372-.093a.084.084,0,0,1-.093-.093h0c.283-1.118.466-2.237.746-3.447.283.093.559.283.838.372a7.976,7.976,0,0,0,4.193.559,2.888,2.888,0,0,0,1.118-.466,1.133,1.133,0,0,0,.372-1.566,1.369,1.369,0,0,0-.27-.3,7.026,7.026,0,0,0-1.4-.932c-.746-.466-1.491-.838-2.237-1.3a3.822,3.822,0,0,1-1.686-2.609,4.659,4.659,0,0,1,1.771-4.193A7.454,7.454,0,0,1,33.562.283.345.345,0,0,0,33.845.19Z" transform="translate(-1.787)" fill="url(#linear-gradient-2)"/>
    <path id="Caminho_29" data-name="Caminho 29" d="M19.2.3a7.315,7.315,0,0,1-.65,1.489c-1.956,4.659-3.913,9.318-5.871,14.071a.425.425,0,0,1-.466.283H8.48c-.283,0-.372-.093-.372-.283L5.031,3.559a2.265,2.265,0,0,0-1.3-1.584A26.454,26.454,0,0,0,.188.856H0C0,.395,0,.395.466.395H6.988A1.863,1.863,0,0,1,8.946,1.979l1.672,8.658a3.728,3.728,0,0,1,.093.466.326.326,0,0,1,.1-.183c1.3-3.444,2.7-6.8,4.006-10.247C14.909.487,15,.39,15.187.39h3.727A.345.345,0,0,1,19.2.3Z" transform="translate(0 -0.022)" fill="url(#linear-gradient-3)"/>
    <path id="Caminho_30" data-name="Caminho 30" d="M18.8,16.14C19.918,10.83,21.037,5.612,22.154.3h4.105c-.187.838-.372,1.584-.466,2.329-.932,4.379-1.863,8.665-2.8,13.046-.093.283-.187.372-.466.372H18.8Z" transform="translate(-1.282 -0.021)" fill="url(#linear-gradient-4)"/>
  </g>
</svg>
