<svg xmlns="http://www.w3.org/2000/svg" width="91" height="25.008" viewBox="0 0 91 25.008">
  <g id="pagament-transf" transform="translate(-1047 -313)">
    <g id="layer1" transform="translate(1046.471 32.404)">
      <path id="path33289" d="M13.033,280.6a12.464,12.464,0,0,0-5.163,1.11.417.417,0,0,0-.2.567l.745,1.492a.417.417,0,0,0,.545.194A10,10,0,0,1,21.309,298.7L20,297.388a.416.416,0,0,0-.711.3v4.585a.417.417,0,0,0,.415.418h4.584a.417.417,0,0,0,.3-.714L23.1,300.5a12.49,12.49,0,0,0-10.069-19.9ZM1.778,283.513a.417.417,0,0,0-.3.711L2.961,285.7A12.5,12.5,0,0,0,18.2,304.49a.417.417,0,0,0,.2-.567l-.747-1.492a.417.417,0,0,0-.541-.194A10,10,0,0,1,4.752,287.5l1.319,1.315a.417.417,0,0,0,.711-.3v-4.584a.417.417,0,0,0-.418-.418Zm11.254,2.918a6.669,6.669,0,1,0,6.67,6.67,6.675,6.675,0,0,0-6.67-6.67Zm0,1.665a.4.4,0,0,1,.417.417v.883a2.09,2.09,0,0,1,1.668,2.041.417.417,0,1,1-.834,0,1.249,1.249,0,1,0-1.25,1.25,2.085,2.085,0,0,1,.415,4.127v.875a.417.417,0,1,1-.834,0v-.876a2.09,2.09,0,0,1-1.664-2.041.417.417,0,0,1,.834,0,1.249,1.249,0,1,0,1.249-1.252,2.083,2.083,0,0,1-.418-4.123v-.884a.4.4,0,0,1,.417-.417Z" fill="#26870f"/>
    </g>
    <text id="Transferência_Bancária" data-name="Transferência
Bancária" transform="translate(1076 323.846)" fill="#26870f" font-size="10" font-family="Lato-Bold, Lato" font-weight="700"><tspan x="0" y="0">Transferência</tspan><tspan x="0" y="12">Bancária</tspan></text>
  </g>
</svg>
