<svg xmlns="http://www.w3.org/2000/svg" width="49.217" height="17.467" viewBox="0 0 49.217 17.467">
  <g id="pagamento-pix" transform="translate(0 0)">
    <g id="pagamento-pix-2" data-name="pagamento-pix" transform="translate(0 0)">
      <g id="svg2" transform="translate(0 0)">
        <g id="g966" transform="translate(0)">
          <g id="g972" transform="translate(19.959 2.649)">
            <g id="path974" transform="translate(0 0)">
              <path id="Caminho_1066" data-name="Caminho 1066" d="M203.088,40.854a.308.308,0,0,1-.308-.308V30.533a3.647,3.647,0,0,1,3.643-3.643h2.953a3.643,3.643,0,0,1,3.633,3.643v2.13a3.649,3.649,0,0,1-3.643,3.643H205.19a.309.309,0,0,1,0-.613h4.178a3.031,3.031,0,0,0,3.029-3.024V30.533a3.028,3.028,0,0,0-3.018-3.024h-2.953a3.031,3.031,0,0,0-3.033,3.024V40.544a.308.308,0,0,1-.3.308Z" transform="translate(-202.78 -26.89)" fill="#939598"/>
            </g>
          </g>
          <g id="g976" transform="translate(30.44 2.655)">
            <g id="path978" transform="translate(0 0)">
              <path id="Caminho_1067" data-name="Caminho 1067" d="M311.974,36.323a.308.308,0,0,1-.308-.308V28.539a1.063,1.063,0,0,0-1.063-1.058h-1.28a.309.309,0,0,1,0-.613h1.28a1.68,1.68,0,0,1,1.673,1.673v7.476a.309.309,0,0,1-.3.309Z" transform="translate(-309.054 -26.868)" fill="#939598"/>
            </g>
          </g>
          <g id="g980" transform="translate(32.394)">
            <g id="path982" transform="translate(0)">
              <path id="Caminho_1068" data-name="Caminho 1068" d="M329.813,1.793l-.582-.582a.368.368,0,0,1,0-.522l.582-.582a.368.368,0,0,1,.523,0l.582.581a.368.368,0,0,1,0,.522l-.582.582a.368.368,0,0,1-.523,0" transform="translate(-329.122 0.003)" fill="#32bcad"/>
            </g>
          </g>
          <g id="g984" transform="translate(35.469 2.635)">
            <g id="path986" transform="translate(0 0)">
              <path id="Caminho_1069" data-name="Caminho 1069" d="M367.622,31.389a1.288,1.288,0,0,1-.916-.379l-2.975-2.981a2.145,2.145,0,0,0-1.526-.631h-1.275a.309.309,0,1,1,0-.613H362.2a2.756,2.756,0,0,1,1.961.817l2.976,2.975a.678.678,0,0,0,.958,0l2.965-2.965a2.756,2.756,0,0,1,1.961-.817h1.033a.309.309,0,0,1,0,.613h-1.033a2.145,2.145,0,0,0-1.527.631L368.526,31a1.286,1.286,0,0,1-.911.385Z" transform="translate(-360.583 -26.783)" fill="#939598"/>
            </g>
          </g>
          <g id="g988" transform="translate(35.471 7.448)">
            <g id="path990" transform="translate(0 0)">
              <path id="Caminho_1070" data-name="Caminho 1070" d="M362.205,80.2h-1.273a.309.309,0,1,1,0-.613H362.2a2.145,2.145,0,0,0,1.526-.631l2.975-2.975a1.3,1.3,0,0,1,1.831,0l2.965,2.965a2.145,2.145,0,0,0,1.527.635h1.033a.309.309,0,0,1,0,.613h-1.036a2.756,2.756,0,0,1-1.961-.817L368.1,76.407a.679.679,0,0,0-.958,0l-2.975,2.975a2.757,2.757,0,0,1-1.961.817Z" transform="translate(-360.584 -75.599)" fill="#939598"/>
            </g>
          </g>
          <g id="g992" transform="translate(3.294 10.37)">
            <g id="path994" transform="translate(0 0)">
              <path id="Caminho_1071" data-name="Caminho 1071" d="M42.881,108.589a2.369,2.369,0,0,1-1.69-.7l-2.44-2.439a.462.462,0,0,0-.641,0L35.658,107.9a2.374,2.374,0,0,1-1.69.7H33.49l3.09,3.09a2.472,2.472,0,0,0,3.5,0l3.1-3.1Z" transform="translate(-33.49 -105.321)" fill="#32bcad"/>
            </g>
          </g>
          <g id="g996" transform="translate(3.294 1.187)">
            <g id="path998" transform="translate(0 0)">
              <path id="Caminho_1072" data-name="Caminho 1072" d="M33.97,15.9a2.379,2.379,0,0,1,1.69.7l2.451,2.444a.453.453,0,0,0,.641,0l2.44-2.444a2.375,2.375,0,0,1,1.69-.7h.3l-3.1-3.095a2.471,2.471,0,0,0-3.5,0L33.49,15.9Z" transform="translate(-33.49 -12.088)" fill="#32bcad"/>
            </g>
          </g>
          <g id="g1000" transform="translate(0 5.696)">
            <g id="path1002" transform="translate(0 0)">
              <path id="Caminho_1073" data-name="Caminho 1073" d="M15.545,59.735l-1.87-1.87a.368.368,0,0,1-.134.027H12.69a1.678,1.678,0,0,0-1.182.49L9.069,60.816a1.172,1.172,0,0,1-1.657,0L4.961,58.365a1.68,1.68,0,0,0-1.182-.49H2.73a.355.355,0,0,1-.123-.026L.726,59.734a2.472,2.472,0,0,0,0,3.5l1.879,1.879a.368.368,0,0,1,.123-.026H3.774a1.683,1.683,0,0,0,1.182-.49l2.451-2.451a1.2,1.2,0,0,1,1.657,0l2.444,2.441a1.683,1.683,0,0,0,1.182.49h.852a.352.352,0,0,1,.134.028l1.87-1.87a2.471,2.471,0,0,0,0-3.5" transform="translate(-0.002 -57.849)" fill="#32bcad"/>
            </g>
          </g>
          <g id="g1004" transform="translate(22.245 15.36)">
            <g id="path1006" transform="translate(0 0)">
              <path id="Caminho_1074" data-name="Caminho 1074" d="M226.565,156.059a2.183,2.183,0,0,0-.458.07v.613a1.062,1.062,0,0,0,.357.06c.305,0,.451-.1.451-.368s-.123-.368-.349-.368M226,157.195v-1.206h.082l.009.053a2.383,2.383,0,0,1,.477-.077.472.472,0,0,1,.313.091.46.46,0,0,1,.138.374.423.423,0,0,1-.2.389.768.768,0,0,1-.355.082,1.281,1.281,0,0,1-.368-.056v.354Z" transform="translate(-226 -155.963)" fill="#939598"/>
            </g>
          </g>
          <g id="g1008" transform="translate(23.483 15.362)">
            <g id="path1010" transform="translate(0 0)">
              <path id="Caminho_1075" data-name="Caminho 1075" d="M239.143,156.065c-.306,0-.442.1-.442.368s.134.379.442.379.441-.1.441-.368-.135-.379-.441-.379m.393.744a.668.668,0,0,1-.393.1.676.676,0,0,1-.393-.1.423.423,0,0,1-.158-.368.429.429,0,0,1,.158-.368.869.869,0,0,1,.788,0,.517.517,0,0,1,0,.744" transform="translate(-238.59 -155.979)" fill="#939598"/>
            </g>
          </g>
          <g id="g1012" transform="translate(24.733 15.377)">
            <g id="path1014" transform="translate(0 0)">
              <path id="Caminho_1076" data-name="Caminho 1076" d="M252.445,157.076l-.341-.735H252.1l-.333.735h-.1l-.368-.886h.114l.3.735h.006l.327-.735h.1l.337.735h.006l.3-.735h.11l-.368.886Z" transform="translate(-251.299 -156.19)" fill="#939598"/>
            </g>
          </g>
          <g id="g1016" transform="translate(26.461 15.353)">
            <g id="path1018" transform="translate(0 0)">
              <path id="Caminho_1077" data-name="Caminho 1077" d="M269.68,156.052c-.283,0-.38.123-.393.308h.793c-.009-.2-.112-.308-.393-.308m0,.84a.467.467,0,0,1-.341-.844.591.591,0,0,1,.344-.088.613.613,0,0,1,.353.082.45.45,0,0,1,.152.408h-.907c0,.181.063.342.408.342a2.624,2.624,0,0,0,.457-.051v.092a2.672,2.672,0,0,1-.466.055" transform="translate(-269.144 -155.958)" fill="#939598"/>
            </g>
          </g>
          <g id="g1020" transform="translate(27.797 15.353)">
            <g id="path1022" transform="translate(0 0)">
              <path id="Caminho_1078" data-name="Caminho 1078" d="M282.4,156.851v-.886h.082l.009.053a1.551,1.551,0,0,1,.439-.077h.013v.1h-.025a1.461,1.461,0,0,0-.417.07v.735Z" transform="translate(-282.4 -155.94)" fill="#939598"/>
            </g>
          </g>
          <g id="g1024" transform="translate(28.404 15.358)">
            <g id="path1026" transform="translate(0 0)">
              <path id="Caminho_1079" data-name="Caminho 1079" d="M289.42,156.08c-.283,0-.379.123-.393.308h.794c-.009-.2-.112-.308-.393-.308m0,.84a.467.467,0,0,1-.341-.844.591.591,0,0,1,.333-.082.613.613,0,0,1,.353.082.447.447,0,0,1,.153.408h-.9c0,.181.063.342.408.342a2.62,2.62,0,0,0,.456-.052v.092a2.662,2.662,0,0,1-.465.055" transform="translate(-288.886 -155.992)" fill="#939598"/>
            </g>
          </g>
          <g id="g1028" transform="translate(29.651 15.006)">
            <g id="path1030" transform="translate(0 0)">
              <path id="Caminho_1080" data-name="Caminho 1080" d="M302.17,152.932a1.056,1.056,0,0,0-.357-.059c-.306,0-.452.1-.452.368s.123.368.349.368a2.31,2.31,0,0,0,.458-.067Zm.02.754-.009-.053a2.389,2.389,0,0,1-.477.082.408.408,0,0,1-.452-.466.418.418,0,0,1,.2-.386.749.749,0,0,1,.357-.082,1.318,1.318,0,0,1,.368.056v-.408h.1v1.256Z" transform="translate(-301.247 -152.429)" fill="#939598"/>
            </g>
          </g>
          <g id="g1032" transform="translate(31.636 15.007)">
            <g id="path1034" transform="translate(0)">
              <path id="Caminho_1081" data-name="Caminho 1081" d="M321.91,152.883a2.182,2.182,0,0,0-.458.07v.613a1.023,1.023,0,0,0,.357.063c.305,0,.451-.1.451-.368s-.123-.368-.349-.368m.264.756a.768.768,0,0,1-.355.082,1.269,1.269,0,0,1-.393-.067v.043h-.07V152.43h.1v.422a2.488,2.488,0,0,1,.467-.072.472.472,0,0,1,.312.091.458.458,0,0,1,.139.374.423.423,0,0,1-.2.389" transform="translate(-321.355 -152.43)" fill="#939598"/>
            </g>
          </g>
          <g id="g1036" transform="translate(32.768 15.372)">
            <g id="path1038" transform="translate(0 0)">
              <path id="Caminho_1082" data-name="Caminho 1082" d="M332.921,157.387v-.1c.05,0,.1.009.131.009a.268.268,0,0,0,.277-.183l.033-.07-.461-.886h.123l.393.761h.006l.376-.761h.123l-.49.992a.359.359,0,0,1-.368.245.964.964,0,0,1-.123-.009" transform="translate(-332.901 -156.159)" fill="#939598"/>
            </g>
          </g>
          <g id="g1040" transform="translate(34.595 15.058)">
            <g id="path1042" transform="translate(0 0)">
              <path id="Caminho_1083" data-name="Caminho 1083" d="M352.051,153.694h-.342V154h.344c.237,0,.327-.027.327-.157s-.123-.153-.327-.153m-.062-.5h-.279v.315h.279c.234,0,.327-.028.327-.163s-.115-.156-.327-.156m.533.923a1.027,1.027,0,0,1-.558.082h-.523V153h.511a.94.94,0,0,1,.509.077.254.254,0,0,1,.123.245.261.261,0,0,1-.187.266v.01a.273.273,0,0,1,.254.283.259.259,0,0,1-.123.245" transform="translate(-351.443 -152.994)" fill="#939598"/>
            </g>
          </g>
          <g id="g1044" transform="translate(36.045 15.348)">
            <g id="path1046" transform="translate(0 0)">
              <path id="Caminho_1084" data-name="Caminho 1084" d="M367,156.482c-.1-.009-.208-.013-.317-.013-.18,0-.245.037-.245.123s.053.123.19.123a1.8,1.8,0,0,0,.368-.053Zm.053.368-.006-.053a2.1,2.1,0,0,1-.479.082.462.462,0,0,1-.268-.065.278.278,0,0,1,.05-.458.8.8,0,0,1,.327-.048c.092,0,.217,0,.32.011V156.3c0-.139-.092-.183-.34-.183a2.339,2.339,0,0,0-.327.016v-.179c.123-.01.263-.016.379-.016a.749.749,0,0,1,.408.082.332.332,0,0,1,.123.3v.523Z" transform="translate(-366.197 -155.939)" fill="#939598"/>
            </g>
          </g>
          <g id="g1048" transform="translate(37.41 15.365)">
            <g id="path1050" transform="translate(0 0)">
              <path id="Caminho_1085" data-name="Caminho 1085" d="M380.887,156.9v-.49c0-.163-.082-.218-.229-.218a1.632,1.632,0,0,0-.36.056v.653h-.245v-.886h.2l.009.055a2.1,2.1,0,0,1,.474-.07.44.44,0,0,1,.3.091.347.347,0,0,1,.1.277v.54Z" transform="translate(-380.052 -155.997)" fill="#939598"/>
            </g>
          </g>
          <g id="g1052" transform="translate(38.715 15.363)">
            <g id="path1054" transform="translate(0 0)">
              <path id="Caminho_1086" data-name="Caminho 1086" d="M393.8,156.889a.49.49,0,0,1-.327-.093.454.454,0,0,1-.14-.368.428.428,0,0,1,.18-.376.7.7,0,0,1,.388-.087c.1,0,.2.006.311.016v.189c-.088-.009-.2-.016-.282-.016-.234,0-.344.074-.344.277s.082.273.275.273a2.059,2.059,0,0,0,.368-.045v.183a2.266,2.266,0,0,1-.43.056" transform="translate(-393.327 -155.964)" fill="#939598"/>
            </g>
          </g>
          <g id="g1056" transform="translate(39.753 15.357)">
            <g id="path1058" transform="translate(0 0)">
              <path id="Caminho_1087" data-name="Caminho 1087" d="M404.444,156.159c-.234,0-.337.074-.337.275s.1.287.337.287.335-.072.335-.273-.1-.288-.335-.288m.423.653a.735.735,0,0,1-.423.093.75.75,0,0,1-.425-.093.5.5,0,0,1,0-.746,1.019,1.019,0,0,1,.849,0,.408.408,0,0,1,.163.368.418.418,0,0,1-.163.374" transform="translate(-403.852 -155.973)" fill="#939598"/>
            </g>
          </g>
          <g id="g1060" transform="translate(41.736 15.039)">
            <g id="path1062" transform="translate(0 0)">
              <path id="Caminho_1088" data-name="Caminho 1088" d="M424.649,154a.662.662,0,0,1-.43-.123.613.613,0,0,1-.187-.5.591.591,0,0,1,.245-.509.927.927,0,0,1,.509-.114c.134,0,.268.009.418.021v.216c-.123-.011-.284-.02-.408-.02-.341,0-.49.13-.49.408s.135.408.386.408a2.669,2.669,0,0,0,.533-.072v.213a2.934,2.934,0,0,1-.577.076" transform="translate(-424.029 -152.751)" fill="#939598"/>
            </g>
          </g>
          <g id="g1064" transform="translate(43.103 15.358)">
            <g id="path1066" transform="translate(0 0)">
              <path id="Caminho_1089" data-name="Caminho 1089" d="M438.449,156.11c-.2,0-.283.072-.3.207h.591c-.006-.143-.091-.207-.3-.207m-.037.775a.572.572,0,0,1-.375-.1.456.456,0,0,1-.141-.368.447.447,0,0,1,.163-.368.658.658,0,0,1,.386-.092.69.69,0,0,1,.384.088c.141.1.153.254.156.436h-.838c0,.135.082.222.327.222a3.206,3.206,0,0,0,.471-.045v.173a3.4,3.4,0,0,1-.532.058" transform="translate(-437.895 -155.958)" fill="#939598"/>
            </g>
          </g>
          <g id="g1068" transform="translate(44.459 15.35)">
            <g id="path1070" transform="translate(0 0)">
              <path id="Caminho_1090" data-name="Caminho 1090" d="M452.487,156.8v-.49c0-.163-.082-.218-.229-.218a1.635,1.635,0,0,0-.36.056v.653h-.245v-.886h.2l.009.055a2.083,2.083,0,0,1,.472-.082.436.436,0,0,1,.3.091.344.344,0,0,1,.1.277v.538Z" transform="translate(-451.652 -155.89)" fill="#939598"/>
            </g>
          </g>
          <g id="g1072" transform="translate(45.71 15.118)">
            <g id="path1074" transform="translate(0 0)">
              <path id="Caminho_1091" data-name="Caminho 1091" d="M464.91,154.676a.32.32,0,0,1-.287-.123.454.454,0,0,1-.065-.268v-.327h-.178v-.183h.178l.026-.268h.218v.268h.347v.183H464.8v.288a.433.433,0,0,0,.023.168.158.158,0,0,0,.163.082,1.074,1.074,0,0,0,.177-.018v.178a1.389,1.389,0,0,1-.255.032" transform="translate(-464.38 -153.507)" fill="#939598"/>
            </g>
          </g>
          <g id="g1076" transform="translate(46.72 15.35)">
            <g id="path1078">
              <path id="Caminho_1092" data-name="Caminho 1092" d="M474.65,156.85v-.886h.2l.009.055a1.532,1.532,0,0,1,.438-.082h.032v.211h-.082a1.391,1.391,0,0,0-.347.045v.653Z" transform="translate(-474.65 -155.937)" fill="#939598"/>
            </g>
          </g>
          <g id="g1080" transform="translate(47.492 15.347)">
            <g id="path1082" transform="translate(0 0)">
              <path id="Caminho_1093" data-name="Caminho 1093" d="M483.321,156.482c-.1-.009-.207-.013-.317-.013-.18,0-.245.037-.245.123s.053.123.191.123a1.8,1.8,0,0,0,.368-.053Zm.053.368-.006-.053a2.106,2.106,0,0,1-.479.082.462.462,0,0,1-.268-.065.278.278,0,0,1,.05-.458.807.807,0,0,1,.327-.048c.092,0,.217,0,.32.011V156.3c0-.139-.091-.183-.338-.183a2.354,2.354,0,0,0-.327.016v-.179c.123-.01.263-.016.38-.016a.745.745,0,0,1,.408.082.333.333,0,0,1,.122.3v.523Z" transform="translate(-482.522 -155.939)" fill="#939598"/>
            </g>
          </g>
          <g id="path1084" transform="translate(48.86 15.007)">
            <path id="Caminho_1094" data-name="Caminho 1094" d="M496.38,152.43h.245v1.256h-.245Z" transform="translate(-496.38 -152.43)" fill="#939598"/>
          </g>
        </g>
      </g>
    </g>
  </g>
</svg>
