<svg id="pagamento-master" xmlns="http://www.w3.org/2000/svg" width="39.641" height="30.65" viewBox="0 0 39.641 30.65">
  <g id="Grupo_604" data-name="Grupo 604" transform="translate(0 0)">
    <g id="MASTER" transform="translate(0 0)">
      <g id="Layer_1" data-name="Layer 1" transform="translate(0 0)">
        <path id="Caminho_13" data-name="Caminho 13" d="M6.748,27.066a1.4,1.4,0,0,0-.406-.265,1.464,1.464,0,0,0-.52-.091h-.3A1.424,1.424,0,0,0,5.2,26.8a2.033,2.033,0,0,0-.294.173,1.016,1.016,0,0,0-.234.283,1.352,1.352,0,0,0-.437-.425,1.416,1.416,0,0,0-.64-.153,1.017,1.017,0,0,0-.243,0,.925.925,0,0,0-.255.071,1.017,1.017,0,0,0-.243.142.64.64,0,0,0-.2.234v-.386H2v3.314h.681V28.236a1.016,1.016,0,0,1,.061-.355.924.924,0,0,1,.173-.283.936.936,0,0,1,.255-.153,1.017,1.017,0,0,1,.3-.061.661.661,0,0,1,.549.214.875.875,0,0,1,.183.63v1.83H4.9V28.236a.849.849,0,0,1,.061-.355A.763.763,0,0,1,5.13,27.6a.885.885,0,0,1,.243-.153,1.087,1.087,0,0,1,.316-.061.6.6,0,0,1,.528.214.936.936,0,0,1,.193.63v1.83h.671V28.022a1.464,1.464,0,0,0-.092-.518.834.834,0,0,0-.243-.437Z" transform="translate(0.125 0.482)" fill="#161616"/>
        <path id="Caminho_14" data-name="Caminho 14" d="M10.271,27.2a1.22,1.22,0,0,0-1.016-.467,1.535,1.535,0,0,0-1.133.478,1.758,1.758,0,0,0-.345.528,1.85,1.85,0,0,0,0,1.362,1.444,1.444,0,0,0,.345.528,1.607,1.607,0,0,0,1.133.479,1.311,1.311,0,0,0,.59-.122,1.274,1.274,0,0,0,.425-.345v.416h.709V26.8h-.708Zm0,1.617a.991.991,0,0,1-1.332.549.946.946,0,0,1-.3-.224.814.814,0,0,1-.193-.326,1.179,1.179,0,0,1,0-.793,1.15,1.15,0,0,1,.193-.326.824.824,0,0,1,.3-.224,1.016,1.016,0,0,1,.814,0,.946.946,0,0,1,.316.224,1.179,1.179,0,0,1,.2,1.118Z" transform="translate(0.221 0.482)" fill="#161616"/>
        <path id="Caminho_15" data-name="Caminho 15" d="M14.13,28.409a1.86,1.86,0,0,0-.824-.316l-.283-.071-.2-.051a.59.59,0,0,1-.173-.061.163.163,0,0,1-.112-.092.275.275,0,0,1-.051-.142.345.345,0,0,1,.163-.275.885.885,0,0,1,.447-.112,1.452,1.452,0,0,1,.294,0,2.337,2.337,0,0,1,.283.061l.234.092.183.092.3-.539a2.1,2.1,0,0,0-.6-.255,2.786,2.786,0,0,0-.708-.092,1.729,1.729,0,0,0-.559.081,1.016,1.016,0,0,0-.425.2.834.834,0,0,0-.265.326,1.016,1.016,0,0,0-.092.437.875.875,0,0,0,.275.64,1.566,1.566,0,0,0,.814.3h.345a1.108,1.108,0,0,1,.416.122.294.294,0,0,1,.142.234.336.336,0,0,1-.183.283,1.15,1.15,0,0,1-.549.1,1.4,1.4,0,0,1-.355,0,1.454,1.454,0,0,1-.283-.071,1.606,1.606,0,0,1-.234-.112,1.909,1.909,0,0,1-.183-.122l-.326.528a2.033,2.033,0,0,0,.355.214,2.358,2.358,0,0,0,.377.132,3.224,3.224,0,0,0,.355.061h.283a2.2,2.2,0,0,0,.62-.071,1.809,1.809,0,0,0,.467-.224.926.926,0,0,0,.275-.326.773.773,0,0,0,.1-.416A.691.691,0,0,0,14.13,28.409Z" transform="translate(0.288 0.481)" fill="#161616"/>
        <path id="Caminho_16" data-name="Caminho 16" d="M20.625,27.177a1.383,1.383,0,0,0-.488-.345,1.87,1.87,0,0,0-.62-.122,1.688,1.688,0,0,0-.661.122,1.882,1.882,0,0,0-.508.345,1.525,1.525,0,0,0-.326.528,2.033,2.033,0,0,0-.132.691,1.719,1.719,0,0,0,.132.708,1.464,1.464,0,0,0,.336.528,1.557,1.557,0,0,0,.528.336,1.921,1.921,0,0,0,.671.132,2.766,2.766,0,0,0,.708-.092,1.8,1.8,0,0,0,.63-.367l-.345-.5a1.637,1.637,0,0,1-.447.255,1.416,1.416,0,0,1-.488.092,1.211,1.211,0,0,1-.326-.051A.814.814,0,0,1,19,29.306a1.23,1.23,0,0,1-.214-.255,1.274,1.274,0,0,1-.132-.377h2.4a.275.275,0,0,1,0-.122.671.671,0,0,0,0-.142,1.921,1.921,0,0,0-.112-.681,2.69,2.69,0,0,0-.316-.549Zm-1.972.956a1.416,1.416,0,0,1,.1-.336.6.6,0,0,1,.173-.243.835.835,0,0,1,1.116-.02,1.016,1.016,0,0,1,.265.6Z" transform="translate(0.391 0.483)" fill="#161616"/>
        <path id="Caminho_17" data-name="Caminho 17" d="M29.824,27.2a1.23,1.23,0,0,0-1.016-.467,1.576,1.576,0,0,0-1.15.479,1.444,1.444,0,0,0-.345.528,1.85,1.85,0,0,0,0,1.362,1.23,1.23,0,0,0,.345.528,1.6,1.6,0,0,0,1.15.478,1.311,1.311,0,0,0,.59-.122,1.274,1.274,0,0,0,.425-.345v.416h.708V26.8h-.708Zm0,1.617a1.016,1.016,0,0,1-.2.326,1.118,1.118,0,0,1-.316.224,1.291,1.291,0,0,1-.386.071,1.311,1.311,0,0,1-.406-.071,1.016,1.016,0,0,1-.488-.549,1.179,1.179,0,0,1-.01-.793,1.15,1.15,0,0,1,.193-.326.708.708,0,0,1,.294-.224.915.915,0,0,1,.406-.076,1.25,1.25,0,0,1,.386.081.946.946,0,0,1,.316.224,1.016,1.016,0,0,1,.2.326,1.311,1.311,0,0,1,.071.406,1.291,1.291,0,0,1-.092.386Z" transform="translate(0.546 0.482)" fill="#161616"/>
        <path id="Caminho_18" data-name="Caminho 18" d="M17.106,29.389a.783.783,0,0,1-.336.061h-.2c-.061,0-.1-.061-.153-.1a.406.406,0,0,1-.112-.193.85.85,0,0,1,0-.275V27.448h1.133v-.64H16.255V25.79h-.708v1.016H14.9v.64h.64v1.416a1.3,1.3,0,0,0,.316.956,1.169,1.169,0,0,0,.849.3,1.636,1.636,0,0,0,.549-.092l.294-.142-.234-.59a.437.437,0,0,1-.214.092Z" transform="translate(0.342 0.467)" fill="#161616"/>
        <path id="Caminho_19" data-name="Caminho 19" d="M23.336,26.71a1.189,1.189,0,0,0-.539.112,1.087,1.087,0,0,0-.4.406V26.8h-.64V30.06h.64v-1.8a1.016,1.016,0,0,1,.061-.377,1.576,1.576,0,0,1,.153-.283.64.64,0,0,1,.255-.163.793.793,0,0,1,.3-.071H23.6l.2-.671-.173-.051a1.434,1.434,0,0,1-.293.069Z" transform="translate(0.455 0.481)" fill="#161616"/>
        <path id="Caminho_20" data-name="Caminho 20" d="M32.961,26.711a1.21,1.21,0,0,0-.528.112,1.118,1.118,0,0,0-.406.406V26.8H31.39V30.06h.62v-1.8a1.017,1.017,0,0,1,.071-.377,1.577,1.577,0,0,1,.153-.283.681.681,0,0,1,.243-.163.834.834,0,0,1,.316-.071h.425l.193-.671-.166-.052a1.525,1.525,0,0,1-.294.071Z" transform="translate(0.616 0.481)" fill="#161616"/>
        <path id="Caminho_21" data-name="Caminho 21" d="M36.193,25.51v1.709a1.2,1.2,0,0,0-1.016-.467,1.535,1.535,0,0,0-1.169.478,1.758,1.758,0,0,0-.345.528,1.85,1.85,0,0,0,0,1.362,1.829,1.829,0,0,0,.345.528,1.6,1.6,0,0,0,1.133.479A1.311,1.311,0,0,0,35.73,30a1.25,1.25,0,0,0,.416-.345v.416h.708V25.51Zm0,3.324a1.016,1.016,0,0,1-.2.326.885.885,0,0,1-.316.224,1.169,1.169,0,0,1-.8,0,.946.946,0,0,1-.3-.224.936.936,0,0,1-.183-.326,1.179,1.179,0,0,1,0-.793,1.424,1.424,0,0,1,.183-.326.824.824,0,0,1,.3-.224.9.9,0,0,1,.4-.081,1.372,1.372,0,0,1,.406.081.783.783,0,0,1,.316.224,1.017,1.017,0,0,1,.2.326,1.077,1.077,0,0,1,.081.406,1.749,1.749,0,0,1-.081.386Z" transform="translate(0.653 0.462)" fill="#161616"/>
        <path id="Caminho_22" data-name="Caminho 22" d="M25.017,27.666a.849.849,0,0,1,.316-.224,1.077,1.077,0,0,1,.406-.081h0a1.274,1.274,0,0,1,.437.081,1.132,1.132,0,0,1,.336.2l.345-.559a1.332,1.332,0,0,0-.437-.255,1.911,1.911,0,0,0-1.383,0,1.658,1.658,0,0,0-.9.895,1.8,1.8,0,0,0,0,1.342,1.646,1.646,0,0,0,.9.885,1.911,1.911,0,0,0,1.383,0,1.585,1.585,0,0,0,.437-.255l-.345-.559a.875.875,0,0,1-.336.2,1.332,1.332,0,0,1-.437.081h0a1.077,1.077,0,0,1-.406-.081.824.824,0,0,1-.316-.214.9.9,0,0,1-.214-.336,1.077,1.077,0,0,1,0-.834,3.115,3.115,0,0,1,.214-.294Z" transform="translate(0.493 0.483)" fill="#161616"/>
        <path id="Caminho_23" data-name="Caminho 23" d="M38.327,29.5h.132l.112.061a.528.528,0,0,1,.081.112.367.367,0,0,1,0,.255.4.4,0,0,1-.081.1.336.336,0,0,1-.234.092h-.142a.234.234,0,0,1-.1-.071.316.316,0,0,1-.086-.113.367.367,0,0,1,0-.255.294.294,0,0,1,.183-.163Zm0,.579a.153.153,0,0,0,.092,0H38.5a.6.6,0,0,0,0-.081.214.214,0,0,0,0-.183v-.081l-.081-.051a.214.214,0,0,0-.193,0l-.071.051a.112.112,0,0,0,0,.081.416.416,0,0,0,0,.183v.081a.122.122,0,0,0,.071,0Zm0-.4a.092.092,0,0,1,.092,0,.081.081,0,0,1,0,.071v.061a.112.112,0,0,1-.061,0l.092.112h-.112l-.071-.112h0v.193h-.081v-.3h.142Zm-.061.071v.061h.041Z" transform="translate(0.725 0.528)" fill="#fff"/>
        <path id="Caminho_24" data-name="Caminho 24" d="M15.109,12.2a12.2,12.2,0,0,1,4.615-9.567,12.2,12.2,0,1,0,0,19.064,12.14,12.14,0,0,1-4.615-9.5Z" transform="translate(0.091 0.035)" fill="#ed2026"/>
        <ellipse id="Elipse_1" data-name="Elipse 1" cx="4.615" cy="9.526" rx="4.615" ry="9.526" transform="translate(15.201 2.679)" fill="#f26a21"/>
        <path id="Caminho_25" data-name="Caminho 25" d="M38,18.437v-.355H37.87V18h.386v.092H38.1v.355Zm.773,0v-.316l-.112.265H38.51l-.112-.265v.316h-.1V18h.153l.112.294.1-.294h.163v.447Z" transform="translate(0.725 0.336)" fill="#f99f1d"/>
        <path id="Caminho_26" data-name="Caminho 26" d="M26.944,0A12.2,12.2,0,0,0,19.4,2.633a12.14,12.14,0,0,1,2.033,17.061A12.317,12.317,0,0,1,19.4,21.727,12.2,12.2,0,1,0,26.944,0Z" transform="translate(0.417 0.035)" fill="#f99f1d"/>
      </g>
    </g>
  </g>
</svg>
