<?xml version="1.0" encoding="utf-8"?>
<!-- Generator: Adobe Illustrator 26.0.2, SVG Export Plug-In . SVG Version: 6.00 Build 0)  -->
<svg version="1.1" id="Camada_1" xmlns="http://www.w3.org/2000/svg" xmlns:xlink="http://www.w3.org/1999/xlink" x="0px" y="0px"
	 viewBox="0 0 33 33" style="enable-background:new 0 0 33 33;" xml:space="preserve">
<style type="text/css">
	.st0{fill:none;}
	.st1{fill:#B9B9B9;}
</style>
<g id="seta-vitrine-direita" transform="translate(-1593 -1134)">
	<g id="Retângulo_311" transform="translate(1626 1167) rotate(180)">
		<g>
			<path class="st0" d="M16.5,0L16.5,0C25.6,0,33,7.4,33,16.5l0,0C33,25.6,25.6,33,16.5,33l0,0C7.4,33,0,25.6,0,16.5l0,0
				C0,7.4,7.4,0,16.5,0z"/>
		</g>
		<g>
			<path class="st1" d="M16.5,0C25.6,0,33,7.4,33,16.5C33,25.6,25.6,33,16.5,33C7.4,33,0,25.6,0,16.5C0,7.4,7.4,0,16.5,0z M16.5,32
				C25,32,32,25,32,16.5S25,1,16.5,1S1,8,1,16.5S8,32,16.5,32z"/>
		</g>
	</g>
	<g id="direita" transform="translate(1613.506 1157.496) rotate(180)">
		<g id="right-arrow_1_" transform="translate(8.315 14.153) rotate(180)">
			<g id="Grupo_317">
				<g id="Caminho_273">
					<path class="st1" d="M8.1,6.5L1.8,0.2C1.5-0.1,1-0.1,0.7,0.2L0.2,0.7c-0.3,0.3-0.3,0.8,0,1.1l5.3,5.3l-5.3,5.3
						c-0.3,0.3-0.3,0.8,0,1.1c0,0,0,0,0,0l0.5,0.5c0.3,0.3,0.8,0.3,1.1,0l6.3-6.3C8.4,7.3,8.4,6.8,8.1,6.5L8.1,6.5z"/>
				</g>
			</g>
		</g>
	</g>
</g>
</svg>
