<svg xmlns="http://www.w3.org/2000/svg" width="37.71" height="33.641" viewBox="0 0 37.71 33.641">
  <path id="topo-carrinho" d="M10.9,53.512a1.241,1.241,0,0,1,0-2.482c4.579.016,16.656,0,21.38.008A2.747,2.747,0,0,0,34.969,48.9l2.683-11.617a2.233,2.233,0,0,0-2.166-2.735c-1.9,0-18.033-.073-26.3-.106l-1.31-4.86A2.675,2.675,0,0,0,5.3,27.609h-4.2a1.105,1.105,0,0,0,0,2.211H5.3a.46.46,0,0,1,.443.338l5.031,18.664A3.45,3.45,0,0,0,7.45,52.331,3.468,3.468,0,0,0,10.9,55.723h1.612a3.869,3.869,0,1,0,6.99,0h6.98a3.869,3.869,0,1,0,6.961-.058,1.1,1.1,0,0,0-.353-2.152Zm6.765,3.869a1.658,1.658,0,1,1-1.66-1.658h0A1.66,1.66,0,0,1,17.666,57.381Zm12.312,1.658a1.658,1.658,0,0,1-.027-3.316H30a1.658,1.658,0,0,1-.027,3.316Zm5.517-22.272a.017.017,0,0,1,0,.019l-1.13,4.895H30.54l.652-4.939,4.285.017A.018.018,0,0,1,35.494,36.767ZM24.1,48.827V43.891h3.921l-.651,4.936Zm-5.481,0-.657-4.936h3.927v4.936Zm-5.089,0h0a.6.6,0,0,1-.577-.441l-1.212-4.5h3.994l.657,4.936Zm4.138-7.147-.665-5,4.886.02V41.68Zm6.432,0V36.712l4.865.02L28.31,41.68Zm-9.328-5.005.666,5.005h-4.3L9.785,36.655ZM32.281,48.827H29.6l.651-4.936h3.609L32.815,48.4A.546.546,0,0,1,32.281,48.827Z" transform="translate(0 -27.609)" fill="#002f7e"/>
</svg>
