<svg xmlns="http://www.w3.org/2000/svg" width="14.387" height="13.72" viewBox="0 0 14.387 13.72">
  <path id="categoria_estrela-filtro" d="M159.625,83.516c.258-.525.682-.525.941,0l1.441,2.92a2.275,2.275,0,0,0,1.523,1.105l3.222.469c.579.084.71.488.291.9l-2.333,2.273a2.276,2.276,0,0,0-.58,1.79l.549,3.21c.1.576-.244.825-.76.552l-2.884-1.516a2.277,2.277,0,0,0-1.882,0l-2.881,1.516c-.519.274-.86.024-.761-.552l.549-3.21a2.273,2.273,0,0,0-.581-1.79l-2.332-2.273c-.418-.408-.288-.812.291-.9l3.223-.469a2.268,2.268,0,0,0,1.521-1.105Z" transform="translate(-152.902 -83.122)" fill="#00a2e0"/>
</svg>
