<svg xmlns="http://www.w3.org/2000/svg" width="25.471" height="18.406" viewBox="0 0 25.471 18.406">
  <path id="rodape-youtube" d="M12.733,18.906h-.007c-.769-.005-7.563-.067-9.488-.588A3.937,3.937,0,0,1,.468,15.55,28.891,28.891,0,0,1,0,9.728,29.435,29.435,0,0,1,.466,3.861l0-.005A4.02,4.02,0,0,1,3.235,1.069l.01,0C5.148.566,11.956.5,12.726.5h.014c.771.005,7.583.067,9.49.589A3.936,3.936,0,0,1,25,3.852a28.028,28.028,0,0,1,.469,5.9A28.971,28.971,0,0,1,25,15.564v.005a3.937,3.937,0,0,1-2.772,2.768l-.005,0c-1.9.5-8.711.561-9.481.567h-.007ZM2.39,4.371a28.465,28.465,0,0,0-.4,5.343v.026a26.747,26.747,0,0,0,.4,5.294A1.94,1.94,0,0,0,3.756,16.4c1.42.384,6.954.505,8.977.519a69.3,69.3,0,0,0,8.98-.5,1.942,1.942,0,0,0,1.363-1.361,26.839,26.839,0,0,0,.4-5.294c0-.01,0-.021,0-.031a25.9,25.9,0,0,0-.4-5.351v0A1.942,1.942,0,0,0,21.71,3.009C20.3,2.624,14.76,2.5,12.733,2.49a69.4,69.4,0,0,0-8.977.5A2,2,0,0,0,2.39,4.371ZM24.037,15.311h0ZM10.2,13.732V5.673L17.161,9.7Zm0,0" transform="translate(0.002 -0.5)" fill="#ce3176"/>
</svg>
