<svg xmlns="http://www.w3.org/2000/svg" width="16.521" height="20.334" viewBox="0 0 16.521 20.334">
  <path id="rodape-pinterest" d="M10.787,0C5.213,0,2.25,3.572,2.25,7.466c0,1.806,1.009,4.058,2.625,4.773.461.208.4-.046.8-1.562a.36.36,0,0,0-.086-.353C3.275,7.652,5.134,2.16,10.457,2.16c7.7,0,6.265,10.66,1.34,10.66a1.818,1.818,0,0,1-1.916-2.229,24.142,24.142,0,0,0,1.073-4.105c0-2.667-3.974-2.272-3.974,1.262a4.275,4.275,0,0,0,.386,1.829s-1.279,5.165-1.516,6.13a13.706,13.706,0,0,0,.094,4.506.134.134,0,0,0,.244.062,15.978,15.978,0,0,0,2.1-3.964c.158-.58.8-2.936.8-2.936a3.513,3.513,0,0,0,2.964,1.413c3.894,0,6.709-3.423,6.709-7.67C18.757,3.047,15.273,0,10.787,0Z" transform="translate(-2.25)" fill="#ce3176"/>
</svg>
