<svg xmlns="http://www.w3.org/2000/svg" width="14.541" height="14.611" viewBox="0 0 14.541 14.611">
  <path id="popup_whats" d="M12.673,2.123a7.242,7.242,0,0,0-11.4,8.736L.25,14.611,4.088,13.6a7.233,7.233,0,0,0,3.46.881h0A7.243,7.243,0,0,0,12.673,2.123ZM7.551,13.263h0a6.01,6.01,0,0,1-3.063-.839l-.22-.13-2.278.6L2.6,10.671l-.143-.228a6.018,6.018,0,1,1,5.1,2.82Zm3.3-4.507c-.181-.091-1.07-.528-1.236-.589s-.286-.09-.407.091-.467.589-.573.709-.211.136-.392.045a4.941,4.941,0,0,1-1.455-.9A5.457,5.457,0,0,1,5.783,6.861c-.105-.181,0-.27.079-.369a5.117,5.117,0,0,0,.452-.619A.333.333,0,0,0,6.3,5.556c-.045-.091-.407-.981-.558-1.343s-.3-.3-.407-.311S5.108,3.9,4.988,3.9a.664.664,0,0,0-.482.226,2.029,2.029,0,0,0-.633,1.509A3.519,3.519,0,0,0,4.611,7.5,8.064,8.064,0,0,0,7.7,10.235a10.355,10.355,0,0,0,1.031.381,2.48,2.48,0,0,0,1.139.072,1.864,1.864,0,0,0,1.221-.86,1.512,1.512,0,0,0,.105-.86c-.045-.075-.166-.121-.347-.211Zm0,0" transform="translate(-0.25)" fill="#ce3176" fill-rule="evenodd"/>
</svg>
