<svg id="popup_telefone" xmlns="http://www.w3.org/2000/svg" width="13.93" height="13.93" viewBox="0 0 13.93 13.93">
  <g id="Grupo_373" data-name="Grupo 373" transform="translate(0)">
    <path id="Caminho_169" data-name="Caminho 169" d="M10.6,54.015a.976.976,0,0,0-1.475,0c-.345.342-.69.684-1.029,1.032a.2.2,0,0,1-.284.052c-.223-.122-.461-.22-.675-.354A10.7,10.7,0,0,1,4.552,52.4a6.112,6.112,0,0,1-.925-1.481.212.212,0,0,1,.052-.272c.345-.333.681-.675,1.02-1.017a.98.98,0,0,0,0-1.51c-.27-.272-.539-.539-.809-.812s-.554-.559-.835-.835a.982.982,0,0,0-1.475,0C1.23,46.815.9,47.165.543,47.5a1.68,1.68,0,0,0-.528,1.133A4.8,4.8,0,0,0,.387,50.7a12.559,12.559,0,0,0,2.229,3.713,13.8,13.8,0,0,0,4.568,3.574,6.607,6.607,0,0,0,2.531.736,1.855,1.855,0,0,0,1.591-.606c.3-.33.629-.632.942-.948a.986.986,0,0,0,.006-1.5Q11.428,54.84,10.6,54.015Z" transform="translate(-0.006 -44.8)" fill="#ce3176"/>
    <path id="Caminho_170" data-name="Caminho 170" d="M241,100.122l1.07-.183A4.8,4.8,0,0,0,238,96l-.151,1.075A3.711,3.711,0,0,1,241,100.122Z" transform="translate(-230.959 -93.217)" fill="#ce3176"/>
    <path id="Caminho_171" data-name="Caminho 171" d="M247.427,2.255A7.887,7.887,0,0,0,242.9,0l-.151,1.075a6.882,6.882,0,0,1,5.824,5.644l1.07-.183A7.946,7.946,0,0,0,247.427,2.255Z" transform="translate(-235.717)" fill="#ce3176"/>
  </g>
</svg>
