<svg xmlns="http://www.w3.org/2000/svg" width="32" height="32" viewBox="0 0 32 32">
  <g id="instagram-plugin" transform="translate(0.001)">
    <path id="Caminho_117" data-name="Caminho 117" d="M23.337,0H8.661A8.672,8.672,0,0,0,0,8.662V23.338A8.672,8.672,0,0,0,8.661,32H23.337A8.672,8.672,0,0,0,32,23.338V8.662A8.672,8.672,0,0,0,23.337,0ZM16,24.75A8.75,8.75,0,1,1,24.749,16,8.76,8.76,0,0,1,16,24.75ZM24.958,9.314a2.586,2.586,0,1,1,2.586-2.585A2.588,2.588,0,0,1,24.958,9.314Zm0,0" fill="#ce3176"/>
    <path id="Caminho_118" data-name="Caminho 118" d="M152.894,146.02a6.874,6.874,0,1,0,6.874,6.874A6.882,6.882,0,0,0,152.894,146.02Zm0,0" transform="translate(-136.895 -136.894)" fill="#ce3176"/>
    <path id="Caminho_119" data-name="Caminho 119" d="M388.7,96.3a.709.709,0,1,0,.71.709A.71.71,0,0,0,388.7,96.3Zm0,0" transform="translate(-363.744 -90.282)" fill="#ce3176"/>
  </g>
</svg>
