<?xml version="1.0" encoding="utf-8"?>
<!-- Generator: Adobe Illustrator 26.0.2, SVG Export Plug-In . SVG Version: 6.00 Build 0)  -->
<svg version="1.1" id="Camada_1" xmlns="http://www.w3.org/2000/svg" xmlns:xlink="http://www.w3.org/1999/xlink" x="0px" y="0px"
	 viewBox="0 0 49.3 22" style="enable-background:new 0 0 49.3 22;" xml:space="preserve">
<style type="text/css">
	.st0{fill:#A9DEF9;}
</style>
<g>
	<path class="st0" d="M45.6,13.5c1.1-1.5,3.7-6,3.7-10.6H32.9c0,3,1.1,6,2.2,8.1c0,0,0,0,0,0.1c-0.2,0.5-0.4,0.9-0.5,1.4l-0.1-0.1
		l-0.1-0.1c-0.6-1-1.2-2.1-1.6-3.1l0-0.1c-0.1-0.2-0.2-0.4-0.2-0.6c-0.7-1.8-1.1-3.6-1.3-5.5v0h-3.7v1.9h1.6c0.2,1.2,0.5,2.4,1,3.5
		c0.7,2.1,1.8,4,3.1,5.8c0.1,0.1,0.1,0.2,0.2,0.2c0,0,0.1,0.1,0.1,0.1c0,0,0.1,0.1,0.1,0.1c-0.2,0.4-0.4,0.8-0.6,1.2
		c0.2-0.4,0.4-0.8,0.6-1.2c0,0,0,0,0,0c-0.2,0.4-0.4,0.8-0.6,1.2c-0.1,0.1-0.1,0.2-0.2,0.4c-0.3,0.7-0.7,1.3-1.1,2h2.2
		c0.5-0.7,0.9-1.5,1.3-2.2c0.5-0.8,0.9-1.7,1.2-2.6c0,0,0,0,0-0.1c0,0.1,0.1,0.1,0.1,0.2c0.2,0.4,0.7,0.6,1.1,0.6h6.8
		C44.9,14,45.3,13.8,45.6,13.5z"/>
	<path class="st0" d="M32,19.2c-0.8,0-1.4,0.6-1.4,1.4c0,0,0,0,0,0c0,0.8,0.6,1.4,1.4,1.4c0.8,0,1.4-0.6,1.4-1.4
		C33.5,19.8,32.8,19.2,32,19.2z"/>
	<path class="st0" d="M44.9,19.2c-0.8,0-1.4,0.6-1.4,1.4c0,0,0,0,0,0c0,0.8,0.6,1.4,1.4,1.4c0.8,0,1.4-0.6,1.4-1.4
		C46.4,19.8,45.7,19.2,44.9,19.2z"/>
	<path class="st0" d="M9.7,3.6v10.9h2.4V5.1c0.8-0.4,1.8-0.6,2.7-0.6c0.4,0,0.8,0.1,1.2,0.2l0.3-2c-0.5-0.1-1.1-0.2-1.7-0.2
		C13,2.5,11.3,2.9,9.7,3.6z"/>
	<path class="st0" d="M5.9,12.9c-1.1,0-1.8-0.6-1.8-2.2v-6H7V2.8H4V0L1.7,0.1v2.7H0v1.9h1.7v6c0,2.9,1.4,4.1,3.8,4.1v0
		c0.6,0,1.3-0.1,1.9-0.2l-0.1-1.9C6.8,12.8,6.3,12.9,5.9,12.9z"/>
	<path class="st0" d="M21.8,2.5c-1.3,0-2.6,0.2-3.8,0.7l0.5,1.9c1-0.4,2.1-0.6,3.1-0.6c1.8,0,2.7,0.9,2.7,2.5v1
		c-0.8-0.2-1.6-0.3-2.5-0.3c-2.7,0-4.6,1.2-4.6,3.6c0,2,1.5,3.5,4.6,3.5c1.7,0.1,3.3-0.3,4.8-1.1V7.1C26.6,4.2,25,2.5,21.8,2.5z
		 M24.3,12.6L24.3,12.6c-0.7,0.4-1.5,0.5-2.3,0.5c-1.6,0-2.5-0.6-2.5-1.9c0-1.4,1.1-1.9,2.5-1.9c0.7,0,1.5,0.1,2.2,0.3V12.6z"/>
</g>
</svg>
