<svg id="topo-logo" xmlns="http://www.w3.org/2000/svg" xmlns:xlink="http://www.w3.org/1999/xlink" width="125.986" height="102.118" viewBox="0 0 125.986 102.118">
  <defs>
    <clipPath id="clip-path">
      <rect id="Retângulo_2476" data-name="Retângulo 2476" width="125.986" height="102.118" fill="none"/>
    </clipPath>
  </defs>
  <g id="Grupo_690" data-name="Grupo 690" clip-path="url(#clip-path)">
    <path id="Caminho_1216" data-name="Caminho 1216" d="M193.6,422.72a17.336,17.336,0,0,1-4.264-.536,10.114,10.114,0,0,1-3.8-1.852,9.855,9.855,0,0,1-2.753-3.508,12.5,12.5,0,0,1-1.072-5.507,26.305,26.305,0,0,1,.195-2.924,19.12,19.12,0,0,1,.755-3.509,18.55,18.55,0,0,1,1.559-3.582,12.173,12.173,0,0,1,2.607-3.192,12.739,12.739,0,0,1,3.9-2.29,15.262,15.262,0,0,1,5.458-.877,13.685,13.685,0,0,1,4.288.585,7.624,7.624,0,0,1,2.826,1.584,5.976,5.976,0,0,1,1.559,2.315,8.086,8.086,0,0,1,.487,2.826,7.481,7.481,0,0,1-.9,3.8,8.376,8.376,0,0,1-2.339,2.607,11.606,11.606,0,0,1-3.192,1.633,25.862,25.862,0,0,1-3.46.9,23.907,23.907,0,0,1-3.143.39q-1.438.073-2.217.073a6.368,6.368,0,0,0,.268,1.827,4.679,4.679,0,0,0,.8,1.584,4.074,4.074,0,0,0,1.413,1.121,4.754,4.754,0,0,0,2.144.439,3.92,3.92,0,0,0,1.974-.414,4.455,4.455,0,0,0,1.145-.926q.439-.512.755-.926a1.018,1.018,0,0,1,.853-.414,5.205,5.205,0,0,1,.853.122,3.826,3.826,0,0,1,1.243.512,3.909,3.909,0,0,1,1.121,1.072,2.953,2.953,0,0,1,.487,1.754,3.621,3.621,0,0,1-.877,2.437,6.456,6.456,0,0,1-2.266,1.657,12.52,12.52,0,0,1-3.095.926,19.6,19.6,0,0,1-3.314.293m.926-21.3a2.819,2.819,0,0,0-1.827.609,5.136,5.136,0,0,0-1.267,1.535,8.1,8.1,0,0,0-.78,2.047q-.268,1.122-.414,2.144a11.01,11.01,0,0,0,4.9-1.023,3.029,3.029,0,0,0,1.876-2.778,2.778,2.778,0,0,0-.609-1.754,2.235,2.235,0,0,0-1.876-.78" transform="translate(-154.769 -336.385)" fill="#002676"/>
    <path id="Caminho_1217" data-name="Caminho 1217" d="M377.45,417.944q0-1.071.171-2.8t.341-3.655q.17-1.924.341-3.728t.171-3.021a4.271,4.271,0,0,0-.609-2.266,2.547,2.547,0,0,0-2.364-1,4.626,4.626,0,0,0-2.826.829,6.154,6.154,0,0,0-1.876,3.021,31.388,31.388,0,0,0-1.243,6.043q-.488,3.85-.926,9.892a1.289,1.289,0,0,1-.244.78,1.225,1.225,0,0,1-.828.2H365.8a7.924,7.924,0,0,1-2.461-.317,3.634,3.634,0,0,1-1.511-.9,3.174,3.174,0,0,1-.78-1.437,7.961,7.961,0,0,1-.219-1.974q0-.731.073-2.071t.268-3.7q.194-2.363.463-5.994t.658-8.991a2.451,2.451,0,0,1,.244-1.267,1.271,1.271,0,0,1,.78-.146h1.9a7.251,7.251,0,0,1,2.412.341,4.274,4.274,0,0,1,1.535.9,3.136,3.136,0,0,1,.829,1.316,6.286,6.286,0,0,1,.292,1.535,8.875,8.875,0,0,1,3.46-3.582,10.629,10.629,0,0,1,4.873-1,12.829,12.829,0,0,1,3.557.439,5.523,5.523,0,0,1,2.51,1.486,6.507,6.507,0,0,1,1.486,2.729,15.21,15.21,0,0,1,.487,4.166q0,.78-.1,2.242t-.244,3.192q-.146,1.73-.317,3.606t-.317,3.484q-.146,1.608-.244,2.826t-.1,1.608q0,1.073-.243,1.291a1.747,1.747,0,0,1-1.072.219H382.47a9.036,9.036,0,0,1-2.534-.292,3.519,3.519,0,0,1-1.511-.828,2.945,2.945,0,0,1-.755-1.34,6.956,6.956,0,0,1-.219-1.827" transform="translate(-307.333 -336.385)" fill="#002676"/>
    <path id="Caminho_1218" data-name="Caminho 1218" d="M569.573,367.925a7.925,7.925,0,0,1-2.461-.317,3.634,3.634,0,0,1-1.511-.9,3.173,3.173,0,0,1-.78-1.437,7.962,7.962,0,0,1-.219-1.974q0-.731.073-2.071t.268-3.7q.194-2.363.463-5.994t.658-8.991a2.454,2.454,0,0,1,.244-1.267,1.272,1.272,0,0,1,.78-.146h1.9a8.562,8.562,0,0,1,2.461.292,3.448,3.448,0,0,1,1.511.877,3.189,3.189,0,0,1,.78,1.413,7.243,7.243,0,0,1,.219,1.852q0,.731-.1,2.193t-.268,3.972q-.171,2.51-.463,6.237t-.731,8.991a1.289,1.289,0,0,1-.244.78,1.225,1.225,0,0,1-.828.2Zm-3.46-32.552a3.706,3.706,0,0,1,1.413-3.07,5.949,5.949,0,0,1,3.8-1.121,4.492,4.492,0,0,1,3.046.853,2.9,2.9,0,0,1,.95,2.266,3.844,3.844,0,0,1-1.34,3,5.721,5.721,0,0,1-3.923,1.194q-3.947,0-3.947-3.119" transform="translate(-480.889 -282.078)" fill="#002676"/>
    <path id="Caminho_1219" data-name="Caminho 1219" d="M661.238,404.531a29.111,29.111,0,0,0,2-2.948q.974-1.632,1.827-3.021t1.535-2.339q.682-.951,1.121-.95a1.932,1.932,0,0,1,1,.536,8.88,8.88,0,0,1,1.316,1.364,9.364,9.364,0,0,1,1.145,1.876,4.893,4.893,0,0,1,.487,2.071,5.509,5.509,0,0,1-2.1,4.02,52.436,52.436,0,0,1-5.458,4.264q2.095,3.119,3.557,5.312t2.412,3.63q.95,1.438,1.389,2.217a2.85,2.85,0,0,1,.439,1.072.75.75,0,0,1-.39.609,1.869,1.869,0,0,1-1.072.268h-3.314a6.67,6.67,0,0,1-4.142-1.218,9.492,9.492,0,0,1-2.729-3.557l-1.949-3.9a43.732,43.732,0,0,0-3.046,3.8q-1.195,1.706-1.974,2.9t-1.267,1.852a1.31,1.31,0,0,1-.975.658,2.788,2.788,0,0,1-1.048-.341,6.2,6.2,0,0,1-1.437-1A6.3,6.3,0,0,1,647.3,420.1a4.432,4.432,0,0,1-.536-2.217,4.667,4.667,0,0,1,.487-2.071,7.16,7.16,0,0,1,1.535-2,22.7,22.7,0,0,1,2.656-2.12q1.608-1.12,3.9-2.485-1.608-2.875-2.948-5.019t-2.29-3.63q-.95-1.486-1.486-2.412a3.211,3.211,0,0,1-.536-1.413q0-.486.658-.755a7.307,7.307,0,0,1,2.412-.268,13.356,13.356,0,0,1,3.168.317,6.835,6.835,0,0,1,2.144.9,5.183,5.183,0,0,1,1.438,1.413,19.444,19.444,0,0,1,1.1,1.852Z" transform="translate(-550.87 -336.665)" fill="#002676"/>
    <path id="Caminho_1220" data-name="Caminho 1220" d="M23.962,616.837a6.842,6.842,0,0,1-1.286-.1,2.313,2.313,0,0,1-.8-.292,1,1,0,0,1-.411-.484,1.9,1.9,0,0,1-.113-.689q0-.119.013-.338t.04-.617q.026-.4.073-1.027t.126-1.584q.093-1.18.146-1.869t.08-1.067q.026-.378.033-.53t.007-.258q0-.212.007-.345a1.015,1.015,0,0,1,.026-.206.185.185,0,0,1,.066-.106.242.242,0,0,1,.139-.033q.782-.053,1.332-.08t.961-.027a7.839,7.839,0,0,1,1.73.166,3.482,3.482,0,0,1,1.173.471,1.87,1.87,0,0,1,.663.756,2.374,2.374,0,0,1,.212,1.021,3.41,3.41,0,0,1-.066.656,2.374,2.374,0,0,1-.225.643,1.792,1.792,0,0,1-.431.537,1.679,1.679,0,0,1-.683.338,1.8,1.8,0,0,1,1.087.789,2.563,2.563,0,0,1,.318,1.306,3.277,3.277,0,0,1-.2,1.147,2.209,2.209,0,0,1-.689.941,3.642,3.642,0,0,1-1.3.643,7.288,7.288,0,0,1-2.028.239m.756-4.11q-.146,0-.358.02t-.437.06l-.146,2.161a2.971,2.971,0,0,0,.862.146,1.561,1.561,0,0,0,.663-.119,1.058,1.058,0,0,0,.391-.3.968.968,0,0,0,.186-.4,1.964,1.964,0,0,0,.046-.4,1.283,1.283,0,0,0-.272-.829,1.137,1.137,0,0,0-.935-.338m-.557-3.646q-.027.345-.046.809t-.06,1.008a3.148,3.148,0,0,0,.756.106,1.791,1.791,0,0,0,.636-.093,1.023,1.023,0,0,0,.378-.239.737.737,0,0,0,.186-.318,1.278,1.278,0,0,0,.046-.332,1.019,1.019,0,0,0-.272-.709,1.223,1.223,0,0,0-.935-.3,2.949,2.949,0,0,0-.325.02q-.179.02-.365.046" transform="translate(-18.184 -517.158)" fill="#f49200"/>
    <path id="Caminho_1221" data-name="Caminho 1221" d="M106.81,616.552a1.526,1.526,0,0,1-1.067-.3,1.165,1.165,0,0,1-.312-.882q0-.159.02-.537t.06-.9q.04-.517.086-1.133t.1-1.253q.106-1.339.153-2.174t.073-1.313a6.061,6.061,0,0,1,.08-.762q.04-.166.172-.166.411,0,.842-.02t.829-.046q.4-.027.749-.046t.63-.02a4.455,4.455,0,0,1,1.458.212,2.52,2.52,0,0,1,.988.6,2.353,2.353,0,0,1,.557.928,3.886,3.886,0,0,1,.179,1.22,4.013,4.013,0,0,1-.411,1.843,2.706,2.706,0,0,1-1.312,1.233l1.114,1.591q.3.451.464.7a.8.8,0,0,1,.159.365.526.526,0,0,1-.113.259,1.461,1.461,0,0,1-.332.331,2.139,2.139,0,0,1-.53.285,1.936,1.936,0,0,1-.7.119,1.068,1.068,0,0,1-.736-.278,2.656,2.656,0,0,1-.557-.736,5.665,5.665,0,0,1-.424-1.054q-.179-.6-.338-1.246a5.108,5.108,0,0,1-.782-.093q-.04.584-.08,1.114t-.066.948q-.027.418-.053.69t-.027.325a.292.292,0,0,1-.053.152.207.207,0,0,1-.159.046Zm2.148-7.557q-.159,0-.358.02t-.424.046q-.027.464-.06,1.107t-.086,1.372a3.683,3.683,0,0,0,.809.106,1.262,1.262,0,0,0,.669-.159,1.226,1.226,0,0,0,.4-.391,1.37,1.37,0,0,0,.192-.5,2.8,2.8,0,0,0,.046-.477,1.2,1.2,0,0,0-.265-.835,1.216,1.216,0,0,0-.928-.292" transform="translate(-89.799 -517.006)" fill="#f49200"/>
    <path id="Caminho_1222" data-name="Caminho 1222" d="M191.963,617.314a1.552,1.552,0,0,1-1.061-.292,1.075,1.075,0,0,1-.318-.835q0-.265.04-.908t.106-1.465q.066-.822.133-1.737t.133-1.724q.066-.809.106-1.419t.04-.835q0-.2.212-.2h.729a1.354,1.354,0,0,1,1.087.345,1.6,1.6,0,0,1,.278,1.021q0,.066-.02.424t-.06.9q-.04.544-.086,1.213t-.093,1.372q-.046.7-.093,1.372t-.086,1.213q-.04.544-.066.908t-.04.444a.291.291,0,0,1-.053.153.207.207,0,0,1-.159.046Z" transform="translate(-162.326 -517.768)" fill="#f49200"/>
    <path id="Caminho_1223" data-name="Caminho 1223" d="M254.584,617.314a1.609,1.609,0,0,1-.809-.159.972.972,0,0,1-.384-.4q-.689-1.419-1.293-2.718t-1.226-2.625q.013,1.432.04,2.85t.053,2.85q0,.2-.212.2h-.729a1.525,1.525,0,0,1-1.067-.3,1.165,1.165,0,0,1-.312-.882q0-.159.02-.537t.06-.895q.04-.517.086-1.133t.1-1.253q.079-1.007.133-1.671t.086-1.12q.033-.458.046-.782t.027-.643q0-.2.212-.2h1.061a2.158,2.158,0,0,1,.716.1,1.261,1.261,0,0,1,.457.272,1.372,1.372,0,0,1,.285.391q.106.219.2.457.318.822.563,1.419l.431,1.047q.185.451.325.782t.259.61q.119.278.239.537t.252.564q0-.782-.007-1.611t-.013-1.617q-.007-.789-.013-1.518t-.007-1.312q0-.119.225-.119h.729a2.263,2.263,0,0,1,.7.086.908.908,0,0,1,.4.252.846.846,0,0,1,.192.4,2.878,2.878,0,0,1,.046.544q0,.332-.04,1.014t-.093,1.531q-.053.849-.119,1.757t-.126,1.677q-.06.769-.106,1.306t-.06.63a.184.184,0,0,1-.073.159.275.275,0,0,1-.166.053Z" transform="translate(-211.778 -517.768)" fill="#f49200"/>
    <path id="Caminho_1224" data-name="Caminho 1224" d="M345.858,618.04a.512.512,0,0,1-.119.272,1.612,1.612,0,0,1-.338.332,2.208,2.208,0,0,1-.517.285,1.751,1.751,0,0,1-.656.119,1.435,1.435,0,0,1-.756-.192,1.97,1.97,0,0,1-.563-.524,3.583,3.583,0,0,1-.431-.789q-.186-.457-.358-.975a3.316,3.316,0,0,1-1.419-.451,2.762,2.762,0,0,1-.908-.915,3.948,3.948,0,0,1-.484-1.266,7.524,7.524,0,0,1-.146-1.518,8.807,8.807,0,0,1,.232-2.022,5.12,5.12,0,0,1,.769-1.763,3.975,3.975,0,0,1,1.412-1.246,4.518,4.518,0,0,1,2.161-.471,4.232,4.232,0,0,1,1.6.272,2.682,2.682,0,0,1,1.08.782,3.226,3.226,0,0,1,.61,1.259,6.883,6.883,0,0,1,.192,1.7,10.7,10.7,0,0,1-.119,1.518,6.378,6.378,0,0,1-.451,1.6,4.942,4.942,0,0,1-.908,1.405,3.455,3.455,0,0,1-1.5.935q.2.2.477.451t.53.484q.252.232.431.424t.179.285m-2.4-9.068a1.29,1.29,0,0,0-.955.358,2.4,2.4,0,0,0-.55.875,4.642,4.642,0,0,0-.259,1.081,8.5,8.5,0,0,0-.066.974,3.31,3.31,0,0,0,.351,1.717,1.1,1.1,0,0,0,.988.564,1.164,1.164,0,0,0,.908-.391,2.829,2.829,0,0,0,.55-.941,4.976,4.976,0,0,0,.265-1.153,9.725,9.725,0,0,0,.066-1.041,3.2,3.2,0,0,0-.292-1.5,1.047,1.047,0,0,0-1.007-.544" transform="translate(-288.876 -516.93)" fill="#f49200"/>
    <path id="Caminho_1225" data-name="Caminho 1225" d="M438.888,612.992q-.04.4-.119.882a6.373,6.373,0,0,1-.245.981,4.841,4.841,0,0,1-.444.961,3.253,3.253,0,0,1-.716.829,3.4,3.4,0,0,1-1.054.583,4.39,4.39,0,0,1-1.465.219,3.946,3.946,0,0,1-1.472-.245,2.543,2.543,0,0,1-1.551-1.677,4.188,4.188,0,0,1-.172-1.22q0-.292.026-.789t.073-1.08q.046-.583.1-1.213t.1-1.2q.046-.57.086-1.028t.053-.7a.7.7,0,0,1,.066-.325.184.184,0,0,1,.159-.073h.729a1.354,1.354,0,0,1,1.087.345,1.6,1.6,0,0,1,.278,1.021q0,.04-.02.351t-.053.762q-.033.451-.066.981t-.066,1.008q-.033.477-.053.835t-.02.477q0,.226.02.517a2.3,2.3,0,0,0,.106.557,1.028,1.028,0,0,0,.279.444.778.778,0,0,0,.55.179.962.962,0,0,0,.736-.3,2.089,2.089,0,0,0,.438-.729,4.254,4.254,0,0,0,.212-.862q.059-.437.086-.716.053-.676.113-1.392t.106-1.339q.046-.623.073-1.087t.026-.636a.878.878,0,0,1,.04-.338c.027-.048.084-.073.173-.073h.729a2.513,2.513,0,0,1,.709.079.934.934,0,0,1,.391.212.584.584,0,0,1,.166.305,1.9,1.9,0,0,1,.033.358q0,.172-.02.65t-.046,1.087q-.026.61-.066,1.26t-.093,1.14" transform="translate(-367.649 -517.768)" fill="#f49200"/>
    <path id="Caminho_1226" data-name="Caminho 1226" d="M521.4,617.314a1.552,1.552,0,0,1-1.061-.292,1.076,1.076,0,0,1-.318-.835q0-.265.04-.908t.106-1.465q.066-.822.133-1.737t.133-1.724q.066-.809.106-1.419t.04-.835q0-.2.212-.2h4.667a.28.28,0,0,1,.146.04.156.156,0,0,1,.066.146l-.053.782a1.144,1.144,0,0,1-.219.643.975.975,0,0,1-.789.245h-1.829l-.133,1.87h1.883a.278.278,0,0,1,.146.04.156.156,0,0,1,.066.146l-.053.782a1.143,1.143,0,0,1-.219.643.976.976,0,0,1-.789.245h-1.153l-.146,1.975H525.3a.249.249,0,0,1,.146.047.159.159,0,0,1,.066.139l-.053.782a1.142,1.142,0,0,1-.219.643.977.977,0,0,1-.789.245Z" transform="translate(-442.918 -517.768)" fill="#f49200"/>
    <path id="Caminho_1227" data-name="Caminho 1227" d="M595.346,607.413a.2.2,0,0,1,.086-.152.262.262,0,0,1,.139-.046q.9,0,1.69-.06t1.24-.06a6.766,6.766,0,0,1,1.889.226,2.816,2.816,0,0,1,1.233.7,2.693,2.693,0,0,1,.67,1.233,7.227,7.227,0,0,1,.2,1.816,10.062,10.062,0,0,1-.219,2.1A5.06,5.06,0,0,1,601.51,615a3.974,3.974,0,0,1-1.465,1.279,4.975,4.975,0,0,1-2.327.484q-.65,0-1.186-.027a3.363,3.363,0,0,1-.921-.159,1.267,1.267,0,0,1-.6-.4,1.136,1.136,0,0,1-.212-.729q0-.172.02-.517t.053-.822q.033-.477.08-1.054t.1-1.213q.106-1.312.166-2.095t.079-1.226q.02-.444.026-.669t.02-.437m2.466,7.252a2,2,0,0,0,1.187-.318,2.123,2.123,0,0,0,.683-.809,3.526,3.526,0,0,0,.318-1.074,8.171,8.171,0,0,0,.08-1.1,5.742,5.742,0,0,0-.073-.974,1.876,1.876,0,0,0-.252-.7,1.1,1.1,0,0,0-.5-.418,1.99,1.99,0,0,0-.8-.139q-.146,0-.371.013t-.544.04q-.027.491-.066,1.16t-.086,1.405q-.047.736-.1,1.485t-.106,1.385c.133.018.252.029.358.033s.194.007.265.007" transform="translate(-506.611 -517.082)" fill="#f49200"/>
    <path id="Caminho_1228" data-name="Caminho 1228" d="M688.191,606.917a4.523,4.523,0,0,1,1.657.272,2.754,2.754,0,0,1,1.127.8,3.259,3.259,0,0,1,.636,1.273,6.651,6.651,0,0,1,.2,1.7,10,10,0,0,1-.073,1.153,7.142,7.142,0,0,1-.265,1.253,6.006,6.006,0,0,1-.524,1.213,3.9,3.9,0,0,1-.855,1.034,4.087,4.087,0,0,1-1.253.723,4.937,4.937,0,0,1-1.723.272,4.383,4.383,0,0,1-1.823-.331,2.984,2.984,0,0,1-1.153-.9,3.447,3.447,0,0,1-.61-1.332,7.243,7.243,0,0,1-.179-1.644,8.571,8.571,0,0,1,.239-2.022,4.873,4.873,0,0,1,.8-1.757,4.123,4.123,0,0,1,1.491-1.24,5.072,5.072,0,0,1,2.307-.471m-.279,2.055a1.807,1.807,0,0,0-.8.166,1.717,1.717,0,0,0-.57.444,2.327,2.327,0,0,0-.371.623,4.387,4.387,0,0,0-.219.709,5.207,5.207,0,0,0-.106.7q-.027.338-.027.6a3.035,3.035,0,0,0,.4,1.763,1.459,1.459,0,0,0,2.141.166,2.8,2.8,0,0,0,.6-.941,4.8,4.8,0,0,0,.3-1.14,7.64,7.64,0,0,0,.08-1,3.02,3.02,0,0,0-.331-1.531,1.176,1.176,0,0,0-1.1-.563" transform="translate(-582.032 -516.93)" fill="#f49200"/>
    <path id="Caminho_1229" data-name="Caminho 1229" d="M780.017,607.006a2.7,2.7,0,0,1,1.849.544,1.82,1.82,0,0,1,.6,1.419,1.492,1.492,0,0,1-.411,1.134,1.647,1.647,0,0,1-1.18.391.622.622,0,0,1-.3-.047.222.222,0,0,1-.066-.192q0-.132-.02-.345a1.479,1.479,0,0,0-.1-.411.823.823,0,0,0-.252-.338.74.74,0,0,0-.477-.139,1.2,1.2,0,0,0-.756.259.811.811,0,0,0-.331.67.722.722,0,0,0,.272.583,3.17,3.17,0,0,0,.683.418q.411.192.895.391a3.725,3.725,0,0,1,.895.524,2.709,2.709,0,0,1,.683.809,2.481,2.481,0,0,1,.272,1.226,3.076,3.076,0,0,1-.192,1.094,2.47,2.47,0,0,1-.57.888,2.591,2.591,0,0,1-.955.59,3.9,3.9,0,0,1-1.346.212,4.886,4.886,0,0,1-1.226-.146,4.589,4.589,0,0,1-.981-.365,2.4,2.4,0,0,1-.656-.477.736.736,0,0,1-.239-.471,5.606,5.606,0,0,1,.1-1.26q.1-.384.365-.384a.65.65,0,0,1,.391.159q.205.159.471.358a3.275,3.275,0,0,0,.617.358,1.956,1.956,0,0,0,.815.159,2,2,0,0,0,.365-.033,1.01,1.01,0,0,0,.318-.113.65.65,0,0,0,.225-.212.571.571,0,0,0,.086-.318.643.643,0,0,0-.252-.53,2.855,2.855,0,0,0-.636-.365q-.385-.166-.829-.345a3.214,3.214,0,0,1-.828-.49,2.451,2.451,0,0,1-.636-.8,2.75,2.75,0,0,1-.252-1.26,3.014,3.014,0,0,1,.325-1.458,2.94,2.94,0,0,1,.835-.974,3.3,3.3,0,0,1,1.153-.544,5.117,5.117,0,0,1,1.279-.166" transform="translate(-661.034 -517.006)" fill="#f49200"/>
    <path id="Caminho_1230" data-name="Caminho 1230" d="M112.632,267.989s4.917,5.464,17.83,2.334,13.907-9.834,13.907-9.834a5.2,5.2,0,0,0-.081-2.052,21.388,21.388,0,0,0-2.5-2.567l-6.134-2.607-12.367,2.483-11.722,7.55Z" transform="translate(-95.023 -215.712)" fill="#f49200" fill-rule="evenodd"/>
    <path id="Caminho_1231" data-name="Caminho 1231" d="M57.065,138.013s-.5,7.45,1.887,9.188,15.2-8.294,15.2-8.294-1.639-7.35,3.079-12.267,13.857-5.364,13.857-5.364l-20.264,1.391L59.249,133.2Z" transform="translate(-48.567 -103.295)" fill="#f49200" fill-rule="evenodd"/>
    <path id="Caminho_1232" data-name="Caminho 1232" d="M49.266,242.177c-5.238-11.55-32.527-11.029-42.913,4.371,0,0-10.006,12.292-4.9,31.675h0a8.271,8.271,0,1,0,16.215-3.272h0q-.069-.342-.166-.672c-7.144-28.924,21.745-42.95,31.768-32.1" transform="translate(0 -199.452)" fill="#002676" fill-rule="evenodd"/>
    <path id="Caminho_1233" data-name="Caminho 1233" d="M101.305,0a8.915,8.915,0,0,1,.78,17.8h0C90.3,18.6,77.022,18.09,66.9,25.081c-3.381,2.334-7.2,5.16-9.584,9.637,0,0,2.665-27.442,41.725-34.427a8.885,8.885,0,0,1,1.5-.258h.009q.375-.032.759-.032" transform="translate(-48.814)" fill="#002676" fill-rule="evenodd"/>
    <path id="Caminho_1234" data-name="Caminho 1234" d="M826.916,365.9a1.826,1.826,0,1,0-1.821-1.831,1.824,1.824,0,0,0,1.821,1.831" transform="translate(-702.759 -308.534)" fill="#002b7e"/>
    <path id="Caminho_1235" data-name="Caminho 1235" d="M826.916,365.894a1.826,1.826,0,1,1,1.829-1.834,1.817,1.817,0,0,1-1.829,1.834m0-.253a1.578,1.578,0,1,0-1.563-1.588,1.567,1.567,0,0,0,1.563,1.588" transform="translate(-702.759 -308.533)" fill="#002b7e"/>
    <path id="Caminho_1236" data-name="Caminho 1236" d="M828.371,367.032a1.578,1.578,0,1,1,1.576-1.577,1.559,1.559,0,0,1-1.576,1.577m.383-1.507a1.593,1.593,0,0,0,.264-.123.474.474,0,0,0,.168-.507.45.45,0,0,0-.31-.379.892.892,0,0,0-.272-.057c-.319-.007-.637,0-.959,0v1.99h.349v-.8c.19.013.369.018.548.039a.32.32,0,0,1,.285.284,2.534,2.534,0,0,1,.025.294l.014.184h.314c0-.094-.009-.184-.013-.274a1.43,1.43,0,0,0-.009-.211.506.506,0,0,0-.405-.436" transform="translate(-704.218 -309.924)" fill="#fff"/>
    <path id="Caminho_1237" data-name="Caminho 1237" d="M833.566,368.857a.506.506,0,0,1,.405.436,1.439,1.439,0,0,1,.009.211c0,.09.008.18.013.274h-.314c0-.063-.01-.124-.014-.184a2.534,2.534,0,0,0-.025-.294.32.32,0,0,0-.285-.284c-.178-.021-.358-.026-.548-.039v.8h-.349v-1.99c.322,0,.641,0,.959,0a.891.891,0,0,1,.272.057.45.45,0,0,1,.31.379.474.474,0,0,1-.168.507,1.61,1.61,0,0,1-.264.123m-.757-.11c.106,0,.2,0,.3,0a1.789,1.789,0,0,0,.3-.034.308.308,0,0,0,.247-.32.288.288,0,0,0-.2-.33,2.245,2.245,0,0,0-.648-.042Z" transform="translate(-709.029 -313.256)" fill="#002b7e"/>
    <path id="Caminho_1238" data-name="Caminho 1238" d="M834.831,370.063v-.727a2.245,2.245,0,0,1,.648.042.288.288,0,0,1,.2.33.308.308,0,0,1-.247.32,1.792,1.792,0,0,1-.3.034c-.1.005-.2,0-.3,0" transform="translate(-711.051 -314.573)" fill="#fff"/>
  </g>
</svg>
