<svg xmlns="http://www.w3.org/2000/svg" width="26.409" height="25.96" viewBox="0 0 26.409 25.96">
  <g id="menu-mobile" transform="translate(-9.74 -9.5)">
    <path id="Caminho_1211" data-name="Caminho 1211" d="M35.259,41H10.63a1.161,1.161,0,0,0,0,2.257h24.63a1.161,1.161,0,0,0,0-2.257Z" transform="translate(0 -7.798)" fill="#00a2e0"/>
    <path id="Caminho_1212" data-name="Caminho 1212" d="M35.391,30.42H11.147a1.162,1.162,0,0,0,0,2.257H35.391a1.162,1.162,0,0,0,0-2.257Z" transform="translate(-0.129 -5.179)" fill="#00a2e0"/>
    <path id="Caminho_1213" data-name="Caminho 1213" d="M10.627,11.757H34.871a1.03,1.03,0,0,0,.887-1.129A1.03,1.03,0,0,0,34.871,9.5H10.627a1.03,1.03,0,0,0-.887,1.129,1.03,1.03,0,0,0,.887,1.129Z" fill="#00a2e0"/>
    <path id="Caminho_1214" data-name="Caminho 1214" d="M10.63,22.137h24.63a1.031,1.031,0,0,0,.89-1.129,1.031,1.031,0,0,0-.89-1.129H10.63a1.031,1.031,0,0,0-.89,1.129A1.031,1.031,0,0,0,10.63,22.137Z" transform="translate(0 -2.57)" fill="#00a2e0"/>
  </g>
</svg>
