<svg id="newsletter" xmlns="http://www.w3.org/2000/svg" width="54.975" height="51.278" viewBox="0 0 54.975 51.278">
  <path id="Caminho_278" data-name="Caminho 278" d="M46.349,30.322v-13.1H8.626v13.1L0,36.483V68.5H54.975V36.483ZM19.541,52.1,3.221,63.755V40.442Zm7.946-1.717L48.339,65.274H6.637ZM35.434,52.1l16.32-11.657V63.755Zm15.16-14.787-4.244,3.031V34.28ZM43.128,20.439v22.2L32.663,50.119l-5.175-3.7-5.175,3.7L11.847,42.644v-22.2Zm-34.5,19.9L4.382,37.312l4.244-3.031Z" transform="translate(0 -17.218)" fill="#de9d29"/>
  <path id="Caminho_279" data-name="Caminho 279" d="M152.716,86.074h11.09V89.3h-11.09Z" transform="translate(-136.318 -78.681)" fill="#de9d29"/>
  <path id="Caminho_280" data-name="Caminho 280" d="M152.716,154.929H174.9v3.221h-22.18Z" transform="translate(-136.318 -140.142)" fill="#de9d29"/>
  <path id="Caminho_281" data-name="Caminho 281" d="M152.716,223.785H174.9v3.221h-22.18Z" transform="translate(-136.318 -201.605)" fill="#de9d29"/>
</svg>
