<svg xmlns="http://www.w3.org/2000/svg" width="58.005" height="57.995" viewBox="0 0 58.005 57.995">
  <g id="newsletter" transform="translate(-1.999 -2.001)">
    <path id="Caminho_274" data-name="Caminho 274" d="M2.829,28.216a.829.829,0,0,1-.5-1.487l9.115-6.97a.829.829,0,1,1,1.006,1.317L3.331,28.045a.821.821,0,0,1-.5.171Z" transform="translate(0 -3.014)" fill="#f6d258"/>
    <path id="Caminho_275" data-name="Caminho 275" d="M67.956,64.451H54.069a.829.829,0,1,1,0-1.657H67.128V28.829a.829.829,0,1,1,1.657,0V63.622A.829.829,0,0,1,67.956,64.451Z" transform="translate(-8.782 -4.456)" fill="#f6d258"/>
    <path id="Caminho_276" data-name="Caminho 276" d="M36.6,71.647H34.2a.829.829,0,0,1,0-1.657h2.4a.829.829,0,1,1,0,1.657Z" transform="translate(-5.376 -11.652)" fill="#f6d258"/>
    <path id="Caminho_277" data-name="Caminho 277" d="M23.022,64.451H2.829A.829.829,0,0,1,2,63.622V28.829a.829.829,0,1,1,1.657,0V62.794H23.022a.829.829,0,1,1,0,1.657Z" transform="translate(0 -4.456)" fill="#f6d258"/>
    <path id="Caminho_278" data-name="Caminho 278" d="M46.56,71.647H44.1a.829.829,0,1,1,0-1.657H46.56a.829.829,0,0,1,0,1.657Z" transform="translate(-7.073 -11.652)" fill="#f6d258"/>
    <path id="Caminho_279" data-name="Caminho 279" d="M31,49.9a10.976,10.976,0,0,1-7-2.51L2.3,29.467A.829.829,0,0,1,3.356,28.19l21.7,17.92a9.351,9.351,0,0,0,11.891,0l21.7-17.92A.829.829,0,1,1,59.7,29.467L38,47.39A10.973,10.973,0,0,1,31,49.9Z" transform="translate(0 -4.456)" fill="#f6d258"/>
    <path id="Caminho_280" data-name="Caminho 280" d="M2.828,68.05A.829.829,0,0,1,2.3,66.583L23.372,49.19a.829.829,0,1,1,1.055,1.278L3.356,67.86a.829.829,0,0,1-.528.19Z" transform="translate(0 -8.055)" fill="#f6d258"/>
    <path id="Caminho_281" data-name="Caminho 281" d="M66.471,68.05a.829.829,0,0,1-.527-.19L44.872,50.467a.829.829,0,1,1,1.055-1.278L67,66.583a.829.829,0,0,1-.528,1.467Z" transform="translate(-7.296 -8.055)" fill="#f6d258"/>
    <path id="Caminho_282" data-name="Caminho 282" d="M44.064,10.634a.829.829,0,0,1-.5-.171L34.942,3.872l-8.618,6.592a.829.829,0,1,1-1.007-1.317l9.123-6.976a.829.829,0,0,1,1.006,0L44.57,9.147a.829.829,0,0,1-.5,1.492Z" transform="translate(-3.941 0)" fill="#f6d258"/>
    <path id="Caminho_283" data-name="Caminho 283" d="M68.953,28.224a.821.821,0,0,1-.5-.171l-9.115-6.969a.829.829,0,0,1,1.005-1.313l9.115,6.97a.829.829,0,0,1-.5,1.482Z" transform="translate(-9.778 -3.022)" fill="#f6d258"/>
    <path id="Caminho_284" data-name="Caminho 284" d="M51.945,34.168a.829.829,0,0,1-.829-.829V12.077H14.657V33.34a.829.829,0,0,1-1.657,0V11.249a.829.829,0,0,1,.829-.829H51.945a.829.829,0,0,1,.829.829V33.34A.829.829,0,0,1,51.945,34.168Z" transform="translate(-1.885 -1.443)" fill="#f6d258"/>
    <path id="Caminho_285" data-name="Caminho 285" d="M40.1,33.984a9.629,9.629,0,0,1-3.919.765,8.566,8.566,0,0,1-5.9-1.912,6.661,6.661,0,0,1-2.149-5.248,8.082,8.082,0,0,1,2.23-5.833,7.491,7.491,0,0,1,5.645-2.32,6.878,6.878,0,0,1,4.965,1.772,5.889,5.889,0,0,1,1.851,4.439,6,6,0,0,1-1.366,4.193,4.438,4.438,0,0,1-3.428,1.5,1.541,1.541,0,0,1-1.087-.378,1.369,1.369,0,0,1-.45-.944,2.887,2.887,0,0,1-2.444,1.322,2.707,2.707,0,0,1-2.067-.872,3.364,3.364,0,0,1-.816-2.393,5.838,5.838,0,0,1,1.3-3.746A3.646,3.646,0,0,1,35.292,22.7,2.983,2.983,0,0,1,37.8,23.714l.183-.788H39.4l-1.226,5.351a6.284,6.284,0,0,0-.209,1.32q0,.573.438.573a2.841,2.841,0,0,0,2.285-1.206,5.263,5.263,0,0,0,.958-3.344,4.7,4.7,0,0,0-1.574-3.639A5.826,5.826,0,0,0,36,20.547a6.249,6.249,0,0,0-4.806,2.043,7.113,7.113,0,0,0-1.883,5,5.635,5.635,0,0,0,1.8,4.464,7.4,7.4,0,0,0,5.06,1.588,8.1,8.1,0,0,0,3.344-.621Zm-2.58-9.1a2.343,2.343,0,0,0-4.041.3,5.147,5.147,0,0,0-.849,2.843q0,2.142,1.713,2.142a2.225,2.225,0,0,0,1.56-.7,3.717,3.717,0,0,0,1-1.883Z" transform="translate(-4.477 -2.987)" fill="#f6d258"/>
    <path id="Caminho_286" data-name="Caminho 286" d="M36.164,34.83A8.707,8.707,0,0,1,30.2,32.894a6.789,6.789,0,0,1-2.184-5.326,8.222,8.222,0,0,1,2.258-5.9,7.623,7.623,0,0,1,5.717-2.353,7.012,7.012,0,0,1,5.037,1.8,6.016,6.016,0,0,1,1.883,4.514,6.132,6.132,0,0,1-1.392,4.262,4.557,4.557,0,0,1-3.505,1.535,1.646,1.646,0,0,1-1.16-.406,1.453,1.453,0,0,1-.446-.762,2.952,2.952,0,0,1-2.379,1.168,2.817,2.817,0,0,1-2.142-.906,3.48,3.48,0,0,1-.844-2.463,5.966,5.966,0,0,1,1.321-3.812,3.766,3.766,0,0,1,2.908-1.668,3.2,3.2,0,0,1,2.454.892l.155-.669h1.631l-1.256,5.478a6.235,6.235,0,0,0-.2,1.3c0,.414.179.47.331.47a2.754,2.754,0,0,0,2.2-1.168,5.189,5.189,0,0,0,.938-3.279,4.628,4.628,0,0,0-1.543-3.563,5.753,5.753,0,0,0-4.007-1.409,6.173,6.173,0,0,0-4.73,2.009,7.043,7.043,0,0,0-1.855,4.934,5.562,5.562,0,0,0,1.768,4.386,7.337,7.337,0,0,0,4.992,1.563,8.038,8.038,0,0,0,3.3-.612l.083-.037.7,1.143-.109.047a9.764,9.764,0,0,1-3.958.771Zm-.176-15.313a7.429,7.429,0,0,0-5.572,2.289,8.019,8.019,0,0,0-2.2,5.761,6.59,6.59,0,0,0,2.115,5.171,8.507,8.507,0,0,0,5.833,1.884,9.637,9.637,0,0,0,3.766-.708l-.48-.785a8.338,8.338,0,0,1-3.3.593,7.534,7.534,0,0,1-5.129-1.615,5.758,5.758,0,0,1-1.838-4.541,7.238,7.238,0,0,1,1.911-5.075,6.371,6.371,0,0,1,4.881-2.072,5.95,5.95,0,0,1,4.143,1.461A4.822,4.822,0,0,1,41.73,25.6a5.386,5.386,0,0,1-.978,3.413,2.954,2.954,0,0,1-2.367,1.243c-.2,0-.541-.088-.541-.677a6.419,6.419,0,0,1,.21-1.346l1.2-5.22h-1.2l-.214.92L37.7,23.76a2.9,2.9,0,0,0-2.427-.979,3.573,3.573,0,0,0-2.746,1.59,5.761,5.761,0,0,0-1.275,3.682,3.281,3.281,0,0,0,.788,2.32,2.622,2.622,0,0,0,1.989.839,2.8,2.8,0,0,0,2.361-1.279l.166-.234.021.287a1.253,1.253,0,0,0,.414.875A1.445,1.445,0,0,0,38,31.212a4.357,4.357,0,0,0,3.351-1.467,5.935,5.935,0,0,0,1.339-4.123,5.816,5.816,0,0,0-1.823-4.364,6.81,6.81,0,0,0-4.883-1.739ZM34.324,30.252c-1.2,0-1.816-.756-1.816-2.246a5.27,5.27,0,0,1,.864-2.9,2.446,2.446,0,0,1,4.215-.3l.025.037-.623,2.75a3.842,3.842,0,0,1-1.033,1.936A2.334,2.334,0,0,1,34.324,30.252Zm1.059-6.3a2.276,2.276,0,0,0-1.836,1.267,5.06,5.06,0,0,0-.829,2.787c0,1.371.526,2.038,1.609,2.038a2.128,2.128,0,0,0,1.492-.669,3.629,3.629,0,0,0,.965-1.833l.6-2.663a2.264,2.264,0,0,0-2-.929Z" transform="translate(-4.457 -2.965)" fill="#f6d258"/>
  </g>
</svg>
