<svg id="rodape-telefon" xmlns="http://www.w3.org/2000/svg" width="17.216" height="17.217" viewBox="0 0 17.216 17.217">
  <g id="Grupo_373" data-name="Grupo 373" transform="translate(0)">
    <path id="Caminho_169" data-name="Caminho 169" d="M13.095,55.874a1.206,1.206,0,0,0-1.824,0c-.426.423-.853.846-1.272,1.275a.251.251,0,0,1-.351.064c-.276-.15-.57-.272-.835-.437a13.226,13.226,0,0,1-3.189-2.9,7.554,7.554,0,0,1-1.143-1.831.262.262,0,0,1,.064-.337c.426-.412.842-.835,1.261-1.258a1.211,1.211,0,0,0,0-1.867c-.333-.337-.666-.666-1-1s-.684-.691-1.032-1.032a1.214,1.214,0,0,0-1.824,0c-.43.423-.842.856-1.279,1.272a2.076,2.076,0,0,0-.652,1.4,5.935,5.935,0,0,0,.459,2.554,15.522,15.522,0,0,0,2.755,4.589,17.049,17.049,0,0,0,5.646,4.417,8.166,8.166,0,0,0,3.128.91,2.292,2.292,0,0,0,1.967-.749c.365-.408.777-.781,1.164-1.172a1.219,1.219,0,0,0,.007-1.856Q14.123,56.893,13.095,55.874Z" transform="translate(-0.006 -44.484)" fill="#de9d29"/>
    <path id="Caminho_170" data-name="Caminho 170" d="M241.738,101.095l1.322-.226A5.934,5.934,0,0,0,238.04,96l-.186,1.329a4.586,4.586,0,0,1,3.884,3.765Z" transform="translate(-229.333 -92.561)" fill="#de9d29"/>
    <path id="Caminho_171" data-name="Caminho 171" d="M248.529,2.787A9.748,9.748,0,0,0,242.94,0l-.186,1.329a8.506,8.506,0,0,1,7.2,6.975l1.322-.226A9.82,9.82,0,0,0,248.529,2.787Z" transform="translate(-234.057)" fill="#de9d29"/>
  </g>
</svg>
