<svg id="RODAPE-INSTA" xmlns="http://www.w3.org/2000/svg" width="18.445" height="18.445" viewBox="0 0 18.445 18.445">
  <g id="Grupo_88" data-name="Grupo 88" transform="translate(0)">
    <path id="Caminho_154" data-name="Caminho 154" d="M122.859,86.213c2.462,0,2.754.01,3.727.054a5.094,5.094,0,0,1,1.712.317,3.055,3.055,0,0,1,1.75,1.75,5.116,5.116,0,0,1,.318,1.713c.044.972.054,1.264.054,3.726s-.01,2.755-.054,3.727a5.1,5.1,0,0,1-.318,1.712,3.053,3.053,0,0,1-1.75,1.751,5.093,5.093,0,0,1-1.712.317c-.973.044-1.264.054-3.727.054s-2.754-.01-3.726-.054a5.1,5.1,0,0,1-1.713-.317,3.06,3.06,0,0,1-1.75-1.751,5.087,5.087,0,0,1-.317-1.712c-.044-.972-.054-1.264-.054-3.727s.01-2.754.054-3.726a5.1,5.1,0,0,1,.317-1.713,3.062,3.062,0,0,1,1.75-1.75,5.1,5.1,0,0,1,1.713-.317c.972-.044,1.264-.054,3.726-.054m0-1.662c-2.5,0-2.819.011-3.8.056a6.753,6.753,0,0,0-2.239.429,4.71,4.71,0,0,0-2.7,2.7,6.748,6.748,0,0,0-.429,2.238c-.045.984-.056,1.3-.056,3.8s.011,2.82.056,3.8a6.747,6.747,0,0,0,.429,2.238,4.71,4.71,0,0,0,2.7,2.7,6.776,6.776,0,0,0,2.239.429c.984.045,1.3.056,3.8.056s2.819-.011,3.8-.056a6.776,6.776,0,0,0,2.239-.429,4.714,4.714,0,0,0,2.7-2.7,6.769,6.769,0,0,0,.429-2.238c.045-.984.056-1.3.056-3.8s-.011-2.819-.056-3.8a6.769,6.769,0,0,0-.429-2.238,4.714,4.714,0,0,0-2.7-2.7,6.753,6.753,0,0,0-2.239-.429c-.984-.045-1.3-.056-3.8-.056" transform="translate(-113.637 -84.551)" fill="#de9d29"/>
    <path id="Caminho_155" data-name="Caminho 155" d="M123.449,89.627a4.736,4.736,0,1,0,4.736,4.736,4.736,4.736,0,0,0-4.736-4.736m0,7.811a3.075,3.075,0,1,1,3.074-3.075,3.075,3.075,0,0,1-3.074,3.075" transform="translate(-114.227 -85.14)" fill="#de9d29"/>
    <path id="Caminho_156" data-name="Caminho 156" d="M130.6,89.27a1.107,1.107,0,1,1-1.107-1.107A1.107,1.107,0,0,1,130.6,89.27" transform="translate(-115.35 -84.97)" fill="#de9d29"/>
  </g>
</svg>
