<svg id="RODAPE-YOUTUBE" xmlns="http://www.w3.org/2000/svg" width="17.712" height="20.982" viewBox="0 0 17.712 20.982">
  <path id="Caminho_1210" data-name="Caminho 1210" d="M24.472,39.311a2.237,2.237,0,0,0-1.915-1.74,59.505,59.505,0,0,0-6.632-.245,59.524,59.524,0,0,0-6.633.245,2.237,2.237,0,0,0-1.914,1.74A18.964,18.964,0,0,0,7.067,43.5a18.961,18.961,0,0,0,.309,4.187,2.237,2.237,0,0,0,1.914,1.74,59.511,59.511,0,0,0,6.632.246,59.467,59.467,0,0,0,6.633-.246,2.237,2.237,0,0,0,1.914-1.74,18.975,18.975,0,0,0,.31-4.187A18.989,18.989,0,0,0,24.472,39.311Zm-12.353,1.04H10.837v6.812H9.646V40.351H8.388V39.235h3.731Zm3.234,6.812H14.282v-.644a1.715,1.715,0,0,1-1.223.726.657.657,0,0,1-.69-.439,3.015,3.015,0,0,1-.094-.878V41.256h1.07V45.6a3.333,3.333,0,0,0,.01.416c.026.166.107.25.25.25.215,0,.439-.165.677-.5V41.256h1.071v5.907Zm4.066-1.773a4.719,4.719,0,0,1-.108,1.19.847.847,0,0,1-.855.664,1.459,1.459,0,0,1-1.106-.653v.572H16.28V39.235h1.07v2.589a1.45,1.45,0,0,1,1.106-.641.847.847,0,0,1,.855.666,4.536,4.536,0,0,1,.108,1.188Zm4.039-.986H21.318v1.047c0,.547.179.82.547.82a.46.46,0,0,0,.478-.429,6.735,6.735,0,0,0,.024-.725h1.092v.156c0,.345-.013.583-.023.69a1.525,1.525,0,0,1-.25.641,1.481,1.481,0,0,1-1.295.64,1.533,1.533,0,0,1-1.3-.6,2.288,2.288,0,0,1-.344-1.389V43.181a2.3,2.3,0,0,1,.331-1.392,1.522,1.522,0,0,1,1.282-.606,1.487,1.487,0,0,1,1.263.606,2.322,2.322,0,0,1,.331,1.392V44.4Z" transform="translate(-7.067 -28.689)" fill="#de9d29"/>
  <path id="Caminho_1211" data-name="Caminho 1211" d="M69.194,58.163q-.537,0-.537.819v.547h1.07v-.547C69.727,58.436,69.548,58.163,69.194,58.163Z" transform="translate(-54.405 -44.704)" fill="#de9d29"/>
  <path id="Caminho_1212" data-name="Caminho 1212" d="M52.039,58.163a.767.767,0,0,0-.534.26v3.6a.764.764,0,0,0,.534.264c.309,0,.466-.264.466-.8V58.969C52.5,58.436,52.348,58.163,52.039,58.163Z" transform="translate(-41.222 -44.704)" fill="#de9d29"/>
  <path id="Caminho_1213" data-name="Caminho 1213" d="M53.763,14.872A1.738,1.738,0,0,0,55,14.139v.651H56.08V8.82H55v4.563c-.24.339-.467.506-.683.506-.145,0-.23-.086-.254-.253a2.51,2.51,0,0,1-.013-.42V8.82H52.97v4.72a3.016,3.016,0,0,0,.1.888A.664.664,0,0,0,53.763,14.872Z" transform="translate(-42.348 -6.779)" fill="#de9d29"/>
  <path id="Caminho_1214" data-name="Caminho 1214" d="M18.86,4.766V8.011h1.2V4.766L21.5,0H20.289l-.818,3.146L18.619,0H17.357c.253.743.516,1.489.769,2.232A19.733,19.733,0,0,1,18.86,4.766Z" transform="translate(-14.976)" fill="#de9d29"/>
  <path id="Caminho_1215" data-name="Caminho 1215" d="M36.911,14.632a1.475,1.475,0,0,0,1.262-.611,2.335,2.335,0,0,0,.336-1.4v-2.09a2.34,2.34,0,0,0-.336-1.406,1.6,1.6,0,0,0-2.521,0,2.32,2.32,0,0,0-.339,1.406v2.09a2.314,2.314,0,0,0,.339,1.4A1.474,1.474,0,0,0,36.911,14.632Zm-.516-4.322c0-.552.168-.828.516-.828s.516.275.516.828v2.511c0,.552-.167.829-.516.829s-.516-.276-.516-.829Z" transform="translate(-28.777 -6.539)" fill="#de9d29"/>
</svg>
