<svg xmlns="http://www.w3.org/2000/svg" width="19.571" height="19.569" viewBox="0 0 19.571 19.569">
  <path id="rodape-email" d="M19.68,18.791h-8.9a8.01,8.01,0,1,1,7.609-5.514,1.61,1.61,0,0,1-1.533,1.067,1.63,1.63,0,0,1-1.628-1.628V7.227a.89.89,0,1,0-1.779,0V7.25a4.4,4.4,0,0,0-2.669-.912,4.448,4.448,0,1,0,2.959,7.743,3.409,3.409,0,0,0,3.117,2.041,3.364,3.364,0,0,0,3.224-2.292,9.785,9.785,0,1,0-9.3,6.739h8.9a.89.89,0,0,0,0-1.779Zm-8.9-5.337a2.669,2.669,0,1,1,2.669-2.669A2.671,2.671,0,0,1,10.785,13.453Z" transform="translate(-1 -1.001)" fill="#de9d29"/>
</svg>
