<svg xmlns="http://www.w3.org/2000/svg" width="17.602" height="17.6" viewBox="0 0 17.602 17.6">
  <path id="rodape-email" d="M17.8,17h-8a7.2,7.2,0,1,1,6.844-4.96A1.448,1.448,0,0,1,15.265,13,1.466,1.466,0,0,1,13.8,11.536V6.6a.8.8,0,0,0-1.6,0v.02A3.961,3.961,0,0,0,9.8,5.8a4,4,0,1,0,2.661,6.964,3.066,3.066,0,0,0,2.8,1.836,3.026,3.026,0,0,0,2.9-2.061A8.8,8.8,0,1,0,9.8,18.6h8a.8.8,0,0,0,0-1.6Zm-8-4.8a2.4,2.4,0,1,1,2.4-2.4A2.4,2.4,0,0,1,9.8,12.2Z" transform="translate(-1 -1.001)" fill="#ce3176"/>
</svg>
