<svg xmlns="http://www.w3.org/2000/svg" width="17.972" height="18.059" viewBox="0 0 17.972 18.059">
  <path id="rodape-whats" d="M15.6,2.624a8.951,8.951,0,0,0-14.084,10.8L.25,18.059l4.744-1.244A8.939,8.939,0,0,0,9.27,17.9h0A8.952,8.952,0,0,0,15.6,2.624ZM9.273,16.392h0a7.428,7.428,0,0,1-3.786-1.037l-.271-.161L2.4,15.933l.751-2.745-.177-.281a7.438,7.438,0,1,1,6.3,3.486Zm4.08-5.57c-.224-.112-1.323-.653-1.528-.727s-.354-.112-.5.112-.578.727-.708.877-.261.168-.484.056a6.107,6.107,0,0,1-1.8-1.11A6.745,6.745,0,0,1,7.088,8.48c-.13-.224,0-.333.1-.456a6.325,6.325,0,0,0,.559-.765.411.411,0,0,0-.019-.392c-.056-.112-.5-1.212-.689-1.66s-.366-.377-.5-.384-.279-.008-.429-.008a.821.821,0,0,0-.6.28,2.508,2.508,0,0,0-.782,1.865A4.35,4.35,0,0,0,5.64,9.274a9.967,9.967,0,0,0,3.82,3.376,12.8,12.8,0,0,0,1.275.471,3.065,3.065,0,0,0,1.408.089,2.3,2.3,0,0,0,1.509-1.063,1.868,1.868,0,0,0,.13-1.063c-.056-.093-.2-.149-.428-.261Zm0,0" transform="translate(-0.25)" fill="#de9d29" fill-rule="evenodd"/>
</svg>
