<svg id="topo-busca" xmlns="http://www.w3.org/2000/svg" width="18.914" height="18.914" viewBox="0 0 18.914 18.914">
  <g id="Grupo_3" data-name="Grupo 3">
    <path id="Caminho_96" data-name="Caminho 96" d="M16.671,13.1A7.675,7.675,0,0,0,5.817,2.244a7.526,7.526,0,0,0-1.154,9.263.323.323,0,0,1-.045.385L.7,15.807a1.788,1.788,0,0,0-.274,2.56l.119.119a1.788,1.788,0,0,0,2.56-.274l3.907-3.907a.328.328,0,0,1,.393-.053A7.526,7.526,0,0,0,16.671,13.1ZM7.234,11.681a5.671,5.671,0,1,1,8.02,0A5.677,5.677,0,0,1,7.234,11.681Z" transform="translate(-0.001 0)" fill="#ce3176"/>
    <g id="Grupo_2" data-name="Grupo 2" transform="translate(6.931 3.072)">
      <path id="Caminho_97" data-name="Caminho 97" d="M114.544,54.553a.793.793,0,0,1-.729-1.1A4.992,4.992,0,0,1,120.35,50.8a.792.792,0,1,1-.617,1.459,3.406,3.406,0,0,0-4.459,1.807A.792.792,0,0,1,114.544,54.553Z" transform="translate(-113.752 -50.409)" fill="#ce3176"/>
    </g>
  </g>
</svg>
