<svg xmlns="http://www.w3.org/2000/svg" width="40.6" height="35" viewBox="0 0 40.6 35">
  <g id="topo-chat" transform="translate(0 -32.003)">
    <g id="Grupo_865" data-name="Grupo 865" transform="translate(0 32.003)">
      <g id="Grupo_864" data-name="Grupo 864">
        <path id="Caminho_1383" data-name="Caminho 1383" d="M40.527,65.99,38.19,61.316A13.166,13.166,0,0,0,40.6,53.7,13.315,13.315,0,0,0,27.3,40.4H25.653A13.293,13.293,0,0,0,0,45.3a13.166,13.166,0,0,0,2.41,7.613L.074,57.59a.7.7,0,0,0,.939.939l4.674-2.337A13.166,13.166,0,0,0,13.3,58.6,13.419,13.419,0,0,0,14.91,58.5a13.262,13.262,0,0,0,20,6.1l4.674,2.337a.7.7,0,0,0,.939-.939ZM13.3,57.2a11.792,11.792,0,0,1-7.126-2.386.7.7,0,0,0-.734-.067L2.265,56.338l1.588-3.176a.7.7,0,0,0-.066-.734A11.792,11.792,0,0,1,1.4,45.3,11.9,11.9,0,1,1,13.3,57.2ZM35.16,63.15a.7.7,0,0,0-.734.066,11.867,11.867,0,0,1-18.114-4.971,13.232,13.232,0,0,0,9.8-16.443H27.3A11.913,11.913,0,0,1,39.2,53.7a11.792,11.792,0,0,1-2.386,7.126.7.7,0,0,0-.067.734l1.588,3.176Z" transform="translate(0 -32.003)" fill="#00a2e0"/>
      </g>
    </g>
    <g id="Grupo_867" data-name="Grupo 867" transform="translate(5.601 43.203)">
      <g id="Grupo_866" data-name="Grupo 866" transform="translate(0 0)">
        <path id="Caminho_1384" data-name="Caminho 1384" d="M66.1,160a2.1,2.1,0,1,0,2.1,2.1A2.1,2.1,0,0,0,66.1,160Zm0,2.8a.7.7,0,1,1,.7-.7A.7.7,0,0,1,66.1,162.8Z" transform="translate(-64.003 -160.003)" fill="#00a2e0"/>
      </g>
    </g>
    <g id="Grupo_869" data-name="Grupo 869" transform="translate(11.201 43.203)">
      <g id="Grupo_868" data-name="Grupo 868" transform="translate(0 0)">
        <path id="Caminho_1385" data-name="Caminho 1385" d="M130.1,160a2.1,2.1,0,1,0,2.1,2.1A2.1,2.1,0,0,0,130.1,160Zm0,2.8a.7.7,0,1,1,.7-.7A.7.7,0,0,1,130.1,162.8Z" transform="translate(-128.003 -160.003)" fill="#00a2e0"/>
      </g>
    </g>
    <g id="Grupo_871" data-name="Grupo 871" transform="translate(16.801 43.203)">
      <g id="Grupo_870" data-name="Grupo 870" transform="translate(0 0)">
        <path id="Caminho_1386" data-name="Caminho 1386" d="M194.1,160a2.1,2.1,0,1,0,2.1,2.1A2.1,2.1,0,0,0,194.1,160Zm0,2.8a.7.7,0,1,1,.7-.7A.7.7,0,0,1,194.1,162.8Z" transform="translate(-192.003 -160.003)" fill="#00a2e0"/>
      </g>
    </g>
    <g id="Grupo_873" data-name="Grupo 873" transform="translate(25.2 51.603)">
      <g id="Grupo_872" data-name="Grupo 872" transform="translate(0 0)">
        <path id="Caminho_1387" data-name="Caminho 1387" d="M290.1,256a2.1,2.1,0,1,0,2.1,2.1A2.1,2.1,0,0,0,290.1,256Zm0,2.8a.7.7,0,1,1,.7-.7A.7.7,0,0,1,290.1,258.8Z" transform="translate(-288.003 -256.003)" fill="#00a2e0"/>
      </g>
    </g>
    <g id="Grupo_875" data-name="Grupo 875" transform="translate(30.8 51.603)">
      <g id="Grupo_874" data-name="Grupo 874" transform="translate(0 0)">
        <path id="Caminho_1388" data-name="Caminho 1388" d="M354.1,256a2.1,2.1,0,1,0,2.1,2.1A2.1,2.1,0,0,0,354.1,256Zm0,2.8a.7.7,0,1,1,.7-.7A.7.7,0,0,1,354.1,258.8Z" transform="translate(-352.003 -256.003)" fill="#00a2e0"/>
      </g>
    </g>
  </g>
</svg>
