<?xml version="1.0" encoding="utf-8"?>
<!-- Generator: Adobe Illustrator 26.0.2, SVG Export Plug-In . SVG Version: 6.00 Build 0)  -->
<svg version="1.1" id="topo-logo" xmlns="http://www.w3.org/2000/svg" xmlns:xlink="http://www.w3.org/1999/xlink" x="0px" y="0px"
	 viewBox="0 0 187.6 148.4" style="enable-background:new 0 0 187.6 148.4;" xml:space="preserve">
<style type="text/css">
	.st0{clip-path:url(#SVGID_00000119077776169811822320000017757517375799613321_);}
	.st1{clip-path:url(#SVGID_00000044882022126559715350000004586976780247397517_);}
	.st2{fill:#E185E3;}
	.st3{fill:#5FA8FC;}
	.st4{opacity:0.75;}
	.st5{clip-path:url(#SVGID_00000162352086065517268860000004083734363275762835_);}
	.st6{clip-path:url(#SVGID_00000106125334490725506850000015692158794112655246_);}
	.st7{fill:#FFFFFF;}
	.st8{fill:#FFFA9C;}
	.st9{fill:#FFE4C9;}
	.st10{fill:#DFAE8F;}
	.st11{fill:#B0F8C1;}
	.st12{fill:#5FD0FF;}
	.st13{fill:#B0FCC3;}
	.st14{fill:#B0F9B2;}
	.st15{opacity:0.5;}
	.st16{clip-path:url(#SVGID_00000041296383174427760270000008302385715602679220_);}
	.st17{fill:#E1B4D1;}
	.st18{fill:none;}
	.st19{fill:#E1BCEF;}
	.st20{opacity:0.2;}
	.st21{clip-path:url(#SVGID_00000075148948657463730750000004701829551756126612_);}
	.st22{fill:#FFB5F3;}
	.st23{fill:#FF96FA;}
</style>
<g>
	<defs>
		<rect id="SVGID_1_" y="0" width="187.6" height="148.4"/>
	</defs>
	<clipPath id="SVGID_00000046324618472887016130000008041909717695277483_">
		<use xlink:href="#SVGID_1_"  style="overflow:visible;"/>
	</clipPath>
	<g id="Grupo_970" style="clip-path:url(#SVGID_00000046324618472887016130000008041909717695277483_);">
		<g id="Grupo_969">
			<g>
				<defs>
					<rect id="SVGID_00000036225914510961294560000011890086742057831816_" y="0" width="187.6" height="148.4"/>
				</defs>
				<clipPath id="SVGID_00000011033527579765695880000013405541483980303790_">
					<use xlink:href="#SVGID_00000036225914510961294560000011890086742057831816_"  style="overflow:visible;"/>
				</clipPath>
				<g id="Grupo_968" style="clip-path:url(#SVGID_00000011033527579765695880000013405541483980303790_);">
					<g id="Caminho_1406">
						<path class="st2" d="M170.8,89.7c0.3-0.5,0.7-0.5,0.9,0l1.4,2.8c0.3,0.6,0.9,0.9,1.5,1.1l3.1,0.5c0.6,0.1,0.7,0.5,0.3,0.9
							l-2.3,2.2c-0.4,0.5-0.6,1.1-0.6,1.7l0.5,3.1c0.1,0.6-0.2,0.8-0.7,0.5l-2.8-1.5c-0.6-0.3-1.2-0.3-1.8,0l-2.8,1.5
							c-0.5,0.3-0.8,0-0.7-0.5l0.5-3.1c0.1-0.6-0.1-1.3-0.6-1.7l-2.3-2.2c-0.4-0.4-0.3-0.8,0.3-0.9l3.1-0.5c0.6-0.1,1.2-0.5,1.5-1.1
							L170.8,89.7z"/>
					</g>
					<g id="Caminho_1407">
						<path class="st2" d="M167.1,103.1c-0.2,0-0.4-0.1-0.5-0.2c-0.3-0.2-0.4-0.6-0.3-1.1l0.5-3.1c0.1-0.5-0.1-1-0.4-1.3l-2.3-2.2
							c-0.3-0.3-0.5-0.7-0.3-1.1c0.1-0.3,0.4-0.6,0.9-0.7l3.1-0.5c0.5-0.1,0.9-0.4,1.1-0.8l1.4-2.8c0.4-0.8,1.4-0.8,1.8,0l1.4,2.8
							c0.2,0.4,0.7,0.7,1.1,0.8l3.1,0.5c0.5,0.1,0.8,0.3,0.9,0.7c0.1,0.4,0,0.7-0.3,1.1l-2.3,2.2c-0.3,0.3-0.5,0.8-0.4,1.3l0.5,3.1
							c0.1,0.5,0,0.8-0.3,1.1c-0.3,0.2-0.7,0.2-1.1,0l-2.8-1.5c-0.4-0.2-0.9-0.2-1.4,0l-2.8,1.5
							C167.5,103.1,167.3,103.1,167.1,103.1z M164.8,94.5C164.8,94.5,164.8,94.6,164.8,94.5l2.3,2.2c0.5,0.6,0.8,1.4,0.7,2.2
							l-0.5,3.2c0,0,0,0,0,0c0,0,0,0,0,0l2.8-1.5c0.7-0.3,1.6-0.3,2.3,0l2.8,1.5c0,0,0,0,0,0c0,0,0,0,0,0l-0.5-3.1
							c-0.1-0.8,0.2-1.6,0.7-2.2l2.3-2.2c0,0,0,0,0,0c0,0,0,0,0,0l-3.1-0.5c-0.8-0.2-1.5-0.6-1.8-1.3l-1.4-2.9c0,0,0,0,0,0
							c0,0,0,0,0,0l-1.4,2.8c-0.4,0.7-1.1,1.2-1.8,1.3L164.8,94.5C164.8,94.5,164.8,94.5,164.8,94.5z"/>
					</g>
					<g id="Caminho_1408">
						<path class="st3" d="M6.7,93.2c0.2-0.5,0.6-0.5,0.9,0l1.3,2.7c0.3,0.5,0.8,0.9,1.4,1l2.9,0.4c0.5,0.1,0.6,0.4,0.3,0.8
							l-2.1,2.1c-0.4,0.4-0.6,1-0.5,1.6l0.5,2.9c0.1,0.5-0.2,0.8-0.7,0.5L8,103.9c-0.5-0.2-1.2-0.2-1.7,0l-2.6,1.4
							c-0.5,0.2-0.8,0-0.7-0.5l0.5-2.9c0.1-0.6-0.1-1.2-0.5-1.6l-2.1-2.1c-0.4-0.4-0.3-0.7,0.3-0.8L4,96.9c0.6-0.1,1.1-0.5,1.4-1
							L6.7,93.2z"/>
					</g>
					<g id="Caminho_1409">
						<path class="st3" d="M3.3,105.9c-0.2,0-0.4-0.1-0.5-0.2c-0.3-0.2-0.4-0.6-0.3-1l0.5-2.9c0-0.4-0.1-0.9-0.4-1.2l-2.1-2.1
							c-0.3-0.3-0.4-0.7-0.3-1c0.1-0.3,0.4-0.6,0.9-0.6l2.9-0.4c0.4-0.1,0.8-0.4,1-0.8L6.2,93c0.2-0.4,0.5-0.6,0.9-0.6c0,0,0,0,0,0
							c0.4,0,0.7,0.2,0.9,0.6l1.3,2.7c0.2,0.4,0.6,0.6,1,0.7l2.9,0.4c0.4,0.1,0.8,0.3,0.9,0.6c0.1,0.3,0,0.7-0.3,1l-2.1,2.1
							c-0.3,0.3-0.4,0.8-0.4,1.2l0.5,2.9c0.1,0.4,0,0.8-0.3,1c-0.3,0.2-0.7,0.2-1.1,0l-2.6-1.4c-0.4-0.2-0.9-0.2-1.3,0l-2.6,1.4
							C3.6,105.8,3.4,105.9,3.3,105.9z M1.1,97.8l2.1,2.1c0.5,0.6,0.8,1.3,0.7,2l-0.5,2.9l2.6-1.4c0.7-0.3,1.5-0.3,2.2,0l2.6,1.4
							l-0.5-2.9c-0.1-0.8,0.2-1.5,0.7-2.1l2.1-2.1l-2.9-0.4c-0.8-0.2-1.4-0.6-1.8-1.3l-1.3-2.6l-1.3,2.6c-0.4,0.7-1,1.1-1.7,1.3
							L1.1,97.8z"/>
					</g>
					<g id="Caminho_1410">
						<path class="st3" d="M7.8,92.4l-1-0.3c0.3-0.9,0.6-1.7,0.9-2.6l0.9,0.4C8.4,90.7,8.1,91.5,7.8,92.4z"/>
					</g>
					<g id="Caminho_1411">
						<path class="st3" d="M11.5,85l-0.8-0.6c1.2-1.6,2.5-2.9,3.9-3.9l0.6,0.8C13.8,82.3,12.6,83.5,11.5,85z M19.8,79.2l-0.2-1
							c1.7-0.4,3.6-0.5,5.5-0.2L25,79C23.2,78.7,21.5,78.8,19.8,79.2z"/>
					</g>
					<g id="Caminho_1412">
						<path class="st3" d="M34.5,82.4c-0.3,0-0.5-0.1-0.6-0.2c-0.8-0.5-1.6-0.9-2.4-1.2l0.4-0.9c0.7,0.3,1.4,0.7,2.1,1.1
							c0,0,0,0,0-0.1c-0.2-0.5-0.4-1.3-0.4-2l1,0c0,0.6,0.2,1.2,0.3,1.7c0.2,0.7,0.3,1.2,0,1.5C34.8,82.3,34.7,82.4,34.5,82.4z"/>
					</g>
					<g id="Caminho_1413">
						<path class="st3" d="M34.8,76.2l-1-0.1c0.1-0.9,0.1-1.8,0.3-2.6l1,0.1C34.9,74.5,34.8,75.4,34.8,76.2z"/>
					</g>
					<g id="Caminho_1414">
						<path class="st3" d="M35.6,70.8l-1-0.3c0.5-1.7,1.2-2.4,2.1-2.3l-0.2,1C36.2,69.1,35.9,69.8,35.6,70.8z"/>
					</g>
					<g id="Caminho_1415">
						<path class="st2" d="M169.7,88.2c-0.2-0.8-0.5-1.7-0.9-2.5l0.9-0.4c0.4,0.8,0.7,1.7,0.9,2.6L169.7,88.2z"/>
					</g>
					<g id="Caminho_1416">
						<path class="st2" d="M165.9,80.6c-1.2-1.6-2.4-2.9-3.8-3.9l0.6-0.8c1.5,1.1,2.8,2.4,4.1,4.1L165.9,80.6z M157.2,74.5
							c-1.7-0.4-3.5-0.5-5.4-0.2l-0.1-1c2-0.3,4-0.2,5.8,0.2L157.2,74.5z"/>
					</g>
					<g id="Caminho_1417">
						<path class="st2" d="M141.9,77.8c-0.1,0-0.3,0-0.4-0.1c-0.4-0.3-0.2-0.8,0-1.5c0.1-0.5,0.3-1.1,0.3-1.7l1,0
							c0,0.7-0.2,1.5-0.4,2c0,0,0,0,0,0.1c0.7-0.4,1.4-0.7,2.1-1.1l0.4,0.9c-0.8,0.4-1.6,0.8-2.4,1.2
							C142.4,77.6,142.2,77.8,141.9,77.8z"/>
					</g>
					<g id="Caminho_1418">
						<path class="st2" d="M141.6,71.5c-0.1-0.9-0.1-1.8-0.3-2.8l1-0.1c0.1,0.9,0.2,1.9,0.3,2.8L141.6,71.5z"/>
					</g>
					<g id="Caminho_1419">
						<path class="st2" d="M140.8,65.6c-0.3-1-0.7-1.6-1-1.6l-0.2-1c0.9-0.2,1.7,0.6,2.2,2.2L140.8,65.6z"/>
					</g>
					<g id="Grupo_961" transform="translate(0.719 78.728)" class="st4">
						<g id="Grupo_960">
							<g>
								<defs>
									<rect id="SVGID_00000119079597383905501090000013822472471559026072_" x="0" y="0" width="185.1" height="70.6"/>
								</defs>
								<clipPath id="SVGID_00000013164014412299099830000002382749519972058247_">
									<use xlink:href="#SVGID_00000119079597383905501090000013822472471559026072_"  style="overflow:visible;"/>
								</clipPath>
								<g id="Grupo_959" style="clip-path:url(#SVGID_00000013164014412299099830000002382749519972058247_);">
									<g id="Grupo_958" transform="translate(0)">
										<g>
											<defs>
												<rect id="SVGID_00000138569720095117558480000010468462022690653825_" x="0" y="0" width="185.1" height="70.6"/>
											</defs>
											<clipPath id="SVGID_00000147939326745474704910000010617048366594460292_">
												<use xlink:href="#SVGID_00000138569720095117558480000010468462022690653825_"  style="overflow:visible;"/>
											</clipPath>
											<g id="Grupo_957" style="clip-path:url(#SVGID_00000147939326745474704910000010617048366594460292_);">
												
													<image style="overflow:visible;enable-background:new    ;" width="718" height="274" id="Retângulo_559" xlink:href="91046D63.png"  transform="matrix(0.2578 0 0 0.2578 0 9.900833e-05)">
												</image>
											</g>
										</g>
									</g>
								</g>
							</g>
						</g>
					</g>
					<g id="Caminho_1420">
						<path class="st7" d="M32.5,128.8c-1.7,0-3.3-0.6-4.7-1.7c0,0-0.1,0-0.1-0.1c-1.5-1.4-2.4-3.3-2.3-5.3v-10h-0.2
							c-2,0.1-3.9-0.7-5.3-2.2c-0.1-0.1-0.1-0.1-0.2-0.2c-2.3-2.7-2.3-6.6,0-9.3c0.1-0.1,0.1-0.1,0.2-0.2c1.4-1.5,3.3-2.3,5.3-2.2
							h14c2-0.1,3.9,0.7,5.2,2.2c1.3,1.4,1.9,3.1,1.9,4.9c0,1.8-0.7,3.5-1.9,4.8c-1.3,1.4-3.1,2.2-4.9,2.2v10c0.1,2-0.7,3.9-2.2,5.3
							c-0.1,0.1-0.1,0.1-0.2,0.2C35.8,128.2,34.2,128.8,32.5,128.8z M24.8,107.6C24.8,107.6,24.8,107.6,24.8,107.6
							C24.8,107.6,24.8,107.6,24.8,107.6z M24.8,101.7C24.8,101.7,24.8,101.7,24.8,101.7C24.8,101.7,24.8,101.7,24.8,101.7z"/>
					</g>
					<g id="Caminho_1421">
						<path class="st7" d="M44.6,128.8c-2.8,0-5.4-1-7.5-2.8c-0.1-0.1-0.2-0.1-0.2-0.2c-2.1-2.1-3.3-5-3.2-8
							c-0.1-3.4,1.5-6.7,4.2-8.8c0,0,0.1-0.1,0.1-0.1c0.3-0.2,0.6-0.4,1-0.6c0-0.1,0-0.1,0-0.2c0-3.3,2.4-6.8,7.5-6.8
							c2.9-0.1,5.8,0.8,8.2,2.4c2.9,2.1,4.5,5.4,4.4,8.9l0,11.2c0,2.8-2.2,5-5,5H45C44.9,128.8,44.7,128.8,44.6,128.8z"/>
					</g>
					<g id="Caminho_1422">
						<path class="st7" d="M59.2,128.8c-1.7,0-3.3-0.6-4.6-1.8c-1.5-1.3-2.4-3.3-2.3-5.4v-17c0-1.8,0.6-3.6,1.9-4.9
							c1.3-1.4,3-2.1,4.9-2.2c0.1,0,0.2,0,0.3,0c0,0,0,0,0,0c1.8,0,3.5,0.7,4.8,1.9c1.5,1.4,2.3,3.3,2.2,5.3v17
							c0.1,2-0.7,3.9-2.2,5.3c0,0-0.1,0.1-0.1,0.1c-1.3,1.1-3,1.8-4.7,1.8C59.3,128.8,59.3,128.8,59.2,128.8z M56.4,122.1
							L56.4,122.1L56.4,122.1z"/>
					</g>
					<g id="Caminho_1423">
						<path class="st7" d="M71.8,134.9c-0.1,0-0.1,0-0.2,0c-1.7,0-3.3-0.6-4.6-1.7c-1.6-1.3-2.5-3.2-2.5-5.3c0-0.9,0.2-1.8,0.5-2.6
							c-0.8-2-2.4-5.9-5.5-13.7c-0.4-0.9-0.6-1.8-0.6-2.7c0-2,0.8-4,2.4-5.3c1.3-1.1,2.9-1.8,4.6-1.8c2.9-0.1,5.5,1.7,6.6,4.4
							c1-2.7,3.6-4.5,6.5-4.4c1.7,0,3.4,0.6,4.7,1.8c1.5,1.3,2.4,3.2,2.4,5.2c0,0,0,0,0,0c0,0.8-0.2,1.6-0.4,2.4
							c0,0.1,0,0.1-0.1,0.2l-7.4,18.8C77.3,133.1,74.7,134.9,71.8,134.9z M82,109.7C82,109.7,82,109.7,82,109.7
							C82,109.7,82,109.7,82,109.7z M81.2,108.9L81.2,108.9L81.2,108.9z"/>
					</g>
					<g id="Caminho_1424">
						<path class="st7" d="M103.2,128.8c-0.2,0-0.4,0-0.6,0h-9.5c-2.8,0-5-2.2-5-5v-21.2c0-2.8,2.2-5,5-5h9.3c2.8,0,5.5,0.9,7.6,2.7
							c2.4,2,3.9,5.1,3.9,8.3c0,0.7-0.1,1.3-0.2,2c1.3,1.7,2,3.9,2,6.1c0.2,3.5-1.3,7-4.1,9.2c-0.1,0.1-0.2,0.2-0.3,0.3
							C108.9,127.9,106.1,128.8,103.2,128.8z"/>
					</g>
					<g id="Caminho_1425">
						<path class="st7" d="M118.9,128.8c-2.8,0-5.4-1-7.5-2.8c-0.1-0.1-0.2-0.1-0.2-0.2c-2.1-2.1-3.3-5-3.2-8
							c-0.1-3.4,1.5-6.7,4.2-8.8c0,0,0.1-0.1,0.1-0.1c0.3-0.2,0.6-0.4,0.9-0.6c0-0.1,0-0.1,0-0.2c0-3.3,2.4-6.8,7.5-6.8
							c2.9-0.1,5.8,0.8,8.2,2.4c2.9,2.1,4.5,5.4,4.4,8.9l0,11.2c0,1.3-0.5,2.6-1.5,3.5c-0.9,0.9-2.2,1.5-3.5,1.5h-9.1
							C119.2,128.8,119.1,128.8,118.9,128.8z"/>
					</g>
					<g id="Caminho_1426">
						<path class="st7" d="M138.2,128.8c-0.1,0-0.3,0-0.4,0c-0.8,0-1.7-0.1-2.5-0.3c-0.7,0.2-1.5,0.3-2.3,0.3
							c-1.7,0-3.3-0.7-4.6-1.8c-1.5-1.4-2.3-3.3-2.2-5.3v-16.3c-0.1-2,0.7-3.9,2.2-5.3c0,0,0.1-0.1,0.1-0.1c1.3-1.2,3-1.8,4.7-1.8
							c0,0,0,0,0.1,0c1.8,0,3.5,0.7,4.8,1.9c0.5,0.5,1,1.1,1.3,1.7c3.1,0.3,5.9,1.8,7.9,4.3c2.2,2.6,3.4,6.1,3.4,9.6
							c0.1,3.4-1.1,6.7-3.4,9.2C144.9,127.4,141.6,128.8,138.2,128.8z M137.7,115.9c0.1,0,0.1,0,0.2,0c0.1,0,0.1,0,0.2-0.1l0-0.1
							l-0.6,0L137.7,115.9z M138.3,115.7L138.3,115.7c0,0,0.1,0,0.1,0L138.3,115.7z"/>
					</g>
					<g id="Caminho_1427">
						<path class="st7" d="M155.5,134.9c-0.1,0-0.1,0-0.2,0c-1.7,0-3.3-0.6-4.5-1.7c-1.6-1.3-2.5-3.2-2.5-5.3c0-0.9,0.2-1.8,0.5-2.6
							c-0.8-2-2.4-5.9-5.5-13.7c-0.4-0.9-0.6-1.8-0.6-2.7c0-2.1,0.8-4,2.4-5.3c1.3-1.1,2.9-1.8,4.6-1.8c2.9-0.1,5.5,1.7,6.6,4.4
							c1-2.7,3.7-4.4,6.5-4.4c1.7,0,3.4,0.6,4.7,1.8c1.5,1.3,2.4,3.2,2.4,5.2c0,0.8-0.1,1.6-0.4,2.4c0,0.1,0,0.1-0.1,0.2l-7.4,18.8
							C161,133.1,158.4,134.9,155.5,134.9z M157.9,129.5C157.9,129.5,157.9,129.5,157.9,129.5C157.9,129.5,157.9,129.5,157.9,129.5z
							 M165.7,109.7C165.7,109.7,165.7,109.7,165.7,109.7C165.7,109.7,165.7,109.7,165.7,109.7z"/>
					</g>
					<g id="Caminho_1428">
						<path class="st2" d="M41.4,104.6c0,0.5-0.2,1-0.5,1.4c-0.4,0.4-0.9,0.6-1.5,0.6h-4.8v15.1c0,0.6-0.2,1.1-0.6,1.5
							c-0.8,0.7-2,0.7-2.9,0c-0.4-0.4-0.7-0.9-0.6-1.5v-15.1h-5.3c-0.6,0-1.1-0.2-1.5-0.6c-0.7-0.8-0.7-2,0-2.9
							c0.4-0.4,0.9-0.6,1.5-0.6h14.2c0.6,0,1.1,0.2,1.5,0.6C41.2,103.6,41.4,104.1,41.4,104.6"/>
					</g>
					<g id="Caminho_1429">
						<path class="st2" d="M54.1,123.8h-9.2c-1.7,0.1-3.3-0.5-4.5-1.6c-1.2-1.2-1.8-2.8-1.7-4.5c-0.1-1.8,0.7-3.6,2.2-4.7
							c1.5-1,3.2-1.5,5-1.4c0.8,0,1.5,0.2,2.2,0.6c0.8,0.3,1.5,0.9,1.8,1.7c0.1-0.2,0.1-0.5,0.1-0.7c0.1-1.3-0.9-2.5-2.2-2.7
							c-0.1,0-0.6-0.1-1.5-0.1c-0.5,0-1-0.2-1.4-0.5c-0.5-0.4-0.8-1-0.8-1.7c0-1.3,0.9-1.9,2.6-1.9c1.8-0.1,3.7,0.5,5.2,1.5
							c1.5,1.1,2.4,2.9,2.3,4.7L54.1,123.8z M50,119.8v-1.6c0-0.9-0.6-1.7-1.5-2c-0.8-0.4-1.7-0.6-2.6-0.6c-2.1,0-3.2,0.8-3.2,2.3
							c0,1.3,0.9,2,2.7,2L50,119.8L50,119.8z"/>
					</g>
					<g id="Caminho_1430">
						<path class="st2" d="M61.3,121.8c0,0.6-0.2,1.1-0.6,1.5c-0.4,0.3-0.9,0.5-1.4,0.5c-0.5,0-1-0.2-1.4-0.5
							c-0.4-0.4-0.7-0.9-0.7-1.5v-17.2c0-1.1,0.8-2,1.9-2c0,0,0.1,0,0.1,0c0.5,0,1,0.2,1.4,0.5c0.4,0.4,0.6,0.9,0.6,1.5V121.8z"/>
					</g>
					<g id="Caminho_1431">
						<path class="st2" d="M81.2,108.9c0,0.3-0.1,0.6-0.1,0.8l-7.4,18.9c-0.3,0.8-1,1.3-1.9,1.3c-0.5,0-1.1-0.2-1.5-0.5
							c-0.4-0.3-0.7-0.8-0.7-1.3c0-0.3,0.1-0.6,0.2-0.9l0.7-1.6c0-0.1-2.1-5.4-6.3-15.8c-0.1-0.3-0.2-0.5-0.2-0.8
							c0-0.5,0.2-1.1,0.7-1.4c0.4-0.4,0.9-0.6,1.5-0.6c0.8,0,1.6,0.5,1.9,1.3l3,7.1c0.7,1.7,1.2,3.4,1.7,5.2c0.5-1.7,1-3.5,1.7-5.1
							l2.9-7.2c0.2-0.8,1-1.3,1.8-1.3c0.5,0,1.1,0.2,1.5,0.6C80.9,107.9,81.2,108.4,81.2,108.9"/>
					</g>
					<g id="Caminho_1432">
						<path class="st3" d="M110.7,116.9c0.1,2-0.7,4-2.3,5.2c-1.7,1.2-3.7,1.8-5.8,1.6h-9.6v-21.2h9.3c1.6,0,3.2,0.5,4.4,1.6
							c1.3,1.1,2.1,2.7,2.1,4.5c0,1.2-0.4,2.4-1.1,3.3C109.6,113,110.7,114.8,110.7,116.9 M104.8,108.6c0-0.5-0.2-1-0.7-1.4
							c-0.5-0.4-1.1-0.6-1.8-0.6h-5.2v4.2h5.2c0.6,0,1.2-0.2,1.7-0.7C104.5,109.8,104.8,109.3,104.8,108.6 M106.6,116.9
							c0-0.5-0.3-1-0.7-1.2c-1-0.7-2.3-1-3.5-0.9h-5.2v5h5.4c1,0.1,1.9-0.1,2.8-0.5C106.3,118.8,106.7,117.8,106.6,116.9"/>
					</g>
					<g id="Caminho_1433">
						<path class="st3" d="M128.4,123.8h-9.2c-1.7,0.1-3.3-0.5-4.5-1.6c-1.2-1.2-1.8-2.8-1.7-4.5c-0.1-1.8,0.7-3.6,2.2-4.7
							c1.5-1,3.2-1.5,5-1.4c0.8,0,1.5,0.2,2.2,0.6c0.8,0.3,1.5,0.9,1.8,1.7c0.1-0.2,0.1-0.5,0.1-0.7c0.1-1.3-0.9-2.5-2.2-2.7
							c-0.1,0-0.6-0.1-1.5-0.1c-0.5,0-1-0.2-1.4-0.5c-0.5-0.4-0.8-1-0.8-1.7c0-1.3,0.9-1.9,2.6-1.9c1.8-0.1,3.7,0.5,5.2,1.5
							c1.5,1.1,2.4,2.9,2.3,4.7L128.4,123.8z M124.4,119.8v-1.6c0-0.9-0.6-1.7-1.5-2c-0.8-0.4-1.7-0.6-2.6-0.6
							c-2.1,0-3.2,0.8-3.2,2.3c0,1.3,0.9,2,2.7,2L124.4,119.8L124.4,119.8z"/>
					</g>
					<g id="Caminho_1434">
						<path class="st3" d="M145.7,115.7c0.1,2.1-0.7,4.2-2.1,5.8c-1.5,1.6-3.5,2.4-5.7,2.3c-0.6,0-1.3-0.1-1.9-0.3
							c-0.5-0.1-1-0.5-1.2-1c-0.1,0.8-0.8,1.4-1.6,1.3c-0.5,0-1-0.2-1.4-0.5c-0.4-0.4-0.6-0.9-0.6-1.5v-16.6c0-0.6,0.2-1.1,0.6-1.5
							c0.4-0.4,0.9-0.5,1.5-0.5c0.5,0,1,0.2,1.4,0.5c0.4,0.4,0.6,0.9,0.6,1.5v3.1c0.4-1.1,1.4-1.6,3-1.6c2,0,3.9,0.9,5.2,2.4
							C144.9,111,145.7,113.3,145.7,115.7 M141.6,115.8c0-1.4-0.4-2.9-1.4-4c-0.6-0.7-1.6-1-2.5-0.9c-1.7,0-2.5,0.7-2.5,2.1v4.2
							c0,0.8,0.5,1.5,1.2,1.9c0.4,0.4,0.9,0.6,1.5,0.6c1,0.1,2-0.3,2.7-1.1C141.3,117.9,141.6,116.9,141.6,115.8"/>
					</g>
					<g id="Caminho_1435">
						<path class="st3" d="M164.9,108.9c0,0.3-0.1,0.6-0.1,0.8l-7.4,18.9c-0.3,0.8-1,1.3-1.9,1.3c-0.5,0-1.1-0.2-1.5-0.5
							c-0.4-0.3-0.7-0.8-0.7-1.3c0-0.3,0.1-0.6,0.2-0.9l0.7-1.6c0-0.1-2.1-5.4-6.3-15.8c-0.1-0.3-0.2-0.5-0.2-0.8
							c0-0.5,0.2-1.1,0.7-1.4c0.4-0.4,0.9-0.6,1.5-0.6c0.8,0,1.6,0.5,1.9,1.3l3,7.1c0.7,1.7,1.2,3.4,1.7,5.2c0.5-1.7,1-3.5,1.7-5.1
							l2.9-7.2c0.2-0.8,1-1.3,1.8-1.3c0.5,0,1.1,0.2,1.5,0.6C164.6,107.8,164.9,108.4,164.9,108.9"/>
					</g>
					<g id="Caminho_1436">
						<path class="st8" d="M85.8,2.7c1.8-3.5,4.6-3.5,6.4,0l9.8,19.8c2.2,3.9,5.9,6.6,10.3,7.5l21.8,3.2c3.9,0.6,4.8,3.3,2,6.1
							l-15.8,15.4c-3,3.3-4.4,7.7-3.9,12.1l3.7,21.7c0.7,3.9-1.7,5.6-5.2,3.7L95.3,81.9c-4-1.8-8.7-1.8-12.7,0L63.1,92.1
							c-3.5,1.8-5.8,0.2-5.2-3.7l3.7-21.7c0.5-4.4-0.9-8.8-3.9-12.1L41.9,39.2c-2.8-2.8-1.9-5.5,2-6.1l21.8-3.2
							c4.4-0.9,8.1-3.6,10.3-7.5L85.8,2.7z"/>
					</g>
					<g id="Caminho_1437">
						<path class="st9" d="M82.1,76.8c-4.6-3.1-7.9,4.1-7.5,3.2c8.7,7,9.5,4.6,9.5,4.6c4.5-4.3,3.5-7.9,3.5-7.9S85.7,73.8,82.1,76.8
							c-0.6,0.5-1.1,1-1.5,1.6"/>
					</g>
					<g id="Caminho_1438">
						<path class="st10" d="M83.3,85.4c-1.6,0-4.6-1.7-8.7-4.9l0,0l-0.3,0l-0.1-0.2c0-0.1,0-0.2,0.1-0.3l0,0l0-0.1
							c0.3-0.8,1.5-2.4,2.8-3.3c1.6-1.2,3.3-1.2,5-0.2c1.2-1,2.4-1.4,3.6-1.3c1.5,0.2,2.3,1.4,2.3,1.4l0.1,0.1
							c0,0.2,0.9,3.8-3.6,8.2c-0.1,0.1-0.2,0.3-0.6,0.5C83.6,85.4,83.5,85.4,83.3,85.4z M75.1,79.9c5.8,4.6,7.8,4.8,8.4,4.7
							c0.2,0,0.2-0.1,0.2-0.1l0.1-0.1c3.9-3.8,3.5-7,3.5-7.5c-0.2-0.2-0.8-0.9-1.8-1c-1-0.1-2,0.3-3.2,1.3c-0.5,0.5-1,1-1.5,1.6
							l-0.6-0.5c0.4-0.5,0.8-0.9,1.2-1.3c-0.9-0.5-1.7-0.6-2.6-0.3C77,77.1,75.6,79.1,75.1,79.9z"/>
					</g>
					<g id="Caminho_1439">
						<path class="st9" d="M73,73.5c0,0,8.7-13.4-10.2-3.2l-1.2,5.5l10.3,1.5l0.6-1.9L73,73.5z"/>
					</g>
					<g id="Caminho_1440">
						<path class="st10" d="M72.2,77.7l-11.1-1.6l1.4-6l0.1-0.1c6.8-3.7,10.8-4.7,12.3-3.2c1.7,1.8-1.1,6.2-1.5,6.9L72.2,77.7z
							 M62,75.5l9.6,1.4l1-3.4l0.4,0.1l-0.3-0.2c0.8-1.3,2.7-4.8,1.6-6c-0.6-0.7-2.9-1.2-11.2,3.3L62,75.5z"/>
					</g>
					<g id="Caminho_1441">
						<path class="st3" d="M69,68c-0.1,0-0.3,0-0.4-0.1c-0.1-0.1-0.2-0.2-0.3-0.3c-0.1-0.4,0.2-0.8,0.7-1c0.4-0.1,0.7-0.2,0.9,0
							c0.1,0.1,0.2,0.2,0.3,0.3c0.1,0.4-0.2,0.8-0.7,1C69.4,67.9,69.2,68,69,68z"/>
					</g>
					<g id="Linha_44">
						
							<rect x="74.6" y="66.2" transform="matrix(0.319 -0.9478 0.9478 0.319 -11.8026 116.6822)" class="st3" width="1.4" height="0.8"/>
					</g>
					<g id="Caminho_1442">
						<path class="st11" d="M66,85.1c-10.3-1.8-4.9-9.3-4.9-9.3l11.3-0.4l-0.1,0.4l-0.4,1.4c-2.1,0.4-4,1.8-5.2,3.6l-2.6-0.6v1.8
							L66,85.1z"/>
					</g>
					<g id="Caminho_1443">
						<path class="st11" d="M66.8,85.6L66,85.4c-3.4-0.6-5.5-1.9-6.3-3.8c-1.1-2.8,1.1-6,1.2-6.1l0.1-0.1L73,75l-0.8,2.5l-0.2,0
							c-2,0.4-3.8,1.7-4.9,3.4l-0.1,0.2l-2.4-0.5v1.3L66.8,85.6z M61.4,76.2c-0.4,0.6-1.9,3.1-1,5.2c0.6,1.5,2.3,2.6,4.9,3.1
							l-1.5-2.4v-2.4l2.8,0.6c1.2-1.8,3-3,5.1-3.5l0.3-1.1L61.4,76.2z"/>
					</g>
					<g id="Caminho_1444">
						<path class="st7" d="M89.4,59.7c0.1-9.7-7.3-7.2-7.3-7.2c-1.3,0.6-2.4,1.6-3.2,2.8"/>
					</g>
					<g id="Caminho_1445">
						<path class="st12" d="M89.8,59.7l-0.8,0c0-3.1-0.7-5.2-2.2-6.3c-2-1.4-4.6-0.6-4.7-0.6c-1.2,0.6-2.3,1.5-3,2.7l-0.6-0.4
							c0.8-1.3,2-2.3,3.4-2.9c0.2-0.1,3.1-1,5.4,0.7C89,54.1,89.9,56.4,89.8,59.7z"/>
					</g>
					<g id="Caminho_1446">
						<path class="st7" d="M87.3,53.5c3-5.1-0.7-5.5-0.8-5.5c0,0-2.3,0.5-2.4,4.4"/>
					</g>
					<g id="Caminho_1447">
						<path class="st12" d="M87.6,53.7L87,53.3c1-1.8,1.3-3.2,0.9-4c-0.4-0.7-1.1-0.9-1.3-0.9c-0.3,0.1-2,0.8-2.1,4.1l-0.8,0
							c0.1-4.2,2.6-4.8,2.7-4.8l0.1,0l0.1,0c0.1,0,1.4,0.1,2,1.3C89.1,50,88.8,51.6,87.6,53.7z"/>
					</g>
					<g id="Caminho_1448">
						<path class="st7" d="M89.3,63.1c0.8-1,0.8-2.4,0-3.4c-1.7-2-10.6-3.5-10.2-3.4"/>
					</g>
					<g id="Caminho_1449">
						<path class="st12" d="M89.6,63.3L89,62.9c0.7-0.9,0.7-2.1,0-3c-1.4-1.6-8.9-3.1-9.9-3.2l0-0.2l0,0.2l-0.3-0.3l0.2-0.4
							c0,0,0.1,0,0.2,0l0,0l0,0c1.4,0.1,8.9,1.7,10.4,3.5C90.5,60.6,90.5,62.2,89.6,63.3z"/>
					</g>
					<g id="Caminho_1450">
						<path class="st7" d="M81.4,58.4c0,0,6.7,2.2,6.9,2.7s2,0.4,0.4,6.5l-1.9,4.4l-4.3,10.7c0,0-2.1,5.6-9.1,1.1
							C73.3,83.7,67.1,73.2,81.4,58.4"/>
					</g>
					<g id="Caminho_1451">
						<path class="st12" d="M78.2,85.9c-1.5,0-3.2-0.6-5.1-1.8L73,83.9c-0.3-0.4-6.2-11.1,8.1-25.8l0.2-0.2l0.2,0.1
							c6.8,2.3,7,2.7,7.1,2.9c0,0,0.1,0,0.1,0.1c0.6,0.4,1.7,1.4,0.3,6.6l-1.9,4.4l-4.3,10.7c0,0.1-0.8,2.1-3,2.8
							C79.3,85.8,78.8,85.9,78.2,85.9z M73.6,83.5c2.3,1.5,4.3,2,5.9,1.4c1.8-0.6,2.5-2.4,2.5-2.4l4.3-10.7l1.9-4.4
							c1.3-4.7,0.3-5.5-0.1-5.8c-0.1-0.1-0.2-0.2-0.3-0.3c-0.4-0.3-3.5-1.5-6.4-2.4C68.3,72.5,73.1,82.4,73.6,83.5z"/>
					</g>
					<g id="Caminho_1452">
						<path class="st9" d="M64.1,74.3c1,1.3,5.1,0.3,5.1,0.3l6.8-2c4.7,0.2,3.5-3.8,3.5-3.8c-0.3-1.1-2.7-0.5-2.7-0.5l-0.4-1.9
							c-0.8-0.8-2,2-2,2l-1.2,0.1l-0.9,0.2l-3.7,0.8"/>
					</g>
					<g id="Caminho_1453">
						<path class="st10" d="M66.4,75.4c-1,0-2-0.2-2.5-0.8l0.6-0.5c0.6,0.8,3.2,0.5,4.7,0.2l6.8-2l0.1,0c1.3,0,2.3-0.2,2.8-0.9
							c0.8-1,0.3-2.4,0.3-2.5c-0.1-0.5-1.4-0.4-2.3-0.2l-0.4,0.1l-0.4-2.1c-0.4,0.1-0.9,1.1-1.3,1.9l-0.1,0.2l-1.4,0.1l-0.9,0.2
							l-3.6,0.8l-0.2-0.7l4.6-1l1-0.1c0.3-0.7,1-2,1.7-2.2c0.3-0.1,0.5,0,0.7,0.2l0.1,0.1l0.3,1.7c0.8-0.1,2.5-0.3,2.8,0.8
							c0,0.1,0.5,1.9-0.5,3.1c-0.7,0.8-1.8,1.2-3.4,1.2l-6.7,2C69.1,75.1,67.7,75.4,66.4,75.4z"/>
					</g>
					<g id="Caminho_1454">
						<path class="st9" d="M69,78.6c-4.6-3.1-7.9,4.1-7.5,3.2c8.7,7,9.5,4.6,9.5,4.6c4.5-4.3,3.5-7.9,3.5-7.9S72.6,75.6,69,78.6
							c-0.6,0.5-1.1,1-1.5,1.6"/>
					</g>
					<g id="Caminho_1455">
						<path class="st10" d="M70.2,87.2c-1.6,0-4.6-1.7-8.7-4.9l0,0l-0.3,0L61.1,82c0-0.1,0-0.2,0.1-0.3l0,0l0.1-0.1
							c0.4-0.8,1.5-2.3,2.7-3.2c1.6-1.2,3.3-1.2,5-0.2c1.2-1,2.4-1.4,3.6-1.3c1.5,0.2,2.3,1.4,2.3,1.4l0.1,0.1
							c0,0.2,0.9,3.8-3.6,8.2c-0.1,0.1-0.2,0.3-0.6,0.5C70.6,87.2,70.4,87.2,70.2,87.2z M62,81.8c5.8,4.6,7.8,4.8,8.4,4.7
							c0.2,0,0.2-0.1,0.2-0.1l0.1-0.1c3.9-3.8,3.5-7,3.5-7.5c-0.2-0.2-0.8-0.9-1.8-1.1c-1-0.1-2,0.3-3.2,1.3c-0.5,0.5-1,1-1.5,1.6
							L67.2,80c0.4-0.5,0.8-0.9,1.2-1.3c-0.9-0.5-1.8-0.6-2.6-0.3C63.9,78.9,62.5,81,62,81.8z"/>
					</g>
					<g id="Caminho_1456">
						<path class="st9" d="M67.2,69.2c-2.4,2-10.4,0.7-10.4,0.7c-6.6,2.1-3.1-4.4-3.5-3.6l0.5,0c-3.3-0.6-6.7-8.8-6.7-8.8
							c-4.5-12.9,10-19.7,10-19.7c18.3-1.3,20.4,8.4,20.4,8.4c0.7,1.8,1.9,13.4,1.9,13.4c1.2,5.7-9.5,8.4-6.9,7.8"/>
					</g>
					<g id="Caminho_1457">
						<path class="st10" d="M54.5,70.7c-0.9,0-1.6-0.3-1.9-0.9c-0.5-0.9-0.2-2.2,0.1-3.1l0,0l0.2-0.4c-3.1-1.7-5.9-8.4-6.1-8.7
							C42.2,44.5,56.8,37.5,57,37.5l0.1,0c18.4-1.3,20.7,8.3,20.8,8.7c0.7,1.7,1.8,13,1.9,13.5c0.4,2.1-0.5,5.3-7.2,8.1c0,0,0,0,0,0
							l0,0.1c-0.4,0.1-0.7,0.2-0.8-0.2c-0.1-0.3,0.2-0.5,0.6-0.6c6.3-2.6,7.1-5.4,6.7-7.3c-0.4-4.1-1.3-12-1.8-13.4
							c0-0.2-2.3-9.4-20-8.2c-1,0.5-14,7.1-9.8,19.2c0.9,2.2,3.9,8.1,6.4,8.6l-0.1,0.7l-0.3,0c-0.3,0.7-0.7,2.2-0.1,2.9
							c0.5,0.5,1.6,0.5,3.3,0l0.1,0l0.1,0c0.1,0,7.9,1.2,10.1-0.6l0.5,0.6c-2.4,2-9.7,0.9-10.6,0.8C55.9,70.6,55.2,70.7,54.5,70.7z"
							/>
					</g>
					<g id="Caminho_1458">
						<path d="M62.7,64.4c0.4,0.7,0.1,1.6-0.6,1.9c-0.6,0.2-1.4-0.3-1.7-1.2c-0.4-0.7-0.1-1.6,0.6-1.9C61.6,63,62.4,63.6,62.7,64.4"
							/>
					</g>
					<g id="Caminho_1459">
						<path d="M61.8,66.8c-0.2,0-0.4-0.1-0.6-0.1c-0.5-0.2-0.9-0.7-1.1-1.3c-0.4-0.8-0.1-1.9,0.7-2.4c0.9-0.3,1.8,0.3,2.2,1.3
							c0.4,0.9,0.1,1.9-0.7,2.4C62.1,66.7,61.9,66.8,61.8,66.8z M61.3,63.6c-0.1,0-0.1,0-0.2,0c-0.4,0.3-0.6,0.9-0.4,1.4
							c0.2,0.5,0.4,0.8,0.7,0.9c0.1,0.1,0.3,0.1,0.5,0c0.4-0.3,0.6-0.9,0.4-1.4l0,0C62.1,64,61.7,63.6,61.3,63.6z"/>
					</g>
					<g id="Caminho_1460">
						<path d="M73.6,59.6c0.4,0.7,0.1,1.6-0.6,1.9c-0.6,0.2-1.4-0.3-1.7-1.2c-0.4-0.7-0.1-1.6,0.6-1.9
							C72.6,58.2,73.3,58.8,73.6,59.6"/>
					</g>
					<g id="Caminho_1461">
						<path d="M72.8,62c-0.7,0-1.4-0.6-1.7-1.4c-0.4-0.8-0.1-1.9,0.7-2.4c0.4-0.1,0.8-0.1,1.1,0c0.5,0.2,0.9,0.7,1.1,1.3
							c0.4,0.9,0.1,1.9-0.7,2.4C73.1,62,72.9,62,72.8,62z M72.3,58.8c-0.1,0-0.1,0-0.2,0c-0.4,0.3-0.6,0.9-0.4,1.4
							c0.2,0.7,0.8,1.1,1.2,1c0.4-0.3,0.6-0.9,0.4-1.4l0,0c-0.1-0.4-0.4-0.7-0.7-0.9C72.5,58.8,72.4,58.8,72.3,58.8z"/>
					</g>
					<g id="Caminho_1462">
						<path class="st10" d="M67.1,65l-0.7-0.4c0.2-0.5,0.7-0.8,1.2-1c0.5-0.2,1-0.1,1.5,0.1l-0.1,0.4l-0.2,0.3
							c-0.3-0.2-0.7-0.2-1-0.1C67.5,64.5,67.2,64.7,67.1,65z"/>
					</g>
					<g id="Caminho_1463">
						<path class="st9" d="M79.5,61.1c0,0,4.8-5-0.3-3.5"/>
					</g>
					<g id="Caminho_1464">
						<path class="st10" d="M79.7,61.3l-0.5-0.5c1.2-1.3,2.1-2.7,1.9-3c0,0-0.2-0.3-1.9,0.2L79,57.3c1-0.3,2.3-0.6,2.7,0.1
							C82.4,58.4,80.4,60.7,79.7,61.3z"/>
					</g>
					<g id="Caminho_1465">
						<path class="st13" d="M71.9,65.9c0.3,0.9-0.6,2-2.1,2.6s-3,0.3-3.3-0.6c-0.3-0.9,0.6-2,2.1-2.6C70.1,64.8,71.6,65.1,71.9,65.9
							"/>
					</g>
					<g id="Caminho_1466">
						<path class="st14" d="M68.3,69.2c-1,0-1.8-0.4-2.1-1.1c-0.1-0.4-0.1-0.8,0.1-1.2c0.3-0.8,1.2-1.5,2.2-1.9
							c1.7-0.6,3.4-0.3,3.8,0.8l0,0c0.1,0.4,0.1,0.8-0.1,1.2c-0.3,0.8-1.2,1.5-2.3,1.9C69.4,69.1,68.8,69.2,68.3,69.2z M70.2,65.4
							c-0.4,0-0.9,0.1-1.4,0.3c-0.9,0.3-1.6,0.9-1.8,1.5c-0.1,0.2-0.1,0.5-0.1,0.7c0.2,0.6,1.4,0.9,2.8,0.3c0.9-0.3,1.6-0.9,1.8-1.5
							c0.1-0.2,0.1-0.5,0.1-0.7l0,0C71.4,65.7,70.9,65.4,70.2,65.4z"/>
					</g>
					<g id="Caminho_1467">
						<path class="st10" d="M58.5,60.1l-0.7-0.2c0.4-1.3,1.8-2.1,3.1-1.9l-0.2,0.7C59.7,58.6,58.7,59.2,58.5,60.1z"/>
					</g>
					<g id="Caminho_1468">
						<path class="st10" d="M72.8,54.7c-0.8-0.8-2.2-0.8-3,0l-0.5-0.6c1.1-1,2.9-1,4,0L72.8,54.7z"/>
					</g>
					<g id="Caminho_1469">
						<path class="st10" d="M53.9,69.5c-0.3-0.1-0.5-0.3-0.5-0.6c-0.2-0.7,0.7-1.7,0.8-1.9l0.6,0.5c-0.4,0.4-0.7,1-0.7,1.2
							L53.9,69.5z"/>
					</g>
					<g id="Caminho_1470">
						<path class="st14" d="M70.3,73c-1.2,0-2.3-0.7-2.9-1.8c-0.4-0.8-0.4-1.6-0.2-2.4c0.3-0.8,0.8-1.5,1.6-1.8
							c0.1,0,0.2-0.1,0.3-0.1c1.5-0.7,3.3,0.1,4,1.6c0.4,0.8,0.4,1.6,0.1,2.4c-0.3,0.8-0.8,1.5-1.6,1.8C71.3,72.9,70.8,73,70.3,73z
							 M70.4,67.4c-0.3,0-0.6,0.1-0.9,0.2c-0.1,0-0.2,0.1-0.2,0.1c-0.6,0.3-1,0.8-1.2,1.4s-0.2,1.3,0.1,1.9c0.6,1.2,2.1,1.7,3.3,1.1
							c1.2-0.6,1.7-2,1.1-3.3l0,0C72.1,67.9,71.3,67.4,70.4,67.4z"/>
					</g>
					<g id="Caminho_1471">
						<path class="st9" d="M87,72.2c-3.5-1.9,1.5-4.6,1.5-4.6C90.2,67.6,90.3,74,87,72.2"/>
					</g>
					<g id="Caminho_1472">
						<path class="st10" d="M88.1,72.9c-0.3,0-0.8-0.1-1.2-0.4l0,0c-1-0.5-1.4-1.2-1.4-1.9c0-1.7,2.6-3.2,2.9-3.3l0.2,0
							c0.6,0,1,0.4,1.3,1.2c0.5,1.3,0.3,3.3-0.6,4.1C88.9,72.7,88.5,72.9,88.1,72.9z M87.2,71.8c0.6,0.3,1.1,0.4,1.5,0.1
							c0.7-0.6,0.8-2.2,0.4-3.3c-0.1-0.4-0.3-0.6-0.5-0.7c-0.8,0.4-2.4,1.6-2.4,2.6C86.1,71,86.5,71.5,87.2,71.8L87.2,71.8z"/>
					</g>
					<g id="Caminho_1473">
						<path class="st7" d="M72.5,59.2c0,0.3-0.2,0.5-0.4,0.5c-0.3,0-0.5-0.2-0.5-0.4c0-0.3,0.2-0.5,0.4-0.5c0,0,0,0,0,0
							C72.3,58.7,72.5,58.9,72.5,59.2C72.5,59.2,72.5,59.2,72.5,59.2"/>
					</g>
					<g id="Caminho_1474">
						<path class="st7" d="M61.7,64.1c0,0.3-0.2,0.5-0.4,0.5c-0.3,0-0.5-0.2-0.5-0.4c0-0.3,0.2-0.5,0.4-0.5c0,0,0,0,0,0
							C61.5,63.7,61.7,63.9,61.7,64.1"/>
					</g>
					<g id="Grupo_964" transform="translate(47.27 41.646)" class="st15">
						<g id="Grupo_963">
							<g>
								<defs>
									<rect id="SVGID_00000093862765336467774830000003409632558343590568_" x="0" y="0" width="6" height="19.4"/>
								</defs>
								<clipPath id="SVGID_00000103948295892165635310000005772303496303351468_">
									<use xlink:href="#SVGID_00000093862765336467774830000003409632558343590568_"  style="overflow:visible;"/>
								</clipPath>
								<g id="Grupo_962" style="clip-path:url(#SVGID_00000103948295892165635310000005772303496303351468_);">
									<g id="Caminho_1475">
										<path class="st7" d="M6,0C6,0-5,12.4,6,19.4C6,19.4-7.5,14.5,6,0"/>
									</g>
								</g>
							</g>
						</g>
					</g>
					<g id="Caminho_1476">
						<path class="st10" d="M58.1,40.2c0,0-2.2-0.6-1-4.8c0,0-0.9-1.7-1.1,1.3c0,0-0.9-4.2,2.1-1.7C58.1,35,60.7,38,58.1,40.2"/>
					</g>
					<g id="Caminho_1477">
						<path class="st9" d="M105.6,77c-1.4-2.2-0.6-6.2-0.6-6.2l11.3-3.8l1.2,7.1L105.6,77z"/>
					</g>
					<g id="Caminho_1478">
						<path class="st10" d="M105.4,77.4l-0.1-0.2c-1.5-2.3-0.7-6.3-0.7-6.4l0-0.2l11.9-4l1.3,7.9L105.4,77.4z M105.3,71.1
							c-0.1,0.8-0.5,3.6,0.5,5.4l11.2-2.7l-1.1-6.4L105.3,71.1z"/>
					</g>
					<g id="Caminho_1479">
						<path class="st9" d="M112,68.7c2.3,1.9,10,0.7,10,0.7c6,1.9,3.4-3.3,3.4-3.3l-0.3,0.1c3.2-0.6,6.4-8.4,6.4-8.4
							c6.1-14-9.7-19.3-9.7-19.3l0,0c-17.2-2.2-19.5,8-19.5,8c-0.7,1.7-1.8,12.9-1.8,12.9c-0.9,4.7,8.6,7.9,6.6,7.5"/>
					</g>
					<g id="Caminho_1480">
						<path class="st10" d="M124.2,70.1c-0.6,0-1.4-0.1-2.2-0.4c-0.9,0.1-7.9,1.1-10.2-0.8l0.5-0.6c2.1,1.8,9.6,0.6,9.7,0.6l0.1,0
							l0.1,0c1.7,0.5,2.8,0.5,3.2,0c0.5-0.6,0.2-1.8-0.1-2.5c0,0,0,0-0.1,0l-0.2-0.7l0.6-0.3l0,0c2.3-1.1,4.7-6,5.5-8
							c1.7-3.8,1.8-7.3,0.4-10.4c-2.4-5.5-9-8.1-9.8-8.4l0,0c-16.6-2.1-19,7.4-19,7.8c-0.5,1.4-1.4,9-1.8,12.8
							c-0.7,3.2,4.4,5.9,6.1,6.8c0.7,0.4,0.9,0.5,0.8,0.8c-0.1,0.3-0.5,0.3-0.7,0.2l0-0.1c-0.1-0.1-0.3-0.1-0.5-0.2
							c-2-1-7.2-3.8-6.4-7.6c0-0.4,1.1-11.2,1.8-12.9c0,0,2.5-10.4,19.6-8.3l0,0l0.3,0.1c0.3,0.1,7.6,2.6,10.3,8.8
							c1.5,3.3,1.3,7-0.4,11c-0.1,0.3-2.9,6.9-5.9,8.4c0.3,0.8,0.8,2.3,0,3.3C125.5,69.9,124.9,70.1,124.2,70.1z"/>
					</g>
					<g id="Caminho_1481">
						<path d="M105.9,59.6c-0.3,0.7-0.1,1.5,0.6,1.8c0.6,0.2,1.3-0.3,1.6-1.1c0.3-0.7,0.1-1.5-0.6-1.8
							C106.9,58.3,106.2,58.8,105.9,59.6"/>
					</g>
					<g id="Caminho_1482">
						<path d="M106.7,61.9c-0.1,0-0.3,0-0.4-0.1c-0.9-0.5-1.2-1.5-0.8-2.3c0.4-1,1.3-1.6,2.1-1.3c0.9,0.5,1.2,1.5,0.8,2.4
							c-0.2,0.5-0.6,1-1,1.2C107.1,61.8,106.9,61.9,106.7,61.9z M107.2,58.8c-0.3,0-0.7,0.4-0.9,0.9l0,0c-0.2,0.5-0.1,1.1,0.4,1.4
							c0.1,0,0.3,0,0.4-0.1c0.3-0.1,0.5-0.4,0.7-0.8c0.3-0.5,0.1-1.1-0.4-1.4C107.2,58.8,107.2,58.8,107.2,58.8z"/>
					</g>
					<g id="Caminho_1483">
						<path class="st10" d="M112.1,64.7c-0.1-0.3-0.4-0.5-0.7-0.6c-0.3-0.1-0.6-0.1-0.9,0.1l-0.4-0.6c0.5-0.3,1-0.3,1.5-0.2
							c0.5,0.1,0.9,0.5,1.1,0.9L112.1,64.7z"/>
					</g>
					<g id="Caminho_1484">
						<path class="st2" d="M100.3,61.2c-0.8-0.8-2.5-2.9-1.9-3.8c0.4-0.6,1.5-0.4,2.3-0.1l-0.2,0.7c-1.2-0.4-1.5-0.2-1.5-0.2
							c-0.2,0.2,0.6,1.6,1.9,2.9L100.3,61.2z"/>
					</g>
					<g id="Caminho_1485">
						<path class="st10" d="M120.3,60.1c-0.3-0.9-1.2-1.5-2.1-1.3l-0.2-0.7c1.3-0.3,2.6,0.5,3,1.8L120.3,60.1z"/>
					</g>
					<g id="Caminho_1486">
						<path class="st10" d="M106.7,55l-0.5-0.5c1.1-1,2.8-1,3.9,0l-0.5,0.6C108.7,54.2,107.5,54.2,106.7,55z"/>
					</g>
					<g id="Caminho_1487">
						<path class="st2" d="M100.6,68.7l-0.7-0.1c0-0.2,0.1-0.4,0.1-0.4l0.7,0.2C100.6,68.4,100.6,68.6,100.6,68.7z"/>
					</g>
					<g id="Caminho_1488">
						<path class="st2" d="M113.8,83.8l-0.1-0.7c2.9-0.5,4.6-1.5,5.1-3c0.7-2.1-1.1-4.5-1.5-5.1l-10.4-0.4l-0.4,0.1l-0.3-0.9
							l11.5,0.4l0.1,0.1c0.1,0.1,2.7,3.2,1.7,6C118.8,82.1,116.9,83.3,113.8,83.8z"/>
					</g>
					<g id="Caminho_1489">
						<path class="st9" d="M106.2,82.6C94,90.5,94.1,77.7,95,77.3s3.6-1.9,5.8,1.7l4.1-3l-0.2-1.8l2.8,0L106.2,82.6z"/>
					</g>
					<g id="Caminho_1490">
						<path class="st10" d="M99.5,85.5c-0.9,0-1.7-0.2-2.5-0.6c-2.4-1.4-2.9-4.7-2.8-6.4c0.1-1.3,0.4-1.5,0.5-1.5l0.1-0.1
							c0.9-0.4,3.7-1.7,5.9,1.6l3.6-2.6l-0.2-2l3.6,0l-1.3,9l-0.1,0.1C103.7,84.7,101.4,85.5,99.5,85.5z M95.2,77.6
							c-0.3,0.5-0.4,4.1,1.4,6c1.8,1.9,5,1.4,9.2-1.3l1.2-7.8l-1.9,0l0.2,1.6l-4.7,3.3l-0.2-0.3C98.6,76.1,96.3,77.2,95.2,77.6
							L95.2,77.6z M95.1,77.7L95.1,77.7C95.1,77.7,95.1,77.7,95.1,77.7z"/>
					</g>
					<g id="Caminho_1491">
						<path class="st2" d="M99.5,76.3c-0.5,0-0.9-0.1-1.4-0.4c-1-0.7-1.3-2.2-1-4.5l0.7,0.1c-0.3,2,0,3.3,0.7,3.8
							c1,0.7,2.6-0.1,2.6-0.2l0.1,0c0.5-0.1,0.6-0.3,0.7-0.5c0.5-1.2-1.5-4.3-2.9-6l0.6-0.5c0.4,0.5,3.8,4.8,3,6.7
							c-0.1,0.3-0.5,0.8-1.2,0.9C101.2,75.9,100.4,76.3,99.5,76.3z"/>
					</g>
					<g id="Caminho_1492">
						<path class="st2" d="M99.1,76.7c-0.7,0-1.3-0.3-1.8-0.8c-1.3-1.5-0.8-4.6-0.8-4.7l0.7,0.1c0,0-0.5,2.9,0.6,4.1
							c0.3,0.4,0.7,0.5,1.3,0.5c0.1,0,2.6,0.1,3.3-1.3c0.4-0.8,0.2-2.6-2.9-6l0.6-0.5c2.7,3,3.7,5.3,3,6.9c-0.9,1.8-3.8,1.8-4,1.8
							C99.2,76.7,99.1,76.7,99.1,76.7z"/>
					</g>
					<g id="Caminho_1493">
						<polygon class="st2" points="96.8,65.8 95.7,64.6 96.9,62.4 98.9,64 98.4,65.7 97.7,65.6 98,64.2 97.1,63.5 96.6,64.5 
							97.4,65.3 						"/>
					</g>
					<g id="Linha_45">
						
							<rect x="97.8" y="64.5" transform="matrix(0.4483 -0.8939 0.8939 0.4483 -3.3963 124.2727)" class="st2" width="2.3" height="0.7"/>
					</g>
					<g id="Caminho_1494">
						<path class="st2" d="M99.6,64c-1.7,0-3.2-1.4-3.2-3.1c0-0.9,0.3-1.7,0.9-2.3s1.4-1,2.2-1c0,0,0,0,0,0c1.8,0,3.2,1.4,3.2,3.1
							C102.8,62.5,101.4,64,99.6,64C99.6,64,99.6,64,99.6,64z M99.6,58.4C99.6,58.4,99.6,58.4,99.6,58.4c-0.7,0-1.3,0.3-1.8,0.8
							c-0.5,0.5-0.7,1.1-0.7,1.7c0,1.3,1.2,2.4,2.5,2.4c1.3,0,2.4-1.2,2.4-2.5v0C102,59.5,100.9,58.4,99.6,58.4z"/>
					</g>
					<g id="Caminho_1495">
						<path class="st2" d="M93.8,65.6c-1.7,0-3.1-1.4-3.1-3.1s1.4-3.1,3.1-3.1c1.7,0,3.1,1.4,3.1,3.1v0
							C96.8,64.3,95.5,65.6,93.8,65.6z M93.8,60.2c-1.3,0-2.3,1-2.3,2.3s1,2.3,2.3,2.3c1.3,0,2.3-1,2.3-2.3
							C96.1,61.3,95,60.2,93.8,60.2z"/>
					</g>
					<g id="Caminho_1496">
						<path class="st17" d="M98,56.7c0,1.5-1.2,2.7-2.7,2.7c-1.5,0-2.7-1.2-2.7-2.7s1.2-2.7,2.7-2.7c0,0,0,0,0,0
							C96.8,54,98,55.2,98,56.7"/>
					</g>
					<g id="Caminho_1497">
						<path class="st2" d="M95.3,59.8c-1.7,0-3.1-1.4-3.1-3.1c0-1.7,1.4-3.1,3.1-3.1c1.7,0,3.1,1.4,3.1,3.1v0
							C98.4,58.4,97,59.8,95.3,59.8C95.3,59.8,95.3,59.8,95.3,59.8z M95.3,54.3c-1.3,0-2.3,1-2.3,2.3c0,1.3,1,2.3,2.3,2.3
							c0,0,0,0,0,0c1.3,0,2.3-1,2.3-2.3l0,0C97.6,55.4,96.6,54.3,95.3,54.3z"/>
					</g>
					<g id="Caminho_1498">
						<path class="st2" d="M99.8,64.4c-1.9,0-3.4-1.5-3.5-3.4c-0.1-1.9,1.4-3.5,3.3-3.6l0.1,0c1.9,0,3.4,1.5,3.5,3.4
							c0.1,1.9-1.4,3.5-3.3,3.6C99.9,64.4,99.9,64.4,99.8,64.4z M99.9,58.2C99.9,58.2,99.8,58.2,99.9,58.2l-0.2,0
							c-0.7,0-1.4,0.3-1.9,0.9c-0.5,0.5-0.8,1.2-0.7,2c0,0.7,0.3,1.4,0.9,1.9s1.2,0.8,2,0.7c1.5-0.1,2.7-1.3,2.6-2.8v0
							C102.5,59.3,101.3,58.2,99.9,58.2z"/>
					</g>
					<g id="Caminho_1499">
						<path class="st2" d="M96.6,62.6c0.1,1.7-1.3,3.2-3,3.2s-3.2-1.3-3.2-3c-0.1-1.7,1.3-3.2,3-3.2c0,0,0.1,0,0.1,0
							C95.2,59.6,96.6,60.9,96.6,62.6"/>
					</g>
					<g id="Caminho_1500">
						<path class="st2" d="M93.5,66.2c-1.9,0-3.4-1.5-3.5-3.4c0-0.9,0.3-1.8,0.9-2.5c0.6-0.7,1.5-1.1,2.4-1.1l0.1,0
							c1.9-0.1,3.4,1.5,3.5,3.4c0,0.9-0.3,1.8-0.9,2.5c-0.6,0.7-1.5,1.1-2.4,1.1C93.6,66.2,93.5,66.2,93.5,66.2z M93.5,60
							C93.5,60,93.5,60,93.5,60l-0.2,0c-0.7,0-1.4,0.3-1.9,0.9c-0.5,0.5-0.8,1.2-0.7,2c0.1,1.5,1.3,2.7,2.8,2.6
							c0.7,0,1.4-0.3,1.9-0.9c0.5-0.5,0.8-1.2,0.7-2v0C96.2,61.2,95,60,93.5,60z"/>
					</g>
					<g id="Caminho_1501">
						<path class="st2" d="M98.4,56.7c0.1,1.7-1.3,3.2-3,3.2c-1.7,0.1-3.2-1.3-3.2-3s1.3-3.2,3-3.2c0,0,0.1,0,0.1,0
							C97,53.6,98.4,55,98.4,56.7"/>
					</g>
					<g id="Caminho_1502">
						<path class="st2" d="M95.3,60.3c-1.9,0-3.4-1.5-3.5-3.4c0-0.9,0.3-1.8,0.9-2.5s1.5-1.1,2.4-1.1l0.1,0c1.9,0,3.4,1.5,3.5,3.4
							c0,0.9-0.3,1.8-0.9,2.5c-0.6,0.7-1.5,1.1-2.4,1.1C95.4,60.3,95.4,60.3,95.3,60.3z M95.4,54.1C95.4,54.1,95.3,54.1,95.4,54.1
							l-0.2,0c-1.5,0.1-2.7,1.3-2.6,2.8c0.1,1.5,1.3,2.7,2.8,2.6c0.7,0,1.4-0.3,1.9-0.9c0.5-0.5,0.8-1.2,0.7-2v0
							C98,55.2,96.8,54.1,95.4,54.1z"/>
					</g>
					<g id="Linha_46">
						
							<rect x="95.5" y="64.8" transform="matrix(0.6548 -0.7558 0.7558 0.6548 -16.4271 95.0965)" class="st2" width="0.7" height="1.5"/>
					</g>
					<g id="Caminho_1503">
						<path class="st2" d="M102.3,61c0,1.5-1.2,2.7-2.7,2.7c-1.5,0-2.7-1.2-2.7-2.7s1.2-2.7,2.7-2.7l0,0
							C101.1,58.3,102.3,59.5,102.3,61"/>
					</g>
					<g id="Caminho_1504">
						<path class="st2" d="M99.6,64c-1.7,0-3.1-1.4-3.1-3.1c0-1.7,1.4-3.1,3.1-3.1s3.1,1.4,3.1,3.1C102.6,62.7,101.3,64,99.6,64z
							 M99.6,58.6c-1.3,0-2.3,1-2.3,2.3c0,1.3,1,2.3,2.3,2.3c1.3,0,2.3-1,2.3-2.3C101.9,59.7,100.8,58.6,99.6,58.6z"/>
					</g>
					<g id="Caminho_1505">
						<path class="st10" d="M98.9,71.6c-0.2,0-0.5-0.1-0.7-0.3l0.5-0.6c0.3,0.3,1-0.3,1.2-0.5l0.5,0.5
							C100.1,71.2,99.5,71.6,98.9,71.6z"/>
					</g>
					<g id="Linha_47">
						
							<rect x="100" y="66.7" transform="matrix(0.8955 -0.445 0.445 0.8955 -19.4734 51.7194)" class="st2" width="0.8" height="1.2"/>
					</g>
					<g id="Caminho_1506">
						<path class="st9" d="M102.8,72.7c0.4,0.6,1.2,0.8,1.8,0.4c0.2-0.1,0.3-0.2,0.4-0.4l-0.2-5.7c-0.1-0.7,1.5-0.8,1.5-0.8
							L102.8,72.7z"/>
					</g>
					<g id="Caminho_1507">
						<path class="st10" d="M103.9,73.6c-0.1,0-0.2,0-0.4,0c-0.4-0.1-0.8-0.4-1-0.7l-0.1-0.2l2.1-3.9l-0.1-1.8c0-0.2,0-0.4,0.2-0.6
							c0.4-0.5,1.5-0.6,1.7-0.6l0.7,0l-1.7,3.2l0.1,3.8l-0.1,0.1c-0.1,0.2-0.3,0.4-0.5,0.5C104.5,73.5,104.2,73.6,103.9,73.6z
							 M103.2,72.6c0.1,0.1,0.3,0.2,0.4,0.2c0.2,0.1,0.5,0,0.7-0.1c0.1-0.1,0.1-0.1,0.2-0.2l-0.1-2.3L103.2,72.6z M105.5,66.6
							c-0.2,0.1-0.4,0.1-0.4,0.2l0,0.6L105.5,66.6z"/>
					</g>
					<g id="Linha_48">
						<line class="st18" x1="101.8" y1="72.2" x2="99.9" y2="70.8"/>
					</g>
					<g id="Linha_49">
						
							<rect x="100.5" y="70.3" transform="matrix(0.6012 -0.7991 0.7991 0.6012 -16.8917 109.0722)" class="st10" width="0.8" height="2.3"/>
					</g>
					<g id="Caminho_1508">
						<path class="st10" d="M124.1,69.1l0-0.7c0-0.1,0-0.7-0.2-1.2l0.7-0.2c0.1,0.3,0.4,1.3,0,1.9C124.5,69,124.3,69.1,124.1,69.1z"
							/>
					</g>
					<g id="Caminho_1509">
						<path class="st19" d="M111.9,84.4c12.3-1.9,5.8-9.7,5.8-9.7l-13-0.5l-0.3,0.5l0.9,2.8l-0.1-0.4c0,0,3.2-0.7,5.9,2.7l3.1-0.6
							v1.9L111.9,84.4z"/>
					</g>
					<g id="Caminho_1510">
						<path class="st19" d="M112,84.8l-0.1-0.4l-0.3-0.2l2.2-3.1v-1.3l-2.9,0.5l-0.1-0.2c-2.3-2.9-4.9-2.7-5.4-2.6l-0.4,0.1l-0.9-3
							l0.4-0.9l13.4,0.6l0.1,0.1c0.1,0.1,2.6,3.2,1.5,6.1C118.7,82.8,116.2,84.2,112,84.8z M114.5,78.9v2.5l-1.8,2.5
							c3.4-0.6,5.4-1.8,6.1-3.5c0.8-2.2-0.9-4.7-1.3-5.2l-12.6-0.5l-0.1,0.2l0.6,2c0.9-0.1,3.5,0,5.8,2.7L114.5,78.9z"/>
					</g>
					<g id="Caminho_1511">
						<path class="st9" d="M111.8,79.2c-0.4-0.5-0.9-1.1-1.5-1.5c-3.4-2.9-5.3-0.1-5.3-0.1s-0.9,3.4,3.4,7.5c0,0,0.7,2.2,9-4.4
							c0.4,0.8-2.7-6-7.1-3.1"/>
					</g>
					<g id="Caminho_1512">
						<path class="st10" d="M109.2,85.8c-0.2,0-0.4,0-0.5-0.1c-0.3-0.1-0.5-0.3-0.6-0.4c-4.3-4.2-3.5-7.7-3.4-7.8l0.1-0.1
							c0,0,0.8-1.2,2.2-1.4c1.1-0.1,2.2,0.2,3.4,1.2c1.6-0.9,3.2-0.9,4.8,0.3c1,0.7,1.9,1.9,2.4,2.7l0,0l0.2,0.4l0,0
							c0.1,0.2,0.1,0.3,0.1,0.3l-0.3,0.3l0,0C113.5,84.3,110.7,85.8,109.2,85.8z M108.7,85c0,0,0.1,0.1,0.2,0.1
							c0.6,0.1,2.5-0.1,8-4.4c-0.5-0.8-1.7-2.7-3.5-3.2c-0.8-0.2-1.6-0.1-2.5,0.3c0.4,0.4,0.8,0.8,1.1,1.2l-0.6,0.5
							c-0.4-0.5-0.9-1-1.4-1.5c-1.1-0.9-2.1-1.3-3-1.2c-0.9,0.1-1.5,0.8-1.7,1c-0.1,0.5-0.4,3.5,3.3,7.1L108.7,85
							C108.7,85,108.7,85,108.7,85z"/>
					</g>
					<g id="Caminho_1513">
						<path class="st9" d="M114.9,73.6c-1,1.3-4.9,0.3-4.9,0.3l-6.5-1.9c-0.4,0-0.8,0-1.2-0.1l-0.9-0.3c-0.9-0.4-1.4-1.3-1.4-2.2
							l0.1-1.1c0.3-1,2.7-0.5,2.7-0.5l0.4-1.8c0.8-0.8,1.9,1.9,1.9,1.9h1L107,68l3.5,0.6"/>
					</g>
					<g id="Caminho_1514">
						<path class="st10" d="M112.8,74.6c-1.3,0-2.6-0.3-2.8-0.4l-6.4-1.9c-0.4,0-0.8,0-1.2-0.1l-0.9-0.3c-1.1-0.5-1.7-1.5-1.7-2.6
							l0.1-1.1c0.3-1.1,2-1,2.8-0.9l0.3-1.6l0.1-0.1c0.2-0.2,0.5-0.3,0.7-0.2c0.8,0.1,1.4,1.4,1.7,2h0.7l0.8,0.1l3.5,0.6l-0.1,0.7
							l-3.5-0.6l-0.7-0.1l-1.2,0l-0.1-0.2c-0.4-0.8-0.9-1.8-1.3-1.8l-0.4,2l-0.4-0.1c-0.9-0.2-2.1-0.2-2.2,0.2l-0.1,1.1
							c0,0.8,0.4,1.5,1.2,1.8l0.8,0.2c0.3,0,0.7,0.1,1.1,0l0.1,0l6.5,1.9c1.4,0.3,3.9,0.6,4.5-0.2l0.6,0.5
							C114.8,74.4,113.8,74.6,112.8,74.6z"/>
					</g>
					<g id="Caminho_1515">
						<path class="st2" d="M107.5,65.6c-0.3,0.8,0.6,1.9,2,2.5s2.8,0.3,3.1-0.5c0.3-0.8-0.6-1.9-2-2.5
							C109.2,64.5,107.8,64.7,107.5,65.6"/>
					</g>
					<g id="Caminho_1516">
						<path class="st2" d="M111,68.7c-0.5,0-1.1-0.1-1.6-0.3c-1-0.4-1.8-1.1-2.2-1.8c-0.2-0.4-0.2-0.8-0.1-1.2
							c0.2-0.5,0.7-0.9,1.4-1c0.7-0.1,1.4,0,2.2,0.3c0.8,0.3,1.4,0.7,1.8,1.2c0.5,0.6,0.6,1.2,0.4,1.7C112.7,68.3,112,68.7,111,68.7
							z M109.2,65.1c-0.2,0-0.3,0-0.4,0c-0.5,0.1-0.8,0.3-0.9,0.5l0,0c-0.1,0.2,0,0.4,0.1,0.6c0.2,0.5,0.9,1.1,1.7,1.4
							c1.3,0.5,2.5,0.2,2.7-0.3c0.1-0.3,0-0.6-0.3-1c-0.3-0.4-0.9-0.8-1.5-1C110.1,65.2,109.6,65.1,109.2,65.1z"/>
					</g>
					<g id="Caminho_1517">
						<path class="st2" d="M109,72.4c-0.5,0-0.9-0.1-1.3-0.3c-1.5-0.7-2.1-2.6-1.4-4.1c0.3-0.7,0.9-1.3,1.6-1.5
							c0.7-0.3,1.5-0.3,2.2,0c0.1,0,0.2,0.1,0.3,0.1c0.7,0.4,1.3,1,1.5,1.8c0.3,0.8,0.2,1.6-0.2,2.3c-0.4,0.7-1,1.3-1.8,1.5
							C109.7,72.3,109.4,72.4,109,72.4z M109,67c-0.3,0-0.5,0.1-0.8,0.2c-0.5,0.2-1,0.6-1.2,1.2l0,0c-0.3,0.6-0.3,1.2-0.1,1.8
							c0.2,0.6,0.6,1.1,1.2,1.3c0.6,0.3,1.2,0.3,1.8,0.1c0.6-0.2,1.1-0.6,1.3-1.2c0.3-0.6,0.3-1.2,0.1-1.8c-0.2-0.6-0.6-1.1-1.2-1.3
							c-0.1,0-0.1-0.1-0.2-0.1C109.6,67,109.3,67,109,67z"/>
					</g>
					<g id="Caminho_1518">
						<path class="st2" d="M110.3,67.5c-0.2,0-0.4,0-0.5-0.1c-0.2-0.1-0.4-0.2-0.5-0.3c-0.3-0.3-0.2-0.5-0.2-0.7
							c0-0.1,0.1-0.2,0.3-0.3c0.3-0.1,0.7,0,0.9,0c0.6,0.2,0.8,0.6,0.7,1c0,0.1-0.1,0.2-0.3,0.3C110.5,67.5,110.4,67.5,110.3,67.5z"
							/>
					</g>
					<g id="Caminho_1519">
						<path class="st9" d="M99.2,68.5c0,1.7-0.7,3-1.7,3s-1.7-1.3-1.7-3c0-1.7,0.7-3,1.7-3S99.2,66.9,99.2,68.5"/>
					</g>
					<g id="Caminho_1520">
						<path class="st10" d="M97.5,71.9c-1.1,0-2-1.5-2-3.4c0-1.9,0.9-3.4,2-3.4s2,1.5,2,3.4C99.6,70.4,98.7,71.9,97.5,71.9z
							 M97.5,65.9c-0.6,0-1.3,1.1-1.3,2.6c0,1.5,0.7,2.6,1.3,2.6s1.3-1.1,1.3-2.6C98.8,67,98.2,65.9,97.5,65.9z"/>
					</g>
					<g id="Caminho_1521">
						<path class="st9" d="M100.1,67.3c0.1,0.5-0.2,1-0.7,1.2c0,0-0.1,0-0.1,0c-0.5,0-0.8-0.6-0.8-1.2s0.4-1.2,0.8-1.2
							S100.1,66.6,100.1,67.3"/>
					</g>
					<g id="Caminho_1522">
						<path class="st10" d="M99.3,68.9C99.3,68.9,99.3,68.9,99.3,68.9c-0.7,0-1.2-0.7-1.2-1.6c0-0.9,0.5-1.6,1.2-1.6
							c0.7,0,1.2,0.7,1.2,1.6c0.1,0.7-0.3,1.3-0.9,1.6C99.4,68.9,99.4,68.9,99.3,68.9z M99.3,66.4c-0.2,0-0.5,0.4-0.5,0.9
							c0,0.5,0.2,0.9,0.5,0.9c0.3-0.1,0.5-0.5,0.5-0.8l0,0C99.8,66.8,99.5,66.4,99.3,66.4z"/>
					</g>
					<g id="Grupo_967" transform="translate(126.094 43.094)" class="st20">
						<g id="Grupo_966">
							<g>
								<defs>
									<rect id="SVGID_00000142884293081782190960000000966660489917829030_" x="0" y="0" width="4.8" height="18.9"/>
								</defs>
								<clipPath id="SVGID_00000168074730121162867680000005685912613490545316_">
									<use xlink:href="#SVGID_00000142884293081782190960000000966660489917829030_"  style="overflow:visible;"/>
								</clipPath>
								<g id="Grupo_965" style="clip-path:url(#SVGID_00000168074730121162867680000005685912613490545316_);">
									<g id="Caminho_1523">
										<path class="st7" d="M0.4,0c0,0,6.6,5.4-0.4,18.9C0,18.9,10.7,5.6,0.4,0"/>
									</g>
								</g>
							</g>
						</g>
					</g>
					<g id="Caminho_1524">
						<path class="st7" d="M108.4,59.4c0,0.3-0.3,0.6-0.6,0.6c-0.3,0-0.6-0.3-0.6-0.6c0-0.3,0.3-0.6,0.6-0.6c0,0,0,0,0,0
							C108.1,58.8,108.4,59.1,108.4,59.4"/>
					</g>
					<g id="Caminho_1525">
						<path class="st10" d="M119.8,38.1c0,2-0.7,4-1.8,5.7C117.9,43.8,122.5,41,119.8,38.1"/>
					</g>
					<g id="Caminho_1526">
						<path class="st10" d="M121.1,38.9c0,2-0.7,4-1.8,5.7C119.3,44.5,123.8,41.7,121.1,38.9"/>
					</g>
					<g id="Caminho_1527">
						<path class="st22" d="M121.8,39.6c-0.2,0.9-0.9,1.5-1.6,1.4l-2.2-0.4c-0.8-0.3-1.2-1.1-0.9-1.9c0.2-0.9,0.9-1.5,1.6-1.4
							l2.2,0.4C121.7,37.9,122.1,38.8,121.8,39.6"/>
					</g>
					<g id="Caminho_1528">
						<path class="st22" d="M126.5,40.5c-0.1,0.8-0.8,1.4-1.6,1.4l-2.2-0.4c-0.8-0.3-1.2-1.1-0.9-1.9c0.2-0.9,0.9-1.5,1.6-1.4
							l2.2,0.4C126.3,38.9,126.7,39.7,126.5,40.5"/>
					</g>
					<g id="Caminho_1529">
						<path class="st23" d="M123.2,39.8c-0.1,0.7-0.9,1.2-1.6,1.1c-0.7-0.1-1.2-0.9-1.1-1.6c0.1-0.7,0.9-1.2,1.6-1.1
							C122.8,38.3,123.3,39.1,123.2,39.8"/>
					</g>
					<g id="Caminho_1530">
						<path d="M118.5,63.1c0,0,0.1,0,0.2,0c0.2,0,0.3-0.1,0.5-0.1c0.1,0,0.2-0.1,0.2-0.1c0.1,0,0.1-0.1,0.1-0.2c0-0.1,0-0.1,0-0.2
							c0,0.1,0.1,0.2,0.1,0.2c0,0.1,0,0.2-0.1,0.3c0,0.1-0.1,0.2-0.2,0.3c-0.1,0.2-0.3,0.3-0.4,0.4c-0.1,0.1-0.2,0.2-0.2,0.2
							L118.5,63.1z"/>
					</g>
					<g id="Caminho_1531">
						<path d="M118,62.8c0,0,0.1,0,0.2,0c0.2,0,0.3-0.1,0.5-0.1c0.1,0,0.1-0.1,0.2-0.1c0.1,0,0.1-0.1,0.1-0.2c0-0.1,0-0.1,0-0.2
							c0,0.1,0.1,0.2,0.1,0.2c0,0.1,0,0.2-0.1,0.3c0,0.1-0.1,0.2-0.2,0.3c-0.1,0.2-0.3,0.3-0.4,0.4c-0.1,0.1-0.2,0.2-0.2,0.2
							L118,62.8z"/>
					</g>
					<g id="Caminho_1532">
						<path d="M106.5,58.7c0,0,0-0.1-0.1-0.3c-0.1-0.2-0.1-0.4-0.1-0.6c0-0.1,0-0.2,0-0.3c0-0.1,0.1-0.2,0.1-0.3
							c0.1-0.1,0.1-0.1,0.2-0.2c0,0.1-0.1,0.1-0.1,0.2c0,0.1,0,0.1,0,0.2c0,0.1,0.1,0.2,0.1,0.2c0.1,0.1,0.2,0.3,0.3,0.4
							c0.1,0.1,0.2,0.1,0.2,0.1L106.5,58.7z"/>
					</g>
					<g id="Caminho_1533">
						<path d="M107.1,58.7c0,0,0-0.1-0.1-0.3c-0.1-0.2-0.1-0.4-0.1-0.6c0-0.1,0-0.2,0-0.3c0-0.1,0.1-0.2,0.1-0.3
							c0.1-0.1,0.1-0.1,0.2-0.2c0,0.1-0.1,0.1-0.1,0.2c0,0.1,0,0.1,0,0.2c0,0.1,0.1,0.2,0.1,0.2c0.1,0.1,0.2,0.3,0.3,0.4
							c0.1,0.1,0.2,0.1,0.2,0.1L107.1,58.7z"/>
					</g>
					<g id="Caminho_1534">
						<path d="M116.3,64.1c-0.3,0.7-0.1,1.5,0.6,1.8c0.6,0.2,1.3-0.3,1.6-1.1c0.3-0.7,0.1-1.5-0.5-1.8
							C117.3,62.8,116.6,63.3,116.3,64.1"/>
					</g>
					<g id="Caminho_1535">
						<path d="M117.2,66.4c-0.1,0-0.3,0-0.4-0.1c-0.9-0.5-1.2-1.5-0.8-2.4c0.2-0.6,0.6-1,1-1.2c0.3-0.2,0.7-0.2,1-0.1
							c0.9,0.5,1.2,1.5,0.8,2.4C118.5,65.9,117.8,66.4,117.2,66.4z M117.7,63.4c-0.1,0-0.2,0-0.3,0.1c-0.3,0.1-0.5,0.4-0.7,0.8l0,0
							c-0.2,0.5-0.1,1.1,0.4,1.4c0.3,0.1,0.8-0.3,1-0.9C118.4,64.2,118.2,63.6,117.7,63.4C117.7,63.4,117.7,63.4,117.7,63.4z"/>
					</g>
					<g id="Caminho_1536">
						<path class="st7" d="M118.7,64c0,0.3-0.3,0.6-0.6,0.6s-0.6-0.3-0.6-0.6c0-0.3,0.3-0.6,0.6-0.6c0,0,0,0,0,0
							C118.5,63.4,118.7,63.6,118.7,64C118.7,64,118.7,64,118.7,64"/>
					</g>
				</g>
			</g>
		</g>
	</g>
</g>
</svg>
