<svg xmlns="http://www.w3.org/2000/svg" width="23.507" height="23.621" viewBox="0 0 23.507 23.621">
  <path id="topo-whatsatpp" d="M20.332,3.433A11.707,11.707,0,0,0,1.91,17.555L.25,23.621l6.2-1.628a11.692,11.692,0,0,0,5.593,1.425h0A11.71,11.71,0,0,0,20.332,3.433Zm-8.28,18.008h0A9.716,9.716,0,0,1,7.1,20.085l-.355-.211L3.06,20.84l.983-3.59-.231-.368a9.728,9.728,0,1,1,8.241,4.559Zm5.336-7.286c-.292-.146-1.73-.854-2-.952s-.463-.146-.658.146-.755.952-.926,1.147-.341.22-.634.073a7.988,7.988,0,0,1-2.352-1.452,8.822,8.822,0,0,1-1.627-2.026c-.17-.293,0-.436.128-.6a8.273,8.273,0,0,0,.731-1,.538.538,0,0,0-.025-.512c-.073-.146-.658-1.586-.9-2.172-.238-.57-.478-.493-.658-.5S8.1,6.3,7.909,6.3a1.074,1.074,0,0,0-.78.366A3.28,3.28,0,0,0,6.105,9.1,5.689,5.689,0,0,0,7.3,12.13a13.036,13.036,0,0,0,5,4.416,16.739,16.739,0,0,0,1.667.616,4.009,4.009,0,0,0,1.842.116,3.013,3.013,0,0,0,1.974-1.391,2.444,2.444,0,0,0,.17-1.391c-.073-.122-.268-.2-.56-.342Zm0,0" transform="translate(-0.25)" fill="#de9d29" fill-rule="evenodd"/>
</svg>
