<svg id="topo-minhaconta" xmlns="http://www.w3.org/2000/svg" width="35.666" height="35.666" viewBox="0 0 35.666 35.666">
  <g id="Grupo_5" data-name="Grupo 5">
    <g id="Grupo_4" data-name="Grupo 4">
      <path id="Caminho_98" data-name="Caminho 98" d="M17.833,0A17.833,17.833,0,1,0,35.666,17.833,17.853,17.853,0,0,0,17.833,0Zm0,34.115A16.282,16.282,0,1,1,34.115,17.833,16.3,16.3,0,0,1,17.833,34.115Z" fill="#00a2e0"/>
    </g>
  </g>
  <g id="Grupo_7" data-name="Grupo 7" transform="translate(7.753 17.058)">
    <g id="Grupo_6" data-name="Grupo 6">
      <path id="Caminho_99" data-name="Caminho 99" d="M116.746,234.667a10.091,10.091,0,0,0-10.08,10.08.775.775,0,1,0,1.551,0,8.529,8.529,0,1,1,17.058,0,.775.775,0,1,0,1.551,0A10.091,10.091,0,0,0,116.746,234.667Z" transform="translate(-106.666 -234.667)" fill="#00a2e0"/>
    </g>
  </g>
  <g id="Grupo_9" data-name="Grupo 9" transform="translate(12.406 4.652)">
    <g id="Grupo_8" data-name="Grupo 8">
      <path id="Caminho_100" data-name="Caminho 100" d="M176.093,64a5.427,5.427,0,1,0,5.427,5.427A5.433,5.433,0,0,0,176.093,64Zm0,9.3a3.877,3.877,0,1,1,3.877-3.877A3.882,3.882,0,0,1,176.093,73.3Z" transform="translate(-170.666 -64)" fill="#00a2e0"/>
    </g>
  </g>
</svg>
