<svg xmlns="http://www.w3.org/2000/svg" width="34.832" height="35.666" viewBox="0 0 34.832 35.666">
  <g id="topo-carrinho" transform="translate(-4.042 -2.95)">
    <path id="Caminho_101" data-name="Caminho 101" d="M4.8,9.676H7.831l1.983,4.71a12.775,12.775,0,0,0,12.76,12.6h3.536A12.777,12.777,0,0,0,38.874,14.224,11.287,11.287,0,0,0,27.6,2.95H24.994a.758.758,0,0,0-.758.758v9.758H11.075L9.035,8.623a.758.758,0,0,0-.7-.463H4.8a.758.758,0,0,0,0,1.516ZM25.752,4.464H27.6a9.772,9.772,0,0,1,9.729,9H25.752ZM24.994,14.98H37.333A11.262,11.262,0,0,1,26.111,25.469H22.575A11.262,11.262,0,0,1,11.353,14.982Z" fill="#00a2e0"/>
    <path id="Caminho_102" data-name="Caminho 102" d="M66.1,74.319A5.318,5.318,0,1,0,71.419,69,5.318,5.318,0,0,0,66.1,74.319Zm9.12,0a3.8,3.8,0,1,1-3.8-3.8,3.8,3.8,0,0,1,3.8,3.8Z" transform="translate(-38.541 -41.02)" fill="#00a2e0"/>
    <path id="Caminho_103" data-name="Caminho 103" d="M20.692,74.319A5.318,5.318,0,1,0,26.011,69,5.318,5.318,0,0,0,20.692,74.319Zm9.12,0a3.8,3.8,0,1,1-3.8-3.8,3.8,3.8,0,0,1,3.8,3.8Z" transform="translate(-10.34 -41.02)" fill="#00a2e0"/>
  </g>
</svg>
