<svg id="BUSCA" xmlns="http://www.w3.org/2000/svg" width="18.2" height="18.268" viewBox="0 0 18.2 18.268">
  <g id="Grupo_11" data-name="Grupo 11">
    <path id="Caminho_38" data-name="Caminho 38" d="M18.545,14.4l-3.007-3.007a8.3,8.3,0,0,0,.911-3.645A7.745,7.745,0,1,0,8.7,15.489a8.3,8.3,0,0,0,3.645-.911l3.007,3.007a2.2,2.2,0,0,0,3.189,0A2.374,2.374,0,0,0,18.545,14.4ZM8.7,13.667a5.922,5.922,0,1,1,5.922-5.922A5.911,5.911,0,0,1,8.7,13.667Z" transform="translate(-0.96)" fill="#fffffc"/>
  </g>
</svg>
