<svg xmlns="http://www.w3.org/2000/svg" width="23" height="22" fill="#fff" viewBox="0 0 25.621 25.601"><path d="M25.597.605a.8.8 0 0 0-.97-.582l-3.202.8a.803.803 0 0 0-.598.653l-.406 2.567L.71 6.406c-.015.004-.027.012-.043.016-.02.003-.035 0-.055.003-.047.013-.083.04-.12.055-.048.02-.09.035-.13.063a.885.885 0 0 0-.145.136c-.024.02-.057.03-.075.06-.003.01-.003.013-.007.022a.808.808 0 0 0-.09.217c-.01.03-.024.053-.028.08a.843.843 0 0 0 .013.33l2.4 9.6.8 3.2c.005.02.02.04.03.06.01.04.03.075.046.11a.755.755 0 0 0 .098.144c.025.033.05.056.08.083a.766.766 0 0 0 .15.108c.033.014.057.032.088.045.09.03.188.057.286.057h16.82a.8.8 0 0 0 .796-.8.798.798 0 0 0-.798-.8h-16.2l-.398-1.6H19.22a.832.832 0 0 0 .28-.05c.036-.017.064-.04.095-.06.05-.024.103-.047.146-.08.03-.03.05-.07.08-.1.03-.04.07-.074.1-.12.027-.045.03-.09.05-.14.017-.042.036-.08.048-.124l.004-.02 2.31-14.65 2.69-.67A.802.802 0 0 0 25.6.61zM3.823 16l-2.03-8.114 2.483-.296L5.48 16H3.822zm3.274 0l-1.23-8.602L8.36 7.1l.41 8.9H7.096zm4.945 0h-1.668l-.418-9.09 2.496-.3-.41 9.39zm3.266 0h-1.66l.414-9.582 2.48-.297L15.308 16zm3.207 0H16.92l1.263-10.078 1.703-.204L18.516 16zM7.202 22.398c-.883 0-1.6.72-1.6 1.603a1.6 1.6 0 1 0 3.202 0c0-.88-.715-1.6-1.602-1.6zm10.414 0a1.603 1.603 0 1 0 0 3.205 1.603 1.603 0 0 0 0-3.205zm0 0"/></svg>