<svg xmlns="http://www.w3.org/2000/svg" width="512" height="512" viewBox="0 0 466.482 466.482"><g fill="#a2a2a2"><path d="M233.824 148.642l-107.15-28.702c-4.366-1.187-8.796 1.422-9.96 5.747-1.16 4.333 1.415 8.795 5.748 9.957l107.15 28.702c.708.187 1.415.276 2.106.276 3.593 0 6.877-2.398 7.844-6.023 1.18-4.34-1.398-8.81-5.738-9.96zm23.97 11.948c.3-.422.554-.885.936-1.243-.374.366-.626.82-.935 1.244zm-.86 1.277c-.188.415-.237.878-.35 1.333.113-.447.162-.91.35-1.333zm4.486-4.202c-.585.22-1.065.585-1.57.927.505-.334.985-.7 1.57-.927z"/><path d="M256.616 398.588c-1.447-4.25.82-8.868 5.072-10.315l10.754-3.666v-213.61l-5.462 1.893c-4.26 1.48-8.876-.772-10.34-5.015-.333-.967-.43-1.95-.398-2.918 0 .09-.05.17-.05.26V385.51L86.73 342.265v-220.91l-3.968 1.3-12.29 11.056v214.87c0 3.72 2.52 6.95 6.12 7.88l185.723 47.39c.667.17 1.34.26 2.008.26-3.4.01-6.56-2.12-7.707-5.5zm7.69 5.512c.902 0 1.788-.147 2.634-.44h-.008c-.87.3-1.756.44-2.626.44zM74.032 108.918c.553-.382 1.105-.772 1.74-1.008-.65.235-1.187.618-1.74 1.008zm340.79 2.512c-.097-.172-.267-.27-.373-.424.79 1.187 1.35 2.544 1.43 4.048.18 3.61-2.04 6.917-5.46 8.096l-6.378 2.21 42.374 74.004-116.19 40.245-32.474-46.83c-2.56-3.68-7.63-4.61-11.31-2.04-3.69 2.55-4.6 7.62-2.05 11.31l35.984 51.89c1.554 2.22 4.07 3.49 6.68 3.49.89 0 1.79-.14 2.66-.45l65.41-22.66V222.9c0-4.496 3.644-8.13 8.13-8.13s8.13 3.633 8.13 8.13v5.787l49.617-17.185c2.282-.797 4.103-2.56 4.95-4.836.843-2.26.64-4.787-.56-6.89l-50.588-88.36zm-2.438-2.585c.276.195.504.43.748.65-.252-.22-.48-.464-.748-.65zm-2.61-1.228c.245.065.456.203.69.285-.242-.082-.445-.22-.69-.285z"/><path d="M395.15 342.76l-122.716 41.847v11.356c0 2.512-1.162 4.885-3.146 6.422-.715.553-1.512.975-2.35 1.268l138.96-47.39c3.29-1.122 5.502-4.22 5.502-7.69V228.7l-16.257 5.633V342.76h.008z"/><path d="M272.434 395.97v-11.356l-10.754 3.666c-4.25 1.447-6.52 6.064-5.072 10.315 1.154 3.382 4.308 5.51 7.69 5.51.87 0 1.756-.137 2.626-.438h.008c.837-.284 1.634-.707 2.35-1.268 1.99-1.56 3.152-3.93 3.152-6.43zM403.28 214.784c-4.487 0-8.13 3.633-8.13 8.13v11.42l16.258-5.633v-5.78c0-4.49-3.64-8.13-8.128-8.13zm9.852-105.28c.488.44.935.934 1.317 1.503-.39-.57-.82-1.057-1.32-1.504zm-339.1-.586c-.285.195-.626.284-.878.512L2.696 172.808c-2.902 2.6-3.544 6.917-1.52 10.25 1.512 2.495 4.178 3.918 6.958 3.918.943 0 1.902-.17 2.837-.504l43.09-16.046c4.22-1.57 6.35-6.243 4.78-10.453-1.56-4.22-6.25-6.332-10.45-4.788l-3.05 1.138 25.14-22.606v-18.25c-.02-2.76 1.46-5.086 3.56-6.55zm336.434-1.016c.675.236 1.325.528 1.918.943-.585-.407-1.236-.7-1.918-.943zM86.713 115.47v5.892l129.293-42.43 162.57 38.057-116.936 40.55c-.08.02-.138.09-.22.13.903-.34 1.862-.58 2.88-.58 4.486 0 8.128 3.63 8.128 8.13V171l131.626-45.64-3.35-5.844c-2.226-3.894-.877-8.868 3.017-11.095 1.91-1.08 4.08-1.29 6.05-.79-.05-.01-.1-.05-.15-.06L217.49 62.59c-1.452-.333-2.972-.268-4.39.187L76.05 107.75c-.106.033-.18.122-.285.163.886-.332 1.82-.57 2.82-.57 4.496 0 8.13 3.635 8.13 8.13z"/><path d="M258.73 159.347c.325-.31.748-.504 1.122-.756-.375.26-.797.45-1.122.76zm-2.504 5.61c.016-.62.203-1.18.358-1.757-.155.586-.334 1.146-.358 1.756zm1.57-4.367c-.3.424-.65.806-.863 1.277.22-.47.57-.853.862-1.276zM86.712 121.354v-5.893c0-4.49-3.642-8.12-8.13-8.12-1 0-1.934.24-2.82.57-.634.24-1.187.63-1.74 1.01-2.105 1.47-3.568 3.79-3.568 6.55v18.25l12.29-11.05 3.968-1.3z"/><path d="M264.306 157.088c-1.024 0-1.983.236-2.878.577-.585.228-1.073.585-1.57.927-.373.252-.787.447-1.12.756-.383.366-.635.82-.936 1.244s-.642.805-.862 1.276c-.187.423-.236.886-.35 1.333-.154.58-.333 1.14-.358 1.76-.033.97.057 1.95.398 2.92 1.47 4.25 6.088 6.5 10.34 5.02l5.462-1.89v-5.78c.002-4.49-3.64-8.13-8.126-8.13zm139.42-48.674c-3.893 2.227-5.242 7.202-3.015 11.096l3.35 5.844 6.38-2.21c3.42-1.188 5.64-4.488 5.46-8.097-.08-1.504-.64-2.853-1.44-4.048-.38-.57-.82-1.07-1.31-1.51-.243-.23-.48-.47-.747-.65-.593-.41-1.244-.71-1.92-.95-.235-.08-.44-.22-.69-.29-1.975-.506-4.14-.295-6.05.795z"/></g></svg>