<?xml version="1.0" encoding="utf-8"?>
<!-- Generator: Adobe Illustrator 25.4.1, SVG Export Plug-In . SVG Version: 6.00 Build 0)  -->
<svg version="1.1" id="Camada_1" xmlns="http://www.w3.org/2000/svg" xmlns:xlink="http://www.w3.org/1999/xlink" x="0px" y="0px"
	 viewBox="0 0 56 56" style="enable-background:new 0 0 56 56;" xml:space="preserve">
<style type="text/css">
	.st0{fill:none;}
	.st1{fill:#72D0E9;}
	.st2{fill:#ED6BBC;}
</style>
<g id="EMAIL" transform="translate(-956 -3398)">
	<g id="Elipse_7" transform="translate(956 3398)">
		<g>
			<circle class="st0" cx="28" cy="28" r="28"/>
		</g>
		<g>
			<path class="st1" d="M28,56C12.6,56,0,43.4,0,28C0,12.6,12.6,0,28,0s28,12.6,28,28C56,43.4,43.4,56,28,56z M28,2
				C13.7,2,2,13.7,2,28s11.7,26,26,26c14.3,0,26-11.7,26-26S42.3,2,28,2z"/>
		</g>
	</g>
	<path id="icone-telefoemail-rodape" class="st2" d="M993.7,3435.1h-9.9c-4.8,0.1-8.8-3.6-8.9-8.4c0-2.4,1.1-4.7,3-6.3
		c1.9-1.6,4.4-2.4,6.9-2.1c3.9,0.3,7.1,3.2,7.9,7.1c0.2,1.3,0.1,2.7-0.3,4c-0.3,0.7-1,1.1-1.7,1.1c-1,0-1.8-0.7-1.8-1.7v-5.8
		c0-0.5-0.5-1-1-0.9c-0.5,0-0.9,0.4-0.9,0.9v0c-0.9-0.6-1.9-1-3-1c-2.7-0.1-4.9,2-5,4.7c0.1,2.7,2.3,4.8,5,4.7
		c1.2,0,2.4-0.4,3.3-1.2c0.6,1.3,2,2.2,3.5,2.2c1.6,0,3-0.9,3.6-2.4c0.5-1.5,0.7-3.2,0.4-4.8c-0.9-4.7-4.8-8.2-9.6-8.6
		c-3.1-0.3-6.1,0.6-8.5,2.6c-2.3,1.9-3.6,4.7-3.6,7.7c0,5.7,4.9,10.3,10.9,10.3h9.9c0.5,0,1-0.4,1-0.9c0-0.5-0.4-1-0.9-1
		C993.8,3435.1,993.8,3435.1,993.7,3435.1z M983.8,3429.5c-1.6,0-2.9-1.2-3-2.8c0-1.6,1.4-2.9,3-2.8c1.6,0,2.9,1.2,3,2.8
		C986.7,3428.3,985.4,3429.5,983.8,3429.5z"/>
</g>
</svg>
