<svg xmlns="http://www.w3.org/2000/svg" width="37.089" height="35.353" viewBox="0 0 37.089 35.353">
  <g id="topo-carrinho" transform="translate(0 -10.67)">
    <g id="Grupo_146" data-name="Grupo 146" transform="translate(23.777 37.362)">
      <g id="Grupo_145" data-name="Grupo 145" transform="translate(0 0)">
        <path id="Caminho_26" data-name="Caminho 26" d="M296.683,338.862a4.331,4.331,0,1,0,4.331,4.331A4.382,4.382,0,0,0,296.683,338.862Z" transform="translate(-292.352 -338.862)" fill="#2f5493"/>
      </g>
    </g>
    <g id="Grupo_148" data-name="Grupo 148" transform="translate(0 10.67)">
      <g id="Grupo_147" data-name="Grupo 147" transform="translate(0 0)">
        <path id="Caminho_27" data-name="Caminho 27" d="M35.728,16.708c-.083,0-.208-.042-.333-.042H9.161l-.416-2.79A3.729,3.729,0,0,0,5.039,10.67H1.666a1.666,1.666,0,1,0,0,3.331H5.039a.443.443,0,0,1,.416.375L8.037,31.949a4.566,4.566,0,0,0,4.5,3.873H29.857a4.628,4.628,0,0,0,4.5-3.664l2.707-13.533A1.646,1.646,0,0,0,35.728,16.708Z" transform="translate(0 -10.67)" fill="#2f5493"/>
      </g>
    </g>
    <g id="Grupo_150" data-name="Grupo 150" transform="translate(9.033 37.362)">
      <g id="Grupo_149" data-name="Grupo 149" transform="translate(0 0)">
        <path id="Caminho_28" data-name="Caminho 28" d="M119.526,342.984a4.305,4.305,0,0,0-4.289-4.122,4.356,4.356,0,0,0-4.164,4.5,4.268,4.268,0,0,0,4.247,4.122h.083A4.321,4.321,0,0,0,119.526,342.984Z" transform="translate(-111.07 -338.862)" fill="#2f5493"/>
      </g>
    </g>
  </g>
</svg>
