<svg xmlns="http://www.w3.org/2000/svg" width="45.222" height="45.221" viewBox="0 0 45.222 45.221">
  <g id="instagram" transform="translate(-99.256 -4879.831)">
    <g id="Grupo_828" data-name="Grupo 828" transform="translate(-2.204 4807.456)">
      <g id="Grupo_88" data-name="Grupo 88">
        <path id="Caminho_154" data-name="Caminho 154" d="M124.071,86.431c2.786,0,3.116.011,4.217.061a5.762,5.762,0,0,1,1.937.359,3.456,3.456,0,0,1,1.98,1.98,5.788,5.788,0,0,1,.36,1.938c.05,1.1.061,1.43.061,4.216s-.011,3.117-.061,4.217a5.775,5.775,0,0,1-.36,1.937,3.454,3.454,0,0,1-1.98,1.981,5.762,5.762,0,0,1-1.937.359c-1.1.05-1.43.061-4.217.061s-3.116-.011-4.216-.061a5.769,5.769,0,0,1-1.938-.359,3.462,3.462,0,0,1-1.98-1.981,5.756,5.756,0,0,1-.359-1.937c-.05-1.1-.061-1.43-.061-4.217s.011-3.116.061-4.216a5.769,5.769,0,0,1,.359-1.938,3.464,3.464,0,0,1,1.98-1.98,5.77,5.77,0,0,1,1.938-.359c1.1-.05,1.43-.061,4.216-.061m0-1.88c-2.834,0-3.189.012-4.3.063a7.641,7.641,0,0,0-2.533.485,5.328,5.328,0,0,0-3.051,3.052,7.634,7.634,0,0,0-.485,2.532c-.051,1.113-.063,1.469-.063,4.3s.012,3.19.063,4.3a7.634,7.634,0,0,0,.485,2.532,5.328,5.328,0,0,0,3.051,3.052,7.666,7.666,0,0,0,2.533.485c1.113.051,1.468.063,4.3.063s3.189-.012,4.3-.063a7.666,7.666,0,0,0,2.533-.485,5.334,5.334,0,0,0,3.052-3.052,7.659,7.659,0,0,0,.485-2.532c.051-1.113.063-1.469.063-4.3s-.012-3.189-.063-4.3a7.659,7.659,0,0,0-.485-2.532,5.334,5.334,0,0,0-3.052-3.052,7.641,7.641,0,0,0-2.533-.485c-1.113-.051-1.468-.063-4.3-.063" fill="#f3adf3"/>
        <path id="Caminho_155" data-name="Caminho 155" d="M124.071,89.627a5.359,5.359,0,1,0,5.358,5.358,5.358,5.358,0,0,0-5.358-5.358m0,8.837a3.478,3.478,0,1,1,3.478-3.479,3.479,3.479,0,0,1-3.478,3.479" fill="#f3adf3"/>
        <path id="Caminho_156" data-name="Caminho 156" d="M130.893,89.415a1.252,1.252,0,1,1-1.252-1.252,1.252,1.252,0,0,1,1.252,1.252" fill="#f3adf3"/>
      </g>
    </g>
    <g id="Grupo_829" data-name="Grupo 829" transform="translate(-2.204 4807.456)">
      <path id="Caminho_157" data-name="Caminho 157" d="M124.071,117.6a22.611,22.611,0,1,1,22.611-22.611A22.637,22.637,0,0,1,124.071,117.6Zm0-43.221a20.611,20.611,0,1,0,20.611,20.61A20.635,20.635,0,0,0,124.071,74.375Z" fill="#f3adf3"/>
    </g>
  </g>
</svg>
