<svg xmlns="http://www.w3.org/2000/svg" width="32.847" height="32.845" viewBox="0 0 32.847 32.845">
  <g id="login" transform="translate(0 -0.001)">
    <path id="Caminho_1249" data-name="Caminho 1249" d="M16.423,0A16.423,16.423,0,1,0,32.847,16.424,16.424,16.424,0,0,0,16.423,0Zm0,4.911a5.432,5.432,0,1,1-5.431,5.432A5.432,5.432,0,0,1,16.423,4.912Zm0,23.641a12.053,12.053,0,0,1-7.849-2.894A2.315,2.315,0,0,1,7.759,23.9a5.478,5.478,0,0,1,5.505-5.477h6.321a5.47,5.47,0,0,1,5.5,5.477,2.309,2.309,0,0,1-.812,1.759A12.049,12.049,0,0,1,16.42,28.553Z" fill="#72d0e9"/>
  </g>
</svg>
