<svg xmlns="http://www.w3.org/2000/svg" width="276.196" height="65.238" viewBox="0 0 276.196 65.238">
  <g id="LOGO-RODAPE" transform="translate(-45.972 -672.804)">
    <g id="Grupo_728" data-name="Grupo 728" transform="translate(45.972 672.804)">
      <g id="Grupo_727" data-name="Grupo 727">
        <g id="Grupo_726" data-name="Grupo 726">
          <g id="Grupo_715" data-name="Grupo 715" transform="translate(2.93)">
            <path id="Caminho_1215" data-name="Caminho 1215" d="M104.027,729.377c.228-.373.441-.756.687-1.116a91.486,91.486,0,0,0,9.658-17.641,37.351,37.351,0,0,0,2.942-12.577,15.863,15.863,0,0,0-1.818-8.451,12.941,12.941,0,0,0-12.964-6.224,17.978,17.978,0,0,0-13.775,8.209c-.053.081-.115.155-.293.392-.368-.471-.689-.851-.975-1.254a19.181,19.181,0,0,0-9.435-7.234,17.258,17.258,0,0,0-18.882,5.229,23.679,23.679,0,0,0-4.569,8.513c-.069.232-.183.452-.367.895a4.225,4.225,0,0,1-.254-.813c-.221-5.456.389-10.762,3.185-15.584a17.2,17.2,0,0,1,13.7-8.769A19.922,19.922,0,0,1,85.3,676.594a15.447,15.447,0,0,1,2.476,2.366c.552.639.9.633,1.5.086a23.4,23.4,0,0,1,9.182-5.334,20.653,20.653,0,0,1,22.634,7.375,22.886,22.886,0,0,1,4.375,17.178c-.821,6.809-3.842,12.672-7.9,18.068a72.083,72.083,0,0,1-12.758,12.761,6.71,6.71,0,0,1-.634.4Z" transform="translate(-53.94 -672.805)" fill="#ed6bbc"/>
          </g>
          <g id="Grupo_716" data-name="Grupo 716" transform="translate(0 33.588)">
            <path id="Caminho_1216" data-name="Caminho 1216" d="M88.739,795.792c-1.394-.622-2.755-1.333-4.187-1.85-5.235-1.887-8.852-3.031-14.214-4.453-8.359-2.217-15.57-8.535-19.755-15.706-1.726-2.957-3.065-6.14-4.576-9.222a.428.428,0,0,1,.05-.42q1.195,2.081,2.389,4.161c3.518,6.154,10.746,12.3,17.151,15.271,5.581,2.585,9.026,3.407,14.489,6.228,2.865,1.48,5.473,3.459,8.2,5.214.24.155.47.327.7.491Z" transform="translate(-45.972 -764.141)" fill="#72d0e9"/>
          </g>
          <g id="Grupo_717" data-name="Grupo 717" transform="translate(40.825 42.585)">
            <path id="Caminho_1217" data-name="Caminho 1217" d="M156.99,789.021a4.756,4.756,0,0,1,5.07.733c2.081,1.743,2.91,4.195,3.537,6.728.016.065-.069.156-.2.422C163.767,792.937,161.559,789.735,156.99,789.021Z" transform="translate(-156.99 -788.609)" fill="#72d0e9"/>
          </g>
          <g id="Grupo_725" data-name="Grupo 725" transform="translate(7.528 16.95)">
            <g id="Grupo_718" data-name="Grupo 718">
              <path id="Caminho_1218" data-name="Caminho 1218" d="M113.278,745.312A11.993,11.993,0,0,0,110.421,740a30.641,30.641,0,0,0-10.368-7.471,24.159,24.159,0,0,0-10.2-2.616c-1.326-.007-1.279,0-1.285-1.262a7.128,7.128,0,0,0-.456-2.38,1.561,1.561,0,0,0-1.025-.929c-.952-.05-1.33-.641-1.779-1.308-3.619-5.381-9.455-6.67-14.479-3.221-3.4,2.337-5.113,6.23-4.1,9.877,1.069,3.83,4,5.913,7.5,7.335.015.006.051-.036.159-.117a11.114,11.114,0,0,1-.851-.78,32.911,32.911,0,0,1-3.327-3.845c-3.367-5.241-.487-11.051,5.715-11.644,3.561-.341,6.339,1.18,8.655,3.775a2.734,2.734,0,0,0,1.408.87,2.134,2.134,0,0,1,1.886,2.556l-1.857-.8c1.976,3.408,3.778,6.8.6,10.259-2.55,2.779-5.8,3.516-9.616,1.817a6.623,6.623,0,0,0,.671.773,5.833,5.833,0,0,0,5.7,1.207c.748-.25,1.013-.1,1.239.714a5.828,5.828,0,0,1,.216,1.226c.034.378.029.679.038,1.019.006.2-.666-.018-.932-.141-2.642-1.222-5.26-2.437-7.9-3.673-2.419-1.134-4.47-2.71-7.177-1.973-1.67.454-2.319,1.975-1.244,3.308a16.113,16.113,0,0,0,5.257,3.885c3.2,1.709,6.536,3.2,9.378,5.529.072.059.563-.012.929.03a8.135,8.135,0,0,0-1.412-1.347c-1.735-1.436-3.439-2.917-5.274-4.223-2.051-1.46-4.086-2.425-5.545-3.581a.943.943,0,0,1-.438-1c.184-.638.678-.615,1.137-.544a5.016,5.016,0,0,1,1.414.4c1.928.894,4.912,2.2,6.792,3.189a42.479,42.479,0,0,0,4.678,2.647,39.929,39.929,0,0,0,5.925,1.354c2.8.57,5.4,1.5,7.007,4.07a17.18,17.18,0,0,0,3.223,3.667c1.6,1.441,3.066,3.033,4.593,4.557a6.11,6.11,0,0,0,.486.4c-1.022-3.619-3.965-6.034-5.839-9.352,2.667-.169,4.761.916,6.988,1.633a5.759,5.759,0,0,0-1.912-1.629c-1.649-.707-3.384-1.212-5.052-1.88a4.741,4.741,0,0,1-1.547-1.069,19.056,19.056,0,0,1-1.724-2.107,1.267,1.267,0,0,1-.3-.9,4.714,4.714,0,0,1,3.9-3.569c.781-.139,1.548-.353,2.322-.532a7.939,7.939,0,0,0-5.193.606c-.51-1.707-.875-3.335-1.486-4.865a8.108,8.108,0,0,0-3.037-3.845,6.748,6.748,0,0,0,.663,1.36c1.154,2,2.267,4.01,2.229,6.414a3.266,3.266,0,0,1-3.949,3.4c-2.39-.324-3.7-1.907-4.547-4.007-.561-1.4-.468-1.723.9-2.789,1.25,1.51,2.235,3.3,4.04,4.313a2.683,2.683,0,0,0-.4-.968c-.819-1.342-1.7-2.648-2.431-4.038a3.639,3.639,0,0,1-.225-1.844c.077-1.134.351-2.257.395-3.391.029-.754.3-1.029.993-.947a26.125,26.125,0,0,1,4.078.548,25.258,25.258,0,0,1,15.444,12.11c1.381,2.4,2.235,4.99.954,7.864a2.724,2.724,0,0,0,.363-.29A7.093,7.093,0,0,0,113.278,745.312Z" transform="translate(-66.444 -718.899)" fill="#72d0e9"/>
            </g>
            <g id="Grupo_720" data-name="Grupo 720" transform="translate(10.209 16.824)">
              <g id="Grupo_719" data-name="Grupo 719">
                <path id="Caminho_1219" data-name="Caminho 1219" d="M96.576,764.74c-.008-.051-.015-.085-.016-.092l-.221.051a2.39,2.39,0,0,1-.267,1.675c-.47.626-1.809.351-1.822.348l-.045.231.081.015a4.709,4.709,0,0,0,1.56.359,1.025,1.025,0,0,0,.859-.334C97.24,766.281,96.647,764.9,96.576,764.74Zm-.488,1.956-.015,0,.019-.016S96.09,766.691,96.089,766.7Z" transform="translate(-94.205 -764.648)" fill="#72d0e9"/>
              </g>
            </g>
            <g id="Grupo_722" data-name="Grupo 722" transform="translate(14.586 12.196)">
              <g id="Grupo_721" data-name="Grupo 721">
                <path id="Caminho_1220" data-name="Caminho 1220" d="M108.408,752.154c-.01-.05-.017-.084-.019-.091l-.219.058a2.391,2.391,0,0,1-.214,1.683c-.45.641-1.8.409-1.81.406l-.038.232.081.013a4.691,4.691,0,0,0,1.57.309,1.024,1.024,0,0,0,.848-.361C109.121,753.673,108.484,752.309,108.408,752.154Zm-.425,1.971-.015,0,.019-.017Z" transform="translate(-106.109 -752.063)" fill="#72d0e9"/>
              </g>
            </g>
            <g id="Grupo_724" data-name="Grupo 724" transform="translate(15.581 17.464)">
              <g id="Grupo_723" data-name="Grupo 723">
                <path id="Caminho_1221" data-name="Caminho 1221" d="M110.957,766.475c-.009-.047-.016-.078-.018-.085l-.2.054a2.225,2.225,0,0,1-.2,1.568c-.419.6-1.673.381-1.686.378l-.035.217.076.011a4.37,4.37,0,0,0,1.463.288.955.955,0,0,0,.79-.336C111.621,767.89,111.028,766.62,110.957,766.475Zm-.4,1.836-.014,0,.018-.016Z" transform="translate(-108.815 -766.39)" fill="#72d0e9"/>
              </g>
            </g>
          </g>
        </g>
      </g>
    </g>
    <g id="Grupo_735" data-name="Grupo 735" transform="translate(129.801 681.5)">
      <g id="Grupo_732" data-name="Grupo 732" transform="translate(0)">
        <g id="Grupo_731" data-name="Grupo 731">
          <g id="Grupo_730" data-name="Grupo 730">
            <g id="Grupo_729" data-name="Grupo 729">
              <path id="Caminho_1222" data-name="Caminho 1222" d="M294.349,720.62l9.88-24.17H314v1.243a6.712,6.712,0,0,0-3.211.588,2.2,2.2,0,0,0-1.085,1.628,31.494,31.494,0,0,0-.159,3.912v19.535a5.081,5.081,0,0,0,.4,2.261,2.166,2.166,0,0,0,1.277,1.074,11.291,11.291,0,0,0,2.781.418v1.244H299.414v-1.244a7.2,7.2,0,0,0,3.143-.542,2.057,2.057,0,0,0,1.153-1.391,15.943,15.943,0,0,0,.181-2.883V700.474l-11.237,27.878h-1.311l-11.1-27v18.518a8.608,8.608,0,0,0,1.187,4.872,6.1,6.1,0,0,0,3.945,2.363v1.244H273.932v-1.244a5.227,5.227,0,0,0,3.731-1.888,7.191,7.191,0,0,0,1.312-4.6V699.638a5.776,5.776,0,0,0-2.216-1.515,6.927,6.927,0,0,0-2.826-.43V696.45h10.333Zm-17.817,6.489H281.3a3.576,3.576,0,0,1-1.323-1.187,5.491,5.491,0,0,1-.758-1.775,4.5,4.5,0,0,1-.983,1.639A7.59,7.59,0,0,1,276.532,727.109Zm1.764-29.416h-.837a5.288,5.288,0,0,1,2.2,1.5,11.828,11.828,0,0,1,1.639,3l10.468,24.916a3.4,3.4,0,0,0,.5-1.583,5.132,5.132,0,0,0-.5-1.808l-9-21.842A10.175,10.175,0,0,0,281,698.711,3.492,3.492,0,0,0,278.3,697.693Zm27.788,25.437V701.311a10.612,10.612,0,0,1,.407-3.618,1.825,1.825,0,0,0-1.289.509,2.195,2.195,0,0,0-.475,1.221,24.277,24.277,0,0,0-.09,2.5v21.8a5.169,5.169,0,0,1-.328,2.227,3.315,3.315,0,0,1-1.345,1.164h.791q1.56,0,1.945-.893A8.635,8.635,0,0,0,306.084,723.13Z" transform="translate(-273.932 -696.45)" fill="#ed6bbc"/>
              <path id="Caminho_1223" data-name="Caminho 1223" d="M396.291,731.067a2.974,2.974,0,0,0,.294.656,2.192,2.192,0,0,1-.509,2.793,2.8,2.8,0,0,1-2,.758,2.666,2.666,0,0,1-1.831-.6,1.807,1.807,0,0,1-.678-1.39,3.279,3.279,0,0,1,1.142-2.306,8.4,8.4,0,0,1,3.143-1.843,13.107,13.107,0,0,1,4.421-.712,8.775,8.775,0,0,1,3.29.61,5.42,5.42,0,0,1,2.431,1.854,4.974,4.974,0,0,1,.9,3.007V745.38q0,1.379.791,1.379.475,0,1.153-.746l.836.972a11.109,11.109,0,0,1-2.046,1.673,4.24,4.24,0,0,1-2.227.565,3.177,3.177,0,0,1-3.5-2.736,9.534,9.534,0,0,1-6.172,2.691,5.016,5.016,0,0,1-3.448-1.13A3.665,3.665,0,0,1,391,745.176a4.466,4.466,0,0,1,.78-2.657,7.737,7.737,0,0,1,2.057-1.944q1.277-.848,3.765-2.148t4.092-2.227v-3.414a3.417,3.417,0,0,0-.7-2.329,2.665,2.665,0,0,0-2.1-.791,3.53,3.53,0,0,0-1.91.441A1.208,1.208,0,0,0,396.291,731.067Zm1.425,17.048a5.765,5.765,0,0,1-3.29-.837,2.743,2.743,0,0,1-1.232-2.419,4.269,4.269,0,0,1,.6-2.182,12.964,12.964,0,0,1,1.8-2.295,11.86,11.86,0,0,0-2.838,2.171,3.77,3.77,0,0,0-1.006,2.623,2.774,2.774,0,0,0,1.21,2.3,4.273,4.273,0,0,0,2.634.916A6.493,6.493,0,0,0,397.716,748.115Zm-2.126-14.267a1.6,1.6,0,0,1-1.244-.317,1.177,1.177,0,0,1-.43-.9,2.149,2.149,0,0,1,.385-1.255,17.334,17.334,0,0,1,1.334-1.594,10.531,10.531,0,0,0-2.464,1.628,2.469,2.469,0,0,0-.859,1.831,1.122,1.122,0,0,0,.464.848,1.634,1.634,0,0,0,1.1.4A2.322,2.322,0,0,0,395.59,733.848Zm6.1,11.147v-7.258a15.757,15.757,0,0,0-4.036,2.939,4.656,4.656,0,0,0-1.142,3.166,2.6,2.6,0,0,0,.678,1.922,2.169,2.169,0,0,0,1.583.678A4.3,4.3,0,0,0,401.694,745Zm.746-10.74v8.931a10.433,10.433,0,0,0,.565,3.946,2.18,2.18,0,0,0,2.216,1.3,3.278,3.278,0,0,0,1.2-.181,2.594,2.594,0,0,1-1.922-1.085,5.237,5.237,0,0,1-.565-2.759V734.029a5.7,5.7,0,0,0-.667-3.245,3.147,3.147,0,0,0-2.3-1.074,2.275,2.275,0,0,1,1.176,1.311A11.717,11.717,0,0,1,402.441,734.255Z" transform="translate(-347.95 -716.665)" fill="#ed6bbc"/>
              <path id="Caminho_1224" data-name="Caminho 1224" d="M449.494,733.611V720.746h-2.419v-1.153q1.989-1.492,2.984-2.295a16.221,16.221,0,0,0,1.888-1.8,12.653,12.653,0,0,0,1.526-2.08h1.2v5.9h5.607v1.425h-5.607v13.521a5.251,5.251,0,0,0,.362,2.227,1.256,1.256,0,0,0,1.221.735,2.687,2.687,0,0,0,1.5-.452,12.708,12.708,0,0,0,1.685-1.4l.837.881a16.114,16.114,0,0,1-3.109,2.589,6.184,6.184,0,0,1-3.244.848,4.275,4.275,0,0,1-2.714-.769,3.943,3.943,0,0,1-1.345-2.092A12.005,12.005,0,0,1,449.494,733.611ZM451.71,716.9l-1.492,1.244v15.013a9.235,9.235,0,0,0,.78,4.375,2.936,2.936,0,0,0,2.793,1.368,6.955,6.955,0,0,0,2.125-.339,4.148,4.148,0,0,1-3.132-.961,4.6,4.6,0,0,1-1.074-3.425Z" transform="translate(-383.404 -707.18)" fill="#ed6bbc"/>
              <path id="Caminho_1225" data-name="Caminho 1225" d="M506.065,742.96l.9.7a10.918,10.918,0,0,1-2.419,3.12,9.382,9.382,0,0,1-3.086,1.809,10.6,10.6,0,0,1-3.516.588,9.294,9.294,0,0,1-4.623-1.2,8.633,8.633,0,0,1-3.38-3.459,10.469,10.469,0,0,1-1.244-5.132,11.849,11.849,0,0,1,.757-4.251,11.248,11.248,0,0,1,2.1-3.5,9.775,9.775,0,0,1,3.12-2.363,8.671,8.671,0,0,1,3.787-.848,9.172,9.172,0,0,1,3.878.848,7.317,7.317,0,0,1,2.927,2.34,7.545,7.545,0,0,1,1.142,2.227,16.593,16.593,0,0,1,.554,2.747H493.313a10.986,10.986,0,0,0,.8,3.979,7.278,7.278,0,0,0,1.854,2.623,7.124,7.124,0,0,0,2.431,1.425,7.791,7.791,0,0,0,2.464.429A7.672,7.672,0,0,0,506.065,742.96Zm-12.413-12.277a10.653,10.653,0,0,0-4.228,8.773,8.664,8.664,0,0,0,2.521,6.433,8.029,8.029,0,0,0,5.822,2.5,10.239,10.239,0,0,0,3.855-.78,8.436,8.436,0,0,0,3.267-2.318,15.731,15.731,0,0,1-2.815,1.436,9.509,9.509,0,0,1-3.425.554,7.454,7.454,0,0,1-5.619-2.351,8.493,8.493,0,0,1-2.25-6.127,11.673,11.673,0,0,1,.746-4.3A17.68,17.68,0,0,1,493.651,730.683Zm-.2,4.454h7.891v-.746a5.525,5.525,0,0,0-.475-2.34,3.736,3.736,0,0,0-1.3-1.583,3.311,3.311,0,0,0-1.888-.554,3.6,3.6,0,0,0-2.917,1.526A6.359,6.359,0,0,0,493.448,735.137Zm8.615,0h1.582a6.2,6.2,0,0,0-1.04-3.742,5.178,5.178,0,0,0-3.256-1.617,4.489,4.489,0,0,1,2.08,1.707,6.352,6.352,0,0,1,.633,3.2Z" transform="translate(-409.723 -716.665)" fill="#ed6bbc"/>
              <path id="Caminho_1226" data-name="Caminho 1226" d="M552.241,728.422V731.9a26.582,26.582,0,0,1,2.668-2.725,3.428,3.428,0,0,1,2.239-.757,2.564,2.564,0,0,1,1.911.8,2.786,2.786,0,0,1,.78,2.023,3.21,3.21,0,0,1-.7,2.114,2.2,2.2,0,0,1-1.764.848,3.42,3.42,0,0,1-1.04-.181,3.11,3.11,0,0,1-.95-.475q-.226-.181-.475-.385a3.66,3.66,0,0,0-.441-.316.81.81,0,0,0-.418-.113,1.369,1.369,0,0,0-.848.328,8.524,8.524,0,0,0-.961.916V744.9a3.172,3.172,0,0,0,.328,1.673,1.461,1.461,0,0,0,1.017.622,15.657,15.657,0,0,0,2.408.124v1.244H543.853v-1.244h.61q2.623,0,2.623-2.08V735.092q0-2.6-3.233-3.573v-.769l7.28-2.329Zm-4.409,6.67V745.38a2.087,2.087,0,0,1-.249,1.142,4.445,4.445,0,0,1-.724.8,2.891,2.891,0,0,0,1.854-.689,2.824,2.824,0,0,0,.565-2v-9.542a4.667,4.667,0,0,0-.678-2.826,2.539,2.539,0,0,0-2.148-.882q-.113,0-.5.045t-.52.045A3.663,3.663,0,0,1,547.832,735.092Zm5.924-3.188a2.189,2.189,0,0,1,1.221.407,4.16,4.16,0,0,0,2.351,1.108q1.176,0,1.718-1.515a1.888,1.888,0,0,1-2.284-.136,2.514,2.514,0,0,0-1.424-.7A3.062,3.062,0,0,0,553.756,731.9Z" transform="translate(-444.594 -716.665)" fill="#ed6bbc"/>
              <path id="Caminho_1227" data-name="Caminho 1227" d="M599.323,728.422v3.007a19.714,19.714,0,0,1,3.516-2.238,8.908,8.908,0,0,1,3.855-.768q6.4,0,6.4,6.353v10.31q0,1.47.7,1.854a4.564,4.564,0,0,0,2.125.384v1.244h-10.9v-1.244a3.776,3.776,0,0,0,2.115-.463,2.271,2.271,0,0,0,.667-1.956V733.984a4.9,4.9,0,0,0-.373-2.024,2.712,2.712,0,0,0-1.1-1.255,3.4,3.4,0,0,0-1.764-.43,5.242,5.242,0,0,0-2.521.667,14.412,14.412,0,0,0-2.725,2.024V744.9a2.959,2.959,0,0,0,.34,1.56,1.443,1.443,0,0,0,.916.678,9.4,9.4,0,0,0,1.662.181v1.244H591.319v-1.244a4.867,4.867,0,0,0,2.125-.373q.746-.373.746-1.707V735.228a3.945,3.945,0,0,0-.679-2.408,4.178,4.178,0,0,0-2.193-1.391v-.746l7.145-2.261Zm-4.386,6.06V744.86a5.234,5.234,0,0,1-.147,1.469,2.859,2.859,0,0,1-.645.995,2.194,2.194,0,0,0,2.216-2.464V734.075a2.636,2.636,0,0,0-.8-1.933,2.56,2.56,0,0,0-1.865-.8,3.254,3.254,0,0,0-.407.045,3.219,3.219,0,0,1-.385.045A3.148,3.148,0,0,1,594.937,734.482Zm13.611-.724V744.9q0,.7-.034,1.029a1.908,1.908,0,0,1-.181.633,3.287,3.287,0,0,1-.577.757h.43a1.53,1.53,0,0,0,1.56-.87,6.771,6.771,0,0,0,.385-2.612v-9.993a4.478,4.478,0,0,0-.859-2.962,4.031,4.031,0,0,0-3.03-1.108,3.445,3.445,0,0,1,1.764,1.436A5.08,5.08,0,0,1,608.548,733.758Z" transform="translate(-474.605 -716.665)" fill="#ed6bbc"/>
              <path id="Caminho_1228" data-name="Caminho 1228" d="M671.681,709.49v16.347a4.4,4.4,0,0,0,.215,1.572,1.262,1.262,0,0,0,.814.735,6.932,6.932,0,0,0,1.843.249v1.244H663.994v-1.244a3,3,0,0,0,1.956-.565,2.49,2.49,0,0,0,.553-1.854V715.595a2.877,2.877,0,0,0-.655-1.809,3.86,3.86,0,0,0-1.854-1.244v-.723l6.76-2.329Zm-4.432,6.172V726.4a2.31,2.31,0,0,1-.927,1.989,2.066,2.066,0,0,0,2.4-2.419v-10.6a3.223,3.223,0,0,0-.7-2.227,2.346,2.346,0,0,0-1.831-.78,6.234,6.234,0,0,0-.837.045A3.4,3.4,0,0,1,667.25,715.662Zm1.651-17.184a3.231,3.231,0,0,1,1.606.418,3.113,3.113,0,0,1,1.175,1.142,3.044,3.044,0,0,1,.43,1.583,3.1,3.1,0,0,1-.43,1.594,3.229,3.229,0,0,1-2.781,1.594,2.987,2.987,0,0,1-2.216-.949,3.164,3.164,0,0,1-.509-3.81,3.032,3.032,0,0,1,1.153-1.153A3.124,3.124,0,0,1,668.9,698.479Zm.384.723a3.027,3.027,0,0,0-2.057.633,2.193,2.193,0,0,0-.724,1.741,2.353,2.353,0,0,0,.7,1.752,3.076,3.076,0,0,0,2.08.758,6.647,6.647,0,0,1-1.062-1.165,2.3,2.3,0,0,1-.339-1.3A2.832,2.832,0,0,1,669.285,699.2Z" transform="translate(-520.555 -697.733)" fill="#ed6bbc"/>
              <path id="Caminho_1229" data-name="Caminho 1229" d="M700.169,733.611V720.746H697.75v-1.153q1.989-1.492,2.985-2.295a16.283,16.283,0,0,0,1.888-1.8,12.7,12.7,0,0,0,1.526-2.08h1.2v5.9h5.607v1.425h-5.607v13.521a5.255,5.255,0,0,0,.362,2.227,1.256,1.256,0,0,0,1.221.735,2.687,2.687,0,0,0,1.5-.452,12.691,12.691,0,0,0,1.685-1.4l.836.881a16.083,16.083,0,0,1-3.109,2.589,6.185,6.185,0,0,1-3.244.848,4.272,4.272,0,0,1-2.713-.769,3.943,3.943,0,0,1-1.346-2.092A12.016,12.016,0,0,1,700.169,733.611Zm2.216-16.709-1.492,1.244v15.013a9.236,9.236,0,0,0,.78,4.375,2.935,2.935,0,0,0,2.792,1.368,6.956,6.956,0,0,0,2.125-.339,4.146,4.146,0,0,1-3.131-.961,4.593,4.593,0,0,1-1.074-3.425Z" transform="translate(-541.898 -707.18)" fill="#ed6bbc"/>
              <path id="Caminho_1230" data-name="Caminho 1230" d="M751.11,732.111h7.8v1.153a6.79,6.79,0,0,0-1.877,1.164,6.956,6.956,0,0,0-1.3,1.56,20.53,20.53,0,0,0-1.153,2.261q-.622,1.391-1.232,2.974l-6.082,15.465c-1.628,4.206-3.8,7.952-6.512,7.952a3.667,3.667,0,0,1-2.295-.735,2.177,2.177,0,0,1-.961-1.775,1.873,1.873,0,0,1,.758-1.515,2.778,2.778,0,0,1,1.8-.61,2.889,2.889,0,0,1,1.1.249q.6.249,1.176.509a2.591,2.591,0,0,0,1.051.26c.995,0,1.892-2.676,2.69-4.741l1.2-3.256L740.461,737.2q-.271-.7-.6-1.436a7.539,7.539,0,0,0-.712-1.277,2.924,2.924,0,0,0-.972-.87,3.111,3.111,0,0,0-1.447-.35v-1.153h11.758v1.153a6.492,6.492,0,0,0-2.137.418,1.262,1.262,0,0,0-.735,1.277,6.972,6.972,0,0,0,.633,2.51l3.753,8.66,2.826-6.941a7.514,7.514,0,0,0,.565-2.917,2.709,2.709,0,0,0-2.284-3.007Zm-9.564,31.828q-1.854-.43-1.854-1.764,0-.837,1.108-1.379a4.215,4.215,0,0,0-.972-.2,1.543,1.543,0,0,0-1.142.441,1.435,1.435,0,0,0-.441,1.051,1.647,1.647,0,0,0,.859,1.447A3.933,3.933,0,0,0,741.546,763.94Zm6.2-12.067.746-1.809-5.834-13.521a15.058,15.058,0,0,0-1.1-2.2,2.344,2.344,0,0,0-1.04-.916,3.348,3.348,0,0,0-1.571-.158,5.554,5.554,0,0,1,1.232,1.447q.328.633,1.029,2.261Zm8.659-18.518h-3.572a2.908,2.908,0,0,1,.916,1.119,6.707,6.707,0,0,1,.35,1.8,8.464,8.464,0,0,1,1.018-1.775A5.488,5.488,0,0,1,756.4,733.355Z" transform="translate(-566.544 -718.997)" fill="#ed6bbc"/>
            </g>
          </g>
        </g>
      </g>
      <g id="Grupo_734" data-name="Grupo 734" transform="translate(0.6 35.611)">
        <g id="Grupo_733" data-name="Grupo 733">
          <path id="Caminho_1231" data-name="Caminho 1231" d="M275.564,799.455a5.142,5.142,0,1,1,5.136,4.9A4.884,4.884,0,0,1,275.564,799.455Zm8.488,0a3.352,3.352,0,1,0-3.352,3.351A3.25,3.25,0,0,0,284.052,799.455Z" transform="translate(-275.564 -794.087)" fill="#72d0e9"/>
          <path id="Caminho_1232" data-name="Caminho 1232" d="M330.557,804.037v4.169h-1.7v-3.951c0-1.294-.6-1.921-1.635-1.921-1.117,0-1.894.736-1.894,2.18v3.693h-1.7v-3.951c0-1.294-.6-1.921-1.635-1.921-1.131,0-1.894.736-1.894,2.18v3.693h-1.7V800.93h1.621v.927a3.014,3.014,0,0,1,2.384-1.008,2.725,2.725,0,0,1,2.452,1.212,3.4,3.4,0,0,1,2.725-1.212C329.331,800.849,330.557,801.843,330.557,804.037Z" transform="translate(-302.642 -798.069)" fill="#72d0e9"/>
          <path id="Caminho_1233" data-name="Caminho 1233" d="M363.368,805.113H357.66a2.2,2.2,0,0,0,2.357,1.744,2.609,2.609,0,0,0,1.976-.79l.913,1.049a4.086,4.086,0,0,1-6.948-2.548,3.618,3.618,0,0,1,3.76-3.719,3.547,3.547,0,0,1,3.678,3.76C363.4,804.745,363.382,804.95,363.368,805.113Zm-5.722-1.131h4.128a1.98,1.98,0,0,0-2.057-1.771A2.011,2.011,0,0,0,357.646,803.982Z" transform="translate(-326.394 -798.069)" fill="#72d0e9"/>
          <path id="Caminho_1234" data-name="Caminho 1234" d="M380.631,793.364h1.7v10.109h-1.7Z" transform="translate(-341.994 -793.337)" fill="#72d0e9"/>
          <path id="Caminho_1235" data-name="Caminho 1235" d="M398.5,799.3v4.169h-1.7v-3.951c0-1.294-.64-1.921-1.73-1.921a1.932,1.932,0,0,0-2.03,2.193v3.678h-1.7V793.364h1.7v3.679a3.242,3.242,0,0,1,2.425-.926A2.843,2.843,0,0,1,398.5,799.3Z" transform="translate(-348.763 -793.337)" fill="#72d0e9"/>
          <path id="Caminho_1236" data-name="Caminho 1236" d="M415.27,804.568a3.879,3.879,0,1,1,3.869,3.733A3.662,3.662,0,0,1,415.27,804.568Zm6.035,0a2.162,2.162,0,1,0-2.166,2.275A2.119,2.119,0,0,0,421.305,804.568Z" transform="translate(-363.895 -798.069)" fill="#72d0e9"/>
          <path id="Caminho_1237" data-name="Caminho 1237" d="M445.005,800.849v1.621a2.173,2.173,0,0,0-.4-.041,1.983,1.983,0,0,0-2.112,2.248v3.529h-1.7V800.93h1.621v1.063A2.864,2.864,0,0,1,445.005,800.849Z" transform="translate(-380.034 -798.069)" fill="#72d0e9"/>
          <path id="Caminho_1238" data-name="Caminho 1238" d="M474.305,804.568a3.544,3.544,0,0,1-3.692,3.733,2.989,2.989,0,0,1-2.33-.981v3.529h-1.7V800.93H468.2v.954a3,3,0,0,1,2.411-1.035A3.54,3.54,0,0,1,474.305,804.568Zm-1.73,0a2.162,2.162,0,1,0-2.152,2.275A2.116,2.116,0,0,0,472.575,804.568Z" transform="translate(-396.338 -798.069)" fill="#72d0e9"/>
          <path id="Caminho_1239" data-name="Caminho 1239" d="M496.937,803.942v4.264h-1.608v-.886a2.578,2.578,0,0,1-2.288.981c-1.663,0-2.711-.913-2.711-2.18,0-1.213.817-2.166,3.024-2.166h1.88v-.109c0-.994-.6-1.581-1.812-1.581a3.6,3.6,0,0,0-2.207.722l-.668-1.24a5.114,5.114,0,0,1,3.079-.9C495.724,800.849,496.937,801.843,496.937,803.942Zm-1.7,1.989v-.845h-1.757c-1.158,0-1.471.436-1.471.968,0,.613.517,1.008,1.389,1.008A1.854,1.854,0,0,0,495.233,805.93Z" transform="translate(-411.353 -798.069)" fill="#72d0e9"/>
          <path id="Caminho_1240" data-name="Caminho 1240" d="M518.434,800.849v1.621a2.166,2.166,0,0,0-.4-.041,1.983,1.983,0,0,0-2.111,2.248v3.529h-1.7V800.93h1.621v1.063A2.864,2.864,0,0,1,518.434,800.849Z" transform="translate(-426.461 -798.069)" fill="#72d0e9"/>
          <path id="Caminho_1241" data-name="Caminho 1241" d="M534.687,803.942v4.264H533.08v-.886a2.578,2.578,0,0,1-2.288.981c-1.663,0-2.711-.913-2.711-2.18,0-1.213.818-2.166,3.024-2.166h1.88v-.109c0-.994-.6-1.581-1.812-1.581a3.6,3.6,0,0,0-2.207.722l-.668-1.24a5.114,5.114,0,0,1,3.079-.9C533.475,800.849,534.687,801.843,534.687,803.942Zm-1.7,1.989v-.845h-1.757c-1.158,0-1.471.436-1.471.968,0,.613.517,1.008,1.389,1.008A1.854,1.854,0,0,0,532.984,805.93Z" transform="translate(-435.221 -798.069)" fill="#72d0e9"/>
          <path id="Caminho_1242" data-name="Caminho 1242" d="M559.941,807.484l.654-1.294a4.892,4.892,0,0,0,2.534.722c1.076,0,1.526-.3,1.526-.8,0-1.39-4.5-.082-4.5-2.984,0-1.376,1.24-2.275,3.2-2.275a5.789,5.789,0,0,1,2.725.627l-.653,1.294a3.986,3.986,0,0,0-2.085-.545c-1.036,0-1.526.341-1.526.817,0,1.471,4.5.164,4.5,3.011,0,1.362-1.253,2.248-3.3,2.248A5.781,5.781,0,0,1,559.941,807.484Z" transform="translate(-455.366 -798.069)" fill="#72d0e9"/>
          <path id="Caminho_1243" data-name="Caminho 1243" d="M587.062,805.113h-5.708a2.2,2.2,0,0,0,2.357,1.744,2.608,2.608,0,0,0,1.975-.79l.913,1.049a4.085,4.085,0,0,1-6.948-2.548,3.618,3.618,0,0,1,3.76-3.719,3.548,3.548,0,0,1,3.679,3.76C587.09,804.745,587.076,804.95,587.062,805.113Zm-5.722-1.131h4.128a1.98,1.98,0,0,0-2.057-1.771A2.01,2.01,0,0,0,581.34,803.982Z" transform="translate(-467.828 -798.069)" fill="#72d0e9"/>
          <path id="Caminho_1244" data-name="Caminho 1244" d="M611.274,801.07v7.276h-1.621v-.927a2.973,2.973,0,0,1-2.343,1.022,2.878,2.878,0,0,1-3.134-3.215V801.07h1.7v3.924c0,1.322.627,1.948,1.7,1.948a1.917,1.917,0,0,0,1.989-2.194V801.07Z" transform="translate(-483.334 -798.209)" fill="#72d0e9"/>
          <path id="Caminho_1245" data-name="Caminho 1245" d="M647.5,799.836a3.544,3.544,0,0,1-3.692,3.733,3,3,0,0,1-2.412-1.036v.94h-1.621V793.364h1.7v3.72a3.023,3.023,0,0,1,2.33-.967A3.533,3.533,0,0,1,647.5,799.836Zm-1.73,0a2.162,2.162,0,1,0-2.153,2.275A2.116,2.116,0,0,0,645.773,799.836Z" transform="translate(-505.845 -793.337)" fill="#72d0e9"/>
          <path id="Caminho_1246" data-name="Caminho 1246" d="M670.975,805.113h-5.708a2.2,2.2,0,0,0,2.357,1.744,2.609,2.609,0,0,0,1.975-.79l.913,1.049a4.085,4.085,0,0,1-6.948-2.548,3.618,3.618,0,0,1,3.76-3.719,3.547,3.547,0,0,1,3.678,3.76C671,804.745,670.989,804.95,670.975,805.113Zm-5.722-1.131h4.128a1.98,1.98,0,0,0-2.057-1.771A2.01,2.01,0,0,0,665.253,803.982Z" transform="translate(-520.883 -798.069)" fill="#72d0e9"/>
          <path id="Caminho_1247" data-name="Caminho 1247" d="M695.962,799.836a3.544,3.544,0,0,1-3.692,3.733,3,3,0,0,1-2.411-1.036v.94h-1.621V793.364h1.7v3.72a3.023,3.023,0,0,1,2.329-.967A3.533,3.533,0,0,1,695.962,799.836Zm-1.73,0a2.162,2.162,0,1,0-2.153,2.275A2.116,2.116,0,0,0,694.232,799.836Z" transform="translate(-536.483 -793.337)" fill="#72d0e9"/>
          <path id="Caminho_1248" data-name="Caminho 1248" d="M719.433,800.334h-5.708a2.2,2.2,0,0,0,2.357,1.744,2.608,2.608,0,0,0,1.975-.79l.913,1.049a4.085,4.085,0,0,1-6.948-2.548,3.618,3.618,0,0,1,3.76-3.719,3.548,3.548,0,0,1,3.678,3.76C719.461,799.966,719.447,800.17,719.433,800.334Zm-4.891-5.177h-1.4l1.826-1.867h1.553l1.826,1.867h-1.4l-1.2-1.008Zm-.831,4.046h4.128a1.98,1.98,0,0,0-2.057-1.771A2.01,2.01,0,0,0,713.711,799.2Z" transform="translate(-551.522 -793.29)" fill="#72d0e9"/>
        </g>
      </g>
    </g>
  </g>
</svg>
