<svg xmlns="http://www.w3.org/2000/svg" width="362.925" height="85.724" viewBox="0 0 362.925 85.724">
  <g id="LOGO-TOPO" transform="translate(-45.972 -672.804)">
    <g id="Grupo_728" data-name="Grupo 728" transform="translate(45.972 672.804)">
      <g id="Grupo_727" data-name="Grupo 727">
        <g id="Grupo_726" data-name="Grupo 726">
          <g id="Grupo_715" data-name="Grupo 715" transform="translate(3.85)">
            <path id="Caminho_1215" data-name="Caminho 1215" d="M119.755,747.142c.3-.49.58-.993.9-1.467a120.211,120.211,0,0,0,12.691-23.18,49.08,49.08,0,0,0,3.865-16.527,20.844,20.844,0,0,0-2.389-11.1c-3.233-5.8-9.88-8.969-17.035-8.178-7.674.848-13.813,4.26-18.1,10.787-.07.106-.152.2-.385.515-.484-.619-.905-1.118-1.281-1.647a25.2,25.2,0,0,0-12.4-9.506A22.677,22.677,0,0,0,60.814,693.7a31.113,31.113,0,0,0-6,11.187c-.091.305-.241.593-.482,1.176A5.553,5.553,0,0,1,53.995,705c-.291-7.17.511-14.141,4.185-20.477,4-6.905,10.162-10.668,18-11.523a26.179,26.179,0,0,1,18.968,4.784,20.3,20.3,0,0,1,3.253,3.109c.725.839,1.183.832,1.97.113A30.753,30.753,0,0,1,112.437,674a27.139,27.139,0,0,1,29.742,9.691c5.066,6.7,6.745,14.315,5.749,22.573-1.079,8.947-5.049,16.651-10.376,23.742a94.708,94.708,0,0,1-16.764,16.768,8.823,8.823,0,0,1-.834.531Z" transform="translate(-53.94 -672.804)" fill="#ed6bbc"/>
          </g>
          <g id="Grupo_716" data-name="Grupo 716" transform="translate(0 44.135)">
            <path id="Caminho_1216" data-name="Caminho 1216" d="M102.169,805.73c-1.831-.817-3.62-1.752-5.5-2.431-6.878-2.48-11.632-3.983-18.677-5.852-10.984-2.913-20.459-11.215-25.958-20.638-2.268-3.886-4.028-8.068-6.013-12.117a.562.562,0,0,1,.065-.552q1.57,2.734,3.139,5.468c4.622,8.087,14.12,16.168,22.537,20.067,7.333,3.4,11.86,4.477,19.038,8.184,3.765,1.944,7.192,4.545,10.77,6.852.316.2.617.43.925.645Z" transform="translate(-45.972 -764.141)" fill="#72d0e9"/>
          </g>
          <g id="Grupo_717" data-name="Grupo 717" transform="translate(53.645 55.958)">
            <path id="Caminho_1217" data-name="Caminho 1217" d="M156.99,789.15a6.25,6.25,0,0,1,6.662.963c2.735,2.29,3.824,5.512,4.647,8.84.021.086-.09.2-.258.555C165.9,794.3,162.994,790.088,156.99,789.15Z" transform="translate(-156.99 -788.609)" fill="#72d0e9"/>
          </g>
          <g id="Grupo_725" data-name="Grupo 725" transform="translate(9.892 22.273)">
            <g id="Grupo_718" data-name="Grupo 718">
              <path id="Caminho_1218" data-name="Caminho 1218" d="M127.985,753.606a15.76,15.76,0,0,0-3.755-6.979,40.264,40.264,0,0,0-13.623-9.817,31.745,31.745,0,0,0-13.4-3.438c-1.742-.01-1.681,0-1.688-1.658a9.365,9.365,0,0,0-.6-3.127,2.051,2.051,0,0,0-1.347-1.22c-1.252-.066-1.748-.842-2.337-1.718-4.755-7.071-12.424-8.765-19.025-4.233-4.474,3.071-6.719,8.186-5.381,12.979,1.4,5.033,5.25,7.769,9.85,9.639.02.008.067-.048.209-.154a14.585,14.585,0,0,1-1.118-1.025A43.244,43.244,0,0,1,71.4,737.8c-4.424-6.887-.64-14.521,7.51-15.3,4.679-.448,8.33,1.551,11.372,4.96a3.593,3.593,0,0,0,1.85,1.143,2.8,2.8,0,0,1,2.479,3.359l-2.44-1.049c2.6,4.477,4.965,8.936.795,13.481-3.351,3.652-7.619,4.619-12.635,2.388a8.706,8.706,0,0,0,.881,1.015,7.664,7.664,0,0,0,7.491,1.586c.983-.328,1.331-.131,1.627.939a7.658,7.658,0,0,1,.284,1.612c.044.5.038.892.05,1.339.007.267-.875-.023-1.224-.185-3.472-1.606-6.911-3.2-10.375-4.826-3.179-1.491-5.873-3.561-9.431-2.592-2.194.6-3.047,2.6-1.635,4.346a21.173,21.173,0,0,0,6.908,5.105c4.211,2.246,8.589,4.208,12.323,7.265.1.078.74-.016,1.221.039a10.686,10.686,0,0,0-1.855-1.77c-2.279-1.886-4.519-3.833-6.93-5.55-2.695-1.919-5.369-3.186-7.287-4.706a1.239,1.239,0,0,1-.576-1.313c.242-.839.891-.809,1.495-.715a6.6,6.6,0,0,1,1.858.52c2.534,1.175,6.454,2.891,8.925,4.19,2.086,1.1,3.968,2.671,6.146,3.478a52.455,52.455,0,0,0,7.786,1.779c3.68.75,7.1,1.968,9.207,5.349a22.575,22.575,0,0,0,4.235,4.819c2.1,1.894,4.029,3.986,6.036,5.987a8.039,8.039,0,0,0,.638.524c-1.342-4.755-5.21-7.929-7.672-12.288,3.5-.223,6.256,1.2,9.183,2.145a7.566,7.566,0,0,0-2.512-2.141c-2.167-.93-4.447-1.593-6.638-2.47a6.231,6.231,0,0,1-2.033-1.405,25.031,25.031,0,0,1-2.265-2.768,1.665,1.665,0,0,1-.4-1.185,6.2,6.2,0,0,1,5.119-4.689c1.026-.182,2.034-.463,3.051-.7a10.432,10.432,0,0,0-6.823.8c-.67-2.243-1.15-4.382-1.953-6.393a10.653,10.653,0,0,0-3.991-5.052,8.867,8.867,0,0,0,.871,1.786c1.516,2.622,2.978,5.269,2.929,8.428a4.292,4.292,0,0,1-5.189,4.473c-3.14-.426-4.865-2.506-5.974-5.265-.737-1.835-.615-2.264,1.179-3.665,1.642,1.984,2.937,4.333,5.309,5.668a3.524,3.524,0,0,0-.531-1.272c-1.076-1.763-2.24-3.48-3.195-5.306a4.782,4.782,0,0,1-.3-2.423c.1-1.49.461-2.966.518-4.455.038-.991.392-1.352,1.3-1.244a34.327,34.327,0,0,1,5.359.719,33.19,33.19,0,0,1,20.293,15.912c1.814,3.156,2.937,6.557,1.253,10.333a3.579,3.579,0,0,0,.476-.381A9.321,9.321,0,0,0,127.985,753.606Z" transform="translate(-66.444 -718.899)" fill="#72d0e9"/>
            </g>
            <g id="Grupo_720" data-name="Grupo 720" transform="translate(13.415 22.106)">
              <g id="Grupo_719" data-name="Grupo 719">
                <path id="Caminho_1219" data-name="Caminho 1219" d="M97.321,764.768c-.01-.067-.019-.111-.021-.12l-.29.067a3.14,3.14,0,0,1-.351,2.2c-.618.823-2.376.461-2.394.458l-.059.3.106.02a6.187,6.187,0,0,0,2.049.472,1.347,1.347,0,0,0,1.129-.439C98.193,766.793,97.414,764.976,97.321,764.768Zm-.641,2.571-.02,0,.026-.021C96.683,767.326,96.682,767.333,96.68,767.339Z" transform="translate(-94.205 -764.648)" fill="#72d0e9"/>
              </g>
            </g>
            <g id="Grupo_722" data-name="Grupo 722" transform="translate(19.167 16.025)">
              <g id="Grupo_721" data-name="Grupo 721">
                <path id="Caminho_1220" data-name="Caminho 1220" d="M109.131,752.182c-.013-.066-.023-.11-.025-.119l-.288.076a3.142,3.142,0,0,1-.281,2.212c-.591.842-2.36.537-2.378.533l-.05.3.107.016a6.163,6.163,0,0,0,2.063.406,1.346,1.346,0,0,0,1.115-.474C110.067,754.178,109.23,752.386,109.131,752.182Zm-.559,2.59-.02,0,.025-.022C108.575,754.76,108.573,754.766,108.572,754.772Z" transform="translate(-106.109 -752.063)" fill="#72d0e9"/>
              </g>
            </g>
            <g id="Grupo_724" data-name="Grupo 724" transform="translate(20.474 22.948)">
              <g id="Grupo_723" data-name="Grupo 723">
                <path id="Caminho_1221" data-name="Caminho 1221" d="M111.63,766.5c-.012-.062-.021-.1-.024-.111l-.268.071a2.923,2.923,0,0,1-.261,2.06c-.551.784-2.2.5-2.216.5l-.046.285.1.015a5.743,5.743,0,0,0,1.922.378,1.255,1.255,0,0,0,1.038-.442C112.5,768.361,111.722,766.692,111.63,766.5Zm-.521,2.413-.018,0,.023-.021Z" transform="translate(-108.815 -766.39)" fill="#72d0e9"/>
              </g>
            </g>
          </g>
        </g>
      </g>
    </g>
    <g id="Grupo_735" data-name="Grupo 735" transform="translate(156.124 684.23)">
      <g id="Grupo_732" data-name="Grupo 732" transform="translate(0)">
        <g id="Grupo_731" data-name="Grupo 731">
          <g id="Grupo_730" data-name="Grupo 730">
            <g id="Grupo_729" data-name="Grupo 729">
              <path id="Caminho_1222" data-name="Caminho 1222" d="M300.761,728.21l12.983-31.76h12.835v1.634a8.819,8.819,0,0,0-4.219.773A2.9,2.9,0,0,0,320.934,701a41.373,41.373,0,0,0-.208,5.14V731.8a6.677,6.677,0,0,0,.52,2.971,2.846,2.846,0,0,0,1.678,1.411,14.833,14.833,0,0,0,3.655.55v1.634H307.415v-1.634a9.46,9.46,0,0,0,4.13-.713,2.7,2.7,0,0,0,1.515-1.828,20.951,20.951,0,0,0,.238-3.788v-28.67l-14.766,36.632h-1.723L282.221,702.9v24.333a11.311,11.311,0,0,0,1.56,6.4,8.018,8.018,0,0,0,5.184,3.1v1.634H273.932v-1.634a6.868,6.868,0,0,0,4.9-2.481,9.449,9.449,0,0,0,1.724-6.046V700.639a7.59,7.59,0,0,0-2.912-1.991,9.1,9.1,0,0,0-3.714-.564V696.45H287.51Zm-23.412,8.527h6.269a4.7,4.7,0,0,1-1.738-1.56,7.216,7.216,0,0,1-1-2.332A5.919,5.919,0,0,1,279.592,735,9.976,9.976,0,0,1,277.349,736.737Zm2.317-38.653h-1.1a6.947,6.947,0,0,1,2.9,1.976A15.543,15.543,0,0,1,283.618,704l13.755,32.74a4.465,4.465,0,0,0,.654-2.08,6.743,6.743,0,0,0-.654-2.376l-11.825-28.7a13.371,13.371,0,0,0-2.332-4.159A4.588,4.588,0,0,0,279.666,698.084Zm36.514,33.424v-28.67a13.946,13.946,0,0,1,.535-4.754,2.4,2.4,0,0,0-1.694.669,2.884,2.884,0,0,0-.624,1.6,31.894,31.894,0,0,0-.119,3.283V732.28a6.791,6.791,0,0,1-.431,2.926,4.357,4.357,0,0,1-1.768,1.53h1.04q2.05,0,2.555-1.174A11.348,11.348,0,0,0,316.18,731.508Z" transform="translate(-273.932 -696.45)" fill="#ed6bbc"/>
              <path id="Caminho_1223" data-name="Caminho 1223" d="M397.952,731.9a3.909,3.909,0,0,0,.387.862,2.88,2.88,0,0,1-.669,3.669,3.68,3.68,0,0,1-2.629,1,3.5,3.5,0,0,1-2.406-.788,2.375,2.375,0,0,1-.892-1.827,4.309,4.309,0,0,1,1.5-3.03,11.044,11.044,0,0,1,4.129-2.422,17.225,17.225,0,0,1,5.809-.935,11.529,11.529,0,0,1,4.323.8,7.121,7.121,0,0,1,3.194,2.436,6.536,6.536,0,0,1,1.188,3.951V750.7q0,1.812,1.04,1.812.624,0,1.515-.98l1.1,1.278a14.6,14.6,0,0,1-2.688,2.2,5.571,5.571,0,0,1-2.927.743,4.174,4.174,0,0,1-4.6-3.6q-4.1,3.536-8.111,3.536a6.591,6.591,0,0,1-4.531-1.485A4.816,4.816,0,0,1,391,750.437a5.868,5.868,0,0,1,1.025-3.491,10.165,10.165,0,0,1,2.7-2.555q1.679-1.114,4.947-2.822t5.377-2.927v-4.486a4.49,4.49,0,0,0-.921-3.06,3.5,3.5,0,0,0-2.763-1.04,4.639,4.639,0,0,0-2.51.579A1.588,1.588,0,0,0,397.952,731.9Zm1.872,22.4a7.575,7.575,0,0,1-4.323-1.1,3.6,3.6,0,0,1-1.619-3.179,5.61,5.61,0,0,1,.787-2.867,17.037,17.037,0,0,1,2.362-3.016,15.582,15.582,0,0,0-3.729,2.852,4.954,4.954,0,0,0-1.322,3.446,3.646,3.646,0,0,0,1.589,3.016,5.615,5.615,0,0,0,3.462,1.2A8.53,8.53,0,0,0,399.824,754.3Zm-2.793-18.747a2.1,2.1,0,0,1-1.634-.416,1.547,1.547,0,0,1-.565-1.188,2.825,2.825,0,0,1,.505-1.649,22.762,22.762,0,0,1,1.753-2.095,13.832,13.832,0,0,0-3.238,2.139,3.245,3.245,0,0,0-1.129,2.406,1.474,1.474,0,0,0,.609,1.114,2.147,2.147,0,0,0,1.441.52A3.052,3.052,0,0,0,397.031,735.552Zm8.021,14.647v-9.536a20.7,20.7,0,0,0-5.3,3.862,6.118,6.118,0,0,0-1.5,4.159,3.415,3.415,0,0,0,.892,2.526,2.851,2.851,0,0,0,2.08.891A5.646,5.646,0,0,0,405.053,750.2Zm.98-14.112v11.735a13.707,13.707,0,0,0,.743,5.185,2.864,2.864,0,0,0,2.912,1.708,4.31,4.31,0,0,0,1.575-.238,3.409,3.409,0,0,1-2.526-1.426,6.882,6.882,0,0,1-.742-3.625V735.79q0-3.09-.877-4.263a4.135,4.135,0,0,0-3.016-1.411,2.99,2.99,0,0,1,1.545,1.723A15.4,15.4,0,0,1,406.033,736.087Z" transform="translate(-334.432 -712.973)" fill="#ed6bbc"/>
              <path id="Caminho_1224" data-name="Caminho 1224" d="M450.254,739.951V723.046h-3.179v-1.515q2.614-1.961,3.921-3.016a21.313,21.313,0,0,0,2.481-2.362,16.634,16.634,0,0,0,2-2.733h1.575v7.754h7.368v1.872h-7.368v17.767a6.9,6.9,0,0,0,.475,2.926,1.65,1.65,0,0,0,1.6.965,3.532,3.532,0,0,0,1.976-.594,16.7,16.7,0,0,0,2.214-1.842l1.1,1.158a21.17,21.17,0,0,1-4.086,3.4,8.127,8.127,0,0,1-4.263,1.114,5.617,5.617,0,0,1-3.566-1.01,5.181,5.181,0,0,1-1.768-2.748A15.773,15.773,0,0,1,450.254,739.951Zm2.911-21.956-1.961,1.634v19.727a12.135,12.135,0,0,0,1.025,5.749,3.857,3.857,0,0,0,3.669,1.8,9.14,9.14,0,0,0,2.792-.445,5.45,5.45,0,0,1-4.115-1.263q-1.411-1.352-1.411-4.5Z" transform="translate(-363.411 -705.22)" fill="#ed6bbc"/>
              <path id="Caminho_1225" data-name="Caminho 1225" d="M511.518,747.525l1.188.922a14.348,14.348,0,0,1-3.179,4.1,12.329,12.329,0,0,1-4.055,2.377,13.933,13.933,0,0,1-4.62.772,12.212,12.212,0,0,1-6.075-1.575,11.343,11.343,0,0,1-4.442-4.546,13.756,13.756,0,0,1-1.634-6.744,15.569,15.569,0,0,1,.995-5.585,14.78,14.78,0,0,1,2.763-4.6,12.841,12.841,0,0,1,4.1-3.1,11.39,11.39,0,0,1,4.976-1.114,12.048,12.048,0,0,1,5.1,1.114,9.612,9.612,0,0,1,3.847,3.075,9.915,9.915,0,0,1,1.5,2.926,21.8,21.8,0,0,1,.728,3.61H494.761a14.439,14.439,0,0,0,1.054,5.229,9.564,9.564,0,0,0,2.436,3.446,9.358,9.358,0,0,0,3.194,1.872,10.233,10.233,0,0,0,3.238.564A10.081,10.081,0,0,0,511.518,747.525Zm-16.311-16.132a14,14,0,0,0-5.555,11.527,11.384,11.384,0,0,0,3.312,8.453,10.55,10.55,0,0,0,7.651,3.283,13.456,13.456,0,0,0,5.065-1.025,11.083,11.083,0,0,0,4.293-3.046,20.667,20.667,0,0,1-3.7,1.887,12.493,12.493,0,0,1-4.5.728,9.8,9.8,0,0,1-7.383-3.09,11.161,11.161,0,0,1-2.957-8.051,15.338,15.338,0,0,1,.98-5.645A23.228,23.228,0,0,1,495.206,731.393Zm-.267,5.853h10.369v-.98a7.259,7.259,0,0,0-.624-3.075,4.912,4.912,0,0,0-1.708-2.08,4.352,4.352,0,0,0-2.481-.728,4.723,4.723,0,0,0-3.832,2.005A8.355,8.355,0,0,0,494.939,737.246Zm11.32,0h2.079a8.152,8.152,0,0,0-1.366-4.917,6.8,6.8,0,0,0-4.278-2.124,5.9,5.9,0,0,1,2.734,2.243,8.348,8.348,0,0,1,.832,4.2Z" transform="translate(-384.922 -712.973)" fill="#ed6bbc"/>
              <path id="Caminho_1226" data-name="Caminho 1226" d="M554.875,728.422V733a34.918,34.918,0,0,1,3.506-3.58,4.5,4.5,0,0,1,2.942-.995,3.368,3.368,0,0,1,2.511,1.055,3.66,3.66,0,0,1,1.024,2.659,4.218,4.218,0,0,1-.921,2.778,2.885,2.885,0,0,1-2.317,1.114,4.5,4.5,0,0,1-1.367-.238,4.081,4.081,0,0,1-1.248-.624q-.3-.238-.624-.505a4.8,4.8,0,0,0-.579-.416,1.063,1.063,0,0,0-.549-.148,1.8,1.8,0,0,0-1.114.431,11.2,11.2,0,0,0-1.263,1.2v14.35a4.167,4.167,0,0,0,.431,2.2,1.92,1.92,0,0,0,1.337.817,20.58,20.58,0,0,0,3.164.163v1.634H543.853v-1.634h.8q3.447,0,3.447-2.733v-13.34q0-3.417-4.248-4.694v-1.01l9.566-3.06Zm-5.793,8.764V750.7a2.742,2.742,0,0,1-.327,1.5,5.846,5.846,0,0,1-.951,1.054,3.8,3.8,0,0,0,2.437-.906,3.71,3.71,0,0,0,.743-2.629V737.186a6.133,6.133,0,0,0-.891-3.714,3.336,3.336,0,0,0-2.822-1.159q-.149,0-.654.059c-.337.04-.564.059-.683.059A4.814,4.814,0,0,1,549.082,737.186ZM556.866,733a2.876,2.876,0,0,1,1.6.535,5.466,5.466,0,0,0,3.09,1.456q1.545,0,2.258-1.991a2.48,2.48,0,0,1-3-.178,3.3,3.3,0,0,0-1.872-.921A4.023,4.023,0,0,0,556.866,733Z" transform="translate(-413.425 -712.973)" fill="#ed6bbc"/>
              <path id="Caminho_1227" data-name="Caminho 1227" d="M601.836,728.422v3.951a25.9,25.9,0,0,1,4.62-2.941,11.7,11.7,0,0,1,5.065-1.01q8.407,0,8.408,8.348v13.548q0,1.932.921,2.436a6,6,0,0,0,2.793.5v1.634H609.323v-1.634a4.961,4.961,0,0,0,2.779-.609q.876-.609.876-2.57v-14.35a6.445,6.445,0,0,0-.49-2.659,3.563,3.563,0,0,0-1.441-1.649,4.469,4.469,0,0,0-2.317-.564,6.889,6.889,0,0,0-3.313.876,18.93,18.93,0,0,0-3.58,2.659V750.08a3.888,3.888,0,0,0,.446,2.05,1.9,1.9,0,0,0,1.2.891,12.347,12.347,0,0,0,2.184.238v1.634h-14.35v-1.634a6.4,6.4,0,0,0,2.793-.49q.98-.49.98-2.243V737.365a5.185,5.185,0,0,0-.892-3.164,5.491,5.491,0,0,0-2.882-1.827v-.98l9.388-2.971Zm-5.763,7.962v13.637a6.873,6.873,0,0,1-.193,1.931,3.755,3.755,0,0,1-.847,1.307,2.883,2.883,0,0,0,2.912-3.238V735.849a3.464,3.464,0,0,0-1.055-2.54,3.364,3.364,0,0,0-2.451-1.055,4.267,4.267,0,0,0-.535.059,4.223,4.223,0,0,1-.505.059A4.137,4.137,0,0,1,596.073,736.384Zm17.885-.951V750.08q0,.922-.044,1.352a2.51,2.51,0,0,1-.238.832,4.323,4.323,0,0,1-.758.995h.564a2.01,2.01,0,0,0,2.05-1.144,8.9,8.9,0,0,0,.505-3.432V735.552a5.884,5.884,0,0,0-1.129-3.892q-1.129-1.337-3.981-1.456a4.526,4.526,0,0,1,2.318,1.886A6.675,6.675,0,0,1,613.958,735.433Z" transform="translate(-437.955 -712.973)" fill="#ed6bbc"/>
              <path id="Caminho_1228" data-name="Caminho 1228" d="M674.095,712.948v21.48a5.779,5.779,0,0,0,.283,2.065,1.658,1.658,0,0,0,1.069.965,9.111,9.111,0,0,0,2.421.327v1.634H663.994v-1.634a3.945,3.945,0,0,0,2.57-.743,3.271,3.271,0,0,0,.727-2.436V720.969a3.78,3.78,0,0,0-.861-2.377,5.071,5.071,0,0,0-2.436-1.634v-.95l8.883-3.06Zm-5.823,8.111v14.113a3.036,3.036,0,0,1-1.218,2.614,2.715,2.715,0,0,0,3.149-3.179V720.672a4.234,4.234,0,0,0-.921-2.926,3.082,3.082,0,0,0-2.406-1.025,8.183,8.183,0,0,0-1.1.059A4.471,4.471,0,0,1,668.272,721.058Zm2.169-22.579a4.246,4.246,0,0,1,2.11.549,4.09,4.09,0,0,1,1.544,1.5,4,4,0,0,1,.565,2.08,4.078,4.078,0,0,1-.565,2.095,4.243,4.243,0,0,1-3.654,2.094,3.926,3.926,0,0,1-2.911-1.248,4.158,4.158,0,0,1-.669-5.006,3.984,3.984,0,0,1,1.515-1.515A4.106,4.106,0,0,1,670.441,698.479Zm.5.95a3.978,3.978,0,0,0-2.7.832,2.881,2.881,0,0,0-.951,2.287,3.092,3.092,0,0,0,.921,2.3,4.041,4.041,0,0,0,2.733,1,8.726,8.726,0,0,1-1.4-1.53,3.018,3.018,0,0,1-.446-1.708A3.722,3.722,0,0,1,670.946,699.429Z" transform="translate(-475.513 -697.499)" fill="#ed6bbc"/>
              <path id="Caminho_1229" data-name="Caminho 1229" d="M700.929,739.951V723.046H697.75v-1.515q2.614-1.961,3.922-3.016a21.392,21.392,0,0,0,2.481-2.362,16.691,16.691,0,0,0,2.005-2.733h1.574v7.754H715.1v1.872h-7.368v17.767a6.907,6.907,0,0,0,.475,2.926,1.651,1.651,0,0,0,1.6.965,3.531,3.531,0,0,0,1.975-.594A16.687,16.687,0,0,0,714,742.268l1.1,1.158a21.142,21.142,0,0,1-4.085,3.4,8.128,8.128,0,0,1-4.263,1.114,5.613,5.613,0,0,1-3.565-1.01,5.181,5.181,0,0,1-1.768-2.748A15.79,15.79,0,0,1,700.929,739.951Zm2.912-21.956-1.961,1.634v19.727a12.136,12.136,0,0,0,1.025,5.749,3.857,3.857,0,0,0,3.669,1.8,9.141,9.141,0,0,0,2.793-.445,5.448,5.448,0,0,1-4.115-1.263q-1.412-1.352-1.411-4.5Z" transform="translate(-492.958 -705.22)" fill="#ed6bbc"/>
              <path id="Caminho_1230" data-name="Caminho 1230" d="M755.626,732.111h10.25v1.515a8.92,8.92,0,0,0-2.466,1.53,9.138,9.138,0,0,0-1.709,2.05,26.947,26.947,0,0,0-1.515,2.971q-.818,1.827-1.619,3.907l-7.992,20.321c-2.139,5.526-4.991,10.449-8.557,10.449a4.819,4.819,0,0,1-3.015-.966,2.86,2.86,0,0,1-1.263-2.332,2.461,2.461,0,0,1,1-1.991,3.65,3.65,0,0,1,2.362-.8,3.8,3.8,0,0,1,1.441.327q.786.327,1.545.669a3.4,3.4,0,0,0,1.382.342c1.307,0,2.486-3.517,3.535-6.23l1.575-4.278-8.943-20.8q-.357-.92-.788-1.886a9.908,9.908,0,0,0-.936-1.679,3.842,3.842,0,0,0-1.278-1.144,4.088,4.088,0,0,0-1.9-.46v-1.515h15.45v1.515a8.529,8.529,0,0,0-2.808.549,1.659,1.659,0,0,0-.966,1.679,9.162,9.162,0,0,0,.832,3.3l4.932,11.379,3.714-9.121a9.873,9.873,0,0,0,.743-3.833q0-3.327-3-3.951Zm-12.567,41.823q-2.437-.565-2.436-2.318,0-1.1,1.456-1.812a5.535,5.535,0,0,0-1.278-.267,2.028,2.028,0,0,0-1.5.579,1.886,1.886,0,0,0-.579,1.382,2.164,2.164,0,0,0,1.129,1.9A5.167,5.167,0,0,0,743.059,773.934Zm8.141-15.857.98-2.377-7.666-17.767a19.792,19.792,0,0,0-1.441-2.9,3.08,3.08,0,0,0-1.366-1.2,4.4,4.4,0,0,0-2.065-.208,7.3,7.3,0,0,1,1.619,1.9q.43.832,1.352,2.971Zm11.379-24.332h-4.694a3.821,3.821,0,0,1,1.2,1.47,8.806,8.806,0,0,1,.461,2.362,11.122,11.122,0,0,1,1.337-2.332A7.21,7.21,0,0,1,762.578,733.745Z" transform="translate(-513.103 -714.879)" fill="#ed6bbc"/>
            </g>
          </g>
        </g>
      </g>
      <g id="Grupo_734" data-name="Grupo 734" transform="translate(0.789 46.794)">
        <g id="Grupo_733" data-name="Grupo 733">
          <path id="Caminho_1231" data-name="Caminho 1231" d="M275.564,801a6.756,6.756,0,1,1,6.749,6.445A6.417,6.417,0,0,1,275.564,801Zm11.153,0a4.4,4.4,0,1,0-4.4,4.4A4.271,4.271,0,0,0,286.717,801Z" transform="translate(-275.564 -793.941)" fill="#72d0e9"/>
          <path id="Caminho_1232" data-name="Caminho 1232" d="M334.377,805.038v5.478H332.14v-5.192c0-1.7-.788-2.524-2.148-2.524-1.468,0-2.489.967-2.489,2.864v4.852h-2.237v-5.192c0-1.7-.788-2.524-2.148-2.524-1.486,0-2.488.967-2.488,2.864v4.852h-2.238v-9.56h2.13v1.218a3.96,3.96,0,0,1,3.133-1.324,3.581,3.581,0,0,1,3.223,1.593,4.461,4.461,0,0,1,3.581-1.593C332.766,800.849,334.377,802.156,334.377,805.038Z" transform="translate(-297.697 -797.196)" fill="#72d0e9"/>
          <path id="Caminho_1233" data-name="Caminho 1233" d="M365.7,806.452h-7.5a2.894,2.894,0,0,0,3.1,2.292,3.428,3.428,0,0,0,2.6-1.039l1.2,1.379a4.847,4.847,0,0,1-3.849,1.557c-3.2,0-5.281-2.058-5.281-4.905a4.754,4.754,0,0,1,4.941-4.887,4.661,4.661,0,0,1,4.833,4.94C365.731,805.969,365.713,806.237,365.7,806.452Zm-7.519-1.486H363.6a2.6,2.6,0,0,0-2.7-2.327A2.642,2.642,0,0,0,358.177,804.966Z" transform="translate(-317.11 -797.196)" fill="#72d0e9"/>
          <path id="Caminho_1234" data-name="Caminho 1234" d="M380.631,793.364h2.238v13.284h-2.238Z" transform="translate(-329.862 -793.328)" fill="#72d0e9"/>
          <path id="Caminho_1235" data-name="Caminho 1235" d="M400.754,801.17v5.478h-2.238v-5.192c0-1.7-.841-2.524-2.273-2.524-1.594,0-2.668.967-2.668,2.882v4.833h-2.238V793.364h2.238V798.2a4.26,4.26,0,0,1,3.187-1.217C399.053,796.981,400.754,798.287,400.754,801.17Z" transform="translate(-335.395 -793.328)" fill="#72d0e9"/>
          <path id="Caminho_1236" data-name="Caminho 1236" d="M415.27,805.736a5.1,5.1,0,1,1,5.084,4.905A4.812,4.812,0,0,1,415.27,805.736Zm7.93,0a2.841,2.841,0,1,0-2.847,2.989A2.784,2.784,0,0,0,423.2,805.736Z" transform="translate(-347.763 -797.196)" fill="#72d0e9"/>
          <path id="Caminho_1237" data-name="Caminho 1237" d="M446.327,800.849v2.13a2.861,2.861,0,0,0-.52-.054c-1.7,0-2.775,1-2.775,2.954v4.637H440.8v-9.56h2.13v1.4A3.763,3.763,0,0,1,446.327,800.849Z" transform="translate(-360.954 -797.196)" fill="#72d0e9"/>
          <path id="Caminho_1238" data-name="Caminho 1238" d="M476.731,805.736a4.656,4.656,0,0,1-4.851,4.905,3.927,3.927,0,0,1-3.061-1.289v4.637h-2.237V800.956h2.13v1.253a3.94,3.94,0,0,1,3.168-1.36A4.651,4.651,0,0,1,476.731,805.736Zm-2.273,0a2.841,2.841,0,1,0-2.828,2.989A2.78,2.78,0,0,0,474.457,805.736Z" transform="translate(-374.28 -797.196)" fill="#72d0e9"/>
          <path id="Caminho_1239" data-name="Caminho 1239" d="M499.011,804.913v5.6H496.9v-1.164a3.387,3.387,0,0,1-3.007,1.289c-2.185,0-3.563-1.2-3.563-2.864,0-1.594,1.074-2.847,3.974-2.847h2.471v-.143c0-1.307-.788-2.077-2.381-2.077a4.732,4.732,0,0,0-2.9.949l-.878-1.629a6.72,6.72,0,0,1,4.046-1.181C497.418,800.849,499.011,802.156,499.011,804.913Zm-2.238,2.613v-1.11h-2.309c-1.522,0-1.933.573-1.933,1.271,0,.806.68,1.324,1.826,1.324A2.437,2.437,0,0,0,496.774,807.526Z" transform="translate(-386.553 -797.196)" fill="#72d0e9"/>
          <path id="Caminho_1240" data-name="Caminho 1240" d="M519.756,800.849v2.13a2.851,2.851,0,0,0-.519-.054c-1.7,0-2.775,1-2.775,2.954v4.637h-2.238v-9.56h2.13v1.4A3.763,3.763,0,0,1,519.756,800.849Z" transform="translate(-398.902 -797.196)" fill="#72d0e9"/>
          <path id="Caminho_1241" data-name="Caminho 1241" d="M536.762,804.913v5.6H534.65v-1.164a3.387,3.387,0,0,1-3.007,1.289c-2.185,0-3.563-1.2-3.563-2.864,0-1.594,1.074-2.847,3.974-2.847h2.471v-.143c0-1.307-.787-2.077-2.381-2.077a4.732,4.732,0,0,0-2.9.949l-.878-1.629a6.721,6.721,0,0,1,4.046-1.181C535.169,800.849,536.762,802.156,536.762,804.913Zm-2.238,2.613v-1.11h-2.309c-1.522,0-1.933.573-1.933,1.271,0,.806.68,1.324,1.826,1.324A2.437,2.437,0,0,0,534.525,807.526Z" transform="translate(-406.062 -797.196)" fill="#72d0e9"/>
          <path id="Caminho_1242" data-name="Caminho 1242" d="M559.941,809.567l.859-1.7a6.429,6.429,0,0,0,3.33.949c1.414,0,2-.394,2-1.056,0-1.826-5.907-.107-5.907-3.921,0-1.808,1.629-2.989,4.207-2.989a7.606,7.606,0,0,1,3.58.823l-.859,1.7a5.238,5.238,0,0,0-2.739-.716c-1.361,0-2.005.448-2.005,1.074,0,1.933,5.908.215,5.908,3.957,0,1.79-1.647,2.954-4.332,2.954A7.6,7.6,0,0,1,559.941,809.567Z" transform="translate(-422.528 -797.196)" fill="#72d0e9"/>
          <path id="Caminho_1243" data-name="Caminho 1243" d="M589.39,806.452h-7.5a2.893,2.893,0,0,0,3.1,2.292,3.427,3.427,0,0,0,2.6-1.039l1.2,1.379a4.847,4.847,0,0,1-3.849,1.557c-3.2,0-5.281-2.058-5.281-4.905a4.754,4.754,0,0,1,4.94-4.887,4.662,4.662,0,0,1,4.834,4.94C589.425,805.969,589.407,806.237,589.39,806.452Zm-7.519-1.486h5.424a2.6,2.6,0,0,0-2.7-2.327A2.641,2.641,0,0,0,581.871,804.966Z" transform="translate(-432.714 -797.196)" fill="#72d0e9"/>
          <path id="Caminho_1244" data-name="Caminho 1244" d="M613.5,801.07v9.56h-2.13v-1.218a3.907,3.907,0,0,1-3.079,1.343c-2.453,0-4.118-1.343-4.118-4.225v-5.46h2.238v5.156c0,1.737.823,2.56,2.238,2.56,1.558,0,2.614-.966,2.614-2.882V801.07Z" transform="translate(-445.388 -797.311)" fill="#72d0e9"/>
          <path id="Caminho_1245" data-name="Caminho 1245" d="M649.929,801.868a4.657,4.657,0,0,1-4.851,4.905,3.942,3.942,0,0,1-3.169-1.361v1.235h-2.13V793.364h2.238v4.888a3.972,3.972,0,0,1,3.061-1.271A4.642,4.642,0,0,1,649.929,801.868Zm-2.273,0a2.841,2.841,0,1,0-2.829,2.989A2.781,2.781,0,0,0,647.656,801.868Z" transform="translate(-463.788 -793.328)" fill="#72d0e9"/>
          <path id="Caminho_1246" data-name="Caminho 1246" d="M673.3,806.452h-7.5a2.893,2.893,0,0,0,3.1,2.292,3.427,3.427,0,0,0,2.6-1.039l1.2,1.379a4.846,4.846,0,0,1-3.849,1.557c-3.2,0-5.281-2.058-5.281-4.905a4.754,4.754,0,0,1,4.941-4.887,4.661,4.661,0,0,1,4.833,4.94C673.338,805.969,673.32,806.237,673.3,806.452Zm-7.519-1.486h5.424a2.6,2.6,0,0,0-2.7-2.327A2.642,2.642,0,0,0,665.784,804.966Z" transform="translate(-476.079 -797.196)" fill="#72d0e9"/>
          <path id="Caminho_1247" data-name="Caminho 1247" d="M698.387,801.868a4.657,4.657,0,0,1-4.851,4.905,3.942,3.942,0,0,1-3.169-1.361v1.235h-2.13V793.364h2.238v4.888a3.972,3.972,0,0,1,3.061-1.271A4.642,4.642,0,0,1,698.387,801.868Zm-2.273,0a2.842,2.842,0,1,0-2.829,2.989A2.781,2.781,0,0,0,696.114,801.868Z" transform="translate(-488.83 -793.328)" fill="#72d0e9"/>
          <path id="Caminho_1248" data-name="Caminho 1248" d="M721.761,802.545h-7.5a2.893,2.893,0,0,0,3.1,2.292,3.427,3.427,0,0,0,2.6-1.039l1.2,1.379a4.847,4.847,0,0,1-3.849,1.557c-3.2,0-5.281-2.058-5.281-4.905a4.754,4.754,0,0,1,4.941-4.887,4.661,4.661,0,0,1,4.833,4.94C721.8,802.062,721.778,802.331,721.761,802.545Zm-6.427-6.8h-1.844l2.4-2.453h2.041l2.4,2.453h-1.844l-1.575-1.325Zm-1.092,5.317h5.424a2.6,2.6,0,0,0-2.7-2.327A2.641,2.641,0,0,0,714.242,801.06Z" transform="translate(-501.122 -793.29)" fill="#72d0e9"/>
        </g>
      </g>
    </g>
  </g>
</svg>
