<svg id="logo-virtualiti" xmlns="http://www.w3.org/2000/svg" width="74.771" height="23.761" viewBox="0 0 74.771 23.761">
  <g id="Camada_1" data-name="Camada 1">
    <path id="Caminho_1183" data-name="Caminho 1183" d="M14.032,23.855,16.39,19.96,7.073,4.132l1.914.006,8.329,14.1L28.331.11H23.767L17.392,10.475,11.409.11H0Z" transform="translate(0 -0.094)" fill="#bfbfbf"/>
    <path id="Caminho_1184" data-name="Caminho 1184" d="M114.39,0l2.149,4.013L119.1,0Z" transform="translate(-97.352)" fill="#bfbfbf"/>
    <path id="Caminho_1185" data-name="Caminho 1185" d="M97.338.894,99,3.992,96.626,7.7l-1.71-2.97L97.338.894M97.369,0,94.39,4.716l2.21,3.84,2.913-4.543Z" transform="translate(-80.331)" fill="#bfbfbf"/>
    <path id="Caminho_1186" data-name="Caminho 1186" d="M189.366,48.56H188.3l-2.723-6.64h1.3l1.914,5.112,2.072-5.112h1.3Z" transform="translate(-157.939 -35.676)" fill="#bfbfbf"/>
    <path id="Caminho_1187" data-name="Caminho 1187" d="M233.942,48.56H232.75V41.92h1.192Z" transform="translate(-198.083 -35.676)" fill="#bfbfbf"/>
    <path id="Caminho_1188" data-name="Caminho 1188" d="M248.149,41.918a3.856,3.856,0,0,1,1.113.149,2.208,2.208,0,0,1,.785.405,1.639,1.639,0,0,1,.465.632,2.284,2.284,0,0,1,.238.843,1.987,1.987,0,0,1-1.521,2.091l1.743,2.52H249.59l-1.671-2.3h-1.448v2.3H245.28v-6.64Zm-1.677,1.01v2.279h1.759a1.409,1.409,0,0,0,.995-.368,1.24,1.24,0,0,0,.249-.894.937.937,0,0,0-.325-.719,1.571,1.571,0,0,0-1.065-.3Z" transform="translate(-208.747 -35.674)" fill="#bfbfbf"/>
    <path id="Caminho_1189" data-name="Caminho 1189" d="M287.959,42.93H285.8v5.63h-1.217V42.93H282.49V41.92h5.469Z" transform="translate(-240.414 -35.676)" fill="#bfbfbf"/>
    <path id="Caminho_1190" data-name="Caminho 1190" d="M328.66,46.056a2.566,2.566,0,0,1-.745,2,3.541,3.541,0,0,1-4.17,0,2.566,2.566,0,0,1-.745-2V41.92h1.192v4.136a1.676,1.676,0,0,0,.427,1.233,1.618,1.618,0,0,0,1.2.433,1.493,1.493,0,0,0,1.644-1.667V41.92h1.192Z" transform="translate(-274.891 -35.676)" fill="#bfbfbf"/>
    <path id="Caminho_1191" data-name="Caminho 1191" d="M362.648,41.92h1.083l2.939,6.64h-1.306l-.614-1.4h-3.174c-.085.216-.185.447-.3.7s-.22.483-.311.693H359.7Zm-.533,4.022h2.108c-.1-.24-.113-.259-.2-.457s-.18-.4-.267-.6-.179-.4-.276-.617-.2-.447-.316-.716Z" transform="translate(-306.124 -35.676)" fill="#bfbfbf"/>
    <path id="Caminho_1192" data-name="Caminho 1192" d="M414.311,48.56H409.64V41.92h1.086v5.632H414.3Z" transform="translate(-348.626 -35.676)" fill="#bfbfbf"/>
    <path id="Caminho_1193" data-name="Caminho 1193" d="M445.192,48.56H444V41.92h1.192Z" transform="translate(-377.868 -35.676)" fill="#bfbfbf"/>
    <path id="Caminho_1194" data-name="Caminho 1194" d="M460.06,42.93h-2.124v5.63h-1.192V42.93H454.6V41.92h5.457Z" transform="translate(-386.889 -35.676)" fill="#bfbfbf"/>
    <path id="Caminho_1195" data-name="Caminho 1195" d="M495.192,48.56H494V41.92h1.192Z" transform="translate(-420.421 -35.676)" fill="#bfbfbf"/>
    <path id="Caminho_1196" data-name="Caminho 1196" d="M270.06,97.58h.307l.837,1.984h-.378l-.174-.417h-.9q-.036.1-.085.21c-.034.074-.064.149-.089.207h-.359Zm-.177,1.254h.645c-.03-.071-.057-.137-.083-.2l-.074-.177c-.025-.06-.051-.121-.079-.185l-.089-.214Z" transform="translate(-229.121 -83.046)" fill="#bfbfbf"/>
    <path id="Caminho_1197" data-name="Caminho 1197" d="M284.206,99.566h-.316v-.128a.831.831,0,0,1-.24.127.961.961,0,0,1-.319.051.982.982,0,0,1-.36-.066.82.82,0,0,1-.287-.189.882.882,0,0,1-.192-.3,1.235,1.235,0,0,1,0-.828.921.921,0,0,1,.2-.32.864.864,0,0,1,.3-.2,1,1,0,0,1,.378-.071.977.977,0,0,1,.305.046.894.894,0,0,1,.255.133.822.822,0,0,1,.191.2.893.893,0,0,1,.116.259h-.359a.485.485,0,0,0-.2-.262.576.576,0,0,0-.32-.092.52.52,0,0,0-.228.051.568.568,0,0,0-.188.149.7.7,0,0,0-.127.229,1.01,1.01,0,0,0,0,.584.629.629,0,0,0,.115.214.542.542,0,0,0,.18.137.554.554,0,0,0,.238.048.617.617,0,0,0,.2-.031.542.542,0,0,0,.159-.085.4.4,0,0,0,.1-.124.3.3,0,0,0,.037-.149v-.107h-.6v-.286h.958Z" transform="translate(-240.355 -83.097)" fill="#bfbfbf"/>
    <path id="Caminho_1198" data-name="Caminho 1198" d="M368.908,99.566H368.6v-.128a.831.831,0,0,1-.24.127.961.961,0,0,1-.319.051.982.982,0,0,1-.36-.066.819.819,0,0,1-.287-.189.906.906,0,0,1-.192-.3,1.235,1.235,0,0,1,0-.828.943.943,0,0,1,.2-.32.879.879,0,0,1,.3-.2,1,1,0,0,1,.378-.071.977.977,0,0,1,.305.046.894.894,0,0,1,.255.133.823.823,0,0,1,.191.2.894.894,0,0,1,.116.259h-.359a.478.478,0,0,0-.2-.262.575.575,0,0,0-.319-.092.522.522,0,0,0-.229.051.6.6,0,0,0-.188.149.694.694,0,0,0-.127.229.957.957,0,0,0-.046.3.921.921,0,0,0,.04.28.631.631,0,0,0,.116.214.521.521,0,0,0,.179.137.554.554,0,0,0,.238.048.616.616,0,0,0,.2-.031.524.524,0,0,0,.159-.085.427.427,0,0,0,.1-.124.308.308,0,0,0,.036-.149v-.107h-.6V98.55h.958Z" transform="translate(-312.448 -83.097)" fill="#bfbfbf"/>
    <path id="Caminho_1199" data-name="Caminho 1199" d="M297.838,96.568H296.48V94.584h1.34v.3H296.8v.494h.906v.3H296.8v.584h1.043Zm-.78-2.508h.149l.377.438h-.253l-.2-.217c-.031.036-.064.073-.1.11l-.1.107h-.256Z" transform="translate(-252.321 -80.05)" fill="#bfbfbf"/>
    <path id="Caminho_1200" data-name="Caminho 1200" d="M306.43,97.58h.308l.965,1.351V97.58h.338v1.984h-.287l-.986-1.375v1.375h-.338Z" transform="translate(-260.789 -83.046)" fill="#bfbfbf"/>
    <path id="Caminho_1201" data-name="Caminho 1201" d="M320.074,98.932a.991.991,0,0,1-.107.237.858.858,0,0,1-.171.2.8.8,0,0,1-.535.194.935.935,0,0,1-.374-.073.836.836,0,0,1-.284-.2.9.9,0,0,1-.18-.3,1.155,1.155,0,0,1-.063-.387,1.2,1.2,0,0,1,.066-.4.985.985,0,0,1,.179-.331.829.829,0,0,1,.3-.216.894.894,0,0,1,.377-.079.8.8,0,0,1,.319.061.858.858,0,0,1,.246.149.769.769,0,0,1,.167.209.718.718,0,0,1,.083.24h-.337a.5.5,0,0,0-.159-.253.492.492,0,0,0-.139-.082.466.466,0,0,0-.171-.031.518.518,0,0,0-.247.06.56.56,0,0,0-.182.158.77.77,0,0,0-.115.232,1.026,1.026,0,0,0-.039.282.9.9,0,0,0,.037.267.626.626,0,0,0,.107.216.486.486,0,0,0,.176.149.532.532,0,0,0,.244.052.467.467,0,0,0,.161-.027.475.475,0,0,0,.136-.073.572.572,0,0,0,.106-.11.648.648,0,0,0,.073-.134Z" transform="translate(-270.941 -83.045)" fill="#bfbfbf"/>
    <path id="Caminho_1202" data-name="Caminho 1202" d="M331.06,99.564h-.34V97.58h.34Z" transform="translate(-281.461 -83.046)" fill="#bfbfbf"/>
    <path id="Caminho_1203" data-name="Caminho 1203" d="M363.988,99.564h-.338V97.58h.338Z" transform="translate(-309.486 -83.046)" fill="#bfbfbf"/>
    <path id="Caminho_1204" data-name="Caminho 1204" d="M380.758,99.564h-.338V97.58h.338Z" transform="translate(-323.758 -83.046)" fill="#bfbfbf"/>
    <path id="Caminho_1205" data-name="Caminho 1205" d="M334.259,97.58h.308l.837,1.984h-.372l-.174-.417h-.9c-.024.064-.052.134-.086.21s-.063.149-.088.207h-.359Zm-.177,1.254h.649c-.028-.071-.057-.137-.082-.2l-.076-.177c-.024-.06-.051-.121-.077-.185s-.058-.136-.091-.214Z" transform="translate(-283.759 -83.046)" fill="#bfbfbf"/>
    <path id="Caminho_1206" data-name="Caminho 1206" d="M352.077,97.6a.984.984,0,0,1,.378.069.788.788,0,0,1,.281.2.849.849,0,0,1,.176.311,1.317,1.317,0,0,1,.061.414,1.294,1.294,0,0,1-.064.416.908.908,0,0,1-.18.313.759.759,0,0,1-.28.2.933.933,0,0,1-.365.069h-.745V97.6Zm.013,1.682a.524.524,0,0,0,.222-.046.485.485,0,0,0,.174-.133.62.62,0,0,0,.113-.216,1,1,0,0,0,.04-.3.752.752,0,0,0-.149-.52.524.524,0,0,0-.408-.17h-.4v1.381Z" transform="translate(-299.009 -83.062)" fill="#bfbfbf"/>
    <path id="Caminho_1207" data-name="Caminho 1207" d="M385.249,97.908h-.6v1.682h-.3V97.908h-.6v-.3h1.489Z" transform="translate(-326.601 -83.071)" fill="#bfbfbf"/>
    <path id="Caminho_1208" data-name="Caminho 1208" d="M393.69,97.58H394l.837,1.984h-.372l-.176-.417h-.9c-.024.064-.054.134-.086.21s-.063.149-.088.207h-.36Zm-.177,1.254h.649l-.082-.2L394,98.46c-.025-.06-.051-.121-.079-.185l-.089-.214Z" transform="translate(-334.337 -83.046)" fill="#bfbfbf"/>
    <path id="Caminho_1209" data-name="Caminho 1209" d="M408.281,99.564H407V97.58h.3v1.682h.986Z" transform="translate(-346.379 -83.046)" fill="#bfbfbf"/>
  </g>
</svg>
