<svg id="logo-tray" xmlns="http://www.w3.org/2000/svg" width="49.304" height="22.037" viewBox="0 0 49.304 22.037">
  <path id="Caminho_141" data-name="Caminho 141" d="M42.408,9.8c0,4.622,2.665,9.067,3.713,10.612a1.335,1.335,0,0,0,1.1.586H53.98a1.335,1.335,0,0,0,1.1-.586C56.133,18.868,58.8,14.423,58.8,9.8Z" transform="translate(-9.493 -6.947)" fill="#a3dbe9"/>
  <path id="Caminho_142" data-name="Caminho 142" d="M100.779,25.993c-.039-.04-.077-.082-.114-.123C100.7,25.911,100.74,25.953,100.779,25.993Zm-5.911-9.657h1.585a22.836,22.836,0,0,0,.955,3.543,22.836,22.836,0,0,1-.955-3.543Zm4.147,13.345c.383-.649.749-1.316,1.1-1.993-.349.677-.715,1.344-1.1,1.993Zm1.874-3.578q-.284.612-.588,1.216Q100.6,26.716,100.889,26.1Z" transform="translate(-67.245 -11.579)" fill="#a3dbe9"/>
  <path id="Caminho_143" data-name="Caminho 143" d="M106.058,13.18c.482-1.99.672-3.309.672-3.309h-2.341a29.745,29.745,0,0,1-.732,3.912q-.038.149-.077.3c-.328,1.26-.739,2.573-1.224,3.9q-.256.7-.539,1.4l-.08-.084-.053-.055a20.642,20.642,0,0,1-1.6-3.146l-.044-.109q-.12-.3-.236-.614a21.815,21.815,0,0,1-1.251-5.466V9.891H94.868v1.863h1.585a22.86,22.86,0,0,0,.955,3.543,21.929,21.929,0,0,0,3.071,5.762c.057.078.12.154.186.229q.056.063.114.124c.036.038.073.074.11.11q-.284.612-.588,1.216-.093.185-.188.369c-.349.677-.715,1.344-1.1,1.993h2.151c.478-.717.918-1.462,1.323-2.22.451-.845.859-1.707,1.227-2.564.464-1.081.863-2.155,1.206-3.18q.1-.3.2-.61t.186-.6c.179-.589.339-1.153.48-1.685q.135-.506.247-.969l.023-.095Z" transform="translate(-67.245 -6.997)" fill="#a3dbe9"/>
  <path id="Caminho_144" data-name="Caminho 144" d="M106.6,68.726A1.429,1.429,0,1,0,105.17,67.3,1.429,1.429,0,0,0,106.6,68.726Z" transform="translate(-74.547 -46.69)" fill="#a3dbe9"/>
  <path id="Caminho_145" data-name="Caminho 145" d="M150.855,68.726a1.429,1.429,0,1,0-1.428-1.429A1.429,1.429,0,0,0,150.855,68.726Z" transform="translate(-105.918 -46.69)" fill="#a3dbe9"/>
  <path id="Caminho_146" data-name="Caminho 146" d="M5.473,14.85c-2.386,0-3.789-1.23-3.789-4.107V4.71H0v-1.9H1.684V.116L4.047,0V2.807H6.97v1.9H4.047v6.01c0,1.555.678,2.158,1.824,2.158a5.705,5.705,0,0,0,1.357-.162l.14,1.9a7.675,7.675,0,0,1-1.895.232ZM14.654,2.529a8,8,0,0,1,1.661.162l-.328,1.972A3.95,3.95,0,0,0,14.818,4.5a5.714,5.714,0,0,0-2.713.6v9.467H9.742V3.643A10.876,10.876,0,0,1,14.654,2.529ZM21.848,14.85c-3.064,0-4.608-1.485-4.608-3.527,0-2.413,1.941-3.6,4.608-3.6a12.3,12.3,0,0,1,2.479.255V7.007c0-1.624-.889-2.506-2.737-2.506a8.555,8.555,0,0,0-3.134.58L17.989,3.2a11,11,0,0,1,3.836-.673c3.2,0,4.818,1.647,4.818,4.594v6.659A9.855,9.855,0,0,1,21.848,14.85ZM24.328,12.6V9.56a9.02,9.02,0,0,0-2.2-.278c-1.45,0-2.526.51-2.526,1.949,0,1.23.889,1.856,2.456,1.856a4.62,4.62,0,0,0,2.269-.487Z" fill="#a3dbe9"/>
</svg>
