<svg id="mobile-menu" xmlns="http://www.w3.org/2000/svg" width="32.624" height="27.857" viewBox="0 0 32.624 27.857">
  <path id="Caminho_1211" data-name="Caminho 1211" d="M41.265,41H10.839a1.329,1.329,0,0,0,0,2.617H41.265a1.329,1.329,0,0,0,0-2.617Z" transform="translate(-9.739 -15.761)" fill="#2f5493"/>
  <path id="Caminho_1212" data-name="Caminho 1212" d="M41.3,30.42H11.356a1.329,1.329,0,0,0,0,2.617H41.3a1.329,1.329,0,0,0,0-2.617Z" transform="translate(-9.777 -13.594)" fill="#2f5493"/>
  <path id="Caminho_1213" data-name="Caminho 1213" d="M10.836,12.117H40.785a1.216,1.216,0,0,0,1.1-1.309,1.216,1.216,0,0,0-1.1-1.309H10.836a1.216,1.216,0,0,0-1.1,1.309,1.216,1.216,0,0,0,1.1,1.309Z" transform="translate(-9.74 -9.5)" fill="#2f5493"/>
  <path id="Caminho_1214" data-name="Caminho 1214" d="M10.839,22.5H41.265a1.329,1.329,0,0,0,0-2.617H10.839a1.329,1.329,0,0,0,0,2.617Z" transform="translate(-9.74 -11.467)" fill="#2f5493"/>
</svg>
