<svg xmlns="http://www.w3.org/2000/svg" width="80" height="80" viewBox="0 0 80 80">
  <g id="NEWSLETTER" transform="translate(-949 -3827)">
    <circle id="Elipse_17" data-name="Elipse 17" cx="40" cy="40" r="40" transform="translate(949 3827)" fill="#fff"/>
    <g id="email_2_" data-name="email (2)" transform="translate(958.249 3845.294)">
      <path id="Caminho_1401" data-name="Caminho 1401" d="M209.929,76.177H172.1a1.433,1.433,0,0,0-1.429,1.429V91.489h17.515a1.382,1.382,0,0,1,1.378,1.378V104.76h20.369a1.433,1.433,0,0,0,1.429-1.429V77.606A1.433,1.433,0,0,0,209.929,76.177Z" transform="translate(-150.321 -76.177)" fill="#ed6bbc"/>
      <g id="Grupo_773" data-name="Grupo 773" transform="translate(39.221 14.046)">
        <path id="Caminho_1403" data-name="Caminho 1403" d="M334.921,194l-2.043,1.826a3.62,3.62,0,0,1-3.883.608,1.36,1.36,0,0,1,.018.211v11.893h20.369a1.425,1.425,0,0,0,1.032-.445Z" transform="translate(-328.995 -193.999)" fill="#d943a1"/>
      </g>
      <path id="Caminho_1404" data-name="Caminho 1404" d="M212.863,76.177H175.03a1.424,1.424,0,0,0-1.032.445l16.636,14.867h.482a1.382,1.382,0,0,1,1.378,1.378v.043a3.62,3.62,0,0,0,3.865-.616L213.9,76.622A1.425,1.425,0,0,0,212.863,76.177Z" transform="translate(-153.255 -76.177)" fill="#e157ac"/>
      <g id="Grupo_776" data-name="Grupo 776" transform="translate(2.867 9.177)">
        <path id="Caminho_1406" data-name="Caminho 1406" d="M37.522,155H24.97a.921.921,0,1,1,0-1.842H37.522a.921.921,0,1,1,0,1.842Z" transform="translate(-24.049 -153.158)" fill="#ed6bbc"/>
      </g>
      <g id="Grupo_777" data-name="Grupo 777" transform="translate(5.917 4.96)">
        <path id="Caminho_1407" data-name="Caminho 1407" d="M60.057,119.621h-9.5a.921.921,0,1,1,0-1.842h9.5a.921.921,0,1,1,0,1.842Z" transform="translate(-49.634 -117.779)" fill="#ed6bbc"/>
      </g>
      <g id="Grupo_778" data-name="Grupo 778" transform="translate(9.605 0.742)">
        <path id="Caminho_1408" data-name="Caminho 1408" d="M87.3,84.241H81.49a.921.921,0,0,1,0-1.842H87.3a.921.921,0,0,1,0,1.842Z" transform="translate(-80.569 -82.399)" fill="#ed6bbc"/>
      </g>
      <g id="Grupo_779" data-name="Grupo 779" transform="translate(43.776 40.291)">
        <path id="Caminho_1409" data-name="Caminho 1409" d="M380.682,415.991H368.13a.921.921,0,1,1,0-1.842h12.552a.921.921,0,1,1,0,1.842Z" transform="translate(-367.209 -414.149)" fill="#72d0e9"/>
      </g>
      <g id="Grupo_780" data-name="Grupo 780" transform="translate(43.776 36.073)">
        <path id="Caminho_1410" data-name="Caminho 1410" d="M377.632,380.612h-9.5a.921.921,0,1,1,0-1.842h9.5a.921.921,0,1,1,0,1.842Z" transform="translate(-367.209 -378.77)" fill="#72d0e9"/>
      </g>
      <g id="Grupo_781" data-name="Grupo 781" transform="translate(43.776 31.855)">
        <path id="Caminho_1411" data-name="Caminho 1411" d="M373.945,345.232h-5.814a.921.921,0,1,1,0-1.842h5.814a.921.921,0,1,1,0,1.842Z" transform="translate(-367.21 -343.39)" fill="#72d0e9"/>
      </g>
      <path id="Caminho_1412" data-name="Caminho 1412" d="M39.262,196.059H1.429A1.433,1.433,0,0,0,0,197.488v25.725a1.433,1.433,0,0,0,1.429,1.429H39.262a1.433,1.433,0,0,0,1.429-1.429V197.488A1.434,1.434,0,0,0,39.262,196.059Z" transform="translate(0 -181.767)" fill="#72d0e9"/>
      <path id="Caminho_1414" data-name="Caminho 1414" d="M25.691,315.707a3.619,3.619,0,0,1-4.823,0l-2.043-1.826L3.331,327.973a1.424,1.424,0,0,0,1.032.445H42.2a1.424,1.424,0,0,0,1.032-.445L27.734,313.881Z" transform="translate(-2.934 -285.544)" fill="#46b1ce"/>
      <path id="Caminho_1416" data-name="Caminho 1416" d="M42.2,196.059H4.364a1.424,1.424,0,0,0-1.032.445l17.537,15.673a3.619,3.619,0,0,0,4.823,0L43.229,196.5A1.424,1.424,0,0,0,42.2,196.059Z" transform="translate(-2.935 -181.767)" fill="#50bedb"/>
    </g>
  </g>
</svg>
