<svg xmlns="http://www.w3.org/2000/svg" width="65.362" height="23.931" viewBox="0 0 65.362 23.931">
  <g id="pagamento-elo" transform="translate(-0.012 -0.006)">
    <g id="Modo_de_isolamento" data-name="Modo de isolamento" transform="translate(0.012 0.006)">
      <path id="Caminho_48" data-name="Caminho 48" d="M11.108,5.3a7.043,7.043,0,0,1,8.911,4.455,8.269,8.269,0,0,1,.223.857l4.824-.994A12,12,0,0,0,10.919.249,11.31,11.31,0,0,0,9.54.618Z" transform="translate(-1.377 -0.006)" fill="#fff200"/>
      <path id="Caminho_49" data-name="Caminho 49" d="M4.046,21.443,7.31,17.75A7.034,7.034,0,0,1,6.7,7.811,6.794,6.794,0,0,1,7.31,7.2L4.037,3.51a12,12,0,0,0-1.028,16.9,11.738,11.738,0,0,0,1.028,1.037Z" transform="translate(-0.012 -0.508)" fill="#00a4e0"/>
      <path id="Caminho_50" data-name="Caminho 50" d="M20.216,15.62a7.051,7.051,0,0,1-8.3,5.466,6.563,6.563,0,0,1-.805-.214L9.54,25.559A12,12,0,0,0,24.7,17.976a12.277,12.277,0,0,0,.368-1.362Z" transform="translate(-1.377 -2.242)" fill="#ef4123"/>
      <path id="Caminho_51" data-name="Caminho 51" d="M45.269,19.48a4.284,4.284,0,0,1-5.286.557l-1.6,2.57a7.291,7.291,0,0,0,8.988-.968Z" transform="translate(-5.507 -2.795)"/>
      <path id="Caminho_52" data-name="Caminho 52" d="M41.81,7.37a7.3,7.3,0,0,0-6.229,11.292L48.81,13.05a7.308,7.308,0,0,0-7-5.638m-4.387,7.754a2.571,2.571,0,0,1,0-.514,4.284,4.284,0,0,1,7.583-2.716Z" transform="translate(-4.936 -1.061)"/>
      <path id="Caminho_53" data-name="Caminho 53" d="M55.593,3.52V17.64l2.45,1.02-1.157,2.785-2.425-.994a2.767,2.767,0,0,1-1.191-1,3.136,3.136,0,0,1-.471-1.714V3.52Z" transform="translate(-7.572 -0.51)"/>
      <path id="Caminho_54" data-name="Caminho 54" d="M66.2,10.591a4.284,4.284,0,0,1,5.441,2.725,4.686,4.686,0,0,1,.129.5l2.947-.6a7.308,7.308,0,0,0-8.619-5.7c-.291.06-.565.137-.857.223Z" transform="translate(-9.354 -1.06)"/>
      <path id="Caminho_55" data-name="Caminho 55" d="M61.89,20.451l2-2.253a4.284,4.284,0,0,1-.368-6.066,2.99,2.99,0,0,1,.368-.368l-2-2.253a7.3,7.3,0,0,0-.634,10.281,7.378,7.378,0,0,0,.634.634Z" transform="translate(-8.523 -1.367)"/>
      <path id="Caminho_56" data-name="Caminho 56" d="M71.769,16.9a4.284,4.284,0,0,1-5.081,3.35,1.741,1.741,0,0,1-.488-.137l-.96,2.87a7.308,7.308,0,0,0,9.219-4.635,5.775,5.775,0,0,0,.223-.857Z" transform="translate(-9.354 -2.426)"/>
    </g>
  </g>
</svg>
