<svg xmlns="http://www.w3.org/2000/svg" width="35.296" height="27.29" viewBox="0 0 35.296 27.29">
  <g id="pagamento-master" transform="translate(0.091 0.035)">
    <g id="Layer_1" data-name="Layer 1" transform="translate(-0.091 -0.035)">
      <path id="Caminho_13" data-name="Caminho 13" d="M6.228,27.023a1.249,1.249,0,0,0-.362-.235,1.3,1.3,0,0,0-.462-.081H5.132a1.267,1.267,0,0,0-.281.081,1.81,1.81,0,0,0-.263.154.905.905,0,0,0-.208.253,1.2,1.2,0,0,0-.389-.38,1.258,1.258,0,0,0-.57-.136.905.905,0,0,0-.217,0,.824.824,0,0,0-.226.063.905.905,0,0,0-.217.127.57.57,0,0,0-.181.208v-.344H2v2.951h.607v-1.62a.905.905,0,0,1,.054-.317.824.824,0,0,1,.154-.253.833.833,0,0,1,.226-.136.905.905,0,0,1,.272-.054.588.588,0,0,1,.489.19.779.779,0,0,1,.163.561v1.63H4.58v-1.62a.751.751,0,0,1,.054-.317.679.679,0,0,1,.154-.253.788.788,0,0,1,.217-.136.969.969,0,0,1,.281-.054.534.534,0,0,1,.471.19.833.833,0,0,1,.172.561v1.63h.6V27.874a1.3,1.3,0,0,0-.081-.462.742.742,0,0,0-.217-.389Z" transform="translate(-0.107 -2.494)" fill="#161616"/>
      <path id="Caminho_14" data-name="Caminho 14" d="M9.985,27.146a1.086,1.086,0,0,0-.905-.416,1.367,1.367,0,0,0-1.014.425,1.566,1.566,0,0,0-.308.471,1.648,1.648,0,0,0,0,1.213,1.285,1.285,0,0,0,.308.471,1.43,1.43,0,0,0,1.014.425,1.168,1.168,0,0,0,.525-.109,1.141,1.141,0,0,0,.38-.308v.371h.625v-2.9H9.985Zm0,1.439a.88.88,0,0,1-1.186.489.842.842,0,0,1-.272-.2.724.724,0,0,1-.172-.29,1.05,1.05,0,0,1,0-.706,1.023,1.023,0,0,1,.172-.29.733.733,0,0,1,.272-.2.905.905,0,0,1,.724,0,.842.842,0,0,1,.281.2,1.05,1.05,0,0,1,.181,1Z" transform="translate(-0.642 -2.5)" fill="#161616"/>
      <path id="Caminho_15" data-name="Caminho 15" d="M13.856,28.216a1.657,1.657,0,0,0-.733-.281l-.253-.063-.181-.045a.525.525,0,0,1-.154-.054.145.145,0,0,1-.1-.081.244.244,0,0,1-.045-.127.308.308,0,0,1,.145-.244.788.788,0,0,1,.4-.1,1.294,1.294,0,0,1,.263,0,2.082,2.082,0,0,1,.253.054l.208.081.163.081.272-.48a1.865,1.865,0,0,0-.534-.226,2.481,2.481,0,0,0-.634-.081,1.539,1.539,0,0,0-.5.072.905.905,0,0,0-.38.181.742.742,0,0,0-.235.29.905.905,0,0,0-.081.389.779.779,0,0,0,.244.57,1.394,1.394,0,0,0,.724.272h.308a.987.987,0,0,1,.371.109.263.263,0,0,1,.127.208.3.3,0,0,1-.163.253,1.023,1.023,0,0,1-.489.091,1.249,1.249,0,0,1-.317,0,1.3,1.3,0,0,1-.253-.063,1.431,1.431,0,0,1-.208-.1,1.7,1.7,0,0,1-.163-.109l-.29.471a1.811,1.811,0,0,0,.317.19,2.1,2.1,0,0,0,.335.118,2.87,2.87,0,0,0,.317.054h.253a1.955,1.955,0,0,0,.552-.063,1.611,1.611,0,0,0,.416-.2.824.824,0,0,0,.244-.29.688.688,0,0,0,.091-.371A.616.616,0,0,0,13.856,28.216Z" transform="translate(-1.018 -2.492)" fill="#161616"/>
      <path id="Caminho_16" data-name="Caminho 16" d="M20.325,27.126a1.231,1.231,0,0,0-.435-.308,1.666,1.666,0,0,0-.552-.109,1.5,1.5,0,0,0-.588.109,1.675,1.675,0,0,0-.453.308,1.358,1.358,0,0,0-.29.471,1.811,1.811,0,0,0-.118.616,1.53,1.53,0,0,0,.118.625,1.3,1.3,0,0,0,.3.471,1.385,1.385,0,0,0,.471.3,1.711,1.711,0,0,0,.6.118A2.462,2.462,0,0,0,20,29.643a1.6,1.6,0,0,0,.561-.326l-.308-.444a1.457,1.457,0,0,1-.4.226,1.267,1.267,0,0,1-.435.081,1.077,1.077,0,0,1-.29-.045.724.724,0,0,1-.253-.118,1.1,1.1,0,0,1-.19-.226,1.141,1.141,0,0,1-.118-.335h2.136a.244.244,0,0,1,0-.109.6.6,0,0,0,0-.127,1.711,1.711,0,0,0-.1-.607,2.4,2.4,0,0,0-.281-.489Zm-1.756.851a1.258,1.258,0,0,1,.091-.3.534.534,0,0,1,.154-.217.7.7,0,0,1,.507-.2.688.688,0,0,1,.489.181.905.905,0,0,1,.235.534Z" transform="translate(-1.612 -2.498)" fill="#161616"/>
      <path id="Caminho_17" data-name="Caminho 17" d="M29.534,27.146a1.1,1.1,0,0,0-.905-.416,1.4,1.4,0,0,0-1.023.425,1.285,1.285,0,0,0-.308.471,1.648,1.648,0,0,0,0,1.213,1.1,1.1,0,0,0,.308.471,1.421,1.421,0,0,0,1.023.425,1.168,1.168,0,0,0,.525-.109,1.141,1.141,0,0,0,.38-.308v.371h.625v-2.9h-.625Zm0,1.439a.905.905,0,0,1-.181.29,1,1,0,0,1-.281.2,1.15,1.15,0,0,1-.344.063,1.168,1.168,0,0,1-.362-.063.905.905,0,0,1-.435-.489,1.05,1.05,0,0,1-.009-.706,1.023,1.023,0,0,1,.172-.29.634.634,0,0,1,.263-.2.815.815,0,0,1,.362-.072,1.113,1.113,0,0,1,.344.072.842.842,0,0,1,.281.2.905.905,0,0,1,.181.29,1.168,1.168,0,0,1,.063.362,1.15,1.15,0,0,1-.081.344Z" transform="translate(-2.492 -2.5)" fill="#161616"/>
      <path id="Caminho_18" data-name="Caminho 18" d="M16.864,28.995a.7.7,0,0,1-.3.054h-.181c-.054,0-.091-.054-.136-.091a.362.362,0,0,1-.1-.172.76.76,0,0,1,0-.244V27.266h1.014V26.7h-1.05V25.79h-.625V26.7H14.9v.57h.57v1.258a1.159,1.159,0,0,0,.281.851,1.041,1.041,0,0,0,.76.272A1.457,1.457,0,0,0,17,29.565l.263-.127-.208-.525a.389.389,0,0,1-.19.081Z" transform="translate(-1.329 -2.411)" fill="#161616"/>
      <path id="Caminho_19" data-name="Caminho 19" d="M23.163,26.7a1.059,1.059,0,0,0-.48.1.969.969,0,0,0-.353.362v-.38h-.57v2.9h.57v-1.6a.905.905,0,0,1,.054-.335,1.4,1.4,0,0,1,.136-.253.57.57,0,0,1,.226-.145.706.706,0,0,1,.272-.063h.38l.181-.6-.154-.045A1.276,1.276,0,0,1,23.163,26.7Z" transform="translate(-1.979 -2.491)" fill="#161616"/>
      <path id="Caminho_20" data-name="Caminho 20" d="M32.784,26.7a1.077,1.077,0,0,0-.471.1,1,1,0,0,0-.362.362v-.38H31.39v2.9h.552v-1.6a.905.905,0,0,1,.063-.335,1.4,1.4,0,0,1,.136-.253.607.607,0,0,1,.217-.145.742.742,0,0,1,.281-.063h.38l.172-.6-.145-.045a1.358,1.358,0,0,1-.263.063Z" transform="translate(-2.891 -2.491)" fill="#161616"/>
      <path id="Caminho_21" data-name="Caminho 21" d="M35.9,25.51v1.521A1.068,1.068,0,0,0,35,26.614a1.367,1.367,0,0,0-1.041.425,1.566,1.566,0,0,0-.308.471,1.648,1.648,0,0,0,0,1.213,1.629,1.629,0,0,0,.308.471,1.421,1.421,0,0,0,1.014.425,1.168,1.168,0,0,0,.525-.109,1.113,1.113,0,0,0,.371-.308v.371h.625V25.51Zm0,2.96a.905.905,0,0,1-.181.29.788.788,0,0,1-.281.2,1.041,1.041,0,0,1-.715,0,.842.842,0,0,1-.272-.2.833.833,0,0,1-.163-.29,1.05,1.05,0,0,1,0-.706,1.267,1.267,0,0,1,.163-.29.733.733,0,0,1,.272-.2.8.8,0,0,1,.353-.072,1.222,1.222,0,0,1,.362.072.7.7,0,0,1,.281.2.905.905,0,0,1,.181.29.96.96,0,0,1,.072.362,1.557,1.557,0,0,1-.072.344Z" transform="translate(-3.094 -2.384)" fill="#161616"/>
      <path id="Caminho_22" data-name="Caminho 22" d="M24.906,27.56a.76.76,0,0,1,.281-.2.96.96,0,0,1,.362-.072h0a1.141,1.141,0,0,1,.389.072,1.014,1.014,0,0,1,.3.181l.308-.5a1.186,1.186,0,0,0-.389-.226,1.7,1.7,0,0,0-1.231,0,1.476,1.476,0,0,0-.806.8,1.6,1.6,0,0,0,0,1.195,1.467,1.467,0,0,0,.806.788,1.7,1.7,0,0,0,1.231,0,1.412,1.412,0,0,0,.389-.226l-.308-.5a.779.779,0,0,1-.3.181,1.186,1.186,0,0,1-.389.072h0a.96.96,0,0,1-.362-.072.733.733,0,0,1-.281-.19.806.806,0,0,1-.19-.3.96.96,0,0,1,0-.742,2.771,2.771,0,0,1,.19-.263Z" transform="translate(-2.191 -2.497)" fill="#161616"/>
      <path id="Caminho_23" data-name="Caminho 23" d="M38.289,29.5h.118l.1.054a.471.471,0,0,1,.072.1.326.326,0,0,1,0,.226.353.353,0,0,1-.072.091.3.3,0,0,1-.208.081h-.127a.208.208,0,0,1-.091-.063.281.281,0,0,1-.072-.1.326.326,0,0,1,0-.226.263.263,0,0,1,.163-.145Zm0,.516a.136.136,0,0,0,.081,0h.072a.534.534,0,0,0,0-.072.19.19,0,0,0,0-.163v-.072l-.072-.045a.19.19,0,0,0-.172,0l-.063.045a.1.1,0,0,0,0,.072.371.371,0,0,0,0,.163v.072a.109.109,0,0,0,.063,0Zm0-.353a.081.081,0,0,1,.081,0,.072.072,0,0,1,0,.063v.054a.1.1,0,0,1-.054,0l.081.1h-.1l-.063-.1h0v.172h-.072v-.272h.127Zm-.054.063v.054h.036Z" transform="translate(-3.516 -2.762)" fill="#fff"/>
      <path id="Caminho_24" data-name="Caminho 24" d="M13.444,10.86a10.863,10.863,0,0,1,4.11-8.519,10.863,10.863,0,1,0,0,16.974,10.809,10.809,0,0,1-4.11-8.455Z" transform="translate(0.091 0.035)" fill="#ed2026"/>
      <ellipse id="Elipse_1" data-name="Elipse 1" cx="4.11" cy="8.483" rx="4.11" ry="8.483" transform="translate(13.535 2.386)" fill="#f26a21"/>
      <path id="Caminho_25" data-name="Caminho 25" d="M37.988,18.389v-.317H37.87V18h.344v.081h-.136V18.4Zm.688,0v-.281l-.1.235H38.44l-.1-.235v.281H38.25V18h.136l.1.263L38.576,18h.145v.4Z" transform="translate(-3.505 -1.673)" fill="#f99f1d"/>
      <path id="Caminho_26" data-name="Caminho 26" d="M26.117,0A10.863,10.863,0,0,0,19.4,2.345a10.809,10.809,0,0,1,1.811,15.191A10.963,10.963,0,0,1,19.4,19.346,10.863,10.863,0,1,0,26.117,0Z" transform="translate(-1.755 0.032)" fill="#f99f1d"/>
    </g>
  </g>
</svg>
