<svg id="pagamento-visa" xmlns="http://www.w3.org/2000/svg" xmlns:xlink="http://www.w3.org/1999/xlink" width="54.3" height="17.675" viewBox="0 0 54.3 17.675">
  <defs>
    <linearGradient id="linear-gradient" x1="-2.265" y1="-44.975" x2="0.982" y2="-44.956" gradientUnits="objectBoundingBox">
      <stop offset="0" stop-color="#262860"/>
      <stop offset="1" stop-color="#3d429b"/>
    </linearGradient>
    <linearGradient id="linear-gradient-2" x1="-1.728" y1="-42.997" x2="2.076" y2="-42.978" xlink:href="#linear-gradient"/>
    <linearGradient id="linear-gradient-3" x1="0.147" y1="-44.69" x2="2.622" y2="-44.671" xlink:href="#linear-gradient"/>
    <linearGradient id="linear-gradient-4" x1="-1.971" y1="-44.716" x2="4.403" y2="-44.696" xlink:href="#linear-gradient"/>
  </defs>
  <path id="Caminho_27" data-name="Caminho 27" d="M54.3,17.3H50.2c-.1-.7-.3-1.4-.4-2.1-.1-.3-.1-.4-.5-.4H44.4c-.2,0-.3.1-.4.3-.2.7-.5,1.3-.7,2a.22.22,0,0,1-.2.2H38.6c.3-.7.5-1.3.8-1.9,1.9-4.5,3.8-9.1,5.7-13.6A2,2,0,0,1,47.2.4h3.6c.1.5.2,1,.3,1.6.9,4.5,1.9,9,2.8,13.5.1.6.3,1.1.4,1.7ZM49,11.2,47.7,5h-.1l-2.3,6.2Z" fill="url(#linear-gradient)"/>
  <path id="Caminho_28" data-name="Caminho 28" d="M36.5,0l1.6.3c.5.1,1,.3,1.5.4-.3,1.2-.5,2.4-.8,3.6-.7-.2-1.3-.4-2-.6a5.32,5.32,0,0,0-2.8,0,2.11,2.11,0,0,0-1,.6.94.94,0,0,0-.18,1.32A.77.77,0,0,0,33,5.8a4.37,4.37,0,0,0,1.1.8c.9.5,1.8,1,2.7,1.6a3.92,3.92,0,0,1,1.9,2.9,5,5,0,0,1-2.4,5.2,9,9,0,0,1-3.9,1.3,13.77,13.77,0,0,1-5.7-.6c-.1,0-.2-.1-.4-.1a.09.09,0,0,1-.1-.1h0c.3-1.2.5-2.4.8-3.7.3.1.6.3.9.4a8.56,8.56,0,0,0,4.5.6,3.1,3.1,0,0,0,1.2-.5,1.22,1.22,0,0,0,.4-1.68,1.47,1.47,0,0,0-.29-.32,7.54,7.54,0,0,0-1.5-1c-.8-.5-1.6-.9-2.4-1.4A4.1,4.1,0,0,1,28,6.4a5,5,0,0,1,1.9-4.5A8,8,0,0,1,34.1.3a.37.37,0,0,0,.3-.1Z" fill="url(#linear-gradient-2)"/>
  <path id="Caminho_29" data-name="Caminho 29" d="M20.6.3a7.85,7.85,0,0,1-.7,1.6c-2.1,5-4.2,10-6.3,15.1a.45.45,0,0,1-.5.3h-4c-.3,0-.4-.1-.4-.3L5.4,3.8A2.43,2.43,0,0,0,4,2.1,28.39,28.39,0,0,0,.2.9H0C0,.4,0,.4.5.4h7A2,2,0,0,1,9.6,2.1l1.8,9.3a4,4,0,0,1,.1.5.35.35,0,0,1,.1-.2C13,8,14.5,4.4,15.9.7c.1-.2.2-.3.4-.3h4a.37.37,0,0,1,.3-.1Z" fill="url(#linear-gradient-3)"/>
  <path id="Caminho_30" data-name="Caminho 30" d="M18.8,17.3C20,11.6,21.2,6,22.4.3h4.4c-.2.9-.4,1.7-.5,2.5-1,4.7-2,9.3-3,14-.1.3-.2.4-.5.4h-4Z" fill="url(#linear-gradient-4)"/>
</svg>
