<svg id="pagamento-aura" xmlns="http://www.w3.org/2000/svg" width="45.43" height="30" viewBox="0 0 45.43 30">
  <g id="Camada_1" data-name="Camada 1">
    <g id="Camada_2" data-name="Camada 2">
      <g id="Layer_1" data-name="Layer 1">
        <path id="Caminho_109" data-name="Caminho 109" d="M0,0H45.38V14.14C40,12.06,22.52,7.07,0,13.29Z" fill="#2c328c" fill-rule="evenodd"/>
        <path id="Caminho_110" data-name="Caminho 110" d="M0,30H45.38V18.69C37.2,16,22.65,11.84,0,17.66Z" fill="#fff200" fill-rule="evenodd"/>
        <path id="Caminho_111" data-name="Caminho 111" d="M45.38,18.69C37.2,16,22.65,11.84,0,17.66V13.29c22.52-6.22,40-1.22,45.43.85Z" fill="#ed1c24" fill-rule="evenodd"/>
        <path id="Caminho_112" data-name="Caminho 112" d="M14.46,10.62a8.21,8.21,0,0,1,8.15-5.75c4.47,0,7.45,2.58,8.25,5.92a77.941,77.941,0,0,0-16.4-.17Z" fill="#fff200" fill-rule="evenodd"/>
        <path id="Caminho_113" data-name="Caminho 113" d="M10.14,24.27l3-4.54H14.3l3.24,4.54H16.35l-.92-1.37H12.12l-.88,1.37Zm2.28-1.86h2.69l-.83-1.25a10.11,10.11,0,0,1-.56-.94,4.14,4.14,0,0,1-.43.87l-.87,1.33Zm10.44,1.86v-.48a2.77,2.77,0,0,1-1.82.55,3.38,3.38,0,0,1-.95-.11,1.78,1.78,0,0,1-.65-.28.88.88,0,0,1-.3-.41,1.54,1.54,0,0,1-.06-.52V21h1v1.82a1.88,1.88,0,0,0,.06.58.67.67,0,0,0,.39.35,2,2,0,0,0,.73.13,2.51,2.51,0,0,0,.82-.13,1.07,1.07,0,0,0,.55-.35,1.17,1.17,0,0,0,.16-.64V21h1v3.28Zm3.23,0V21H27v.5a1.58,1.58,0,0,1,1.24-.58,2.85,2.85,0,0,1,1,.18l-.34.52a2.16,2.16,0,0,0-.71-.12,1.6,1.6,0,0,0-.57.11.71.71,0,0,0-.36.3,1.25,1.25,0,0,0-.16.65v1.72Zm8.27-.41a4.8,4.8,0,0,1-1,.38,4.94,4.94,0,0,1-1.08.1,3.3,3.3,0,0,1-1.45-.26.77.77,0,0,1-.5-.68.63.63,0,0,1,.19-.44,1.38,1.38,0,0,1,.5-.32,3.25,3.25,0,0,1,.7-.17,8.479,8.479,0,0,1,.86-.08,14.32,14.32,0,0,0,1.73-.2v-.14a.49.49,0,0,0-.27-.48,2.63,2.63,0,0,0-1.11-.19,2.87,2.87,0,0,0-1,.14.94.94,0,0,0-.49.49l-.94-.08a1.23,1.23,0,0,1,.42-.56,2.2,2.2,0,0,1,.86-.33,7.07,7.07,0,0,1,1.3-.12,5.92,5.92,0,0,1,1.19.1,2.06,2.06,0,0,1,.68.25.76.76,0,0,1,.3.38,1.77,1.77,0,0,1,0,.51v.74a4,4,0,0,0,.06,1,.94.94,0,0,0,.25.4h-1a.81.81,0,0,1-.19-.41Zm-.08-1.24a10.48,10.48,0,0,1-1.59.21,8,8,0,0,0-.84.11,1,1,0,0,0-.39.18.33.33,0,0,0-.13.26c0,.15.1.27.29.37a1.85,1.85,0,0,0,.86.15,3.06,3.06,0,0,0,1-.14,1.39,1.39,0,0,0,.64-.38.82.82,0,0,0,.16-.56Z" fill="#2c328c" stroke="#2c328c" stroke-miterlimit="22.93" stroke-width="0.22"/>
      </g>
    </g>
  </g>
</svg>
