<svg id="pagamento-amex" xmlns="http://www.w3.org/2000/svg" width="59.782" height="20.676" viewBox="0 0 59.782 20.676">
  <g id="Camada_1" data-name="Camada 1" transform="translate(0 0)">
    <g id="Camada_2" data-name="Camada 2">
      <g id="Camada_1-2" data-name="Camada 1-2">
        <path id="Caminho_31" data-name="Caminho 31" d="M18.89,25.677V17.114a.363.363,0,0,1,.356-.377h8.919a.349.349,0,0,1,.294.147l.622.8a.377.377,0,0,0,.524.063.266.266,0,0,0,.063-.063l.629-.811a.377.377,0,0,1,.287-.14H65.1a.37.37,0,0,1,.37.37v6.99a1.4,1.4,0,0,1-1.007,1.335,6.689,6.689,0,0,1-1.622.287H43.976a.377.377,0,0,1-.287-.14l-.377-.475a.363.363,0,0,0-.517-.049.356.356,0,0,0-.14.28h0a.363.363,0,0,1-.363.37h-3.02a.37.37,0,0,1-.37-.37v-1.51a.363.363,0,0,0-.363-.363.273.273,0,0,0-.1,0,4.522,4.522,0,0,1-1.146.147h-.909a.363.363,0,0,0-.37.363v1.342a.363.363,0,0,1-.363.37h-5.13a.342.342,0,0,1-.294-.147l-.608-.811a.377.377,0,0,0-.524-.07.328.328,0,0,0-.07.07l-.629.818a.377.377,0,0,1-.294.147Z" transform="translate(-5.686 -5.036)" fill="#016fd0" fill-rule="evenodd"/>
        <path id="Caminho_32" data-name="Caminho 32" d="M0,8.933,4.285,0H7.975L9.184,2.8V0H13.77l.7,2.013L15.168,0H35.78V1.013A4.417,4.417,0,0,1,38.625,0h6.682l1.2,2.8V0h3.823l1.062,1.58V0H55.26V8.933H51.409L50.4,7.353v1.58H44.734l-.566-1.4H42.686l-.559,1.4H38.289A3.753,3.753,0,0,1,35.78,7.94v.993H30.013l-1.146-1.4v1.4H7.43l-.566-1.4H5.347l-.559,1.4Z" transform="translate(0 0)" fill="#016fd0" fill-rule="evenodd"/>
        <path id="Caminho_33" data-name="Caminho 33" d="M5.97,1.57l-2.88,6.7H4.97L5.5,6.924H8.619L9.15,8.266h1.915L8.15,1.57ZM7.032,3.129,7.983,5.47H6.089Z" transform="translate(-0.93 -0.473)" fill="#fff" fill-rule="evenodd"/>
        <path id="Caminho_34" data-name="Caminho 34" d="M14.73,8.266V1.57l2.663.014L18.938,5.9,20.455,1.57H23.09v6.7H21.419V3.331L19.651,8.266H18.183L16.4,3.331V8.266Z" transform="translate(-4.434 -0.473)" fill="#fff" fill-rule="evenodd"/>
        <path id="Caminho_35" data-name="Caminho 35" d="M28.33,8.266V1.57h5.459v1.5H30.021V4.212h3.684V5.624H30.021V6.812h3.767V8.266Z" transform="translate(-8.528 -0.473)" fill="#fff" fill-rule="evenodd"/>
        <path id="Caminho_36" data-name="Caminho 36" d="M37.54,1.567v6.7h1.678V5.887h.7l2.006,2.376H43.97L41.755,5.8a2.027,2.027,0,0,0,1.831-2.055,2.16,2.16,0,0,0-2.335-2.174Zm1.678,1.5h1.894a.769.769,0,0,1,.8.7.762.762,0,0,1-.769.7H39.2V3.07Z" transform="translate(-11.301 -0.469)" fill="#fff" fill-rule="evenodd"/>
        <path id="Caminho_37" data-name="Caminho 37" d="M48.882,8.266H47.17V1.57h1.712v6.7Z" transform="translate(-14.2 -0.473)" fill="#fff" fill-rule="evenodd"/>
        <path id="Caminho_38" data-name="Caminho 38" d="M54.016,8.266h-.37c-1.782,0-2.866-1.4-2.866-3.32A3.083,3.083,0,0,1,54.1,1.57h1.852V3.157H54.037a1.608,1.608,0,0,0-1.559,1.8,1.636,1.636,0,0,0,1.8,1.838h.44l-.7,1.461Z" transform="translate(-15.287 -0.473)" fill="#fff" fill-rule="evenodd"/>
        <path id="Caminho_39" data-name="Caminho 39" d="M59.373,1.57,56.5,8.266h1.873L58.9,6.924h3.089l.524,1.342h1.915L61.56,1.57Zm1.069,1.559.951,2.342h-1.9Z" transform="translate(-17.009 -0.473)" fill="#fff" fill-rule="evenodd"/>
        <path id="Caminho_40" data-name="Caminho 40" d="M68.13,8.266V1.57h2.125l2.719,4.208V1.57h1.671v6.7H72.589L69.8,3.953V8.266Z" transform="translate(-20.51 -0.473)" fill="#fff" fill-rule="evenodd"/>
        <path id="Caminho_41" data-name="Caminho 41" d="M20.52,25.016v-6.7h5.459v1.5H22.211v1.146h3.677v1.412H22.211v1.188h3.767v1.454Z" transform="translate(-6.177 -5.515)" fill="#fff" fill-rule="evenodd"/>
        <path id="Caminho_42" data-name="Caminho 42" d="M58.79,25.016v-6.7h5.452v1.5H60.474v1.146h3.663v1.412H60.474v1.188h3.767v1.454Z" transform="translate(-17.698 -5.515)" fill="#fff" fill-rule="evenodd"/>
        <path id="Caminho_43" data-name="Caminho 43" d="M28.6,25.016l2.663-3.306L28.54,18.32h2.111l1.622,2.1,1.622-2.1h2.027l-2.684,3.348L35.9,25.016H33.789l-1.573-2.062-1.531,2.062Z" transform="translate(-8.592 -5.515)" fill="#fff" fill-rule="evenodd"/>
        <path id="Caminho_44" data-name="Caminho 44" d="M39.35,18.32v6.7h1.719v-2.1h1.761a2.316,2.316,0,0,0,2.621-2.328,2.209,2.209,0,0,0-2.4-2.251Zm1.719,1.517h1.859a.755.755,0,0,1,.818.7.37.37,0,0,1,0,.091.776.776,0,0,1-.776.769h-1.9V19.858Z" transform="translate(-11.846 -5.515)" fill="#fff" fill-rule="evenodd"/>
        <path id="Caminho_45" data-name="Caminho 45" d="M49.11,18.317v6.7h1.671V22.63h.7l2.006,2.383h2.048l-2.216-2.467a2.041,2.041,0,0,0,1.831-2.055,2.16,2.16,0,0,0-2.335-2.174Zm1.671,1.5h1.9a.776.776,0,0,1,.79.7.748.748,0,0,1-.748.7H50.788v-1.4Z" transform="translate(-14.784 -5.512)" fill="#fff" fill-rule="evenodd"/>
        <path id="Caminho_46" data-name="Caminho 46" d="M67.607,25.022V23.568h3.348c.5,0,.7-.266.7-.566s-.217-.559-.7-.559h-1.51A1.873,1.873,0,0,1,67.4,20.437c0-1.076.7-2.1,2.621-2.1h3.257l-.7,1.51h-2.8c-.531,0-.7.287-.7.552a.573.573,0,0,0,.573.58h1.636a1.831,1.831,0,0,1,2.1,1.922A2.006,2.006,0,0,1,71.207,25Z" transform="translate(-20.288 -5.521)" fill="#fff" fill-rule="evenodd"/>
        <path id="Caminho_47" data-name="Caminho 47" d="M76.375,25.022V23.568h3.208c.5,0,.7-.266.7-.566s-.217-.559-.7-.559h-1.4a1.873,1.873,0,0,1-2.048-2.006c0-1.076.7-2.1,2.621-2.1h3.222l-.7,1.51H78.528c-.538,0-.7.287-.7.552a.58.58,0,0,0,.58.58h1.475a1.831,1.831,0,0,1,2.1,1.922A2.006,2.006,0,0,1,79.8,25Z" transform="translate(-22.919 -5.521)" fill="#fff" fill-rule="evenodd"/>
      </g>
    </g>
  </g>
</svg>
