<svg xmlns="http://www.w3.org/2000/svg" width="42.38" height="29.215" viewBox="0 0 42.38 29.215">
  <g id="pagamento-dinners" transform="translate(0.04 0.002)">
    <g id="Camada_1" data-name="Camada 1">
      <g id="Camada_2" data-name="Camada 2">
        <g id="_Camada_" data-name=" Camada ">
          <path id="Caminho_70" data-name="Caminho 70" d="M22.9,16.93c4.63,0,8.85-3.78,8.85-8.39A8.64,8.64,0,0,0,22.9,0h-4a8.35,8.35,0,0,0-8.53,8.54,8.48,8.48,0,0,0,8.53,8.39Z" fill="#0064a7"/>
          <path id="Caminho_71" data-name="Caminho 71" d="M20.7,13V3.86a4.91,4.91,0,0,1,0,9.17M14,8.45a4.92,4.92,0,0,1,3.15-4.58V13A4.92,4.92,0,0,1,14,8.45M18.94.7a7.75,7.75,0,1,0,7.75,7.75h0A7.75,7.75,0,0,0,18.94.7" fill="#fff"/>
          <path id="Caminho_72" data-name="Caminho 72" d="M1.72,22.7c0,.69.5.77.94.77a2.49,2.49,0,0,0,2.56-2.79,2.69,2.69,0,0,0-2.8-2.88h-.7ZM.86,18.51c0-.81-.42-.76-.82-.76v-.24H2.65a3.26,3.26,0,0,1,3.58,3.13c0,.89-.52,3.12-3.69,3.12H.04v-.23c.53-.06.79-.08.82-.68Z"/>
          <path id="Caminho_73" data-name="Caminho 73" d="M7.49,18.29a.442.442,0,1,1-.08-.88h.06a.43.43,0,0,1,.43.43.44.44,0,0,1-.43.45m-1,5.24H6.7c.25,0,.43,0,.43-.3V20.81c0-.4-.14-.45-.47-.63V20a9.729,9.729,0,0,0,1-.33.32.32,0,0,1,.16,0s.06,0,.06.12v3.44c0,.3.2.3.45.3h.16v.23H6.55Z"/>
          <path id="Caminho_74" data-name="Caminho 74" d="M9.29,20.86c0-.33-.1-.42-.51-.59V20.1c.4-.12.79-.27,1.18-.43v.68a2.64,2.64,0,0,1,1.55-.68c.76,0,1,.56,1,1.26v2.3c0,.3.19.3.44.3h.17v.23H11.29v-.23h.16c.25,0,.43,0,.43-.3V20.91c0-.51-.31-.76-.82-.76a2.31,2.31,0,0,0-1,.43v2.65c0,.3.2.3.45.3h.16v.23h-2v-.23h.16c.25,0,.43,0,.43-.3Z"/>
          <path id="Caminho_75" data-name="Caminho 75" d="M15.46,21c.22,0,.25-.12.25-.22a.76.76,0,0,0-.78-.82,1.021,1.021,0,0,0-1,1Zm-1.59.29a4.51,4.51,0,0,0,0,.52,1.5,1.5,0,0,0,1.32,1.55,1.73,1.73,0,0,0,1.21-.6l.12.12a2.08,2.08,0,0,1-1.65,1,1.79,1.79,0,0,1-1.71-1.95c0-1.75,1.18-2.27,1.8-2.27a1.43,1.43,0,0,1,1.52,1.4v.17l-.08.05Z"/>
          <path id="Caminho_76" data-name="Caminho 76" d="M16.68,23.53h.25c.25,0,.43,0,.43-.3V20.72c0-.28-.34-.34-.47-.41v-.14c.65-.27,1-.51,1.09-.51s.08,0,.08.11v.81h0c.22-.35.6-.92,1.15-.92a.48.48,0,0,1,.51.46h0a.43.43,0,0,1-.41.46h0c-.27,0-.27-.22-.59-.22a.76.76,0,0,0-.65.75v2.1c0,.29.17.29.43.29H19v.24H16.68Z"/>
          <path id="Caminho_77" data-name="Caminho 77" d="M20.13,22.51a1.19,1.19,0,0,0,1.13,1.1A.64.64,0,0,0,22,23c0-1.06-1.95-.72-1.95-2.16a1.22,1.22,0,0,1,1.38-1.14,2.41,2.41,0,0,1,1,.26l.06.91h-.2a.92.92,0,0,0-1-.88.62.62,0,0,0-.69.59c0,1,2.07.72,2.07,2.12,0,.6-.47,1.22-1.54,1.22a2.32,2.32,0,0,1-1.09-.3l-.1-1Z"/>
          <path id="Caminho_78" data-name="Caminho 78" d="M30.78,19.14h-.22a1.71,1.71,0,0,0-1.92-1.47,2.55,2.55,0,0,0-2.52,2.84,2.91,2.91,0,0,0,2.66,3.1,1.82,1.82,0,0,0,1.8-1.55l.21.05-.21,1.31a5,5,0,0,1-2,.47,3.18,3.18,0,0,1-3.41-3.36,3.29,3.29,0,0,1,3.39-3.15,6.51,6.51,0,0,1,2.11.47Z"/>
          <path id="Caminho_79" data-name="Caminho 79" d="M31.1,23.53h.17c.25,0,.43,0,.43-.3v-5c0-.59-.13-.6-.47-.69v-.15a6.14,6.14,0,0,0,.92-.38.75.75,0,0,1,.2-.1.176.176,0,0,1,.07.13v6.18c0,.29.19.29.45.29H33v.24H31.06Z"/>
          <path id="Caminho_80" data-name="Caminho 80" d="M36.85,23.27c0,.16.09.17.25.17h.35v.18a8.13,8.13,0,0,0-1.28.28h-.05v-.72a2.44,2.44,0,0,1-1.58.75,1,1,0,0,1-1-1.07V20.54c0-.24,0-.46-.53-.5v-.18c.32,0,1-.06,1.15-.06s.1.06.1.26v2.31c0,.27,0,1,.78,1a2,2,0,0,0,1.08-.54V20.45c0-.18-.43-.28-.75-.37v-.16c.8-.06,1.31-.13,1.39-.13s.08.07.08.16Z"/>
          <path id="Caminho_81" data-name="Caminho 81" d="M38.62,22.75a1,1,0,0,0,.92.91c1,0,1.36-.94,1.36-1.74a1.71,1.71,0,0,0-1.43-1.77,1.41,1.41,0,0,0-.85.42Zm0-2.44A2.28,2.28,0,0,1,40,19.67a1.74,1.74,0,0,1,1.66,1.88,2.26,2.26,0,0,1-2.14,2.34,2.68,2.68,0,0,1-1.24-.31l-.27.21-.18-.09a10.67,10.67,0,0,0,.12-1.6V18.25c0-.59-.13-.6-.47-.69v-.15a6.14,6.14,0,0,0,.92-.38.75.75,0,0,1,.2-.1.176.176,0,0,1,.07.13Z"/>
          <path id="Caminho_82" data-name="Caminho 82" d="M0,29H.09c.17,0,.36,0,.36-.28V26.13c0-.25-.18-.27-.36-.27H0v-.15H1.49v.15H1.44c-.17,0-.36,0-.36.28v2.55c0,.25.18.28.36.28h.07v.14H0Z"/>
          <path id="Caminho_83" data-name="Caminho 83" d="M1.49,29.09V29H1.44c-.17,0-.38,0-.38-.3V26.13c0-.27.2-.3.38-.3h.05v-.1H.04v.1h0c.17,0,.38,0,.38.3v2.55c0,.27-.21.3-.38.3H0v.11H1.44m0,0H0V28.9H.09c.17,0,.34,0,.34-.26V26.13c0-.23-.16-.25-.34-.25H0v-.19H1.49v.19H1.44c-.17,0-.35,0-.35.26v2.55c0,.23.18.25.35.25h.09v.19Z"/>
          <path id="Caminho_84" data-name="Caminho 84" d="M4.85,28.15h0V26.31a.4.4,0,0,0-.35-.45H4.33v-.14H5.61v.14H5.54c-.21,0-.44,0-.44.62v2.21a4,4,0,0,0,0,.49H5l-2.51-2.8v2c0,.42.08.57.46.57H3v.14H1.71V29h.07c.34,0,.44-.23.44-.62V26.3a.44.44,0,0,0-.44-.44H1.69v-.14h1Z"/>
          <path id="Caminho_85" data-name="Caminho 85" d="M4.85,28.15Zm.1,1h.16a3.71,3.71,0,0,1,0-.47V26.47c0-.58.25-.64.46-.64h0v-.1H4.33v.1h.09a.44.44,0,0,1,.45.41.17.17,0,0,1,0,.07v1.84h0L2.69,25.73H1.72v.1h0a.46.46,0,0,1,.46.46h0v2.05c0,.39-.1.64-.45.64H1.71v.11H2.96V29H2.9c-.38,0-.48-.18-.48-.6V26.32Zm.18,0h-.2L2.46,26.43v2c0,.42.07.54.44.55H3v.18H1.71v-.18H1.8c.32,0,.41-.21.42-.6V26.29a.42.42,0,0,0-.41-.41h-.1v-.19H2.72L4.86,28.1V26.3a.37.37,0,0,0-.4-.43H4.31v-.19H5.59v.19H5.54c-.2,0-.41,0-.41.59v2.22a2.69,2.69,0,0,0,0,.49h0Z"/>
          <path id="Caminho_86" data-name="Caminho 86" d="M6.34,26c-.34,0-.34,0-.45.4H5.74L5.8,26a2.83,2.83,0,0,0,0-.41H6c0,.14.16.14.29.14H8.75c.13,0,.25,0,.26-.15h.12a1.048,1.048,0,0,1-.05.39,2.64,2.64,0,0,0,0,.4l-.15.05c0-.17,0-.47-.36-.47h-.8v2.59c0,.37.17.42.4.42h.1v.14H6.64V29h.09c.27,0,.41,0,.41-.41V26Z"/>
          <path id="Caminho_87" data-name="Caminho 87" d="M8.26,29.13H6.64v-.19h.11c.27,0,.38,0,.39-.39V26h.02v2.63c0,.39-.16.43-.43.43H6.66v.11H8.24V29H8.17c-.24,0-.43-.06-.43-.44V25.93h.82c.33,0,.37.28.38.46h.11v-.38a2.2,2.2,0,0,1,0-.37H8.97c0,.14-.16.15-.28.15H6.21c-.12,0-.24,0-.29-.14H5.84a2.56,2.56,0,0,1,0,.39q0,.21,0,.39h.1c.07-.34.11-.44.47-.44h0C6,26,6,26,5.9,26.4H5.72l.06-.4a2.83,2.83,0,0,0,0-.41H6c0,.12.12.12.25.13h2.5c.14,0,.23,0,.24-.13h.14a1.048,1.048,0,0,1-.05.39,2.54,2.54,0,0,0,0,.39h0l-.17.06h0c0-.18,0-.44-.34-.44H7.78v2.57c0,.36.15.39.38.39h.12v.19Z"/>
          <path id="Caminho_88" data-name="Caminho 88" d="M9.29,29h.06c.18,0,.36,0,.36-.28V26.13c0-.25-.18-.27-.36-.27H9.29v-.15h2.45v.74h-.15c0-.31-.08-.57-.59-.57h-.66V27.2h.57c.3,0,.36-.17.39-.43h.14V27.9H11.3c0-.29-.05-.48-.38-.48h-.58v1.14c0,.31.28.31.59.31.58,0,.84,0,1-.59h.13c-.06.26-.12.52-.17.78H9.28Z"/>
          <path id="Caminho_89" data-name="Caminho 89" d="M11.87,29.09c.05-.25.1-.5.16-.74h-.1c-.14.55-.42.6-1,.59-.31,0-.61,0-.61-.34V27.41h.6c.35,0,.38.21.4.48h.11v-.54a5.15,5.15,0,0,1,0-.55h-.11c0,.26-.11.44-.4.43h-.6V25.9H11c.51,0,.6.25.62.56h.1v-.71H9.3v.11h0c.17,0,.38,0,.38.3v2.55c0,.27-.21.29-.38.3h0v.1h2.57m0,0H9.27v-.19h.09c.17,0,.34,0,.34-.25V26.13c0-.23-.16-.25-.34-.25H9.27v-.19h2.45V26a3.7,3.7,0,0,0,0,.49h0l-.17.05h0c0-.32-.07-.54-.57-.55h-.66v1.23h.56c.28,0,.33-.14.36-.41h.19v.57a5.06,5.06,0,0,0,0,.55h-.17c0-.3,0-.46-.36-.46h-.56v1.11c0,.3.25.3.57.3.59,0,.82,0,1-.58h.16c-.07.26-.12.52-.18.77h0Z"/>
          <path id="Caminho_90" data-name="Caminho 90" d="M13.34,27.35h.23c.49,0,.75-.18.75-.75a.65.65,0,0,0-.61-.71h-.37Zm-.63-1.13c0-.35-.19-.36-.34-.36h-.09v-.15h1.54c.61,0,1.16.17,1.16.86a.92.92,0,0,1-.68.86l.83,1.25a.59.59,0,0,0,.48.29v.14h-.94a13.66,13.66,0,0,1-1-1.58h-.32v1c0,.38.17.39.39.39h.09v.15H12.29V29h.09c.17,0,.34-.08.34-.27Z"/>
          <path id="Caminho_91" data-name="Caminho 91" d="M13.57,27.33c.49,0,.73-.17.73-.73a.63.63,0,0,0-.59-.69.17.17,0,0,0-.1,0h-.25v1.41Zm-.23,0h0V25.88h.29a.69.69,0,0,1,.73.65v.08c0,.58-.28.78-.77.78Zm0,.14h.33a15.94,15.94,0,0,0,1,1.57h.92V29a.55.55,0,0,1-.47-.3l-.84-1.27h0a.9.9,0,0,0,.67-.84c0-.68-.52-.84-1.14-.84H12.29v.1h.07c.15,0,.36,0,.36.4V28.7c0,.2-.18.29-.36.29H12.3v.1h1.51V29h-.07c-.22,0-.42,0-.42-.42V27.51Zm2.27,1.62h-.96a13.46,13.46,0,0,1-1-1.57h-.29v1c0,.37.15.37.37.37h.11v.19H12.3v-.19h.11c.17,0,.32-.08.32-.24V26.22c0-.34-.17-.34-.32-.34H12.3v-.19h1.54c.61,0,1.18.17,1.18.88a.92.92,0,0,1-.67.86l.82,1.23a.53.53,0,0,0,.46.28h0v.18Z"/>
          <path id="Caminho_92" data-name="Caminho 92" d="M18.91,28.15h0V26.31a.39.39,0,0,0-.42-.45h-.11v-.15h1.29v.15H19.6c-.21,0-.44,0-.44.62v2.21a4,4,0,0,0,0,.49H19l-2.51-2.8v2c0,.42.08.57.46.57H17v.14H15.71V29h.07c.34,0,.44-.23.44-.62V26.3a.44.44,0,0,0-.44-.44h-.07v-.14h1Z"/>
          <path id="Caminho_93" data-name="Caminho 93" d="M18.91,28.15Zm.1,1h.16a3.71,3.71,0,0,1,0-.47V26.47c0-.58.25-.64.46-.64h.06v-.1H18.45v.1h.08a.43.43,0,0,1,.45.41v1.91h0L16.79,25.7h-.97v.1h0a.47.47,0,0,1,.47.46h0v2.05c0,.39-.11.64-.46.64h-.05v.11h1.25V29H17c-.39,0-.48-.17-.48-.59V26.33Zm.18,0H19l-2.47-2.76v2c0,.42.07.54.44.54h.11v.19H15.79v-.19h.09c.32,0,.41-.2.41-.59V26.29a.41.41,0,0,0-.41-.41h-.09v-.19H16.8l2.14,2.41V26.3a.38.38,0,0,0-.41-.43H18.4v-.19h1.29v.19h-.1c-.2,0-.4,0-.41.6v2.21a3.91,3.91,0,0,0,0,.49h0Z"/>
          <path id="Caminho_94" data-name="Caminho 94" d="M21.16,26.25h0l-.45,1.38h.91Zm-.71,2.16a2.36,2.36,0,0,0-.1.38c0,.15.2.18.36.18h.06v.14h-.59a4.27,4.27,0,0,0-.52,0V29h0a.44.44,0,0,0,.42-.32l.78-2.24a4.24,4.24,0,0,0,.17-.61,2.57,2.57,0,0,0,.45-.2h0v.12l.9,2.56c.06.17.11.34.18.49A.32.32,0,0,0,23,29h0v.14H21.6V29h.05c.11,0,.3,0,.3-.15a1.46,1.46,0,0,0-.1-.34l-.19-.56h-1.1Z"/>
          <path id="Caminho_95" data-name="Caminho 95" d="M21.14,26.26Zm-.41,1.35h.85l-.42-1.3Zm-.06,0,.47-1.42h0l.46,1.42Zm1,1.44h1.36V29h0a.34.34,0,0,1-.35-.21,4.65,4.65,0,0,1-.17-.49l-.89-2.55-.05-.12h0a1.69,1.69,0,0,1-.43.2,4.63,4.63,0,0,1-.17.61l-.78,2.24a.47.47,0,0,1-.44.33h0v.1h1.07V29h0c-.15,0-.37,0-.38-.19a1.74,1.74,0,0,1,.11-.39h0l.16-.52h1.1l.2.58a1.61,1.61,0,0,1,.1.36c0,.15-.21.16-.32.16h0Zm1.38,0h-1.4v-.19h.08c.11,0,.28,0,.28-.12a1.4,1.4,0,0,0-.1-.35l-.18-.54H20.62l-.15.49a2.36,2.36,0,0,0-.1.38c0,.12.18.14.34.14h.08v.2h-1.1V29h.05a.42.42,0,0,0,.4-.3l.78-2.24a4.89,4.89,0,0,0,.19-.62,3,3,0,0,0,.44-.21h.05a.09.09,0,0,1,.06,0v.12l.9,2.55c.05.17.11.34.17.49a.28.28,0,0,0,.3.18h.05v.2Z"/>
          <path id="Caminho_96" data-name="Caminho 96" d="M23.26,26c-.36,0-.38.09-.45.45h-.15c0-.14.05-.28.06-.42a2.83,2.83,0,0,0,0-.41h.12c0,.14.16.14.29.14h2.51c.13,0,.26,0,.27-.15h.11a1.048,1.048,0,0,1-.05.39,1.076,1.076,0,0,0,0,.4l-.15.05c0-.17,0-.47-.36-.47h-.8v2.59c0,.37.18.42.41.42h.09v.14h-1.6V29h.1c.27,0,.4,0,.4-.41V26Z"/>
          <path id="Caminho_97" data-name="Caminho 97" d="M25.18,29.13H23.56v-.19h.12c.27,0,.37,0,.38-.39V26h.04v2.63c0,.39-.16.43-.42.43H23.6v.11h1.58V29h-.07c-.24,0-.43-.05-.43-.44V25.93h.82c.33,0,.37.28.38.46h.11V26a2.2,2.2,0,0,1,.01-.4h-.07c0,.14-.16.15-.29.15h-2.5c-.12,0-.24,0-.29-.14h-.08a2.56,2.56,0,0,1,0,.39q0,.21,0,.39h.1c.07-.34.11-.45.47-.44h0c-.36,0-.34.07-.43.43h-.18a1.183,1.183,0,0,1,.05-.41,2.83,2.83,0,0,0,0-.41h.16c0,.12.12.12.25.13h2.53c.14,0,.24,0,.24-.14h.13a1.128,1.128,0,0,1-.05.4,1.023,1.023,0,0,0,0,.39h0l-.17.06h0c0-.18,0-.44-.35-.44H24.7v2.57c0,.36.16.39.39.39h.11v.19Z"/>
          <path id="Caminho_98" data-name="Caminho 98" d="M26.23,29h.07c.17,0,.36,0,.36-.28V26.13c0-.25-.18-.27-.36-.27h-.07v-.15h1.49v.15h-.07c-.17,0-.36,0-.36.28v2.55c0,.25.18.28.36.28h.07v.14H26.23Z"/>
          <path id="Caminho_99" data-name="Caminho 99" d="M27.7,29.09V29h-.05c-.17,0-.38,0-.38-.3V26.13c0-.27.2-.3.38-.3h.05v-.1H26.26v.1h0c.17,0,.38,0,.38.3v2.55c0,.27-.21.3-.38.3h0v.11H27.7m0,0H26.21V28.9h.09c.17,0,.34,0,.34-.26V26.13c0-.23-.16-.25-.34-.25h-.09v-.19h1.48v.19h-.08c-.18,0-.35,0-.35.25v2.56c0,.23.16.25.35.25h.08v.19Z"/>
          <path id="Caminho_100" data-name="Caminho 100" d="M29.73,29c.95,0,1.11-.84,1.11-1.55s-.38-1.57-1.19-1.57-1.1.76-1.1,1.41c0,.86.39,1.71,1.18,1.71m-.07-3.33a1.71,1.71,0,0,1,1.86,1.68,1.79,1.79,0,0,1-1.7,1.86h-.14a1.72,1.72,0,0,1-1.82-1.75,1.76,1.76,0,0,1,1.74-1.79h.06"/>
          <path id="Caminho_101" data-name="Caminho 101" d="M28.52,27.26c0-.65.26-1.43,1.13-1.43s1.21.88,1.21,1.59S30.69,29,29.73,29h0c.92,0,1.08-.82,1.08-1.53s-.37-1.55-1.17-1.55-1.08.74-1.08,1.39c0,.86.4,1.68,1.17,1.69h0c-.81,0-1.21-.85-1.21-1.73m-.69.17a1.8,1.8,0,0,1,1.77-1.82h.06v.05a1.74,1.74,0,0,0-1.78,1.72v.05a1.7,1.7,0,0,0,1.8,1.73,1.77,1.77,0,0,0,1.82-1.85,1.68,1.68,0,0,0-1.84-1.65v-.05a1.73,1.73,0,0,1,1.88,1.7,1.81,1.81,0,0,1-1.73,1.89h-.13a1.75,1.75,0,0,1-1.84-1.77"/>
          <path id="Caminho_102" data-name="Caminho 102" d="M34.81,28.15h0V26.31a.4.4,0,0,0-.34-.45h-.19v-.15h1.28v.15H35.5c-.2,0-.43,0-.43.62v2.21a2.691,2.691,0,0,0,0,.49h-.19l-2.51-2.8v2c0,.42.08.57.45.57h.08v.14H31.61V29h.07c.34,0,.44-.23.44-.62V26.3a.44.44,0,0,0-.44-.44h-.07v-.15h.99Z"/>
          <path id="Caminho_103" data-name="Caminho 103" d="M34.81,28.15Zm.09,1h.16a3.7,3.7,0,0,1,0-.47V26.47c0-.58.24-.64.45-.64h.06v-.1H34.33v.1h.08a.43.43,0,0,1,.45.41v1.91h0L32.69,25.7h-.97v.1h0a.46.46,0,0,1,.46.46h0v2.05c0,.39-.11.64-.46.64h0v.11h1.25V29H32.9c-.38,0-.48-.17-.48-.59V26.32Zm.19,0h-.2l-2.47-2.76v2c0,.42.07.54.43.54H33v.19H31.71v-.19h.09c.32,0,.41-.2.42-.59V26.29a.42.42,0,0,0-.42-.42h-.09v-.18h1.01l2.14,2.41V26.3a.37.37,0,0,0-.4-.43h-.13v-.19h1.29v.19H35.5c-.2,0-.41,0-.42.59v2.22a4,4,0,0,0,0,.49h0Z"/>
          <path id="Caminho_104" data-name="Caminho 104" d="M37.06,26.25h0l-.45,1.38h.91Zm-.71,2.16a2.38,2.38,0,0,0-.11.38c0,.15.21.17.37.17h0v.15h-.59a4.43,4.43,0,0,0-.52,0V29h0a.45.45,0,0,0,.43-.32l.78-2.24A4.24,4.24,0,0,0,37,25.8a2.48,2.48,0,0,0,.44-.2h0v.12l.9,2.56c.06.17.12.34.18.49a.33.33,0,0,0,.32.2h0v.14h-1.4V29h.06c.11,0,.3,0,.3-.15a1.46,1.46,0,0,0-.1-.34l-.19-.56H36.5Z"/>
          <path id="Caminho_105" data-name="Caminho 105" d="M36.63,27.61h.85l-.43-1.3Zm-.06,0L37,26.23h0l.46,1.42Zm1,1.44h1.36V29h0a.33.33,0,0,1-.34-.21,4.65,4.65,0,0,1-.17-.49l-.9-2.55v-.12h0a1.69,1.69,0,0,1-.43.2,6.13,6.13,0,0,1-.18.61L36,28.66a.46.46,0,0,1-.45.33h0v.1h.51a5.329,5.329,0,0,1,.56,0V29h0c-.16,0-.38,0-.38-.19a2.79,2.79,0,0,1,.1-.39h0l.16-.51h1.14l.2.57a1.58,1.58,0,0,1,.09.36c0,.15-.21.16-.32.16h0Zm1.38,0h-1.4v-.19h.08c.11,0,.28,0,.28-.12a2,2,0,0,0-.1-.35l-.19-.54H36.51l-.15.49a1.64,1.64,0,0,0-.1.38c0,.12.18.15.34.15h.07v.19H35.56V29h0a.42.42,0,0,0,.4-.3l.78-2.24a4.89,4.89,0,0,0,.19-.62,3.1,3.1,0,0,0,.45-.21h0a.06.06,0,0,1,.06,0,.56.56,0,0,0,0,.12l.9,2.55c.06.17.11.34.17.49a.3.3,0,0,0,.3.18H39v.2Z"/>
          <path id="Caminho_106" data-name="Caminho 106" d="M40.17,28.63c0,.2.14.25.29.27a2.83,2.83,0,0,0,.65,0,.66.66,0,0,0,.46-.26,1.17,1.17,0,0,0,.16-.34h.14l-.18.82H39.12V29h.07c.17,0,.37,0,.37-.33V26.13c0-.25-.19-.27-.37-.27h-.07v-.15h1.51v.15h-.12c-.19,0-.33,0-.33.26Z"/>
          <path id="Caminho_107" data-name="Caminho 107" d="M41.67,29.09a4.462,4.462,0,0,1,.17-.79h-.1a1.19,1.19,0,0,1-.15.35.75.75,0,0,1-.48.27h-.65a.285.285,0,0,1-.31-.3v-2.5c0-.27.17-.29.34-.29h.11v-.1H39.13v.1h0c.18,0,.39,0,.39.3v2.51c0,.31-.21.34-.39.34h0v.1h2.53m0,0H39.1V28.9h.09c.17,0,.34,0,.34-.31v-2.5c0-.23-.17-.25-.34-.25H39.1v-.19h1.51v.19H40.5c-.18,0-.3,0-.3.24v2.51c0,.18.11.23.27.25h.27a2.36,2.36,0,0,0,.37,0,.66.66,0,0,0,.44-.25,1,1,0,0,0,.15-.34h.2l-.18.82h0Z"/>
          <path id="Caminho_108" data-name="Caminho 108" d="M41.72,26.08h.07c.06,0,.09,0,.09-.13a.1.1,0,0,0-.08-.11h-.08Zm-.17.28h.08V25.9a.072.072,0,0,0-.08-.07h.27c.09,0,.17,0,.17.14a.16.16,0,0,1-.12.15l.08.12.11.12H42s-.09-.11-.18-.24h-.06v.17h.08Zm.26.14a.415.415,0,1,0-.41-.41h0a.41.41,0,0,0,.41.42m0-.93a.51.51,0,0,1,.51.52.52.52,0,1,1-1,0,.5.5,0,0,1,.49-.52h0"/>
        </g>
      </g>
    </g>
  </g>
</svg>
