<svg id="pagamento-hipercard" xmlns="http://www.w3.org/2000/svg" width="49.87" height="21.711" viewBox="0 0 49.87 21.711">
  <g id="Layer_1" data-name="Layer 1">
    <path id="fundo" d="M13.695,0H8.525C6.245.109,4.357,1.031,3.834,2.9c-.283.988-.428,2.077-.654,3.1C2.062,11.248,1.075,16.6,0,21.711H40.235c3.108,0,5.243-.654,5.809-3.122.261-1.147.523-2.447.777-3.711C47.844,9.962,48.847,5.083,49.87,0Z" fill="#961b1e" fill-rule="evenodd"/>
    <path id="hipercard" d="M14.888,9.413c.218-.145.5-.821.174-1.1a.624.624,0,0,0-.508-.08.639.639,0,0,0-.428.225c-.138.189-.269.726-.051.958S14.75,9.493,14.888,9.413Zm-3.079-1.1c-.152,1.009-.334,1.99-.508,2.977-1.125,0-2.273.058-3.355,0,.2-.958.349-1.99.559-2.948H7.293C6.864,10.771,6.457,13.262,6,15.673H7.234c.2-1.234.37-2.491.624-3.631a29.908,29.908,0,0,1,3.333,0c-.211,1.227-.465,2.4-.661,3.631h1.234c.4-2.5.813-4.959,1.314-7.363Zm17.478,2.113a1.663,1.663,0,0,0-2.069.886c.08-.276.109-.6.174-.886h-.966c-.232,1.823-.574,3.529-.908,5.25h1.089a20.332,20.332,0,0,1,.552-3.376,1.518,1.518,0,0,1,1.99-1.089c.022-.261.087-.508.131-.784Zm.6,4.015a2.657,2.657,0,0,1-.094-1.009,3.536,3.536,0,0,1,.726-2.019,2.66,2.66,0,0,1,2.57-.145,5.541,5.541,0,0,1,.131-.857c-1.452-.24-2.846-.094-3.587.683a4.357,4.357,0,0,0-.857,3.58c.392,1.278,2.135,1.351,3.551.864.058-.254.1-.537.145-.806-.77.385-2.251.574-2.592-.29Zm12.177-3.986A1.652,1.652,0,0,0,40,11.258c.087-.247.094-.581.174-.835h-.966c-.254,1.8-.566,3.543-.929,5.25H39.4a11.689,11.689,0,0,1,.254-1.888c.24-1.452.566-3.057,2.273-2.578a5.625,5.625,0,0,1,.131-.755Zm-28.319,0v.08c-.232,1.779-.559,3.485-.908,5.17h1.075c.269-1.8.559-3.565.937-5.25Zm9.534-.094a2.8,2.8,0,0,0-1.917.784,4.357,4.357,0,0,0-.908,3.18c.2,1.743,2.367,1.685,4.11,1.263a6.922,6.922,0,0,1,.145-.864c-.726.261-1.961.646-2.7.174-.559-.349-.559-1.242-.385-2.011,1.169-.044,2.389,0,3.558,0a3.631,3.631,0,0,0,.094-1.7c-.2-.741-1.082-.929-1.975-.857Zm1.031,1.91H21.786A1.5,1.5,0,0,1,23.238,11c.77-.058,1.329.261,1.1,1.234Zm-5.141-1.815a2.846,2.846,0,0,0-2.512.465h0c0-.167.065-.283.073-.45h-.915c-.392,2.585-.85,5.083-1.329,7.581H15.57c.16-.966.269-1.982.479-2.9.247.966,1.859.777,2.549.407,1.4-.784,2.483-4.422.6-5.126Zm-.828,4.233c-.574.617-2,.6-2.113-.436a4.952,4.952,0,0,1,.211-1.387c.087-.472.145-.922.225-1.343.566-.69,2.251-.784,2.418.385A3.8,3.8,0,0,1,18.344,14.685ZM46.111,8.15a23.585,23.585,0,0,1-.385,2.345c-2.665-.842-4.284,1.118-4.255,3.536a1.932,1.932,0,0,0,.363,1.271,2.454,2.454,0,0,0,2.672.225,2.178,2.178,0,0,0,.385-.385c.065-.087.182-.319.2-.254a5.04,5.04,0,0,0-.094.784h.973a66.166,66.166,0,0,1,1.22-7.508H46.1Zm-2.433,6.935c-.726,0-1.1-.443-1.111-1.184,0-1.314.552-2.774,1.714-2.9a2.9,2.9,0,0,1,1.343.2C45.254,12.674,45.378,15.055,43.679,15.085Zm-9.36-4.662c-.051.3-.138.574-.2.864.632-.16,2.629-.654,2.817.2a1.452,1.452,0,0,1-.131.806c-1.8-.167-3.268.123-3.631,1.409a1.59,1.59,0,0,0,.581,1.939,2.418,2.418,0,0,0,2.745-.784,3.463,3.463,0,0,0-.073.806h.929a14.065,14.065,0,0,1,.276-2.418,10.122,10.122,0,0,0,.319-1.968C37.9,9.9,35.6,10.386,34.319,10.423Zm1.772,4.241c-.559.552-2.128.726-1.968-.61.138-1.082,1.314-1.307,2.592-1.155A3.275,3.275,0,0,1,36.091,14.663Z" transform="translate(-1.643 -2.232)" fill="#fff" fill-rule="evenodd"/>
  </g>
</svg>
