<svg id="pagamento-boleto" xmlns="http://www.w3.org/2000/svg" width="36.255" height="23.931" viewBox="0 0 36.255 23.931">
  <g id="Camada_1" data-name="Camada 1">
    <rect id="Retângulo_21" data-name="Retângulo 21" width="0.957" height="23.931" fill="#141313"/>
    <rect id="Retângulo_22" data-name="Retângulo 22" width="2.513" height="15.954" transform="translate(1.954)" fill="#141313"/>
    <rect id="Retângulo_23" data-name="Retângulo 23" width="0.941" height="15.954" transform="translate(5.703)" fill="#141313"/>
    <rect id="Retângulo_24" data-name="Retângulo 24" width="0.582" height="15.954" transform="translate(7.817)" fill="#141313"/>
    <rect id="Retângulo_25" data-name="Retângulo 25" width="0.287" height="15.954" transform="translate(10.139)" fill="#141313"/>
    <rect id="Retângulo_26" data-name="Retângulo 26" width="0.287" height="15.954" transform="translate(10.992)" fill="#141313"/>
    <rect id="Retângulo_27" data-name="Retângulo 27" width="0.598" height="15.954" transform="translate(11.734)" fill="#141313"/>
    <rect id="Retângulo_28" data-name="Retângulo 28" width="1.468" height="15.954" transform="translate(14.239)" fill="#141313"/>
    <rect id="Retângulo_29" data-name="Retângulo 29" width="0.598" height="15.954" transform="translate(16.4)" fill="#141313"/>
    <rect id="Retângulo_30" data-name="Retângulo 30" width="2.999" height="15.954" transform="translate(18.331)" fill="#141313"/>
    <rect id="Retângulo_31" data-name="Retângulo 31" width="0.885" height="15.954" transform="translate(22.567)" fill="#141313"/>
    <rect id="Retângulo_32" data-name="Retângulo 32" width="0.582" height="15.954" transform="translate(24.553)" fill="#141313"/>
    <rect id="Retângulo_33" data-name="Retângulo 33" width="0.287" height="15.954" transform="translate(26.906)" fill="#141313"/>
    <rect id="Retângulo_34" data-name="Retângulo 34" width="0.287" height="15.954" transform="translate(27.863)" fill="#141313"/>
    <rect id="Retângulo_35" data-name="Retângulo 35" width="0.582" height="15.954" transform="translate(28.597)" fill="#141313"/>
    <rect id="Retângulo_36" data-name="Retângulo 36" width="1.627" height="15.954" transform="translate(30.95)" fill="#141313"/>
    <rect id="Retângulo_37" data-name="Retângulo 37" width="0.55" height="15.954" transform="translate(33.184)" fill="#141313"/>
    <rect id="Retângulo_38" data-name="Retângulo 38" width="0.654" height="23.931" transform="translate(34.835)" fill="#141313"/>
    <rect id="Retângulo_39" data-name="Retângulo 39" width="0.231" height="23.931" transform="translate(36.024)" fill="#141313"/>
    <path id="Caminho_63" data-name="Caminho 63" d="M2.65,21.639H4.915a5.312,5.312,0,0,1,1.005.056,1.364,1.364,0,0,1,.59.263,1.6,1.6,0,0,1,.407,2.058,1.34,1.34,0,0,1-.582.55,1.46,1.46,0,0,1,.8.566,1.524,1.524,0,0,1,.263.941,1.986,1.986,0,0,1-.175.8,1.492,1.492,0,0,1-.495.638,1.6,1.6,0,0,1-.8.287,12.308,12.308,0,0,1-1.38.04H2.65ZM3.8,22.668V24.12H5.322a.8.8,0,0,0,.463-.223.7.7,0,0,0,.175-.487.662.662,0,0,0-.144-.471.646.646,0,0,0-.375-.215H4.469Zm0,2.481v1.667H4.86a3.191,3.191,0,0,0,.8-.048.71.71,0,0,0,.423-.247.8.8,0,0,0,.16-.534,1.061,1.061,0,0,0-.12-.479.718.718,0,0,0-.359-.287,3.446,3.446,0,0,0-1.037-.1Z" transform="translate(-0.536 -4.377)" fill="#141313"/>
    <path id="Caminho_64" data-name="Caminho 64" d="M9.509,24.752a4.22,4.22,0,0,1,.263-1.6,3.191,3.191,0,0,1,.518-.854,2.265,2.265,0,0,1,.726-.566,2.656,2.656,0,0,1,1.22-.247,2.529,2.529,0,0,1,2,.854,3.478,3.478,0,0,1,.75,2.393,3.494,3.494,0,0,1-.742,2.393,2.5,2.5,0,0,1-1.954.814,2.529,2.529,0,0,1-2-.854A3.422,3.422,0,0,1,9.509,24.752Zm1.189,0a2.433,2.433,0,0,0,.447,1.6,1.428,1.428,0,0,0,2.018.231,1.6,1.6,0,0,0,.231-.231,2.5,2.5,0,0,0,.439-1.6,2.481,2.481,0,0,0-.423-1.6,1.5,1.5,0,0,0-2.09-.191,1.045,1.045,0,0,0-.183.191,2.449,2.449,0,0,0-.439,1.6Z" transform="translate(-1.923 -4.347)" fill="#141313"/>
    <path id="Caminho_65" data-name="Caminho 65" d="M17.56,27.88V21.69h1.149v5.137H21.54v1.045Z" transform="translate(-3.553 -4.388)" fill="#141313"/>
    <path id="Caminho_66" data-name="Caminho 66" d="M23.58,27.87V21.64h4.2v1.085H24.713V24.1h2.84v1.013h-2.84v1.7H27.9v1.045Z" transform="translate(-4.77 -4.378)" fill="#141313"/>
    <path id="Caminho_67" data-name="Caminho 67" d="M31.353,27.87V22.725H29.67V21.64h4.5v1.085H32.5V27.9Z" transform="translate(-6.003 -4.378)" fill="#141313"/>
    <path id="Caminho_68" data-name="Caminho 68" d="M35.758,24.752a4.379,4.379,0,0,1,.263-1.6,2.7,2.7,0,0,1,.534-.854,2.393,2.393,0,0,1,.726-.566,2.68,2.68,0,0,1,1.22-.247,2.529,2.529,0,0,1,2,.854,3.518,3.518,0,0,1,.75,2.393,3.486,3.486,0,0,1-.734,2.393,2.521,2.521,0,0,1-1.986.854,2.577,2.577,0,0,1-2.018-.854,3.334,3.334,0,0,1-.758-2.377Zm1.189,0a2.433,2.433,0,0,0,.455,1.6,1.428,1.428,0,0,0,2.018.231,2.114,2.114,0,0,0,.231-.231,2.553,2.553,0,0,0,.431-1.6,2.481,2.481,0,0,0-.423-1.6,1.484,1.484,0,0,0-2.114-.231,1.085,1.085,0,0,0-.191.191,2.489,2.489,0,0,0-.439,1.6Z" transform="translate(-7.232 -4.347)" fill="#141313"/>
  </g>
</svg>
