<svg id="rodape-instagram" xmlns="http://www.w3.org/2000/svg" width="22.426" height="22.43" viewBox="0 0 22.426 22.43">
  <path id="Caminho_171" data-name="Caminho 171" d="M22.817,6.594A8.2,8.2,0,0,0,22.3,3.873,5.746,5.746,0,0,0,19.014.592,8.217,8.217,0,0,0,16.293.07C15.092.013,14.711,0,11.666,0S8.239.013,7.043.066A8.2,8.2,0,0,0,4.322.587a5.473,5.473,0,0,0-1.989,1.3A5.522,5.522,0,0,0,1.04,3.869,8.218,8.218,0,0,0,.519,6.59c-.057,1.2-.07,1.582-.07,4.627s.013,3.426.066,4.623a8.2,8.2,0,0,0,.522,2.721,5.745,5.745,0,0,0,3.282,3.282,8.218,8.218,0,0,0,2.721.521c1.2.053,1.577.066,4.623.066s3.426-.013,4.623-.066a8.194,8.194,0,0,0,2.721-.521,5.737,5.737,0,0,0,3.282-3.282,8.224,8.224,0,0,0,.521-2.721c.053-1.2.066-1.577.066-4.623s0-3.426-.057-4.623ZM20.8,15.752a6.148,6.148,0,0,1-.386,2.081,3.721,3.721,0,0,1-2.13,2.13,6.17,6.17,0,0,1-2.081.385c-1.183.053-1.538.066-4.531.066s-3.352-.013-4.531-.066a6.145,6.145,0,0,1-2.081-.385,3.451,3.451,0,0,1-1.288-.837,3.487,3.487,0,0,1-.837-1.288,6.171,6.171,0,0,1-.385-2.081c-.053-1.183-.066-1.538-.066-4.531s.013-3.352.066-4.531a6.145,6.145,0,0,1,.385-2.081,3.409,3.409,0,0,1,.841-1.288,3.482,3.482,0,0,1,1.288-.837A6.174,6.174,0,0,1,7.144,2.1c1.183-.053,1.538-.066,4.531-.066s3.352.013,4.531.066a6.148,6.148,0,0,1,2.081.386,3.449,3.449,0,0,1,1.288.837,3.486,3.486,0,0,1,.837,1.288A6.173,6.173,0,0,1,20.8,6.7c.053,1.183.066,1.538.066,4.531s-.013,3.343-.066,4.526Zm0,0" transform="translate(-0.449 0)" fill="#fff"/>
  <path id="Caminho_172" data-name="Caminho 172" d="M130.711,124.5a5.762,5.762,0,1,0,5.762,5.762A5.763,5.763,0,0,0,130.711,124.5Zm0,9.5a3.738,3.738,0,1,1,3.738-3.738A3.738,3.738,0,0,1,130.711,134Zm0,0" transform="translate(-119.494 -119.045)" fill="#fff"/>
  <path id="Caminho_173" data-name="Caminho 173" d="M365.14,89.947a1.345,1.345,0,1,1-1.345-1.345A1.345,1.345,0,0,1,365.14,89.947Zm0,0" transform="translate(-346.588 -84.72)" fill="#fff"/>
</svg>
