<svg id="rodape-facebook-logo" xmlns="http://www.w3.org/2000/svg" width="12.127" height="22.43" viewBox="0 0 12.127 22.43">
  <path id="Caminho_177" data-name="Caminho 177" d="M33.747,0,30.838,0c-3.268,0-5.38,2.167-5.38,5.52V8.065H22.534a.457.457,0,0,0-.457.458V12.21a.457.457,0,0,0,.457.457h2.925v9.3a.457.457,0,0,0,.457.457h3.816a.457.457,0,0,0,.457-.457v-9.3h3.419a.457.457,0,0,0,.457-.457V8.523a.458.458,0,0,0-.458-.458H30.189V5.908c0-1.037.247-1.563,1.6-1.563h1.959a.457.457,0,0,0,.457-.457V.462A.458.458,0,0,0,33.747,0Z" transform="translate(-22.077)" fill="#fff"/>
</svg>
