<svg xmlns="http://www.w3.org/2000/svg" width="30.867" height="27.27" viewBox="0 0 30.867 27.27">
  <path id="sacola" d="M26.948,45.005h-.322v-8.1H22.332V33.752a3.923,3.923,0,0,0-3.919-3.919H12.454a3.923,3.923,0,0,0-3.919,3.919v3.155H4.24v8.1H3.919A3.923,3.923,0,0,0,0,48.924v4.26A3.923,3.923,0,0,0,3.919,57.1H26.948a3.923,3.923,0,0,0,3.919-3.919v-4.26A3.923,3.923,0,0,0,26.948,45.005Zm2.11,8.179a2.112,2.112,0,0,1-2.11,2.11h-.322v-8.48h.322a2.112,2.112,0,0,1,2.11,2.11ZM9.907,55.294V49.185a2.112,2.112,0,0,1,2.11-2.11H18.85a2.112,2.112,0,0,1,2.11,2.11v6.109H9.907ZM18.85,45.266H12.017A3.923,3.923,0,0,0,8.1,49.185v6.109H6.049V38.715H8.535v3.6h1.809v-3.6h10.18v3.6h1.809v-3.6h2.486V55.294h-2.05V49.185A3.923,3.923,0,0,0,18.85,45.266ZM1.809,53.184v-4.26a2.112,2.112,0,0,1,2.11-2.11H4.24v8.48H3.919A2.112,2.112,0,0,1,1.809,53.184Zm8.535-19.432a2.112,2.112,0,0,1,2.11-2.11h5.959a2.112,2.112,0,0,1,2.11,2.11v3.155H10.344Z" transform="translate(0 -29.833)" fill="#72d0e9"/>
</svg>
