<svg xmlns="http://www.w3.org/2000/svg" width="32" height="32" viewBox="0 0 32 32">
  <g id="seta-vitrine-direita" transform="translate(-1593 -1134)">
    <g id="Retângulo_311" data-name="Retângulo 311" transform="translate(1625 1166) rotate(180)" fill="#fff" stroke="#242424" stroke-width="1">
      <rect width="32" height="32" rx="16" stroke="none"/>
      <rect x="0.5" y="0.5" width="31" height="31" rx="15.5" fill="none"/>
    </g>
    <g id="direita" transform="translate(1613.157 1157) rotate(180)">
      <g id="right-arrow_1_" data-name="right-arrow (1)" transform="translate(8.315 14.153) rotate(180)">
        <g id="Grupo_317" data-name="Grupo 317">
          <path id="Caminho_273" data-name="Caminho 273" d="M8.089,6.524l-6.3-6.3A.776.776,0,0,0,.7.226L.232.69a.775.775,0,0,0,0,1.095L5.521,7.073.226,12.368a.776.776,0,0,0,0,1.1l.464.464a.776.776,0,0,0,1.095,0l6.3-6.3a.781.781,0,0,0,0-1.1Z" fill="#242424"/>
        </g>
      </g>
    </g>
  </g>
</svg>
