<svg xmlns="http://www.w3.org/2000/svg" width="32.224" height="36" viewBox="0 0 32.224 36">
  <g id="topo-login" transform="translate(-24.165)">
    <g id="Grupo_142" data-name="Grupo 142" transform="translate(30.932)">
      <g id="Grupo_141" data-name="Grupo 141" transform="translate(0)">
        <path id="Caminho_24" data-name="Caminho 24" d="M120.138,0a9.347,9.347,0,1,0,9.347,9.347A9.372,9.372,0,0,0,120.138,0Z" transform="translate(-110.791)" fill="#2f5493"/>
      </g>
    </g>
    <g id="Grupo_144" data-name="Grupo 144" transform="translate(24.165 19.363)">
      <g id="Grupo_143" data-name="Grupo 143" transform="translate(0)">
        <path id="Caminho_25" data-name="Caminho 25" d="M56.32,254.641a8.713,8.713,0,0,0-.939-1.714,11.618,11.618,0,0,0-8.041-5.061,1.721,1.721,0,0,0-1.184.286,9.963,9.963,0,0,1-11.755,0,1.531,1.531,0,0,0-1.184-.286,11.534,11.534,0,0,0-8.041,5.061,10.047,10.047,0,0,0-.939,1.714.868.868,0,0,0,.041.776,16.284,16.284,0,0,0,1.1,1.633,15.512,15.512,0,0,0,1.878,2.122,24.453,24.453,0,0,0,1.878,1.633,18.613,18.613,0,0,0,22.2,0,17.935,17.935,0,0,0,1.878-1.633,18.845,18.845,0,0,0,1.878-2.122,14.311,14.311,0,0,0,1.1-1.633A.7.7,0,0,0,56.32,254.641Z" transform="translate(-24.165 -247.841)" fill="#2f5493"/>
      </g>
    </g>
  </g>
</svg>
