<?xml version="1.0" encoding="utf-8"?>
<!-- Generator: Adobe Illustrator 25.4.1, SVG Export Plug-In . SVG Version: 6.00 Build 0)  -->
<svg version="1.1" id="Camada_1" xmlns="http://www.w3.org/2000/svg" xmlns:xlink="http://www.w3.org/1999/xlink" x="0px" y="0px"
	 viewBox="0 0 56 56" style="enable-background:new 0 0 56 56;" xml:space="preserve">
<style type="text/css">
	.st0{fill:none;}
	.st1{fill:#72D0E9;}
	.st2{fill:#ED6BBC;}
</style>
<g id="WHATSAPP" transform="translate(-433 -3398)">
	<g id="Elipse_5" transform="translate(433 3398)">
		<g>
			<circle class="st0" cx="28" cy="28" r="28"/>
		</g>
		<g>
			<path class="st1" d="M28,56C12.6,56,0,43.4,0,28C0,12.6,12.6,0,28,0s28,12.6,28,28C56,43.4,43.4,56,28,56z M28,2
				C13.7,2,2,13.7,2,28s11.7,26,26,26c14.3,0,26-11.7,26-26S42.3,2,28,2z"/>
		</g>
	</g>
	<g id="Grupo_515" transform="translate(447.397 3412.602)">
		<g id="Grupo_513" transform="translate(6.167 6.17)">
			<g id="Grupo_90">
				<g id="Caminho_148">
					<path class="st2" d="M13.7,9.7l-2.1-1.6C11,7.6,10,7.7,9.4,8.3L8.6,9.1C7.9,8.9,7.4,8.6,6.9,8.2L6.8,8.2C6.6,8,6.4,7.8,6.3,7.6
						L6.2,7.6C5.8,7.1,5.5,6.5,5.4,5.9l0.8-0.8c0.6-0.6,0.7-1.6,0.2-2.3L4.8,0.7C4.2,0,3.3-0.2,2.5,0.2L2.3,0.3C0.9,0.9,0,2.2,0,3.7
						C0,6.2,0.8,8.6,2.4,10.5l0.1,0.1c0.4,0.5,0.8,0.9,1.3,1.3L3.9,12c1.8,1.6,4.2,2.4,6.6,2.4h0.2c1.5,0,2.8-0.9,3.4-2.3l0.1-0.2
						C14.6,11.1,14.4,10.2,13.7,9.7z M13.1,11.4L13.1,11.4L13,11.6c-0.4,0.9-1.3,1.5-2.2,1.5h-0.2c-2.1,0-4.1-0.7-5.7-2.1l-0.1-0.1
						c-0.4-0.3-0.8-0.7-1.1-1.1L3.4,9.6C2.1,8,1.3,5.9,1.4,3.7c0-1,0.6-1.8,1.5-2.2l0.2-0.1c0.2-0.1,0.4,0,0.6,0.2l1.6,2.1
						c0.1,0.2,0.1,0.4,0,0.5L4.2,5.2C4,5.4,3.9,5.6,4,5.8c0.2,1,0.6,1.9,1.2,2.7l0.1,0.1C5.5,8.8,5.7,9,5.9,9.2L6,9.3
						c0.8,0.6,1.7,1.1,2.7,1.2c0.2,0,0.4,0,0.6-0.2l1.1-1.1c0.1-0.1,0.4-0.2,0.5,0l2.1,1.6C13.1,10.9,13.1,11.2,13.1,11.4L13.1,11.4
						z"/>
				</g>
			</g>
		</g>
		<g id="Grupo_514" transform="translate(0)">
			<g id="Grupo_92" transform="translate(0 0)">
				<g id="Caminho_149">
					<path class="st2" d="M22.9,3.9c-5.2-5.2-13.7-5.2-19,0c-2.1,2.1-3.5,4.9-3.8,7.9c-0.3,2.8,0.2,5.7,1.6,8.2l-1.1,3.9
						c-0.3,1,0.3,2,1.3,2.3c0.3,0.1,0.7,0.1,1,0l3.9-1.1c6.4,3.6,14.6,1.3,18.3-5.1C28,14.7,27.1,8.2,22.9,3.9z M21.9,21.9
						c-1.9,1.9-4.4,3.1-7.1,3.4c-2.6,0.3-5.3-0.3-7.6-1.6c-0.2-0.1-0.4-0.1-0.5-0.1l-4.2,1.2C2.3,25,2,24.8,1.9,24.6
						c0-0.1,0-0.2,0-0.3l1.2-4.2c0.1-0.2,0-0.4-0.1-0.5C-0.4,13.8,1.5,6.5,7.2,3.1s13.1-1.5,16.5,4.2C26.6,12,25.8,18,21.9,21.9z"/>
				</g>
			</g>
		</g>
	</g>
</g>
</svg>
